<svg xmlns="http://www.w3.org/2000/svg" width="333.564" height="130.54" viewBox="0 0 333.564 130.54">
  <g id="グループ_14896" data-name="グループ 14896" transform="translate(7332.605 360.272)">
    <line id="線_635" data-name="線 635" x2="276" transform="translate(-7303.5 -337.5)" fill="none" stroke="#b7ce50" stroke-width="11"/>
    <path id="パス_41815" data-name="パス 41815" d="M-45.99,2.16a4.388,4.388,0,0,1-2.58-.57,2.188,2.188,0,0,1-.75-1.86V-2.64h-8.1V-13.59h19.98V-2.64h-8.22v.9a.814.814,0,0,0,.225.645,1.42,1.42,0,0,0,.885.2h6.33a2.852,2.852,0,0,0,1.215-.21,1.4,1.4,0,0,0,.66-.87A9.117,9.117,0,0,0-36-3.96a9.844,9.844,0,0,0,.99.45q.6.24,1.245.45t1.125.33a14.766,14.766,0,0,1-.585,2.7,3.5,3.5,0,0,1-.855,1.455,2.487,2.487,0,0,1-1.275.6,11.016,11.016,0,0,1-1.875.135ZM-60.9-14.91v-2.82h7.35q-.15-.57-.36-1.2t-.42-1.2h-4.5v-2.88h9.63v-2.46h3.81v2.46h9.81v2.88h-4.56q-.15.57-.36,1.2t-.39,1.2h7.26v2.82Zm11.49-2.82h4.38q.18-.57.39-1.215t.36-1.185h-5.91q.21.54.4,1.17T-49.41-17.73Zm3.75,12.42h4.56V-6.96h-4.56Zm0-3.99h4.56v-1.62h-4.56Zm-8.07,3.99h4.41V-6.96h-4.41Zm0-3.99h4.41v-1.62h-4.41ZM-26.07,1.95V-7.14h7.35q.18-.51.375-1.14T-18-9.45h-5.7v-8.1H-7.86v8.1h-6.06q-.15.54-.345,1.17t-.405,1.14h9.21V1.95Zm-3-17.16v-7.23h11.28v-2.85h3.9v2.85H-2.43v7.2H-5.94v-4.2H-25.5v4.23Zm6.63,14.13H-9.09V-4.11H-22.44Zm2.19-11.1h8.97v-2.64h-8.97ZM2.28,1.44V-1.59H13.92V-3.51H5.64V-6.48h8.28v-1.8H8.07v-7.71H23.52v7.71H17.58v1.8h8.16v2.97H17.58v1.92H29.22V1.44Zm.3-14.58v-7.17H8.34q-.33-.57-.75-1.215T6.8-22.74a7.553,7.553,0,0,0-.645-.87L9.3-25.26a11.589,11.589,0,0,1,.96,1.245q.57.825,1.08,1.635a12.042,12.042,0,0,1,.69,1.2,6.469,6.469,0,0,0-.75.375q-.45.255-.93.5h3.51v-5.01h3.78v5.01h3.6q-.48-.24-.975-.435t-.855-.315a12.794,12.794,0,0,0,.825-1.335q.435-.8.84-1.59a10.127,10.127,0,0,0,.585-1.335l3.39,1.35q-.15.36-.48,1.005t-.72,1.35q-.39.7-.75,1.305h5.85v7.17H25.38v-4.23H6.18v4.23Zm9,2.07h8.43V-13.2H11.58ZM49.56.27a5.77,5.77,0,0,0-.45-1.14,9.781,9.781,0,0,0-.765-1.275,6.465,6.465,0,0,0-.855-1,11.286,11.286,0,0,0,6.255-2.685A6.932,6.932,0,0,0,56.01-10.68a7.4,7.4,0,0,0-.81-3.96,7.74,7.74,0,0,0-2.535-2.82,7.73,7.73,0,0,0-3.525-1.29,42.069,42.069,0,0,1-.9,5.7,29.85,29.85,0,0,1-1.785,5.46A15.748,15.748,0,0,1,43.71-3.27a4.545,4.545,0,0,1-2.385,1.53,4.278,4.278,0,0,1-2.445-.33,5.837,5.837,0,0,1-2.22-1.71,8.269,8.269,0,0,1-1.47-2.775,9.687,9.687,0,0,1-.42-3.435,12.51,12.51,0,0,1,1.29-5A12.553,12.553,0,0,1,39.12-18.9a13.134,13.134,0,0,1,4.41-2.49,14.12,14.12,0,0,1,5.31-.69,11.939,11.939,0,0,1,4.29,1.02,11.188,11.188,0,0,1,3.525,2.475,11.167,11.167,0,0,1,2.34,3.645,10.385,10.385,0,0,1,.675,4.53,10.346,10.346,0,0,1-2.88,6.885A13.974,13.974,0,0,1,49.56.27ZM39.81-5.79a1.156,1.156,0,0,0,.69.24,1.037,1.037,0,0,0,.72-.36,10.587,10.587,0,0,0,1.995-3.06,24.873,24.873,0,0,0,1.53-4.47,29.735,29.735,0,0,0,.8-5.07,9.257,9.257,0,0,0-3.675,1.74,9.291,9.291,0,0,0-2.535,3.045A9.531,9.531,0,0,0,38.28-9.81a5.651,5.651,0,0,0,.375,2.445A3.7,3.7,0,0,0,39.81-5.79Z" transform="translate(-7165.05 -282.194)"/>
    <path id="パス_41816" data-name="パス 41816" d="M-145.445,2.432a56.419,56.419,0,0,1-6.783-.342,17.716,17.716,0,0,1-4.579-1.1,9.287,9.287,0,0,1-3.04-1.976q-.722.494-1.691,1.1t-1.976,1.216q-1.007.608-1.843,1.064L-167.105-1.9q1.14-.418,2.527-1.026t2.413-1.14V-13.49h-4.18v-3.952h8.36v13a4.3,4.3,0,0,0,2.964,2.356q-.266-.418-.57-.855a8.349,8.349,0,0,0-.608-.779,24.6,24.6,0,0,0,3.078-.855q1.6-.551,3-1.2H-154.6V-18.62h18.848V-5.776h-4.256a27.442,27.442,0,0,0,3.059,1.254,25.176,25.176,0,0,0,3.135.874q-.38.456-.8,1.064a12.337,12.337,0,0,0-.722,1.178q1.178-.076,2.147-.171t1.767-.209a8.135,8.135,0,0,0-.4,1.2q-.209.779-.361,1.577t-.228,1.368q-1.064,0-2.774.019l-3.629.038q-1.919.019-3.667.019Zm-12.2-22.154V-22.61h10.412v-1.1H-155.1v-6.5h7.866v-1.976h4.1v1.976h7.866v6.5h-7.866v1.1h10.792v2.888Zm-1.71-3.04a19.322,19.322,0,0,0-1.843-1.9q-1.121-1.026-2.337-1.976a17.588,17.588,0,0,0-2.242-1.52l2.622-3.04a22.567,22.567,0,0,1,2.223,1.463q1.273.931,2.47,1.938a24.075,24.075,0,0,1,1.919,1.767q-.342.3-.912.931t-1.1,1.273A11.457,11.457,0,0,0-159.353-22.762ZM-145.445-1.14q2.242,0,4.218-.057t3.61-.1q-1.634-.608-3.249-1.387a32.293,32.293,0,0,1-3.021-1.653l1.216-1.444h-4.712l1.178,1.406a31.6,31.6,0,0,1-2.831,1.577q-1.5.741-3.021,1.311A53.813,53.813,0,0,0-145.445-1.14Zm-5.016-7.182H-139.9V-9.576h-10.564Zm0-3.382H-139.9V-12.92h-10.564Zm0-3.382H-139.9v-1.178h-10.564Zm7.334-11.1h3.762V-27.74h-3.762Zm-7.828,0h3.724V-27.74h-3.724Zm30.134,9.652V-30.438h19.266V-16.53Zm11.172,18.088V-13.68h14.63V1.558Zm-17.632,0V-13.68h14.592V1.558Zm11.058-21.926h10.032v-6.194h-10.032Zm10.982,18.012h5.852V-9.614h-5.852Zm-17.632,0h5.776V-9.614h-5.776Zm64.068,5.624a39.064,39.064,0,0,1-3.762-1.235A41.4,41.4,0,0,1-66.538.285,31.871,31.871,0,0,1-69.825-1.6l1.558-1.786h-9.842L-76.551-1.6A26.875,26.875,0,0,1-79.8.266q-1.919.95-3.99,1.729A38.663,38.663,0,0,1-87.609,3.23a12.162,12.162,0,0,0-1.064-1.881A9.809,9.809,0,0,0-90.041-.342q1.254-.266,2.793-.722t3.135-1.064q1.6-.608,2.926-1.254h-3.952V-19.76h24.054V-3.382h-4.142q1.33.646,2.926,1.254t3.173,1.064q1.577.456,2.793.722a10.428,10.428,0,0,0-1.387,1.691A10.673,10.673,0,0,0-58.805,3.268ZM-88.9-21.47v-9.31h31.464v9.31Zm8.322,15.048h14.934v-1.71H-80.579Zm0-4.37h14.934v-1.672H-80.579Zm0-4.332h14.934v-1.558H-80.579ZM-84.493-24.7h4.712v-2.812h-4.712Zm18.05,0h4.674v-2.812h-4.674Zm-8.892,0h4.446v-2.812h-4.446Zm34.5,27.626V-4.636q-1.1.418-2.565.912t-3.04.988q-1.577.494-2.983.912t-2.394.684l-1.292-4.18q.494-.076,1.33-.285l1.9-.475V-26.638h-2.66v-3.99h18.582v2.66h14.516q-.494,11.02-5.016,18.848a25.435,25.435,0,0,0,3.477,3.8,26.757,26.757,0,0,0,4.161,3.04,15.4,15.4,0,0,0-1.71,1.767,14.693,14.693,0,0,0-1.406,1.919,37.67,37.67,0,0,1-3.8-3.116,31.926,31.926,0,0,1-3.306-3.61,34.115,34.115,0,0,1-7.106,6.764,14.751,14.751,0,0,0-.893-1.2,17.766,17.766,0,0,0-1.273-1.425v4.1Zm4.522-5.244A28.015,28.015,0,0,0-32.547-5.4a26.421,26.421,0,0,0,3.04-3.534,36.017,36.017,0,0,1-2.869-6.213,36.754,36.754,0,0,1-1.691-6.935L-30-22.8a28.4,28.4,0,0,0,3,9.652,30.184,30.184,0,0,0,1.919-5.3,30,30,0,0,0,.893-5.415H-34.561v-2.774h-1.748Zm-9.044-4.9q1.33-.342,2.508-.665t2.014-.589v-3.192h-4.522Zm0-8.208h4.522v-3.724h-4.522Zm0-7.486h4.522v-3.724h-4.522ZM1.577-.988H-1.577V-11.894H-12.483v-3.154H-1.539V-25.992H1.615v10.906l10.906.038v3.116l-10.906.038Zm37.316,3.42A56.419,56.419,0,0,1,32.11,2.09a17.716,17.716,0,0,1-4.579-1.1,9.288,9.288,0,0,1-3.04-1.976q-.722.494-1.691,1.1T20.824,1.33q-1.007.608-1.843,1.064L17.233-1.9q1.14-.418,2.527-1.026t2.413-1.14V-13.49h-4.18v-3.952h8.36v13A4.3,4.3,0,0,0,29.317-2.09q-.266-.418-.57-.855a8.349,8.349,0,0,0-.608-.779,24.6,24.6,0,0,0,3.078-.855q1.6-.551,3-1.2H29.735V-18.62H48.583V-5.776H44.327a27.443,27.443,0,0,0,3.059,1.254,25.175,25.175,0,0,0,3.135.874q-.38.456-.8,1.064A12.337,12.337,0,0,0,49-1.406q1.178-.076,2.147-.171t1.767-.209a8.135,8.135,0,0,0-.4,1.2Q52.307.19,52.155.988t-.228,1.368q-1.064,0-2.774.019l-3.629.038q-1.919.019-3.667.019Zm-12.2-22.154V-22.61H37.107v-1.1H29.241v-6.5h7.866v-1.976h4.1v1.976h7.866v6.5H41.211v1.1H52v2.888Zm-1.71-3.04a19.321,19.321,0,0,0-1.843-1.9q-1.121-1.026-2.337-1.976a17.588,17.588,0,0,0-2.242-1.52l2.622-3.04a22.567,22.567,0,0,1,2.223,1.463q1.273.931,2.47,1.938A24.074,24.074,0,0,1,27.8-26.03q-.342.3-.912.931t-1.1,1.273A11.455,11.455,0,0,0,24.985-22.762ZM38.893-1.14q2.242,0,4.218-.057t3.61-.1Q45.087-1.9,43.472-2.679a32.3,32.3,0,0,1-3.021-1.653l1.216-1.444H36.955L38.133-4.37A31.6,31.6,0,0,1,35.3-2.793q-1.5.741-3.021,1.311A53.813,53.813,0,0,0,38.893-1.14ZM33.877-8.322H44.441V-9.576H33.877Zm0-3.382H44.441V-12.92H33.877Zm0-3.382H44.441v-1.178H33.877Zm7.334-11.1h3.762V-27.74H41.211Zm-7.828,0h3.724V-27.74H33.383ZM63.517-16.53V-30.438H82.783V-16.53ZM74.689,1.558V-13.68h14.63V1.558Zm-17.632,0V-13.68H71.649V1.558ZM68.115-20.368H78.147v-6.194H68.115ZM79.1-2.356h5.852V-9.614H79.1Zm-17.632,0h5.776V-9.614H61.465Zm32.68,4.712V-1.1h6.688V-6.384h4.332V-1.1h3.99V-7.676H97.033v-3.382h4.256v-4.028a29.2,29.2,0,0,1-2.717,2.527,23.527,23.527,0,0,1-2.983,2.109,11.9,11.9,0,0,0-1.178-1.406,8.078,8.078,0,0,0-1.406-1.216,13.517,13.517,0,0,0,2.071-1.273q1.121-.817,2.2-1.767T99.161-17.9H95.209v-7.3h6.08v-1.368H94.107v-3.154h7.182v-2.166h3.762v2.166h6.916v3.154h-6.916v1.368h6.08v2.926a23.838,23.838,0,0,0,1.9-3q.95-1.748,1.71-3.553a16.807,16.807,0,0,0,1.026-3.135l3.8.912a11.859,11.859,0,0,1-.437,1.577q-.285.817-.627,1.653h9.842v3.458h-3.04a19.967,19.967,0,0,1-1.064,3.5,14.464,14.464,0,0,1-1.748,3.116,21.994,21.994,0,0,0,3.173,1.862A31.965,31.965,0,0,0,129.3-14.4a13.493,13.493,0,0,0-1.235,1.577,13.849,13.849,0,0,0-1.083,1.843,28.417,28.417,0,0,1-3.762-1.767,26.884,26.884,0,0,1-3.344-2.223,19.585,19.585,0,0,1-3.173,2.147,25.632,25.632,0,0,1-3.971,1.729,7.568,7.568,0,0,0-.684-1.463,11.07,11.07,0,0,0-1.026-1.5q-.456.532-.931,1.178t-.741,1.064q-.988-.646-2.147-1.5t-2.147-1.729v3.99h20.254v3.382H113.487v1.634h9.234v3.078h-9.234V-1.1h14.782V2.356Zm17.4-17.062a18.388,18.388,0,0,0,3.116-1.273,14.608,14.608,0,0,0,2.47-1.615q-.646-.8-1.235-1.634a15.078,15.078,0,0,1-1.045-1.71q-.3.418-.608.817t-.608.779a10.127,10.127,0,0,0-1.2-.931q-.7-.475-1.311-.855v3.23h-4.37q1.026.836,2.394,1.748A26.092,26.092,0,0,0,111.549-14.706Zm8.094-5.624a10.084,10.084,0,0,0,1.045-1.957,13.016,13.016,0,0,0,.627-2.071h-4.066A13.373,13.373,0,0,0,119.643-20.33Zm-21.09-.076h2.736v-2.166H98.553Zm6.5,0h2.7v-2.166h-2.7Zm37.886,22.04V-2.128h10.45V-5.814h-6.612V-9.576h6.612v-3.458h-7.372V-30.286h18.962v17.252h-7.372v3.458h7.03v3.762h-7.03v3.686h8.854V1.634ZM132.259-1.482l-1.178-4.142q.988-.19,2.337-.494t2.831-.684V-14.9h-4.028v-3.876h4.028v-6.916h-4.256V-29.6h12.882v3.914h-4.294v6.916h3.762V-14.9h-3.762V-7.9q1.444-.38,2.641-.722t2.033-.608v3.876q-1.064.38-2.736.912t-3.553,1.1q-1.881.57-3.667,1.064T132.259-1.482Zm17.86-15.048h3.268v-3.534h-3.268Zm7.486,0h3.268v-3.534h-3.268Zm-7.486-6.8h3.268v-3.42h-3.268Zm7.486,0h3.268v-3.42h-3.268Z" transform="translate(-7165.5 -233)"/>
    <g id="グループ_14895" data-name="グループ 14895" transform="translate(-7353 -630)">
      <path id="パス_41817" data-name="パス 41817" d="M-118.734,1.892a22.617,22.617,0,0,1-2.178-.715,23.97,23.97,0,0,1-2.3-1.012,18.452,18.452,0,0,1-1.9-1.089l.9-1.034h-5.7l.9,1.034A15.559,15.559,0,0,1-130.889.154q-1.111.55-2.31,1a22.384,22.384,0,0,1-2.211.715,7.041,7.041,0,0,0-.616-1.089,5.679,5.679,0,0,0-.792-.979q.726-.154,1.617-.418t1.815-.616q.924-.352,1.694-.726h-2.288V-11.44h13.926v9.482h-2.4q.77.374,1.694.726t1.837.616q.913.264,1.617.418a6.037,6.037,0,0,0-.8.979A6.179,6.179,0,0,0-118.734,1.892ZM-136.158-12.43v-5.39h18.216v5.39Zm4.818,8.712h8.646v-.99h-8.646Zm0-2.53h8.646v-.968h-8.646Zm0-2.508h8.646v-.9h-8.646Zm-2.266-5.544h2.728v-1.628h-2.728Zm10.45,0h2.706v-1.628h-2.706Zm-5.148,0h2.574v-1.628H-128.3Zm21.076,15.994V-2.684q-.638.242-1.485.528t-1.76.572q-.913.286-1.727.528t-1.386.4l-.748-2.42q.286-.044.77-.165l1.1-.275v-11.9H-114v-2.31h10.758v1.54h8.4a23.641,23.641,0,0,1-2.9,10.912,14.725,14.725,0,0,0,2.013,2.2,15.491,15.491,0,0,0,2.409,1.76A8.915,8.915,0,0,0-94.314-.3,8.507,8.507,0,0,0-95.128.814a21.809,21.809,0,0,1-2.2-1.8,18.483,18.483,0,0,1-1.914-2.09A19.751,19.751,0,0,1-103.356.836a8.541,8.541,0,0,0-.517-.693,10.288,10.288,0,0,0-.737-.825V1.694Zm2.618-3.036a16.219,16.219,0,0,0,2.178-1.782,15.3,15.3,0,0,0,1.76-2.046,20.852,20.852,0,0,1-1.661-3.6,21.278,21.278,0,0,1-.979-4.015l2.354-.418A16.441,16.441,0,0,0-99.22-7.612a17.475,17.475,0,0,0,1.111-3.069,17.366,17.366,0,0,0,.517-3.135H-103.6v-1.606h-1.012Zm-5.236-2.838q.77-.2,1.452-.385t1.166-.341V-6.754h-2.618Zm0-4.752h2.618v-2.156h-2.618Zm0-4.334h2.618v-2.156h-2.618ZM-75.812.858A9.8,9.8,0,0,1-79.86-.484,7.746,7.746,0,0,1-82.6-3.278a7.761,7.761,0,0,1-.979-3.916,7.7,7.7,0,0,1,.759-3.234,8.393,8.393,0,0,1,2.277-2.926q-1.76.286-3.509.616t-3.168.616q-1.419.286-2.189.484L-90-14.476q.726-.044,2.013-.2t2.9-.385q1.617-.231,3.344-.506t3.344-.561q1.617-.286,2.9-.561t2.013-.5l.7,2.684q-.352.022-.847.088t-1.111.154a6.571,6.571,0,0,0-2.31.748,7.5,7.5,0,0,0-1.969,1.54,7.354,7.354,0,0,0-1.375,2.156,6.717,6.717,0,0,0-.506,2.618,4.5,4.5,0,0,0,.858,2.816,5.628,5.628,0,0,0,2.343,1.749,12.265,12.265,0,0,0,3.333.847A4.6,4.6,0,0,0-75-.957a8.114,8.114,0,0,0-.528.99A4.122,4.122,0,0,0-75.812.858Zm3.828-10.1A10.112,10.112,0,0,0-73.1-10.692a11.379,11.379,0,0,0-1.265-1.232l1.188-.99a8.064,8.064,0,0,1,.8.77q.473.506.935,1.023a7.6,7.6,0,0,1,.7.891Zm-1.98,1.672a9.816,9.816,0,0,0-1.1-1.474A12.571,12.571,0,0,0-76.318-10.3l1.21-.968a7.39,7.39,0,0,1,.792.77q.462.506.913,1.034a11.187,11.187,0,0,1,.693.88Zm6.358,8.932v-2h3.872V-3.7h2.508V-.638h2.31V-4.444h-7.018V-6.4h2.464V-8.734a16.906,16.906,0,0,1-1.573,1.463A13.621,13.621,0,0,1-66.77-6.05a6.892,6.892,0,0,0-.682-.814,4.677,4.677,0,0,0-.814-.7,7.826,7.826,0,0,0,1.2-.737q.649-.473,1.276-1.023t1.089-1.034H-66.99v-4.224h3.52v-.792h-4.158V-17.2h4.158v-1.254h2.178V-17.2h4v1.826h-4v.792h3.52v1.694a13.8,13.8,0,0,0,1.1-1.738q.55-1.012.99-2.057a9.731,9.731,0,0,0,.594-1.815l2.2.528a6.866,6.866,0,0,1-.253.913q-.165.473-.363.957h5.7v2h-1.76a11.56,11.56,0,0,1-.616,2.024,8.374,8.374,0,0,1-1.012,1.8A12.733,12.733,0,0,0-49.357-9.2a18.506,18.506,0,0,0,2.1.858,7.813,7.813,0,0,0-.715.913A8.018,8.018,0,0,0-48.6-6.358a16.452,16.452,0,0,1-2.178-1.023,15.564,15.564,0,0,1-1.936-1.287,11.339,11.339,0,0,1-1.837,1.243,14.84,14.84,0,0,1-2.3,1,4.381,4.381,0,0,0-.4-.847,6.409,6.409,0,0,0-.594-.869q-.264.308-.539.682t-.429.616q-.572-.374-1.243-.869t-1.243-1V-6.4h11.726v1.958h-6.842V-3.5h5.346v1.782h-5.346V-.638h8.558v2ZM-57.53-8.514a10.646,10.646,0,0,0,1.8-.737,8.457,8.457,0,0,0,1.43-.935q-.374-.462-.715-.946a8.731,8.731,0,0,1-.6-.99q-.176.242-.352.473t-.352.451a5.862,5.862,0,0,0-.693-.539q-.407-.275-.759-.495v1.87H-60.3q.594.484,1.386,1.012A15.105,15.105,0,0,0-57.53-8.514Zm4.686-3.256a5.838,5.838,0,0,0,.605-1.133,7.536,7.536,0,0,0,.363-1.2H-54.23A7.743,7.743,0,0,0-52.844-11.77Zm-12.21-.044h1.584v-1.254h-1.584Zm3.762,0h1.562v-1.254h-1.562ZM-38.258.946V-1.232h6.05V-3.366h-3.828V-5.544h3.828v-2h-4.268v-9.988H-25.5v9.988h-4.268v2h4.07v2.178h-4.07v2.134h5.126V.946Zm-6.182-1.8-.682-2.4q.572-.11,1.353-.286t1.639-.4V-8.624h-2.332v-2.244h2.332v-4h-2.464v-2.266h7.458v2.266h-2.486v4h2.178v2.244h-2.178v4.048q.836-.22,1.529-.418t1.177-.352V-3.1q-.616.22-1.584.528t-2.057.638q-1.089.33-2.123.616T-44.44-.858ZM-34.1-9.57h1.892v-2.046H-34.1Zm4.334,0h1.892v-2.046h-1.892ZM-34.1-13.508h1.892v-1.98H-34.1Zm4.334,0h1.892v-1.98h-1.892ZM-19.36,1.87q-.11-.286-.319-.7t-.44-.836a4.5,4.5,0,0,0-.429-.66q.99-.154,2.376-.506a23.485,23.485,0,0,0,2.6-.814h-2.112V-7.92a15.022,15.022,0,0,1-1.507.561q-.8.253-1.683.473A11.03,11.03,0,0,0-21.3-7.931a4.93,4.93,0,0,0-.55-.957,16.51,16.51,0,0,0,3.025-.781,5.811,5.811,0,0,0,2.013-1.221h-3.85a12.271,12.271,0,0,0,.308-1.243q.154-.759.275-1.507t.165-1.21h4.686a3.019,3.019,0,0,0,.022-.374,3.583,3.583,0,0,1,.022-.4h-5.5v-1.694h5.5V-18.5h2.6v1.188h2.178V-18.5h2.6v1.188h4.8v3.982h-4.8v.814H-1.5a16.925,16.925,0,0,1-.253,2.5A3.534,3.534,0,0,1-2.3-8.6a1.864,1.864,0,0,1-.957.671,6.579,6.579,0,0,1-1.452.253q-.088-.528-.264-1.177A10.744,10.744,0,0,0-5.3-9.9v8.25H-7.524a25.274,25.274,0,0,0,2.607.814q1.375.352,2.365.506a4.5,4.5,0,0,0-.429.66q-.231.418-.44.836t-.319.7a22.093,22.093,0,0,1-2.233-.561Q-7.172.946-8.327.473T-10.45-.506L-9.7-1.65h-3.7l.748,1.144a22.105,22.105,0,0,1-2.112.979q-1.166.473-2.354.836A20.878,20.878,0,0,1-19.36,1.87Zm4.18-7.26h7.37v-.792h-7.37Zm0,2.112h7.37v-.77h-7.37Zm0-4.246h7.37v-.748h-7.37Zm.506-2.376h4.268v-.99h-3.476A5.864,5.864,0,0,1-14.674-9.9Zm6.864,0h2.574a3.453,3.453,0,0,0,.649-.044.429.429,0,0,0,.308-.242,2.462,2.462,0,0,0,.165-.7h-3.7Zm-5.28-2.618h2.684v-.814h-2.442a3.478,3.478,0,0,1-.11.418Zm-4.906,0h2.31l.132-.4a3.478,3.478,0,0,0,.11-.418H-17.8a1.722,1.722,0,0,1-.044.242q-.044.2-.088.374A.682.682,0,0,1-18-12.518ZM-7.81-14.85h2.266v-.77H-7.81Zm-4.818,0h2.222v-.77h-2.178a3.583,3.583,0,0,0-.022.4A3.019,3.019,0,0,1-12.628-14.85ZM3.7,1.694q-.55-.352-1.254-.715A6.809,6.809,0,0,0,1.188.462,11.112,11.112,0,0,0,3.025-3.476,22.226,22.226,0,0,0,3.63-9.042v-8.712H20.2V-.814q0,2.354-2.838,2.354H15.686a7.964,7.964,0,0,0-.11-.88q-.088-.506-.187-.99a4.174,4.174,0,0,0-.231-.792H16.7a1.047,1.047,0,0,0,.638-.143.772.772,0,0,0,.176-.605v-3.7H13.134v6.4H10.516v-6.4H6.182a17.794,17.794,0,0,1-.814,3.949A13.387,13.387,0,0,1,3.7,1.694Zm9.438-9.548h4.378v-2.618H13.134Zm0-4.972h4.378V-15.4H13.134ZM6.314-7.854h4.2v-2.618H6.336v2.024Q6.336-8.162,6.314-7.854Zm.022-4.972h4.18V-15.4H6.336ZM36.322,1.166A13.846,13.846,0,0,1,33.066.814,5.013,5.013,0,0,1,30.778-.319a2.683,2.683,0,0,1-.836-2.057A3.178,3.178,0,0,1,30.58-4.3a6.433,6.433,0,0,1,1.76-1.584,16.576,16.576,0,0,1,2.552-1.309V-7.37A1.491,1.491,0,0,0,34.507-8.5a1.545,1.545,0,0,0-.979-.407,4.544,4.544,0,0,0-1.936.286,5.189,5.189,0,0,0-1.826,1.276q-.264.264-.682.671t-.836.8q-.418.4-.726.66L25.608-7.106a14.626,14.626,0,0,0,2.9-2.552,17.7,17.7,0,0,0,2.31-3.278q-1.232.044-2.244.077t-1.518.011l-.088-2.53q.748.066,2.079.066t2.893-.066a9.874,9.874,0,0,0,.572-2.728l2.618.132a10.557,10.557,0,0,1-.44,2.42q1.628-.132,3.025-.3a13.8,13.8,0,0,0,2.145-.385l.154,2.442q-.616.11-1.606.231t-2.189.231q-1.2.11-2.453.2-.286.616-.649,1.243t-.759,1.2a4.762,4.762,0,0,1,1.782-.352,3.5,3.5,0,0,1,2.189.682,3.257,3.257,0,0,1,1.111,2.244q1.232-.418,2.519-.759t2.5-.627l.748,2.42q-1.54.22-2.992.539T37.51-5.83V-2.9h-2.6V-4.84a8.223,8.223,0,0,0-1.76,1.089,1.512,1.512,0,0,0-.66,1.067q0,.748.9,1.045a9.431,9.431,0,0,0,2.75.3,16.136,16.136,0,0,0,1.683-.1q.935-.1,1.87-.264t1.639-.363q-.044.286-.077.825T41.228-.176q0,.528.022.792a18.436,18.436,0,0,1-2.42.407A23.753,23.753,0,0,1,36.322,1.166ZM54.56.682A7.519,7.519,0,0,1,51.678.539,3.915,3.915,0,0,1,49.72-.594a2.871,2.871,0,0,1-.7-1.98,4.758,4.758,0,0,1,1.265-3.069A9.1,9.1,0,0,1,53.768-8.1v-3.322q-1.21.088-2.343.132t-2.1,0l-.132-2.53a15.874,15.874,0,0,0,2.046.055q1.21-.033,2.53-.165v-3.542l2.442.022v3.234q1.1-.176,2.057-.385a10.566,10.566,0,0,0,1.573-.451l.264,2.42a13.211,13.211,0,0,1-1.782.506q-1.012.22-2.112.4v2.882a13.588,13.588,0,0,1,1.606-.264A16.6,16.6,0,0,1,59.554-9.2a8.959,8.959,0,0,1,3.6.649,5.248,5.248,0,0,1,2.255,1.738,4.147,4.147,0,0,1,.77,2.453A4.359,4.359,0,0,1,64.9-1.034,4.74,4.74,0,0,1,61.446.154,4.686,4.686,0,0,1,58.6-.693a4.682,4.682,0,0,1-1.661-2.519,11.475,11.475,0,0,0,1.232-.473,7.218,7.218,0,0,0,1.144-.6,2.154,2.154,0,0,0,2.112,1.826A1.883,1.883,0,0,0,62.9-3.025a2.008,2.008,0,0,0,.506-1.4,2.153,2.153,0,0,0-.968-1.793,4.871,4.871,0,0,0-2.9-.715,12.2,12.2,0,0,0-3.322.44v5.478a1.666,1.666,0,0,1-.374,1.2A2.109,2.109,0,0,1,54.56.682ZM65.758-9.5a10.616,10.616,0,0,0-1.43-1.155q-.9-.627-1.848-1.188a11.342,11.342,0,0,0-1.694-.847l1.386-1.98a14.106,14.106,0,0,1,1.738.836q.946.528,1.848,1.122a13.145,13.145,0,0,1,1.518,1.144q-.22.242-.539.66t-.594.814Q65.868-9.7,65.758-9.5ZM52.976-1.65a1.129,1.129,0,0,0,.605-.088.42.42,0,0,0,.187-.4V-5.5a6.236,6.236,0,0,0-1.606,1.342,2.3,2.3,0,0,0-.594,1.452.883.883,0,0,0,.374.77A1.881,1.881,0,0,0,52.976-1.65ZM78.65-10.318V-17.8H89.54v7.48Zm4.8,11.968A11.71,11.71,0,0,0,83.27.407a9.527,9.527,0,0,0-.308-1.221H84.5a1.166,1.166,0,0,0,.616-.11q.154-.11.154-.55V-4.246H77.308V-6.292h7.964v-1.1H77.616V-9.416H90.684v2.024H87.89v1.1h3.124v2.046H87.89V-.7a2.21,2.21,0,0,1-.671,1.793,3.242,3.242,0,0,1-2.1.561Zm-9.834-.044V-6.8q-.4.4-.792.748t-.814.682a3.331,3.331,0,0,0-.484-.6q-.33-.341-.693-.66a4.2,4.2,0,0,0-.671-.5,14.025,14.025,0,0,0,1.485-1.243q.8-.759,1.6-1.672a22.855,22.855,0,0,0,1.441-1.837A13.659,13.659,0,0,0,75.724-13.6L77.9-12.43q-.374.682-.825,1.386T76.12-9.658V1.606ZM72.4-12.034a7.332,7.332,0,0,0-.517-.649q-.319-.363-.66-.715a3.369,3.369,0,0,0-.627-.528,14.06,14.06,0,0,0,1.936-1.287,17.237,17.237,0,0,0,1.793-1.617,11.536,11.536,0,0,0,1.331-1.628l1.958,1.386a18.252,18.252,0,0,1-1.562,1.914,22.524,22.524,0,0,1-1.815,1.749A15.94,15.94,0,0,1,72.4-12.034ZM81.334.088a8.107,8.107,0,0,0-.847-.99q-.539-.55-1.089-1.056a6.441,6.441,0,0,0-.946-.748L80.08-4.224A14.745,14.745,0,0,1,81.565-3q.825.759,1.419,1.419a10.5,10.5,0,0,0-.9.814A6.868,6.868,0,0,0,81.334.088Zm-.022-12.21H86.9V-13.2H81.312Zm0-2.794H86.9v-1.078H81.312ZM96.25.154q-.154-.9-.242-2.211t-.121-2.86q-.033-1.551,0-3.2t.132-3.223q.1-1.573.264-2.915a22.3,22.3,0,0,1,.385-2.288l2.574.528a13.727,13.727,0,0,0-.418,2.057q-.176,1.265-.286,2.772T98.395-8.1q-.033,1.584.011,3.08T98.56-2.31a14.65,14.65,0,0,0,.286,1.958Zm9.35-1.188q-3.806-.11-4.312-2.486a4.759,4.759,0,0,1-.088-1.32,6.525,6.525,0,0,1,.33-1.606l2.31.572a2.432,2.432,0,0,0-.165.748,1.692,1.692,0,0,0,.077.594q.286.792,2.332.858a19.488,19.488,0,0,0,2.123-.077q1.133-.1,2.222-.3a18.133,18.133,0,0,0,1.9-.44q-.044.308-.1.836t-.077,1.067q-.022.539,0,.891a18.805,18.805,0,0,1-2.211.418q-1.177.154-2.31.209T105.6-1.034ZM102.3-11.77l-.154-2.706a18.647,18.647,0,0,0,2.046.132q1.21.022,2.519-.033t2.508-.2a13.661,13.661,0,0,0,1.991-.363l-.11,2.662q-.88.154-2.046.275t-2.409.187q-1.243.066-2.376.077T102.3-11.77Zm23.672,7.678q-.044-.682-.11-1.793t-.143-2.4q-.077-1.287-.132-2.53t-.088-2.2q-.033-.957-.033-1.375V-17.8h3.168v3.41q0,.418-.033,1.375t-.088,2.2q-.055,1.243-.132,2.53t-.143,2.4q-.066,1.111-.11,1.793Zm1.078,5.434a1.8,1.8,0,0,1-1.32-.55,1.8,1.8,0,0,1-.55-1.32,1.8,1.8,0,0,1,.55-1.32,1.8,1.8,0,0,1,1.32-.55,1.8,1.8,0,0,1,1.32.55,1.8,1.8,0,0,1,.55,1.32,1.8,1.8,0,0,1-.55,1.32A1.8,1.8,0,0,1,127.05,1.342Z" transform="translate(187 293)"/>
      <path id="パス_41745" data-name="パス 41745" d="M17085.014,456.31h-4.043l-11.174-26.543h7.1Z" transform="translate(-17042.758 -160.038)"/>
      <path id="パス_41746" data-name="パス 41746" d="M17069.8,456.31h4.043l11.174-26.543h-7.1Z" transform="translate(-16742.799 -160.038)"/>
    </g>
  </g>
</svg>
