<svg xmlns="http://www.w3.org/2000/svg" xmlns:xlink="http://www.w3.org/1999/xlink" width="332.222" height="94.246" viewBox="0 0 332.222 94.246">
  <defs>
    <clipPath id="clip-path">
      <rect id="長方形_2367" data-name="長方形 2367" width="10.81" height="14.256" fill="none"/>
    </clipPath>
    <clipPath id="clip-path-2">
      <rect id="長方形_2366" data-name="長方形 2366" width="13.017" height="17.392" fill="none"/>
    </clipPath>
    <clipPath id="clip-path-3">
      <rect id="長方形_9477" data-name="長方形 9477" width="68.609" height="86.096" fill="none"/>
    </clipPath>
    <clipPath id="clip-path-4">
      <rect id="長方形_9221" data-name="長方形 9221" width="80.259" height="81.812" fill="none"/>
    </clipPath>
    <clipPath id="clip-path-5">
      <path id="パス_39625" data-name="パス 39625" d="M15.322,52.1,43.7,35.78,15.377,19.366A31.925,31.925,0,0,0,15.322,52.1" transform="translate(-10.834 -19.366)" fill="none"/>
    </clipPath>
    <clipPath id="clip-path-6">
      <path id="パス_39642" data-name="パス 39642" d="M36.274,39.469,64.652,23.146A31.923,31.923,0,0,0,36.327,6.732Z" transform="translate(-36.274 -6.732)" fill="none"/>
    </clipPath>
    <clipPath id="clip-path-7">
      <path id="パス_39659" data-name="パス 39659" d="M36.232,64.81a31.931,31.931,0,0,0,28.38-16.324L36.286,32.071Z" transform="translate(-36.232 -32.071)" fill="none"/>
    </clipPath>
    <clipPath id="clip-path-9">
      <rect id="長方形_2367-2" data-name="長方形 2367" width="11.792" height="15.55" fill="none"/>
    </clipPath>
    <clipPath id="clip-path-10">
      <rect id="長方形_2366-2" data-name="長方形 2366" width="15.87" height="21.205" fill="none"/>
    </clipPath>
    <clipPath id="clip-path-11">
      <rect id="長方形_9226" data-name="長方形 9226" width="80.134" height="45.022" fill="none"/>
    </clipPath>
    <clipPath id="clip-path-12">
      <rect id="長方形_2367-3" data-name="長方形 2367" width="9.786" height="12.905" fill="none"/>
    </clipPath>
    <clipPath id="clip-path-13">
      <rect id="長方形_2366-3" data-name="長方形 2366" width="13.184" height="17.615" fill="none"/>
    </clipPath>
  </defs>
  <g id="グループ_15296" data-name="グループ 15296" transform="translate(7985.065 590.539)">
    <g id="グループ_15294" data-name="グループ 15294" transform="translate(-8546.56 -1229.796)">
      <g id="グループ_14356" data-name="グループ 14356" transform="translate(793.211 673.348)">
        <g id="グループ_8888" data-name="グループ 8888" transform="translate(0 0)" clip-path="url(#clip-path)">
          <path id="パス_18438" data-name="パス 18438" d="M9.889,6.962C6.721,7.772,5.823,9,5.224,13.333,4.625,9,3.728,7.772.558,6.962,3.725,6.133,4.625,4.9,5.224.558c.6,4.341,1.5,5.575,4.666,6.4" transform="translate(0.181 0.182)" fill="#d0a500"/>
          <path id="パス_18439" data-name="パス 18439" d="M5.405,14.256a.74.74,0,0,1-.734-.639C4.081,9.349,3.265,8.554.557,7.863a.742.742,0,0,1,0-1.435C3.262,5.718,4.081,4.916,4.671.64a.741.741,0,0,1,1.468,0c.59,4.276,1.409,5.078,4.118,5.788a.742.742,0,0,1,0,1.435c-2.709.692-3.525,1.485-4.114,5.754a.741.741,0,0,1-.734.639M2.91,7.138a4.918,4.918,0,0,1,2.5,2.958A4.912,4.912,0,0,1,7.9,7.138a4.946,4.946,0,0,1-2.5-2.974,4.953,4.953,0,0,1-2.5,2.974" transform="translate(0 0)" fill="#040000"/>
        </g>
      </g>
      <g id="グループ_14355" data-name="グループ 14355" transform="translate(878.7 643.992)">
        <g id="グループ_8886" data-name="グループ 8886" transform="translate(2 8.803)" clip-path="url(#clip-path-2)">
          <path id="パス_18436" data-name="パス 18436" d="M12.417,8.7c-4.027,1.029-5.167,2.589-5.929,8.1-.762-5.507-1.9-7.067-5.929-8.1C4.583,7.642,5.726,6.074,6.488.558c.762,5.516,1.9,7.084,5.929,8.139" transform="translate(0.02 0.02)" fill="#d0a500"/>
          <path id="パス_18437" data-name="パス 18437" d="M6.509,17.392a.578.578,0,0,1-.574-.5C5.2,11.6,4.226,10.247.435,9.279a.58.58,0,0,1,0-1.122C4.225,7.162,5.2,5.8,5.935.5A.579.579,0,0,1,7.083.5c.732,5.3,1.709,6.663,5.5,7.657a.58.58,0,0,1,0,1.122c-3.79.968-4.767,2.32-5.5,7.614a.578.578,0,0,1-.573.5M2.472,8.712c2.2.88,3.327,2.246,4.038,4.967.71-2.722,1.84-4.086,4.036-4.967-2.2-.894-3.326-2.268-4.036-4.993C5.8,6.444,4.669,7.817,2.472,8.712" transform="translate(0 0)" fill="#040000"/>
        </g>
      </g>
      <g id="グループ_14746" data-name="グループ 14746" transform="translate(810.091 639.257)">
        <ellipse id="楕円形_295" data-name="楕円形 295" cx="34.304" cy="6.667" rx="34.304" ry="6.667" transform="translate(0 77.723)" fill="#555" opacity="0.297" style="mix-blend-mode: multiply;isolation: isolate"/>
        <g id="グループ_14744" data-name="グループ 14744" transform="translate(0 0)">
          <g id="グループ_14730" data-name="グループ 14730" transform="translate(0 0)" clip-path="url(#clip-path-3)">
            <path id="パス_41353" data-name="パス 41353" d="M48.843,58.464H12.807a5.076,5.076,0,0,1-5.069-4.83l-2.1-43.579A5.075,5.075,0,0,1,10.7,4.734H51.28a5.075,5.075,0,0,1,5.066,5.358L53.911,53.672a5.077,5.077,0,0,1-5.068,4.792" transform="translate(3.075 2.587)" fill="#892b2b"/>
            <path id="パス_41354" data-name="パス 41354" d="M49.153,59.651H13.117a5.946,5.946,0,0,1-5.946-5.665l-2.1-43.579a5.953,5.953,0,0,1,5.945-6.24H51.589a5.953,5.953,0,0,1,5.943,6.285L55.095,54.031a5.955,5.955,0,0,1-5.942,5.62M11.011,5.922a4.2,4.2,0,0,0-4.192,4.4L8.923,53.9A4.193,4.193,0,0,0,13.117,57.9H49.153a4.2,4.2,0,0,0,4.191-3.96l2.437-43.581a4.2,4.2,0,0,0-4.192-4.432Z" transform="translate(2.765 2.277)"/>
            <rect id="長方形_9470" data-name="長方形 9470" width="66.855" height="8.264" transform="translate(0.877 61.051)" fill="#ad7955"/>
            <path id="パス_41355" data-name="パス 41355" d="M67.732,48.931H.877A.877.877,0,0,1,0,48.053V39.788a.877.877,0,0,1,.877-.878H67.732a.877.877,0,0,1,.877.878v8.264a.877.877,0,0,1-.877.878M1.754,47.176h65.1V40.665H1.754Z" transform="translate(0 21.263)"/>
            <rect id="長方形_9471" data-name="長方形 9471" width="10.21" height="15.902" transform="translate(9.104 69.316)" fill="#ad7955"/>
            <path id="パス_41356" data-name="パス 41356" d="M16.407,61.913H6.2a.877.877,0,0,1-.877-.877v-15.9a.877.877,0,0,1,.877-.877h10.21a.877.877,0,0,1,.877.877v15.9a.877.877,0,0,1-.877.877M7.074,60.157H15.53V46.01H7.074Z" transform="translate(2.907 24.184)"/>
            <path id="パス_41357" data-name="パス 41357" d="M52.55,42.132H8.926a2.956,2.956,0,0,1-2.955-2.955v-1.6a2.955,2.955,0,0,1,2.955-2.955H52.55a2.955,2.955,0,0,1,2.955,2.955v1.6a2.956,2.956,0,0,1-2.955,2.955" transform="translate(3.263 18.92)" fill="#892b2b"/>
            <path id="パス_41358" data-name="パス 41358" d="M52.86,43.318H9.236A3.836,3.836,0,0,1,5.4,39.488v-1.6a3.837,3.837,0,0,1,3.832-3.832H52.86a3.837,3.837,0,0,1,3.832,3.832v1.6a3.836,3.836,0,0,1-3.832,3.831M9.236,35.81a2.081,2.081,0,0,0-2.078,2.077v1.6a2.081,2.081,0,0,0,2.078,2.077H52.86a2.081,2.081,0,0,0,2.078-2.077v-1.6A2.081,2.081,0,0,0,52.86,35.81Z" transform="translate(2.953 18.61)"/>
            <rect id="長方形_9472" data-name="長方形 9472" width="9.6" height="7.742" transform="translate(2.493 47.149)" fill="#ad7955"/>
            <path id="パス_41359" data-name="パス 41359" d="M11.523,39.418h-9.6a.877.877,0,0,1-.877-.878V30.8a.877.877,0,0,1,.877-.877h9.6a.877.877,0,0,1,.877.877V38.54a.877.877,0,0,1-.877.878M2.8,37.663h7.848V31.675H2.8Z" transform="translate(0.571 16.35)"/>
            <path id="パス_41360" data-name="パス 41360" d="M15.06,16.817c-.116,0-.234,0-.354-.009-2.287-.11-3.823-1.2-3.823-2.708a.877.877,0,1,1,1.754,0c0,.4.885.9,2.154.957,1.2.051,2.476-.315,2.545-1.042a.877.877,0,0,1,1.746.17c-.153,1.579-1.786,2.632-4.022,2.632" transform="translate(5.947 7.226)" fill="#601b1b"/>
            <path id="パス_41361" data-name="パス 41361" d="M18.209,18.627a.879.879,0,0,1-.872-.793c-.07-.724-1.352-1.09-2.545-1.042-1.27.063-2.154.555-2.154.959a.877.877,0,0,1-1.754,0c0-1.509,1.536-2.6,3.823-2.708,2.4-.122,4.214.96,4.376,2.623a.877.877,0,0,1-.789.957.785.785,0,0,1-.085,0" transform="translate(5.947 8.215)" fill="#601b1b"/>
            <path id="パス_41362" data-name="パス 41362" d="M15.658,15.85a1.584,1.584,0,1,1-1.584-1.584,1.584,1.584,0,0,1,1.584,1.584" transform="translate(6.825 7.796)" fill="#231612"/>
            <path id="パス_41363" data-name="パス 41363" d="M23.553,16.817q-.174,0-.353-.009c-2.287-.11-3.824-1.2-3.824-2.708a.877.877,0,1,1,1.754,0c0,.4.885.9,2.156.957,1.185.051,2.474-.315,2.544-1.042a.877.877,0,0,1,1.746.17c-.153,1.579-1.788,2.632-4.022,2.632" transform="translate(10.588 7.226)" fill="#601b1b"/>
            <path id="パス_41364" data-name="パス 41364" d="M26.7,18.627a.877.877,0,0,1-.872-.793c-.07-.724-1.359-1.09-2.544-1.042-1.27.063-2.156.555-2.156.959a.876.876,0,1,1-1.752,0c0-1.511,1.536-2.6,3.823-2.708,2.4-.122,4.214.96,4.375,2.623a.877.877,0,0,1-.789.957.785.785,0,0,1-.085,0" transform="translate(10.588 8.215)" fill="#601b1b"/>
            <path id="パス_41365" data-name="パス 41365" d="M24.15,15.85a1.584,1.584,0,1,1-1.584-1.584A1.584,1.584,0,0,1,24.15,15.85" transform="translate(11.465 7.796)" fill="#231612"/>
            <path id="パス_41366" data-name="パス 41366" d="M32.213,16.817c-.116,0-.234,0-.354-.009-2.287-.11-3.823-1.2-3.823-2.708a.877.877,0,1,1,1.754,0c0,.4.885.9,2.154.957,1.189.051,2.474-.315,2.545-1.042a.877.877,0,0,1,1.746.17c-.153,1.579-1.786,2.632-4.022,2.632" transform="translate(15.321 7.226)" fill="#601b1b"/>
            <path id="パス_41367" data-name="パス 41367" d="M35.362,18.627a.879.879,0,0,1-.872-.793c-.071-.724-1.347-1.09-2.545-1.042-1.27.063-2.154.555-2.154.959a.877.877,0,0,1-1.754,0c0-1.509,1.536-2.6,3.823-2.708,2.406-.122,4.214.96,4.376,2.623a.877.877,0,0,1-.789.957.784.784,0,0,1-.085,0" transform="translate(15.321 8.215)" fill="#601b1b"/>
            <path id="パス_41368" data-name="パス 41368" d="M32.811,15.85a1.584,1.584,0,1,1-1.585-1.584,1.584,1.584,0,0,1,1.585,1.584" transform="translate(16.198 7.796)" fill="#231612"/>
            <path id="パス_41369" data-name="パス 41369" d="M19.461,27.784q-.174,0-.353-.009c-2.287-.11-3.824-1.2-3.824-2.708a.877.877,0,1,1,1.754,0c0,.4.885.9,2.156.957,1.191.046,2.474-.317,2.544-1.042a.86.86,0,0,1,.957-.787.879.879,0,0,1,.789.957c-.153,1.579-1.788,2.632-4.022,2.632" transform="translate(8.352 13.217)" fill="#601b1b"/>
            <path id="パス_41370" data-name="パス 41370" d="M22.609,29.592a.877.877,0,0,1-.872-.793c-.07-.725-1.353-1.093-2.544-1.042-1.27.063-2.156.555-2.156.959a.876.876,0,1,1-1.752,0c0-1.511,1.536-2.6,3.823-2.708,2.406-.127,4.214.96,4.375,2.623a.877.877,0,0,1-.789.957.784.784,0,0,1-.085,0" transform="translate(8.353 14.207)" fill="#601b1b"/>
            <path id="パス_41371" data-name="パス 41371" d="M20.059,26.815a1.584,1.584,0,1,1-1.584-1.584,1.584,1.584,0,0,1,1.584,1.584" transform="translate(9.23 13.788)" fill="#231612"/>
            <path id="パス_41372" data-name="パス 41372" d="M27.954,27.784c-.116,0-.234,0-.354-.009-2.287-.11-3.823-1.2-3.823-2.708a.877.877,0,1,1,1.754,0c0,.4.885.9,2.154.957,1.2.046,2.476-.317,2.545-1.042a.864.864,0,0,1,.957-.787.877.877,0,0,1,.789.957c-.153,1.579-1.786,2.632-4.022,2.632" transform="translate(12.993 13.217)" fill="#601b1b"/>
            <path id="パス_41373" data-name="パス 41373" d="M31.1,29.592a.879.879,0,0,1-.872-.793c-.07-.725-1.35-1.093-2.545-1.042-1.27.063-2.154.555-2.154.959a.877.877,0,1,1-1.754,0c0-1.509,1.536-2.6,3.823-2.708,2.409-.127,4.214.96,4.376,2.623a.877.877,0,0,1-.789.957.784.784,0,0,1-.085,0" transform="translate(12.993 14.207)" fill="#601b1b"/>
            <path id="パス_41374" data-name="パス 41374" d="M28.551,26.815a1.584,1.584,0,1,1-1.584-1.584,1.584,1.584,0,0,1,1.584,1.584" transform="translate(13.87 13.788)" fill="#231612"/>
            <rect id="長方形_9473" data-name="長方形 9473" width="5.983" height="6.161" transform="translate(4.129 54.89)" fill="#ad7955"/>
            <path id="パス_41375" data-name="パス 41375" d="M8.963,42.842H2.979a.876.876,0,0,1-.875-.877V35.8a.876.876,0,0,1,.875-.877H8.963a.877.877,0,0,1,.877.877v6.161a.877.877,0,0,1-.877.877M3.856,41.087h4.23V36.681H3.856Z" transform="translate(1.15 19.086)"/>
            <rect id="長方形_9474" data-name="長方形 9474" width="5.983" height="6.161" transform="translate(58.357 54.89)" fill="#ad7955"/>
            <path id="パス_41376" data-name="パス 41376" d="M44.029,42.842H38.046a.877.877,0,0,1-.877-.877V35.8a.877.877,0,0,1,.877-.877h5.983a.877.877,0,0,1,.877.877v6.161a.877.877,0,0,1-.877.877m-5.106-1.755h4.23V36.681h-4.23Z" transform="translate(20.312 19.086)"/>
            <rect id="長方形_9475" data-name="長方形 9475" width="10.21" height="15.902" transform="translate(50.682 69.316)" fill="#ad7955"/>
            <path id="パス_41377" data-name="パス 41377" d="M43.292,61.913H33.082a.876.876,0,0,1-.875-.877v-15.9a.876.876,0,0,1,.875-.877h10.21a.877.877,0,0,1,.877.877v15.9a.877.877,0,0,1-.877.877m-9.333-1.755h8.456V46.01H33.959Z" transform="translate(17.6 24.184)"/>
            <rect id="長方形_9476" data-name="長方形 9476" width="9.6" height="7.742" transform="translate(56.55 47.149)" fill="#ad7955"/>
            <path id="パス_41378" data-name="パス 41378" d="M46.477,39.418h-9.6A.876.876,0,0,1,36,38.54V30.8a.876.876,0,0,1,.875-.877h9.6a.877.877,0,0,1,.877.877V38.54a.877.877,0,0,1-.877.878m-8.725-1.755H45.6V31.675H37.752Z" transform="translate(19.673 16.35)"/>
            <path id="パス_41379" data-name="パス 41379" d="M11.041,33.279a.89.89,0,0,1-.753-.405.585.585,0,0,0-.439-.251l-.04,0a.576.576,0,0,0-.428.19.982.982,0,0,1-.724.322.942.942,0,0,1-.433-.105.955.955,0,0,1-.486-.58.577.577,0,0,0-.861-.322,1.575,1.575,0,0,1-.829.241,1.488,1.488,0,0,1-.685-.165,1.52,1.52,0,0,1-.789-1.018.581.581,0,0,0-.275-.37.592.592,0,0,0-.288-.076.611.611,0,0,0-.173.026.925.925,0,0,1-.7-.056.923.923,0,0,1-.4-1.237.911.911,0,0,1,.815-.5.99.99,0,0,1,.178.017A.558.558,0,0,0,3.847,29a.567.567,0,0,0,.351-.119.579.579,0,0,0,.227-.419,1.342,1.342,0,0,1,1.137-1.228,1.371,1.371,0,0,1,.193-.014,1.344,1.344,0,0,1,1.134.631.573.573,0,0,0,.379.263.564.564,0,0,0,.114.012.593.593,0,0,0,.337-.107,1.882,1.882,0,0,1,1.087-.351,1.823,1.823,0,0,1,.827.2,1.85,1.85,0,0,1,.922,1.079.58.58,0,0,0,.551.4.519.519,0,0,0,.084-.006,1.59,1.59,0,0,1,.227-.017,1.48,1.48,0,0,1,.687.165,1.53,1.53,0,0,1,.671,2.065,1.48,1.48,0,0,1-.572.608.587.587,0,0,0-.266.376.9.9,0,0,1-.9.735" transform="translate(1.443 14.877)" fill="#6d6d6d"/>
            <path id="パス_41380" data-name="パス 41380" d="M5.962,28.01a.762.762,0,0,1,.64.359,1.157,1.157,0,0,0,.756.524,1.138,1.138,0,0,0,.229.023,1.159,1.159,0,0,0,.671-.215,1.314,1.314,0,0,1,.752-.243,1.245,1.245,0,0,1,.564.136,1.271,1.271,0,0,1,.633.744,1.161,1.161,0,0,0,1.1.8,1.255,1.255,0,0,0,.169-.012.907.907,0,0,1,.145-.011.934.934,0,0,1,.424.1.954.954,0,0,1,.416,1.285.925.925,0,0,1-.357.376,1.158,1.158,0,0,0-.534.755.484.484,0,0,1-.023.085.343.343,0,0,1-.3.187.336.336,0,0,1-.153-.039.314.314,0,0,1-.119-.113,1.163,1.163,0,0,0-.88-.5c-.026,0-.053,0-.079,0a1.157,1.157,0,0,0-.86.382.4.4,0,0,1-.294.131.382.382,0,0,1-.169-.042.389.389,0,0,1-.195-.235,1.165,1.165,0,0,0-.7-.748,1.186,1.186,0,0,0-.405-.073,1.158,1.158,0,0,0-.617.178.969.969,0,0,1-.52.153.928.928,0,0,1-.421-.1.944.944,0,0,1-.486-.634,1.162,1.162,0,0,0-1.129-.892,1.177,1.177,0,0,0-.349.054.348.348,0,0,1-.105.017A.328.328,0,0,1,3.61,30.4a.342.342,0,0,1-.147-.458.334.334,0,0,1,.323-.173l.043,0a1.207,1.207,0,0,0,.223.022,1.161,1.161,0,0,0,1.157-1.079.758.758,0,0,1,.642-.694.9.9,0,0,1,.111-.008m0-1.16a1.911,1.911,0,0,0-1.91,1.782,1.543,1.543,0,0,0-.291-.028,1.5,1.5,0,0,0,0,2.992,1.51,1.51,0,0,0,.455-.071,2.089,2.089,0,0,0,2.035,1.628,2.144,2.144,0,0,0,1.137-.331,1.542,1.542,0,0,0,2.626.585,1.467,1.467,0,0,0,.551.493,1.495,1.495,0,0,0,2.017-.653,1.437,1.437,0,0,0,.127-.376,2.107,2.107,0,0,0-1.084-3.914,2.362,2.362,0,0,0-.314.022A2.421,2.421,0,0,0,10.1,27.563,2.391,2.391,0,0,0,9.01,27.3a2.463,2.463,0,0,0-1.423.458,1.919,1.919,0,0,0-1.625-.906" transform="translate(1.238 14.672)" fill="#231815"/>
            <path id="パス_41381" data-name="パス 41381" d="M47.49,8.67A2.255,2.255,0,0,0,45.334,6.7a2.579,2.579,0,0,0-1.48-2.21,2.394,2.394,0,0,0-1.064-.2,1.706,1.706,0,0,0-.653-.521,1.87,1.87,0,0,0-2.071.441,2.5,2.5,0,0,0-1.625.09A2.487,2.487,0,0,0,37.127,2.86a2.454,2.454,0,0,0-1.6-.125A2.888,2.888,0,0,0,33.966.976a2.994,2.994,0,0,0-3.17.557A2.2,2.2,0,0,0,28.369.571a2.768,2.768,0,0,0-2.02,2.552,2.019,2.019,0,0,0-2.031,1.24A1.961,1.961,0,0,0,25.19,6.99a1.773,1.773,0,0,0,1.434-.009,2.522,2.522,0,0,0,1.4,1.748,2.582,2.582,0,0,0,2.631-.382,1.842,1.842,0,0,0,1,1.152,1.962,1.962,0,0,0,2.329-.679,1.7,1.7,0,0,0,.707.6,1.911,1.911,0,0,0,2.312-.73,2.43,2.43,0,0,0,1.036.9,2.55,2.55,0,0,0,2.385-.209,1.959,1.959,0,0,0,1.056,2.176,1.9,1.9,0,0,0,1.959-.3,2.194,2.194,0,0,0,2.054.527,2.783,2.783,0,0,0,1.993-3.1" transform="translate(13.184 0.273)" fill="#6d6d6d"/>
            <path id="パス_41382" data-name="パス 41382" d="M47.49,8.67A2.255,2.255,0,0,0,45.334,6.7a2.579,2.579,0,0,0-1.48-2.21,2.394,2.394,0,0,0-1.064-.2,1.706,1.706,0,0,0-.653-.521,1.87,1.87,0,0,0-2.071.441,2.5,2.5,0,0,0-1.625.09A2.487,2.487,0,0,0,37.127,2.86a2.454,2.454,0,0,0-1.6-.125A2.888,2.888,0,0,0,33.966.976a2.994,2.994,0,0,0-3.17.557A2.2,2.2,0,0,0,28.369.571a2.768,2.768,0,0,0-2.02,2.552,2.019,2.019,0,0,0-2.031,1.24A1.961,1.961,0,0,0,25.19,6.99a1.773,1.773,0,0,0,1.434-.009,2.522,2.522,0,0,0,1.4,1.748,2.582,2.582,0,0,0,2.631-.382,1.842,1.842,0,0,0,1,1.152,1.962,1.962,0,0,0,2.329-.679,1.7,1.7,0,0,0,.707.6,1.911,1.911,0,0,0,2.312-.73,2.43,2.43,0,0,0,1.036.9,2.55,2.55,0,0,0,2.385-.209,1.959,1.959,0,0,0,1.056,2.176,1.9,1.9,0,0,0,1.959-.3,2.194,2.194,0,0,0,2.054.527A2.783,2.783,0,0,0,47.49,8.67Z" transform="translate(13.184 0.273)" fill="none" stroke="#231815" stroke-linecap="round" stroke-linejoin="round" stroke-width="1"/>
            <line id="線_578" data-name="線 578" y1="4.695" x2="5.863" transform="translate(54.55 74.92)" fill="#c15656"/>
            <line id="線_579" data-name="線 579" x1="0.724" y1="4.038" transform="translate(56.757 78.36)" fill="#c15656"/>
            <line id="線_580" data-name="線 580" y1="4.695" x2="5.863" transform="translate(9.104 64.212)" fill="#c15656"/>
            <line id="線_581" data-name="線 581" x2="2.867" y2="0.713" transform="translate(13.591 65.847)" fill="#c15656"/>
          </g>
        </g>
      </g>
    </g>
    <g id="グループ_15293" data-name="グループ 15293" transform="translate(-8480.07 -1241.278)">
      <g id="グループ_14338" data-name="グループ 14338" transform="translate(617.914 656.142)">
        <ellipse id="楕円形_294" data-name="楕円形 294" cx="27.837" cy="5.74" rx="27.837" ry="5.74" transform="translate(19.517 74.174)" fill="#555" opacity="0.297" style="mix-blend-mode: multiply;isolation: isolate"/>
        <g id="グループ_14329" data-name="グループ 14329" transform="translate(0 0)">
          <g id="グループ_14328" data-name="グループ 14328" clip-path="url(#clip-path-4)">
            <path id="パス_39603" data-name="パス 39603" d="M42.681,39.436,14.329,23.067A31.925,31.925,0,0,1,42.681,6.7Z" transform="translate(4.183 1.956)" fill="#4c93b9"/>
            <path id="パス_39604" data-name="パス 39604" d="M43.7,35.737,15.349,52.106a31.928,31.928,0,0,1,0-32.738Z" transform="translate(3.163 5.655)" fill="#e6e6e6"/>
            <path id="パス_39605" data-name="パス 39605" d="M42.681,32.038V64.776A31.925,31.925,0,0,1,14.329,48.407Z" transform="translate(4.183 9.354)" fill="#4c93b9"/>
            <path id="パス_39606" data-name="パス 39606" d="M36.274,32.038,64.626,48.407A31.925,31.925,0,0,1,36.274,64.776Z" transform="translate(10.59 9.354)" fill="#e6e6e6"/>
            <path id="パス_39607" data-name="パス 39607" d="M36.274,35.737,64.626,19.368a31.928,31.928,0,0,1,0,32.738Z" transform="translate(10.59 5.655)" fill="#4c93b9"/>
            <path id="パス_39608" data-name="パス 39608" d="M36.274,39.436V6.7A31.925,31.925,0,0,1,64.626,23.067Z" transform="translate(10.59 1.956)" fill="#e6e6e6"/>
          </g>
        </g>
        <g id="グループ_14331" data-name="グループ 14331" transform="translate(13.996 25.02)">
          <g id="グループ_14330" data-name="グループ 14330" clip-path="url(#clip-path-5)">
            <path id="パス_39609" data-name="パス 39609" d="M14.32,54.273a.337.337,0,0,1-.253-.112.343.343,0,0,1,.023-.483l25.11-22.7a.342.342,0,1,1,.459.508L14.55,54.185a.342.342,0,0,1-.23.088" transform="translate(-9.915 -16.002)" fill="#4c93b9"/>
            <path id="パス_39610" data-name="パス 39610" d="M12.323,52.064a.337.337,0,0,1-.253-.112.343.343,0,0,1,.023-.483l25.11-22.7a.342.342,0,1,1,.459.508l-25.109,22.7a.342.342,0,0,1-.23.088" transform="translate(-10.498 -16.647)" fill="#4c93b9"/>
            <path id="パス_39611" data-name="パス 39611" d="M10.326,49.855a.337.337,0,0,1-.253-.112.343.343,0,0,1,.023-.483l25.11-22.7a.342.342,0,1,1,.459.508l-25.109,22.7a.342.342,0,0,1-.23.088" transform="translate(-11.082 -17.292)" fill="#4c93b9"/>
            <path id="パス_39612" data-name="パス 39612" d="M8.329,47.646a.337.337,0,0,1-.253-.112A.343.343,0,0,1,8.1,47.05l25.11-22.7a.342.342,0,0,1,.459.508L8.559,47.558a.342.342,0,0,1-.23.088" transform="translate(-11.665 -17.937)" fill="#4c93b9"/>
            <path id="パス_39613" data-name="パス 39613" d="M6.332,45.438a.337.337,0,0,1-.253-.112.343.343,0,0,1,.023-.483l25.11-22.7a.342.342,0,0,1,.459.508L6.562,45.35a.342.342,0,0,1-.23.088" transform="translate(-12.248 -18.582)" fill="#4c93b9"/>
            <path id="パス_39614" data-name="パス 39614" d="M4.336,43.229a.337.337,0,0,1-.253-.112.343.343,0,0,1,.023-.483l25.11-22.7a.342.342,0,1,1,.459.506L4.566,43.141a.342.342,0,0,1-.23.088" transform="translate(-12.83 -19.227)" fill="#4c93b9"/>
            <path id="パス_39615" data-name="パス 39615" d="M2.339,41.02a.337.337,0,0,1-.253-.112.343.343,0,0,1,.023-.483l25.11-22.7a.342.342,0,0,1,.459.508L2.569,40.932a.342.342,0,0,1-.23.088" transform="translate(-13.413 -19.872)" fill="#4c93b9"/>
            <path id="パス_39616" data-name="パス 39616" d="M.342,38.812A.337.337,0,0,1,.089,38.7a.343.343,0,0,1,.023-.483l25.11-22.7a.342.342,0,1,1,.459.508L.572,38.724a.342.342,0,0,1-.23.088" transform="translate(-13.996 -20.516)" fill="#4c93b9"/>
            <path id="パス_39617" data-name="パス 39617" d="M23.234,55.007a.337.337,0,0,1-.253-.112L.278,29.785a.343.343,0,0,1,.508-.46l22.7,25.11a.341.341,0,0,1-.253.571" transform="translate(-13.941 -16.491)" fill="#4c93b9"/>
            <path id="パス_39618" data-name="パス 39618" d="M25.442,53.01a.337.337,0,0,1-.253-.112L2.487,27.788a.343.343,0,0,1,.508-.46l22.7,25.11a.341.341,0,0,1-.253.571" transform="translate(-13.296 -17.074)" fill="#4c93b9"/>
            <path id="パス_39619" data-name="パス 39619" d="M27.651,51.013A.332.332,0,0,1,27.4,50.9L4.695,25.791a.343.343,0,0,1,.508-.46L27.9,50.443a.341.341,0,0,1-.023.482.336.336,0,0,1-.23.088" transform="translate(-12.651 -17.657)" fill="#4c93b9"/>
            <path id="パス_39620" data-name="パス 39620" d="M29.86,49.017a.337.337,0,0,1-.253-.112L6.9,23.8a.343.343,0,0,1,.508-.46l22.7,25.11a.341.341,0,0,1-.023.482.337.337,0,0,1-.23.089" transform="translate(-12.006 -18.24)" fill="#4c93b9"/>
            <path id="パス_39621" data-name="パス 39621" d="M32.068,47.019a.337.337,0,0,1-.253-.112L9.113,21.8a.343.343,0,0,1,.508-.46l22.7,25.11a.341.341,0,0,1-.253.571" transform="translate(-11.362 -18.823)" fill="#4c93b9"/>
            <path id="パス_39622" data-name="パス 39622" d="M34.277,45.023a.337.337,0,0,1-.253-.112L11.322,19.8a.343.343,0,0,1,.508-.46l22.7,25.11a.341.341,0,0,1-.253.571" transform="translate(-10.717 -19.406)" fill="#4c93b9"/>
            <path id="パス_39623" data-name="パス 39623" d="M36.486,43.026a.337.337,0,0,1-.253-.112L13.53,17.8a.343.343,0,0,1,.508-.46l22.7,25.11a.341.341,0,0,1-.253.571" transform="translate(-10.072 -19.989)" fill="#4c93b9"/>
            <path id="パス_39624" data-name="パス 39624" d="M38.7,41.029a.337.337,0,0,1-.253-.112l-22.7-25.109a.343.343,0,0,1,.508-.46l22.7,25.11a.341.341,0,0,1-.253.571" transform="translate(-9.427 -20.572)" fill="#4c93b9"/>
          </g>
        </g>
        <g id="グループ_14333" data-name="グループ 14333" transform="translate(46.864 8.698)">
          <g id="グループ_14332" data-name="グループ 14332" clip-path="url(#clip-path-6)">
            <path id="パス_39626" data-name="パス 39626" d="M60.106,33.867a.344.344,0,0,1-.336-.274L53.08.411a.342.342,0,0,1,.267-.4.331.331,0,0,1,.4.267l6.692,33.183a.345.345,0,0,1-.267.4.322.322,0,0,1-.068.006" transform="translate(-31.37 -8.698)" fill="#4c93b9"/>
            <path id="パス_39627" data-name="パス 39627" d="M57.187,34.456a.344.344,0,0,1-.336-.274L50.161,1a.342.342,0,0,1,.267-.4.33.33,0,0,1,.4.267l6.692,33.183a.345.345,0,0,1-.267.4.322.322,0,0,1-.068.006" transform="translate(-32.222 -8.525)" fill="#4c93b9"/>
            <path id="パス_39628" data-name="パス 39628" d="M54.27,35.045a.344.344,0,0,1-.336-.274L47.242,1.588a.341.341,0,0,1,.267-.4.332.332,0,0,1,.4.267l6.694,33.183a.345.345,0,0,1-.267.4.314.314,0,0,1-.068.006" transform="translate(-33.074 -8.354)" fill="#4c93b9"/>
            <path id="パス_39629" data-name="パス 39629" d="M51.351,35.633a.344.344,0,0,1-.336-.274L44.323,2.177a.342.342,0,0,1,.267-.4.333.333,0,0,1,.4.267l6.694,33.183a.345.345,0,0,1-.267.4.315.315,0,0,1-.068.006" transform="translate(-33.926 -8.182)" fill="#4c93b9"/>
            <path id="パス_39630" data-name="パス 39630" d="M48.431,36.222a.344.344,0,0,1-.336-.274L41.4,2.764a.341.341,0,0,1,.267-.4.332.332,0,0,1,.4.267l6.692,33.183a.345.345,0,0,1-.267.4.322.322,0,0,1-.068.006" transform="translate(-34.778 -8.01)" fill="#4c93b9"/>
            <path id="パス_39631" data-name="パス 39631" d="M45.512,36.811a.344.344,0,0,1-.336-.274L38.486,3.355a.342.342,0,0,1,.267-.4.332.332,0,0,1,.4.267L45.848,36.4a.345.345,0,0,1-.267.4.322.322,0,0,1-.068.006" transform="translate(-35.63 -7.838)" fill="#4c93b9"/>
            <path id="パス_39632" data-name="パス 39632" d="M42.593,37.4a.344.344,0,0,1-.336-.274L35.567,3.944a.342.342,0,0,1,.267-.4.331.331,0,0,1,.4.267l6.692,33.183a.345.345,0,0,1-.267.4.322.322,0,0,1-.068.006" transform="translate(-36.483 -7.666)" fill="#4c93b9"/>
            <path id="パス_39633" data-name="パス 39633" d="M39.674,37.988a.344.344,0,0,1-.336-.274L32.648,4.532a.342.342,0,0,1,.267-.4.334.334,0,0,1,.4.267L40.01,37.579a.345.345,0,0,1-.267.4.322.322,0,0,1-.068.006" transform="translate(-37.335 -7.494)" fill="#4c93b9"/>
            <path id="パス_39634" data-name="パス 39634" d="M35.007,29.906a.342.342,0,0,1-.068-.677l33.183-6.692a.335.335,0,0,1,.4.267.341.341,0,0,1-.267.4L35.076,29.9a.315.315,0,0,1-.068.006" transform="translate(-36.744 -2.12)" fill="#4c93b9"/>
            <path id="パス_39635" data-name="パス 39635" d="M34.418,26.987a.342.342,0,0,1-.068-.677l33.183-6.692a.337.337,0,0,1,.4.267.343.343,0,0,1-.267.4L34.487,26.98a.315.315,0,0,1-.068.006" transform="translate(-36.916 -2.972)" fill="#4c93b9"/>
            <path id="パス_39636" data-name="パス 39636" d="M33.829,24.068a.342.342,0,0,1-.068-.677L66.945,16.7a.337.337,0,0,1,.4.267.343.343,0,0,1-.267.4L33.9,24.061a.322.322,0,0,1-.068.006" transform="translate(-37.088 -3.824)" fill="#4c93b9"/>
            <path id="パス_39637" data-name="パス 39637" d="M33.24,21.149a.342.342,0,0,1-.068-.677L66.356,13.78a.329.329,0,0,1,.4.267.343.343,0,0,1-.267.4L33.309,21.143a.315.315,0,0,1-.068.006" transform="translate(-37.26 -4.677)" fill="#4c93b9"/>
            <path id="パス_39638" data-name="パス 39638" d="M32.651,18.23a.342.342,0,0,1-.068-.677l33.184-6.692a.337.337,0,0,1,.4.267.341.341,0,0,1-.267.4L32.72,18.224a.322.322,0,0,1-.068.006" transform="translate(-37.432 -5.529)" fill="#4c93b9"/>
            <path id="パス_39639" data-name="パス 39639" d="M32.063,15.312a.342.342,0,0,1-.068-.677L65.177,7.943a.341.341,0,1,1,.136.669L32.132,15.3a.253.253,0,0,1-.068.008" transform="translate(-37.603 -6.381)" fill="#4c93b9"/>
            <path id="パス_39640" data-name="パス 39640" d="M31.474,12.393a.342.342,0,0,1-.068-.677L64.59,5.024a.332.332,0,0,1,.4.267.343.343,0,0,1-.267.4L31.543,12.387a.315.315,0,0,1-.068.006" transform="translate(-37.775 -7.233)" fill="#4c93b9"/>
            <path id="パス_39641" data-name="パス 39641" d="M30.886,9.474a.342.342,0,0,1-.068-.677L64,2.1a.337.337,0,0,1,.4.267.344.344,0,0,1-.267.4L30.954,9.468a.3.3,0,0,1-.067.006" transform="translate(-37.947 -8.085)" fill="#4c93b9"/>
          </g>
        </g>
        <g id="グループ_14335" data-name="グループ 14335" transform="translate(46.81 41.435)">
          <g id="グループ_14334" data-name="グループ 14334" clip-path="url(#clip-path-7)">
            <path id="パス_39643" data-name="パス 39643" d="M51.249,70.975a.308.308,0,0,1-.068-.006.344.344,0,0,1-.267-.4l6.741-33.173a.343.343,0,0,1,.672.136L51.585,70.7a.344.344,0,0,1-.336.274" transform="translate(-31.948 -30.598)" fill="#4c93b9"/>
            <path id="パス_39644" data-name="パス 39644" d="M48.331,70.381a.308.308,0,0,1-.068-.006.344.344,0,0,1-.267-.4L54.737,36.8a.343.343,0,0,1,.672.137L48.667,70.107a.344.344,0,0,1-.336.274" transform="translate(-32.8 -30.771)" fill="#4c93b9"/>
            <path id="パス_39645" data-name="パス 39645" d="M45.413,69.789a.308.308,0,0,1-.068-.006.344.344,0,0,1-.267-.4l6.741-33.173a.343.343,0,0,1,.672.136L45.749,69.515a.344.344,0,0,1-.336.274" transform="translate(-33.651 -30.944)" fill="#4c93b9"/>
            <path id="パス_39646" data-name="パス 39646" d="M42.5,69.2a.308.308,0,0,1-.068-.006.344.344,0,0,1-.267-.4L48.9,35.613a.339.339,0,0,1,.4-.267.344.344,0,0,1,.267.4L42.831,68.922a.344.344,0,0,1-.336.274" transform="translate(-34.503 -31.117)" fill="#4c93b9"/>
            <path id="パス_39647" data-name="パス 39647" d="M39.577,68.6a.307.307,0,0,1-.068-.006.344.344,0,0,1-.267-.4L45.983,35.02a.343.343,0,0,1,.672.137L39.913,68.329a.344.344,0,0,1-.336.274" transform="translate(-35.355 -31.29)" fill="#4c93b9"/>
            <path id="パス_39648" data-name="パス 39648" d="M36.659,68.01A.308.308,0,0,1,36.591,68a.344.344,0,0,1-.267-.4l6.741-33.173a.343.343,0,0,1,.672.136L37,67.736a.344.344,0,0,1-.336.274" transform="translate(-36.207 -31.463)" fill="#4c93b9"/>
            <path id="パス_39649" data-name="パス 39649" d="M33.741,67.417a.308.308,0,0,1-.068-.006.344.344,0,0,1-.267-.4l6.741-33.173a.343.343,0,0,1,.672.136L34.077,67.143a.344.344,0,0,1-.336.274" transform="translate(-37.059 -31.637)" fill="#4c93b9"/>
            <path id="パス_39650" data-name="パス 39650" d="M30.823,66.824a.307.307,0,0,1-.068-.006.344.344,0,0,1-.267-.4l6.741-33.173a.338.338,0,0,1,.4-.266.344.344,0,0,1,.267.4L31.159,66.55a.344.344,0,0,1-.336.274" transform="translate(-37.911 -31.81)" fill="#4c93b9"/>
            <path id="パス_39651" data-name="パス 39651" d="M61.9,62.909a.308.308,0,0,1-.068-.006L28.664,56.161a.341.341,0,1,1,.136-.669l33.173,6.74a.342.342,0,0,1-.068.677" transform="translate(-38.522 -25.235)" fill="#4c93b9"/>
            <path id="パス_39652" data-name="パス 39652" d="M62.5,59.991a.307.307,0,0,1-.068-.006L29.257,53.243a.341.341,0,1,1,.136-.669l33.173,6.74a.342.342,0,0,1-.068.677" transform="translate(-38.349 -26.087)" fill="#4c93b9"/>
            <path id="パス_39653" data-name="パス 39653" d="M63.091,57.074a.308.308,0,0,1-.068-.006L29.85,50.326a.343.343,0,0,1-.269-.4.339.339,0,0,1,.4-.266L63.159,56.4a.342.342,0,0,1-.068.677" transform="translate(-38.176 -26.939)" fill="#4c93b9"/>
            <path id="パス_39654" data-name="パス 39654" d="M63.683,54.155a.307.307,0,0,1-.068-.006L30.442,47.407a.341.341,0,1,1,.136-.669l33.173,6.74a.342.342,0,0,1-.068.677" transform="translate(-38.003 -27.791)" fill="#4c93b9"/>
            <path id="パス_39655" data-name="パス 39655" d="M64.276,51.237a.308.308,0,0,1-.068-.006L31.035,44.49a.344.344,0,0,1-.267-.4.341.341,0,0,1,.4-.265L64.344,50.56a.342.342,0,0,1-.068.677" transform="translate(-37.829 -28.643)" fill="#4c93b9"/>
            <path id="パス_39656" data-name="パス 39656" d="M64.87,48.32a.308.308,0,0,1-.068-.006L31.629,41.572a.341.341,0,1,1,.136-.669l33.173,6.74a.342.342,0,0,1-.068.677" transform="translate(-37.656 -29.495)" fill="#4c93b9"/>
            <path id="パス_39657" data-name="パス 39657" d="M65.463,45.4a.308.308,0,0,1-.068-.006L32.222,38.654a.341.341,0,1,1,.136-.669l33.173,6.74a.342.342,0,0,1-.068.677" transform="translate(-37.483 -30.347)" fill="#4c93b9"/>
            <path id="パス_39658" data-name="パス 39658" d="M66.055,42.484a.307.307,0,0,1-.068-.006L32.814,35.736a.341.341,0,1,1,.136-.669l33.173,6.74a.342.342,0,0,1-.068.677" transform="translate(-37.31 -31.199)" fill="#4c93b9"/>
          </g>
        </g>
        <g id="グループ_14337" data-name="グループ 14337" transform="translate(0 0)">
          <g id="グループ_14336" data-name="グループ 14336" clip-path="url(#clip-path-4)">
            <path id="パス_39660" data-name="パス 39660" d="M57.166,35.889A17.041,17.041,0,1,1,40.125,18.847,17.04,17.04,0,0,1,57.166,35.889" transform="translate(6.739 5.503)" fill="#e6e6e6"/>
            <path id="パス_39661" data-name="パス 39661" d="M40.315,53.959A17.881,17.881,0,1,1,58.2,36.079,17.9,17.9,0,0,1,40.315,53.959m0-34.082a16.2,16.2,0,1,0,16.2,16.2,16.219,16.219,0,0,0-16.2-16.2" transform="translate(6.549 5.313)" fill="#040000"/>
            <path id="パス_39662" data-name="パス 39662" d="M42.316,35.417c6.788,9.442-.43,13.432-4.816,2.663-9.442,6.788-13.432-.43-2.663-4.816-6.788-9.442.432-13.432,4.816-2.663,9.443-6.788,13.434.43,2.663,4.816" transform="translate(8.288 7.052)" fill="#4c93b9"/>
            <path id="パス_39663" data-name="パス 39663" d="M43.821,72.979A33.4,33.4,0,1,1,77.215,39.585,33.434,33.434,0,0,1,43.821,72.979m0-65.369A31.974,31.974,0,1,0,75.794,39.585,32.011,32.011,0,0,0,43.821,7.61" transform="translate(3.044 1.807)" fill="#040000"/>
            <rect id="長方形_9222" data-name="長方形 9222" width="4.216" height="6.571" transform="translate(26.857 68.17)" fill="#d0a500"/>
            <path id="パス_39664" data-name="パス 39664" d="M25.223,60.524H21.007a.969.969,0,0,1-.969-.969V52.984a.969.969,0,0,1,.969-.969h4.216a.969.969,0,0,1,.969.969v6.571a.969.969,0,0,1-.969.969m-3.247-1.938h2.278V53.953H21.976Z" transform="translate(5.85 15.186)" fill="#040000"/>
            <rect id="長方形_9223" data-name="長方形 9223" width="4.216" height="6.571" transform="translate(62.826 68.17)" fill="#d0a500"/>
            <path id="パス_39665" data-name="パス 39665" d="M53.064,60.524H48.848a.969.969,0,0,1-.969-.969V52.984a.969.969,0,0,1,.969-.969h4.216a.969.969,0,0,1,.969.969v6.571a.969.969,0,0,1-.969.969m-3.247-1.938h2.278V53.953H49.817Z" transform="translate(13.978 15.186)" fill="#040000"/>
            <rect id="長方形_9224" data-name="長方形 9224" width="47.239" height="4.216" transform="translate(23.245 74.733)" fill="#d0a500"/>
            <path id="パス_39666" data-name="パス 39666" d="M65.45,63.249H18.211a.969.969,0,0,1-.969-.969V58.064a.969.969,0,0,1,.969-.969H65.45a.969.969,0,0,1,.969.969V62.28a.969.969,0,0,1-.969.969M19.18,61.311h45.3V59.033H19.18Z" transform="translate(5.034 16.669)" fill="#040000"/>
            <path id="パス_39669" data-name="パス 39669" d="M35.911,8.2a2.651,2.651,0,0,0-4.347-2.282A2.614,2.614,0,0,0,28.33,6.4a2.638,2.638,0,0,0-4.471,1.645,2.647,2.647,0,0,0-2.771,2.386c0,.043,0,.083,0,.125a2.646,2.646,0,1,0,2.763,3.982,2.632,2.632,0,0,0,4.747-2,2.656,2.656,0,0,0,.727-.4,2.614,2.614,0,0,0,1.278.487,2.643,2.643,0,0,0,2.823-2.034A2.648,2.648,0,0,0,35.911,8.2" transform="translate(5.533 1.546)" fill="#727171"/>
            <path id="パス_39670" data-name="パス 39670" d="M21.827,16.99c-.115,0-.231-.005-.348-.017a3.629,3.629,0,0,1-3.262-3.95,3.591,3.591,0,0,1,2.214-2.988A3.616,3.616,0,0,1,23.29,7.354,3.641,3.641,0,0,1,27.061,4.92a3.529,3.529,0,0,1,1.461.473,3.566,3.566,0,0,1,2.292-.561,3.518,3.518,0,0,1,.871.2,3.619,3.619,0,1,1,2.686,6.645A3.639,3.639,0,0,1,30.73,13.8a3.476,3.476,0,0,1-.911-.212,3.619,3.619,0,0,1-3.948,3.231,3.571,3.571,0,0,1-1.751-.661,3.58,3.58,0,0,1-2.293.828m2.119-7.758a1.678,1.678,0,0,0-1.676,1.514,1.034,1.034,0,0,1-.774.983,1.669,1.669,0,0,0-1.349,1.479,1.687,1.687,0,0,0,1.515,1.836,1.659,1.659,0,0,0,1.584-.8.969.969,0,0,1,1.61-.054,1.66,1.66,0,0,0,1.2.7,1.642,1.642,0,0,0,1.806-1.966.97.97,0,0,1,.615-1.079,1.637,1.637,0,0,0,.46-.255.973.973,0,0,1,1.168-.034,1.661,1.661,0,0,0,.809.314A1.688,1.688,0,0,0,32.7,10.583a.971.971,0,0,1,.888-.745,1.67,1.67,0,0,0,1.576-1.51h0a1.684,1.684,0,0,0-1.515-1.836,1.656,1.656,0,0,0-1.244.389.965.965,0,0,1-1.106.1,1.664,1.664,0,0,0-.671-.217,1.645,1.645,0,0,0-1.376.527.974.974,0,0,1-.682.3,1.038,1.038,0,0,1-.7-.27,1.668,1.668,0,0,0-1-.473,1.7,1.7,0,0,0-1.835,1.513,1.012,1.012,0,0,1-1.012.872h-.084" transform="translate(5.314 1.327)"/>
            <path id="パス_39671" data-name="パス 39671" d="M54.05,59.749a2.651,2.651,0,0,0-2.663-4.124,2.621,2.621,0,0,0-3.054-1.168,2.638,2.638,0,0,0-4.7-.767,2.647,2.647,0,0,0-3.586.716c-.025.035-.039.074-.061.11a2.645,2.645,0,1,0,.448,4.825,2.643,2.643,0,0,0,4.8,1.231,2.581,2.581,0,0,0,.317-.642,2.652,2.652,0,0,0,.833.005,2.622,2.622,0,0,0,4.332.669,2.645,2.645,0,0,0,3.336-.855" transform="translate(10.658 15.345)" fill="#727171"/>
            <path id="パス_39672" data-name="パス 39672" d="M43.272,62.893A3.593,3.593,0,0,1,40,60.8a3.615,3.615,0,1,1-.2-7.147,3.618,3.618,0,0,1,3.807-.932,3.63,3.63,0,0,1,4.482-.264,3.527,3.527,0,0,1,1.039,1.129,3.6,3.6,0,0,1,2.273.64,3.459,3.459,0,0,1,.66.6h.039a3.619,3.619,0,1,1-.966,7.108A3.628,3.628,0,0,1,46.921,62a3.533,3.533,0,0,1-.69-.633,3.622,3.622,0,0,1-2.959,1.525m-2.621-4.3a.968.968,0,0,1,.963.863,1.664,1.664,0,0,0,.7,1.2,1.651,1.651,0,0,0,2.543-.826.966.966,0,0,1,1.066-.636,1.637,1.637,0,0,0,.526.005.966.966,0,0,1,1.032.546,1.655,1.655,0,0,0,.549.669,1.682,1.682,0,0,0,2.191-.245.969.969,0,0,1,1.139-.213,1.667,1.667,0,0,0,2.115-.54h0a1.681,1.681,0,0,0-1.69-2.616.977.977,0,0,1-1.01-.457,1.646,1.646,0,0,0-1.935-.736.983.983,0,0,1-.743-.072.969.969,0,0,1-.473-.577,1.657,1.657,0,0,0-.638-.9,1.684,1.684,0,0,0-2.342.413.97.97,0,0,1-1.311.264,1.675,1.675,0,0,0-2.274.451,1.06,1.06,0,0,1-1.156.477,1.676,1.676,0,1,0,.284,3.054.973.973,0,0,1,.465-.119" transform="translate(10.439 15.127)"/>
          </g>
        </g>
      </g>
      <g id="グループ_14351" data-name="グループ 14351" transform="translate(612.018 720.834)">
        <g id="グループ_8888-2" data-name="グループ 8888" transform="translate(0 0)" clip-path="url(#clip-path-9)">
          <path id="パス_18438-2" data-name="パス 18438" d="M10.737,7.544c-3.456.883-4.436,2.222-5.089,6.95C4.994,9.766,4.016,8.427.558,7.544c3.455-.9,4.436-2.251,5.089-6.986C6.3,5.293,7.282,6.639,10.737,7.544" transform="translate(0.249 0.249)" fill="#d0a500"/>
          <path id="パス_18439-2" data-name="パス 18439" d="M5.9,15.55a.807.807,0,0,1-.8-.7C4.452,10.2,3.562,9.33.607,8.577a.809.809,0,0,1,0-1.565C3.559,6.237,4.452,5.363,5.1.7A.808.808,0,0,1,6.7.7c.643,4.665,1.537,5.539,4.493,6.314a.809.809,0,0,1,0,1.565C8.23,9.332,7.34,10.2,6.7,14.854a.808.808,0,0,1-.8.7M3.174,7.787A5.365,5.365,0,0,1,5.9,11.013,5.358,5.358,0,0,1,8.619,7.787,5.4,5.4,0,0,1,5.9,4.543,5.4,5.4,0,0,1,3.174,7.787" transform="translate(0 0)" fill="#040000"/>
        </g>
      </g>
      <g id="グループ_14353" data-name="グループ 14353" transform="translate(700.892 656.142)">
        <g id="グループ_8886-2" data-name="グループ 8886" transform="translate(0 0)" clip-path="url(#clip-path-10)">
          <path id="パス_18436-2" data-name="パス 18436" d="M15.016,10.48c-4.91,1.255-6.3,3.156-7.229,9.871C6.859,13.637,5.469,11.735.559,10.48c4.906-1.286,6.3-3.2,7.229-9.922.929,6.724,2.322,8.636,7.229,9.922" transform="translate(0.147 0.147)" fill="#d0a500"/>
          <path id="パス_18437-2" data-name="パス 18437" d="M7.936,21.2a.7.7,0,0,1-.7-.609c-.892-6.454-2.084-8.1-6.706-9.283a.707.707,0,0,1,0-1.368C5.151,8.732,6.344,7.074,7.236.609a.706.706,0,0,1,1.4,0c.892,6.465,2.084,8.123,6.708,9.335a.707.707,0,0,1,0,1.368c-4.621,1.18-5.812,2.829-6.7,9.283a.7.7,0,0,1-.7.609M3.014,10.621c2.677,1.073,4.056,2.738,4.923,6.056.866-3.318,2.243-4.982,4.92-6.056C10.18,9.531,8.8,7.857,7.936,4.534c-.867,3.323-2.244,5-4.923,6.088" transform="translate(0 0)" fill="#040000"/>
        </g>
      </g>
    </g>
    <g id="グループ_15295" data-name="グループ 15295" transform="matrix(0.995, -0.105, 0.105, 0.995, -8436.347, -1183.239)">
      <g id="グループ_14340" data-name="グループ 14340" transform="translate(399.492 687.696)">
        <ellipse id="楕円形_293" data-name="楕円形 293" cx="37.768" cy="5.916" rx="37.768" ry="5.916" transform="matrix(0.995, 0.105, -0.105, 0.995, 5.013, 30.44)" fill="#555" opacity="0.297" style="mix-blend-mode: multiply;isolation: isolate"/>
        <g id="グループ_14339" data-name="グループ 14339" transform="translate(0 0)" clip-path="url(#clip-path-11)">
          <path id="パス_39673" data-name="パス 39673" d="M75.311,26.057a.439.439,0,0,0-.059.014v-.016L67.7,25.769l-.264,6.993,7.552.286v-.016c.02,0,.038.017.057.018.739.028,1.4-1.515,1.47-3.446s-.466-3.519-1.205-3.547" transform="translate(2.942 1.124)" fill="#7f4f21"/>
          <path id="パス_39674" data-name="パス 39674" d="M75.808,33.522a1.278,1.278,0,0,1-.76.226l-.026,0h-.031l-7.553-.287a.673.673,0,0,1-.467-.215.665.665,0,0,1-.178-.48l.265-6.992a.672.672,0,0,1,.7-.645l7.553.286h.057c.38.016,1.081.231,1.517,1.514a8.664,8.664,0,0,1-.206,5.424,2.552,2.552,0,0,1-.867,1.169m-.9-1.12a.652.652,0,0,1,.2-.005,4.685,4.685,0,0,0,.762-2.79,4.46,4.46,0,0,0-.574-2.839.719.719,0,0,1-.189-.022l-6.738-.256-.216,5.654Z" transform="translate(2.914 1.096)"/>
          <path id="パス_39675" data-name="パス 39675" d="M69.888,37.407c1.594-.551,3.992-3.753,4.142-7.729s-2-7.351-3.545-8.021a1.2,1.2,0,0,0-.167-.069,1.339,1.339,0,0,0-.181-.033c-.026,0-.051-.014-.078-.015h-.017c-.026,0-.052-.011-.079-.013s-.053.006-.08.006L11.569,19.324c2.849.107,2.245,16.06-.6,15.952l58.313,2.209c.027,0,.053.011.079.013s.054-.006.08-.006h.017c.027,0,.052-.007.079-.008a1.323,1.323,0,0,0,.182-.02,1.145,1.145,0,0,0,.172-.056" transform="translate(0.478 0.843)" fill="#8d725c"/>
          <path id="パス_39676" data-name="パス 39676" d="M70.833,37.608a3.27,3.27,0,0,1-.717.37,1.536,1.536,0,0,1-.252.081,1.556,1.556,0,0,1-.214.027,1.167,1.167,0,0,1-.2.014.907.907,0,0,1-.231-.013l-58.252-2.2h0a.584.584,0,1,1,.045-1.167c.125,0,.31-.162.486-.444,1.554-2.47,1.888-11.28.525-13.861-.155-.3-.324-.474-.451-.479h0a.584.584,0,0,1,.045-1.168L69.93,20.973a.787.787,0,0,1,.217.011,1.128,1.128,0,0,1,.119.019,1.787,1.787,0,0,1,.244.049,1.837,1.837,0,0,1,.257.1c1.672.723,4.038,4.2,3.872,8.567a10.345,10.345,0,0,1-3.806,7.884M12.56,34.775l56.766,2.151c.032,0,.1.013.134.018l.161-.027c.007,0,.095-.034.1-.039,1.231-.42,3.6-3.272,3.75-7.2s-2-6.945-3.195-7.461l-.155-.055c-.016,0-.116-.02-.133-.024L13.12,19.99c1.46,3.03,1.124,11.875-.56,14.785" transform="translate(0.454 0.819)" fill="#040000"/>
          <path id="パス_39677" data-name="パス 39677" d="M14.122,27.4c-.167,4.41-1.642,7.936-3.294,7.873s-2.856-3.689-2.689-8.1,1.642-7.936,3.294-7.873,2.856,3.689,2.689,8.1" transform="translate(0.354 0.842)" fill="#a48b65"/>
          <path id="パス_39678" data-name="パス 39678" d="M12.008,35.623a1.956,1.956,0,0,1-1.177.353c-2.4-.092-3.5-4.493-3.334-8.8a17.363,17.363,0,0,1,1.142-5.846c.739-1.763,1.752-2.711,2.848-2.671s2.035,1.063,2.636,2.878a17.334,17.334,0,0,1,.7,5.916c-.13,3.449-1.135,7.045-2.812,8.165m-.971-15.484a3.97,3.97,0,0,0-1.164,1.713,16.005,16.005,0,0,0-1.037,5.38c-.169,4.466,1.1,7.369,2.044,7.4s2.431-2.764,2.6-7.228a16.018,16.018,0,0,0-.628-5.445c-.39-1.173-.944-1.942-1.415-1.96a.681.681,0,0,0-.4.136" transform="translate(0.326 0.814)"/>
          <path id="パス_39679" data-name="パス 39679" d="M73.854,28.65,14.362,26.4,14.228,24.3l59.289,2.29Z" transform="translate(0.621 1.06)" fill="#a48b65"/>
          <path id="パス_39680" data-name="パス 39680" d="M74.253,29.235a.669.669,0,0,1-.4.113L14.365,27.1a.67.67,0,0,1-.644-.627l-.134-2.092a.669.669,0,0,1,.7-.711l59.289,2.289a.669.669,0,0,1,.637.56l.335,2.055a.666.666,0,0,1-.16.552.62.62,0,0,1-.13.114M15.02,25.778l58.069,2.2-.116-.705-58-2.24Z" transform="translate(0.593 1.033)"/>
          <path id="パス_39681" data-name="パス 39681" d="M46.274,36.544l-11.21-.425c.954-.532,2.916-4.155,3.038-8.246.112-3.778-1.334-6.781-2.441-7.511l11.21.425c1.1.041,3.06,3.753,2.961,7.531-.107,4.091-2.365,8.271-3.558,8.226" transform="translate(1.53 0.889)" fill="#a48b65"/>
          <path id="パス_39682" data-name="パス 39682" d="M47.165,36.956a1.513,1.513,0,0,1-.888.287l-11.21-.426a.671.671,0,0,1-.626-.513.683.683,0,0,1,.325-.742c.6-.292,2.574-3.623,2.7-7.68.112-3.78-1.364-6.419-2.14-6.932a.671.671,0,0,1,.394-1.23l11.208.426c1.784.067,3.7,4.446,3.6,8.219-.09,3.472-1.631,7.014-3.007,8.305a2.757,2.757,0,0,1-.357.287M46.311,35.9c.744-.183,2.781-3.767,2.879-7.573.094-3.619-1.733-6.688-2.338-6.847l-9.65-.364a12.858,12.858,0,0,1,1.6,6.8,15.511,15.511,0,0,1-2.255,7.61Zm.015,0h0Z" transform="translate(1.502 0.86)"/>
          <path id="パス_39683" data-name="パス 39683" d="M10.8,23.613a.44.44,0,0,0-.059.014v-.016l-7.553-.286-.264,6.993,7.552.286v-.016c.02,0,.038.017.057.018.739.028,1.4-1.515,1.47-3.446s-.466-3.519-1.205-3.547" transform="translate(0.128 1.018)" fill="#7f4f21"/>
          <path id="パス_39684" data-name="パス 39684" d="M11.3,31.085a1.261,1.261,0,0,1-.758.22.117.117,0,0,0-.021,0h-.038l-7.552-.287a.671.671,0,0,1-.645-.7l.265-6.993a.672.672,0,0,1,.7-.645l7.552.287h.025a.273.273,0,0,0,.029,0h.005c1.379.053,1.925,2.235,1.849,4.242-.062,1.6-.525,3.28-1.408,3.871m-.9-1.126a.588.588,0,0,1,.187-.007l.02,0a4.6,4.6,0,0,0,.762-2.792,4.468,4.468,0,0,0-.574-2.839.7.7,0,0,1-.187-.02l-6.74-.257L3.65,29.7Z" transform="translate(0.1 0.99)"/>
          <path id="パス_39685" data-name="パス 39685" d="M4.506,26.9c-.074,1.947-.733,3.5-1.472,3.476s-1.278-1.63-1.2-3.578.733-3.5,1.472-3.476,1.278,1.63,1.2,3.578" transform="translate(0.08 1.018)" fill="#7f4f21"/>
          <path id="パス_39686" data-name="パス 39686" d="M3.794,30.846a1.252,1.252,0,0,1-.757.225c-1.379-.051-1.925-2.251-1.849-4.272s.791-4.167,2.168-4.12,1.925,2.252,1.849,4.273a7.976,7.976,0,0,1-.54,2.714,2.555,2.555,0,0,1-.871,1.179m-.536-6.838a5.2,5.2,0,0,0-.729,2.843c-.067,1.786.4,2.779.608,2.893A5.2,5.2,0,0,0,3.865,26.9c.068-1.787-.4-2.78-.607-2.894m1.277,2.919.009-.006Z" transform="translate(0.052 0.99)"/>
          <path id="パス_39687" data-name="パス 39687" d="M48.151,23.268a1.388,1.388,0,0,1-.647.229c-.958.033-5.55.25-8.036,1.547a7.73,7.73,0,0,0-2.632,2.2c-.155.181-.313.364-.479.549-.152.167-.294.334-.435.5a10.366,10.366,0,0,1-1.613,1.616c-.219.171-.421.32-.613.449a2.866,2.866,0,0,1-1.737.593,2.39,2.39,0,0,1-1.688-.744c-.9-.967-1.131-3,1.189-5.555a15.47,15.47,0,0,1,2.786-2.366,12.253,12.253,0,0,1,3.867-1.78c3.777-.9,9.551.245,9.6.258a1.391,1.391,0,0,1,.434,2.507M32.105,28.294a1.2,1.2,0,0,0,.191-.106c.041-.027.085-.059.129-.095A15.685,15.685,0,0,0,34.5,26.074,12.49,12.49,0,0,1,36.9,24a19.671,19.671,0,0,1,2.207-1.257,6.556,6.556,0,0,1,.755-.308,4.314,4.314,0,0,0-1.167.246,17.336,17.336,0,0,0-2.591,1.439,16.218,16.218,0,0,0-2.932,2.46,3.649,3.649,0,0,0-1.07,1.715" transform="translate(1.293 0.88)" fill="#a48b65"/>
          <path id="パス_39688" data-name="パス 39688" d="M34.6,22.806a11.706,11.706,0,0,1,3.672-1.695c3.542-.842,9.15.215,9.32.257a.792.792,0,0,1-.122,1.557c-.031,0-5.41.126-8.259,1.612a9.2,9.2,0,0,0-.852.5,11.987,11.987,0,0,0-2.427,2.374,14.023,14.023,0,0,1-1.973,2.048c-.206.161-.4.3-.575.422a2.31,2.31,0,0,1-1.381.494,1.8,1.8,0,0,1-1.271-.553c-.728-.783-.853-2.5,1.193-4.745A14.851,14.851,0,0,1,34.6,22.806m-1.951,5.906c.053-.037.109-.076.167-.122A16.231,16.231,0,0,0,34.973,26.5a11.834,11.834,0,0,1,2.287-1.981A19,19,0,0,1,39.4,23.3a40.963,40.963,0,0,1,4.7-1.347c-1.155-.225-4.488-.3-5.624.2A17.735,17.735,0,0,0,35.8,23.647,16.876,16.876,0,0,0,32.756,26.2c-1.489,1.638-1.283,2.4-1.117,2.577.1.11.387.353,1.015-.067m1.285-6.9a16.107,16.107,0,0,0-2.9,2.462c-2.592,2.852-2.258,5.213-1.183,6.368a2.989,2.989,0,0,0,2.1.934,3.491,3.491,0,0,0,2.092-.694c.2-.135.416-.293.648-.475a10.82,10.82,0,0,0,1.7-1.7c.139-.164.278-.328.426-.492.171-.189.331-.375.488-.559a8,8,0,0,1,1.716-1.622,8.145,8.145,0,0,1,.74-.436c1.838-.958,5.3-1.394,7.715-1.476.031,0,.095-.005.126-.008a1.99,1.99,0,0,0,.277-3.91c-.053-.013-5.97-1.192-9.888-.261a12.89,12.89,0,0,0-4.061,1.865" transform="translate(1.267 0.855)"/>
          <path id="パス_39689" data-name="パス 39689" d="M52.988,29.976a1.194,1.194,0,0,1-1.606-.515c-.64-1.241-3.315-3.173-4.851-4.1a1.194,1.194,0,0,1-.406-1.636,1.208,1.208,0,0,1,.362-.379,1.191,1.191,0,0,1,1.283-.025c.462.279,4.579,2.808,5.734,5.047a1.192,1.192,0,0,1-.4,1.538c-.018.013-.1.058-.118.07" transform="translate(2.005 1.01)" fill="#a48b65"/>
          <path id="パス_39690" data-name="パス 39690" d="M46.844,23.87a.586.586,0,0,1,.636-.014c.181.109,4.417,2.678,5.516,4.811a.6.6,0,0,1-.2.767c-.018.011-.038.023-.057.033a.594.594,0,0,1-.8-.257c-.785-1.522-3.927-3.646-5.072-4.337a.594.594,0,0,1-.2-.815.588.588,0,0,1,.18-.189m-.666-1a1.792,1.792,0,0,0,.069,3.026c1.544.931,4.08,2.8,4.626,3.86a1.791,1.791,0,0,0,2.414.773,1.582,1.582,0,0,0,.175-.1,1.792,1.792,0,0,0,.6-2.312c-1.206-2.341-5.178-4.816-5.962-5.288a1.788,1.788,0,0,0-1.92.043" transform="translate(1.98 0.985)"/>
          <path id="パス_39691" data-name="パス 39691" d="M58.671,24.424a1.324,1.324,0,0,1-.78.21L28.7,23.528a1.113,1.113,0,0,1-1.154-1.077A.984.984,0,0,1,28,21.674a1.326,1.326,0,0,1,.781-.21L57.97,22.569a1.112,1.112,0,0,1,1.154,1.077.982.982,0,0,1-.453.777" transform="translate(1.202 0.937)" fill="#a48b65"/>
          <path id="パス_39692" data-name="パス 39692" d="M28.36,22.2a.715.715,0,0,1,.423-.11l29.191,1.105c.328.013.585.217.576.456a.383.383,0,0,1-.187.3.712.712,0,0,1-.423.11L28.749,22.954c-.327-.013-.585-.217-.576-.456a.383.383,0,0,1,.187-.3m-.666-1a1.576,1.576,0,0,0-.719,1.252,1.7,1.7,0,0,0,1.729,1.7L57.9,25.258a1.917,1.917,0,0,0,1.133-.311,1.569,1.569,0,0,0,.719-1.251A1.7,1.7,0,0,0,58.02,22L28.827,20.89a1.919,1.919,0,0,0-1.133.311" transform="translate(1.177 0.911)"/>
          <path id="パス_39693" data-name="パス 39693" d="M42.762,37.879a2.882,2.882,0,0,1-1.933.106,1.03,1.03,0,0,1-.651-.552.707.707,0,0,1,.246-.891,1.237,1.237,0,0,1,.485-.165,1.325,1.325,0,0,0,.4-.116c.5-.336,2.5-3.482,2.619-7.6.107-3.659-.846-5.959-1.559-6.423l-.124-.075a1.41,1.41,0,0,1-.767-.816.78.78,0,0,1,.117-.608,1.084,1.084,0,0,1,.228-.225,2.292,2.292,0,0,1,1.988.061c1.654,1.077,2.568,4.126,2.447,8.159-.123,4.162-1.827,8.04-3.342,9.052-.05.033-.1.065-.151.093" transform="translate(1.75 0.886)" fill="#a48b65"/>
          <path id="パス_39694" data-name="パス 39694" d="M42.177,21.037a1.8,1.8,0,0,1,1.33.067c1.438.935,2.29,3.763,2.174,7.636-.118,4.046-1.784,7.71-3.073,8.572-.037.024-.073.047-.11.067-.368.2-1.572.24-1.745-.158-.032-.077-.018-.124.029-.156a6.7,6.7,0,0,0,.839-.256.389.389,0,0,0,.044-.028c.784-.523,2.761-3.939,2.884-8.077.109-3.634-.824-6.289-1.829-6.943-.261-.17-.774-.408-.6-.666a.215.215,0,0,1,.063-.059m-.666-1a1.412,1.412,0,0,0-.392.39,1.373,1.373,0,0,0-.2,1.075,1.963,1.963,0,0,0,1.043,1.2l.1.065c.369.24,1.4,2.157,1.288,5.9a12.383,12.383,0,0,1-2.339,7.1,1.826,1.826,0,0,1-.188.041,1.791,1.791,0,0,0-.708.257,1.306,1.306,0,0,0-.464,1.626,1.609,1.609,0,0,0,1.009.882,3.476,3.476,0,0,0,2.416-.149c.065-.035.129-.075.2-.119,1.87-1.25,3.489-5.527,3.607-9.533.129-4.3-.862-7.468-2.718-8.677a2.849,2.849,0,0,0-2.651-.058" transform="translate(1.725 0.861)"/>
          <path id="パス_39695" data-name="パス 39695" d="M75.108,35.1a.644.644,0,0,0-.065-.01l.007-.015-7.428-3.3-3.058,6.879,7.428,3.3L72,41.94c.019.01.031.031.051.041.726.322,2-.955,2.845-2.854s.94-3.7.213-4.024" transform="translate(2.816 1.386)" fill="#7f4f21"/>
          <path id="パス_39696" data-name="パス 39696" d="M72.635,42.746a1.373,1.373,0,0,1-.848-.077c-.008,0-.018-.007-.026-.013l-.031-.013-7.427-3.3a.726.726,0,0,1-.38-.4.716.716,0,0,1,.014-.551l3.058-6.877a.723.723,0,0,1,.952-.366l7.428,3.3.03.015.022.009h0c.373.167.987.663.91,2.119a9.317,9.317,0,0,1-2.371,5.335,2.748,2.748,0,0,1-1.334.82m-.449-1.477a.714.714,0,0,1,.2.075,5.041,5.041,0,0,0,1.875-2.482,4.81,4.81,0,0,0,.56-3.064.771.771,0,0,1-.181-.1l-6.627-2.946-2.473,5.56Z" transform="translate(2.786 1.356)"/>
          <path id="パス_39697" data-name="パス 39697" d="M65.308,44.265c1.812.087,5.485-2.154,7.224-6.064s.941-8.139-.337-9.426a1.134,1.134,0,0,0-.139-.136,1.557,1.557,0,0,0-.167-.106c-.025-.013-.045-.033-.072-.045l-.016-.007c-.026-.014-.048-.033-.075-.045s-.055-.015-.082-.025L14.292,2.912c2.8,1.245-4.173,16.935-6.976,15.69L64.668,44.1c.026.014.048.033.074.045s.056.016.083.026l.016.006a.808.808,0,0,0,.082.023,1.461,1.461,0,0,0,.19.053,1.328,1.328,0,0,0,.194.013" transform="translate(0.319 0.127)" fill="#5a863e"/>
          <path id="パス_39698" data-name="パス 39698" d="M66.183,44.834a3.473,3.473,0,0,1-.865.083,1.717,1.717,0,0,1-.283-.019,1.823,1.823,0,0,1-.224-.058,1.24,1.24,0,0,1-.2-.066,1.06,1.06,0,0,1-.225-.1L7.09,19.2h0A.628.628,0,0,1,7.6,18.053c.124.054.375-.039.663-.248C10.8,15.958,14.652,7.292,14.322,4.171c-.037-.356-.134-.6-.259-.657h0a.628.628,0,1,1,.51-1.148l57.353,25.5a.866.866,0,0,1,.213.1c.026.014.087.05.111.067a1.5,1.5,0,0,1,.438.354c1.381,1.389,2.354,5.807.446,10.1-1.658,3.728-4.84,5.906-6.951,6.353M9.12,18.729,64.95,43.553a1.258,1.258,0,0,1,.126.071l.171.037c.008,0,.109,0,.117,0,1.4.073,4.9-1.829,6.621-5.692s.776-7.735-.21-8.727l-.133-.117c-.016-.008-.109-.066-.123-.077L15.585,4.189C15.832,7.8,11.964,16.5,9.12,18.729" transform="translate(0.293 0.101)" fill="#040000"/>
          <path id="パス_39699" data-name="パス 39699" d="M13.544,11.96C11.615,16.3,8.735,19.228,7.11,18.506s-1.38-4.825.549-9.163,4.81-7.269,6.435-6.547,1.379,4.825-.55,9.163" transform="translate(0.263 0.118)" fill="#a48b65"/>
          <path id="パス_39700" data-name="パス 39700" d="M8.164,19.314a2.106,2.106,0,0,1-1.318-.119c-2.363-1.051-1.7-5.883.184-10.115A18.691,18.691,0,0,1,10.506,3.7c1.442-1.465,2.833-2.007,3.911-1.529S16.025,4.042,15.9,6.1a18.629,18.629,0,0,1-1.668,6.187c-1.507,3.393-3.948,6.583-6.069,7.032M13.379,3.462a4.26,4.26,0,0,0-1.844,1.245A17.213,17.213,0,0,0,8.348,9.665c-1.952,4.393-1.846,7.8-.915,8.211s3.532-1.789,5.481-6.18a17.157,17.157,0,0,0,1.548-5.688c.081-1.326-.167-2.317-.63-2.522a.727.727,0,0,0-.452-.024" transform="translate(0.233 0.087)"/>
          <path id="パス_39701" data-name="パス 39701" d="M72.529,37.114,14.017,11.1l.7-2.14L73.014,34.927Z" transform="translate(0.611 0.391)" fill="#a48b65"/>
          <path id="パス_39702" data-name="パス 39702" d="M72.708,37.848a.731.731,0,0,1-.441-.046L13.754,11.789a.721.721,0,0,1-.391-.884l.7-2.142a.719.719,0,0,1,.391-.434.731.731,0,0,1,.587,0L73.338,34.3a.72.72,0,0,1,.41.814L73.263,37.3a.722.722,0,0,1-.38.487.745.745,0,0,1-.175.062M14.935,10.736,72.047,36.127l.166-.751L15.185,9.971Z" transform="translate(0.581 0.361)"/>
          <path id="パス_39703" data-name="パス 39703" d="M42.066,33.972l-11.025-4.9c1.165-.15,4.571-2.985,6.327-7.021,1.621-3.728,1.377-7.3.563-8.475l11.025,4.9c1.083.482,1.557,4.971-.051,8.7-1.742,4.043-5.666,7.316-6.839,6.794" transform="translate(1.354 0.592)" fill="#a48b65"/>
          <path id="パス_39704" data-name="パス 39704" d="M42.8,34.729a1.615,1.615,0,0,1-1-.069l-11.024-4.9A.723.723,0,0,1,30.358,29a.734.734,0,0,1,.621-.612c.713-.053,4.017-2.59,5.759-6.594,1.622-3.73,1.2-6.956.631-7.777a.722.722,0,0,1,.885-1.071l11.025,4.9c1.753.78,1.923,5.919.316,9.648-1.477,3.431-4.43,6.353-6.32,7.092a3,3,0,0,1-.471.144m-.432-1.394c.816.116,4.283-2.652,5.9-6.412,1.539-3.576.94-7.371.4-7.772l-9.492-4.218a13.821,13.821,0,0,1-1.123,7.433,16.678,16.678,0,0,1-5.291,6.7Zm.015.007h0Z" transform="translate(1.324 0.562)"/>
          <path id="パス_39705" data-name="パス 39705" d="M11.663,6.894a.643.643,0,0,0-.065-.01l.007-.016-7.428-3.3L1.119,10.445l7.428,3.3.006-.015c.019.01.031.031.051.041.726.322,2-.955,2.845-2.854s.94-3.7.213-4.024" transform="translate(0.049 0.156)" fill="#7f4f21"/>
          <path id="パス_39706" data-name="パス 39706" d="M9.186,14.545a1.355,1.355,0,0,1-.844-.082l-.02-.01-.039-.015-7.426-3.3a.721.721,0,0,1-.366-.952L3.548,3.3A.723.723,0,0,1,4.5,2.938l7.427,3.3.024.011.029.011.005,0c1.356.6,1.029,3,.152,4.975-.7,1.573-1.835,3.066-2.952,3.3m-.45-1.484a.619.619,0,0,1,.189.067l.02.011a4.946,4.946,0,0,0,1.875-2.483,4.814,4.814,0,0,0,.56-3.065A.771.771,0,0,1,11.2,7.5L4.574,4.548,2.1,10.108Z" transform="translate(0.019 0.126)"/>
          <path id="パス_39707" data-name="パス 39707" d="M4.032,7.643C3.18,9.559,1.9,10.849,1.173,10.527S.548,8.389,1.4,6.474,3.531,3.267,4.258,3.59s.625,2.138-.226,4.053" transform="translate(0.03 0.155)" fill="#7f4f21"/>
          <path id="パス_39708" data-name="パス 39708" d="M1.757,11.292a1.354,1.354,0,0,1-.845-.077C-.445,10.613-.112,8.2.771,6.21S3.226,2.364,4.583,2.961s1.023,3.018.14,5.006a8.591,8.591,0,0,1-1.624,2.5,2.756,2.756,0,0,1-1.341.83M3.952,4.249A5.607,5.607,0,0,0,2.089,6.8c-.781,1.756-.709,2.936-.548,3.132A5.6,5.6,0,0,0,3.4,7.38c.782-1.756.711-2.936.549-3.132m.111,3.425.013,0Z" transform="translate(0 0.125)"/>
          <path id="パス_39709" data-name="パス 39709" d="M49.129,21.321a1.486,1.486,0,0,1-.738-.03c-.97-.35-5.643-1.967-8.642-1.666a9.3,9.3,0,0,0-.983.15,9.194,9.194,0,0,0-2.523.994c-.228.118-.458.239-.7.357-.218.106-.427.216-.635.327a11.077,11.077,0,0,1-2.256.97c-.288.083-.549.152-.791.2a3.084,3.084,0,0,1-1.971-.1A2.583,2.583,0,0,1,28.5,21.107c-.512-1.326.071-3.452,3.407-5.073a16.651,16.651,0,0,1,3.727-1.25,13.2,13.2,0,0,1,4.573-.234c4.131.613,9.441,4.061,9.488,4.094a1.5,1.5,0,0,1-.568,2.677M31.1,19.931a1.374,1.374,0,0,0,.233-.03c.052-.01.109-.025.167-.043a16.984,16.984,0,0,0,2.881-1.186A13.442,13.442,0,0,1,37.6,17.558a21.17,21.17,0,0,1,2.706-.374,6.933,6.933,0,0,1,.877-.005,4.628,4.628,0,0,0-1.263-.221,18.565,18.565,0,0,0-3.163.4,17.4,17.4,0,0,0-3.91,1.286A3.922,3.922,0,0,0,31.1,19.931" transform="translate(1.236 0.63)" fill="#a48b65"/>
          <path id="パス_39710" data-name="パス 39710" d="M35.8,15.44a12.579,12.579,0,0,1,4.344-.226c3.874.574,9.052,3.871,9.2,3.98A.851.851,0,0,1,48.6,20.7c-.033-.009-5.454-2.035-8.893-1.689a9.654,9.654,0,0,0-1.051.161,12.9,12.9,0,0,0-3.372,1.4,15.047,15.047,0,0,1-2.79,1.258c-.269.078-.516.143-.743.191a2.477,2.477,0,0,1-1.576-.059A1.928,1.928,0,0,1,29.132,20.9c-.414-1.073.145-2.832,3.087-4.262a15.926,15.926,0,0,1,3.58-1.2m-4.308,5.118c.068-.015.14-.032.216-.054a17.566,17.566,0,0,0,2.984-1.225,12.7,12.7,0,0,1,3.073-1.064,20.625,20.625,0,0,1,2.625-.36,44.154,44.154,0,0,1,5.237.533c-1.063-.686-4.361-2.091-5.7-2.047a19.223,19.223,0,0,0-3.275.415,18.269,18.269,0,0,0-4.06,1.336c-2.142,1.042-2.239,1.884-2.145,2.128.053.148.246.506,1.04.338m4.041-6.38a17.288,17.288,0,0,0-3.877,1.3c-3.728,1.812-4.337,4.3-3.726,5.886a3.218,3.218,0,0,0,1.727,1.773,3.759,3.759,0,0,0,2.367.143c.256-.054.533-.127.837-.215a11.734,11.734,0,0,0,2.373-1.015c.2-.109.408-.217.621-.321.246-.12.48-.242.712-.363a8.588,8.588,0,0,1,2.362-.935,8.716,8.716,0,0,1,.913-.139c2.218-.223,5.854.726,8.294,1.607.032.011.1.033.13.043A2.14,2.14,0,0,0,50.1,18.15c-.047-.034-5.484-3.575-9.77-4.211a13.851,13.851,0,0,0-4.8.24" transform="translate(1.209 0.603)"/>
          <path id="パス_39711" data-name="パス 39711" d="M51.156,30.088a1.282,1.282,0,0,1-1.4-1.155c-.143-1.494-2.042-4.493-3.207-6.032A1.284,1.284,0,1,1,48.6,21.358c.351.462,3.452,4.634,3.71,7.33a1.282,1.282,0,0,1-1.01,1.378c-.024.005-.121.02-.146.023" transform="translate(2.019 0.909)" fill="#a48b65"/>
          <path id="パス_39712" data-name="パス 39712" d="M47.472,21.528a.629.629,0,0,1,.64.24c.137.181,3.341,4.439,3.587,7.008a.641.641,0,0,1-.505.686.5.5,0,0,1-.071.011.64.64,0,0,1-.7-.576c-.174-1.834-2.465-5.211-3.332-6.358a.64.64,0,0,1,.123-.9.65.65,0,0,1,.256-.116M47.2,20.267a1.928,1.928,0,0,0-1.14,3.051c1.169,1.546,2.956,4.426,3.078,5.7a1.928,1.928,0,1,0,3.838-.366c-.269-2.82-3.247-6.879-3.842-7.663a1.922,1.922,0,0,0-1.935-.724" transform="translate(1.992 0.883)"/>
          <path id="パス_39713" data-name="パス 39713" d="M59.046,26.814a1.419,1.419,0,0,1-.862-.1L29.476,13.949a1.2,1.2,0,0,1-.723-1.536,1.059,1.059,0,0,1,.763-.6,1.42,1.42,0,0,1,.863.1L59.086,24.682a1.2,1.2,0,0,1,.722,1.537,1.058,1.058,0,0,1-.763.595" transform="translate(1.25 0.515)" fill="#a48b65"/>
          <path id="パス_39714" data-name="パス 39714" d="M29.677,12.474a.774.774,0,0,1,.465.059L58.851,25.3c.324.143.5.45.4.686a.416.416,0,0,1-.309.225.776.776,0,0,1-.465-.058L29.764,13.387c-.322-.144-.5-.451-.393-.686a.416.416,0,0,1,.307-.226m-.267-1.261a1.69,1.69,0,0,0-1.218.963,1.828,1.828,0,0,0,1.048,2.387L57.95,27.328a2.067,2.067,0,0,0,1.257.143,1.693,1.693,0,0,0,1.218-.963,1.829,1.829,0,0,0-1.048-2.388L30.666,11.356a2.066,2.066,0,0,0-1.257-.142" transform="translate(1.223 0.488)"/>
          <path id="パス_39715" data-name="パス 39715" d="M38.045,33.875a3.1,3.1,0,0,1-1.971-.666,1.1,1.1,0,0,1-.43-.811.76.76,0,0,1,.6-.792,1.334,1.334,0,0,1,.549.029,1.44,1.44,0,0,0,.444.043c.635-.135,3.882-2.48,5.649-6.542,1.571-3.611,1.536-6.289,1.009-7.037l-.092-.124a1.506,1.506,0,0,1-.44-1.122.84.84,0,0,1,.358-.561,1.222,1.222,0,0,1,.318-.135A2.47,2.47,0,0,1,46,17.013c1.223,1.736.916,5.146-.814,9.124-1.787,4.108-5.038,7.3-6.954,7.706-.064.014-.127.024-.189.032" transform="translate(1.555 0.704)" fill="#a48b65"/>
          <path id="パス_39716" data-name="パス 39716" d="M44.2,16.814a1.951,1.951,0,0,1,1.3.6c1.061,1.509.783,4.673-.88,8.5-1.736,3.993-4.862,6.987-6.494,7.332-.047.009-.092.018-.136.023-.449.056-1.667-.388-1.679-.854,0-.091.031-.131.091-.144a7.107,7.107,0,0,0,.939.079c.018,0,.038-.005.056-.009.991-.21,4.33-2.831,6.105-6.914,1.559-3.587,1.689-6.61.947-7.665-.193-.274-.612-.717-.337-.906a.243.243,0,0,1,.086-.035m-.267-1.261a1.543,1.543,0,0,0-.548.233,1.483,1.483,0,0,0-.631.994,2.109,2.109,0,0,0,.564,1.61l.079.106c.271.387.533,2.712-1.074,6.41a13.329,13.329,0,0,1-5.171,6.158c-.053,0-.141-.021-.2-.033A1.924,1.924,0,0,0,36.14,31a1.407,1.407,0,0,0-1.114,1.439,1.732,1.732,0,0,0,.655,1.284,3.743,3.743,0,0,0,2.472.816c.078-.01.16-.024.243-.042,2.367-.5,5.691-4.125,7.41-8.08,1.848-4.248,2.123-7.8.751-9.75a3.059,3.059,0,0,0-2.624-1.118" transform="translate(1.528 0.677)"/>
          <path id="パス_39717" data-name="パス 39717" d="M34.416,8.237a2.136,2.136,0,0,0-1.562-.556,2.1,2.1,0,0,0-.519-.736,2.127,2.127,0,0,0-1.8-.522,2.115,2.115,0,0,0-.661-1.244,2.143,2.143,0,0,0-3.024.133,2.138,2.138,0,0,0-2.947.2c-.023.025-.039.054-.061.08a2.145,2.145,0,0,0-.78-.191,2.129,2.129,0,0,0-2.182-1.586,2.113,2.113,0,0,0-2.323-1.258,2.132,2.132,0,0,0-3.685-1.111,2.139,2.139,0,0,0-2.948.2c-.023.025-.038.054-.059.08a2.137,2.137,0,1,0-.15,3.913,2.127,2.127,0,0,0,4.037,1.012,2.129,2.129,0,0,0,.666.091,2.119,2.119,0,0,0,3.4.994,2.139,2.139,0,0,0,1.043.353A2.121,2.121,0,0,0,23.689,9.5,2.134,2.134,0,0,0,27.4,10.993a2.077,2.077,0,0,0,.321-.48,2.166,2.166,0,0,0,.667.091,2.118,2.118,0,0,0,3.4.994,2.139,2.139,0,0,0,2.627-3.36" transform="translate(0.384 0.033)" fill="#727171"/>
          <path id="パス_39718" data-name="パス 39718" d="M30.447,12.908a2.9,2.9,0,0,1-1.963-.758A2.8,2.8,0,0,1,28,11.571a2.918,2.918,0,0,1-4.929-1.108,2.927,2.927,0,0,1-2.1-.76,2.894,2.894,0,0,1-.659-.891,2.88,2.88,0,0,1-.421-.14,2.928,2.928,0,0,1-3.388-.391,2.805,2.805,0,0,1-.486-.579,2.916,2.916,0,0,1-4.927-1.108A2.922,2.922,0,0,1,8.808,1.7,2.9,2.9,0,0,1,11.687.846,2.917,2.917,0,0,1,14.835.5a2.932,2.932,0,0,1,3.617.261,2.843,2.843,0,0,1,.714,1.014,2.893,2.893,0,0,1,1.752.751,2.852,2.852,0,0,1,.465.549,2.9,2.9,0,0,1,2.278,1.643,2.919,2.919,0,0,1,3.152-.349,2.929,2.929,0,0,1,3.617.261,2.842,2.842,0,0,1,.712,1.014A2.885,2.885,0,0,1,32.9,6.4a2.928,2.928,0,0,1,.465.549,2.923,2.923,0,1,1-1.492,5.594,2.937,2.937,0,0,1-1.422.365M28.424,9.854a.784.784,0,0,1,.746.546,1.338,1.338,0,0,0,.368.594,1.357,1.357,0,0,0,1.781.035.784.784,0,0,1,.935-.05,1.356,1.356,0,1,0,.673-2.485.783.783,0,0,1-.761-.473,1.32,1.32,0,0,0-.328-.466,1.356,1.356,0,0,0-1.146-.329.8.8,0,0,1-.588-.135.783.783,0,0,1-.315-.513,1.349,1.349,0,0,0-2.336-.7.783.783,0,0,1-1.077.073,1.354,1.354,0,0,0-1.87.121.838.838,0,0,1-.976.259,1.377,1.377,0,0,0-.5-.116.783.783,0,0,1-.7-.579,1.348,1.348,0,0,0-.393-.654,1.3,1.3,0,0,0-.989-.352.8.8,0,0,1-.763-.474,1.343,1.343,0,0,0-.328-.468,1.357,1.357,0,0,0-1.146-.328.78.78,0,0,1-.9-.648A1.349,1.349,0,0,0,15.476,2a.783.783,0,0,1-1.076.072,1.354,1.354,0,0,0-1.87.121.844.844,0,0,1-.976.26,1.347,1.347,0,0,0-1.59.3,1.356,1.356,0,0,0,1.5,2.178.783.783,0,0,1,1.066.746,1.332,1.332,0,0,0,.433,1.033,1.388,1.388,0,0,0,.978.356,1.35,1.35,0,0,0,.942-.441,1.329,1.329,0,0,0,.2-.3.783.783,0,0,1,.92-.4,1.455,1.455,0,0,0,.421.059.755.755,0,0,1,.769.546,1.338,1.338,0,0,0,2.152.629.782.782,0,0,1,.934-.05,1.383,1.383,0,0,0,.664.223.781.781,0,0,1,.7.572,1.341,1.341,0,0,0,1.8.9A.782.782,0,0,1,24.5,9.55a1.335,1.335,0,0,0,.433,1.033,1.364,1.364,0,0,0,1.922-.086,1.324,1.324,0,0,0,.2-.306.784.784,0,0,1,.92-.4,1.489,1.489,0,0,0,.422.059h.023" transform="translate(0.351 0)"/>
          <path id="パス_39719" data-name="パス 39719" d="M70.889,22.985a2.141,2.141,0,0,0-1.933-3.463,2.115,2.115,0,0,0-2.4-1.1,2.131,2.131,0,0,0-3.751-.862,2.138,2.138,0,0,0-2.928.391c-.021.027-.034.057-.054.086a2.137,2.137,0,1,0,.112,3.913,2.135,2.135,0,0,0,3.806,1.242,2.067,2.067,0,0,0,.289-.5,2.171,2.171,0,0,0,.671.047,2.118,2.118,0,0,0,3.456.764,2.137,2.137,0,0,0,2.734-.517" transform="translate(2.481 0.731)" fill="#727171"/>
          <path id="パス_39720" data-name="パス 39720" d="M66.7,24.908a2.9,2.9,0,0,1-1.813-.631,2.844,2.844,0,0,1-.523-.546,2.918,2.918,0,0,1-4.992-.777,2.9,2.9,0,0,1-2.144-.617,2.932,2.932,0,0,1-.461-4.112,2.893,2.893,0,0,1,2.817-1.045,2.918,2.918,0,0,1,3.117-.553,2.93,2.93,0,0,1,3.627.02,2.864,2.864,0,0,1,.779.964,2.882,2.882,0,0,1,1.8.633,2.835,2.835,0,0,1,.5.516,2.9,2.9,0,0,1,1.659.635A2.922,2.922,0,0,1,68.3,24.441a2.934,2.934,0,0,1-1.59.466m-1.975-2.92a.784.784,0,0,1,.729.5,1.344,1.344,0,0,0,.409.569,1.36,1.36,0,0,0,1.778-.085.783.783,0,0,1,.929-.114,1.356,1.356,0,1,0,.506-2.523.778.778,0,0,1-.791-.423,1.333,1.333,0,0,0-.357-.441,1.352,1.352,0,0,0-1.166-.252.783.783,0,0,1-.946-.588,1.345,1.345,0,0,0-.466-.759,1.36,1.36,0,0,0-1.91.213.784.784,0,0,1-1.07.144,1.355,1.355,0,0,0-1.858.246.858.858,0,0,1-.958.324A1.346,1.346,0,0,0,58,19.2a1.355,1.355,0,0,0,1.64,2.073.781.781,0,0,1,1.111.674,1.336,1.336,0,0,0,.5,1,1.361,1.361,0,0,0,1.913-.215,1.338,1.338,0,0,0,.178-.318.779.779,0,0,1,.892-.457,1.4,1.4,0,0,0,.426.031c.025,0,.05,0,.073,0m6.192,1.03h0Z" transform="translate(2.449 0.699)"/>
        </g>
      </g>
      <g id="グループ_14354" data-name="グループ 14354" transform="translate(380.211 699.842)">
        <g id="グループ_8888-3" data-name="グループ 8888" transform="translate(0 0)" clip-path="url(#clip-path-12)">
          <path id="パス_18438-3" data-name="パス 18438" d="M9.006,6.356C6.137,7.089,5.324,8.2,4.782,12.123,4.24,8.2,3.427,7.089.558,6.356,3.425,5.6,4.24,4.488,4.782.558c.542,3.93,1.357,5.047,4.224,5.8" transform="translate(0.111 0.112)" fill="#d0a500"/>
          <path id="パス_18439-3" data-name="パス 18439" d="M4.893,12.905a.67.67,0,0,1-.665-.578C3.695,8.463,2.956,7.743.5,7.118a.671.671,0,0,1,0-1.3C2.953,5.176,3.695,4.451,4.229.579a.671.671,0,0,1,1.329,0c.534,3.871,1.275,4.6,3.728,5.24a.671.671,0,0,1,0,1.3c-2.452.626-3.191,1.345-3.725,5.209a.671.671,0,0,1-.665.578M2.634,6.462A4.452,4.452,0,0,1,4.893,9.14a4.446,4.446,0,0,1,2.26-2.677A4.478,4.478,0,0,1,4.893,3.77,4.484,4.484,0,0,1,2.634,6.462" transform="translate(0 0)" fill="#040000"/>
        </g>
      </g>
      <g id="グループ_14352" data-name="グループ 14352" transform="translate(444.957 678.888)">
        <g id="グループ_8886-3" data-name="グループ 8886" transform="translate(0 0)" clip-path="url(#clip-path-13)">
          <path id="パス_18436-3" data-name="パス 18436" d="M12.569,8.8C8.49,9.843,7.336,11.423,6.564,17,5.793,11.423,4.638,9.843.559,8.8,4.635,7.732,5.793,6.144,6.564.558,7.336,6.144,8.493,7.732,12.569,8.8" transform="translate(0.028 0.028)" fill="#d0a500"/>
          <path id="パス_18437-3" data-name="パス 18437" d="M6.593,17.615a.585.585,0,0,1-.582-.506C5.27,11.748,4.281,10.378.441,9.4a.587.587,0,0,1,0-1.137C4.279,7.254,5.27,5.877,6.011.506a.587.587,0,0,1,1.162,0C7.914,5.877,8.9,7.254,12.746,8.261a.587.587,0,0,1,0,1.137c-3.839.98-4.828,2.35-5.57,7.712a.585.585,0,0,1-.58.506M2.5,8.823c2.224.891,3.369,2.275,4.089,5.031C7.312,11.1,8.456,9.716,10.68,8.823c-2.223-.906-3.368-2.3-4.087-5.057C5.873,6.527,4.729,7.918,2.5,8.823" transform="translate(0 0)" fill="#040000"/>
        </g>
      </g>
    </g>
  </g>
</svg>
