<svg xmlns="http://www.w3.org/2000/svg" xmlns:xlink="http://www.w3.org/1999/xlink" width="70.82" height="56.033" viewBox="0 0 70.82 56.033">
  <defs>
    <clipPath id="clip-path">
      <rect id="長方形_9546" data-name="長方形 9546" width="70.82" height="56.033" fill="none"/>
    </clipPath>
  </defs>
  <g id="グループ_14900" data-name="グループ 14900" transform="translate(-208.025 -1137.885)">
    <g id="グループ_14893" data-name="グループ 14893" transform="translate(208.025 1137.885)">
      <g id="グループ_14892" data-name="グループ 14892" transform="translate(0 0)" clip-path="url(#clip-path)">
        <path id="パス_41813" data-name="パス 41813" d="M63.019,12.152C56.858,5.946,47.034,2.637,35.354,2.693,27.271,2.642,20.1,4.208,14.4,7.218l-6.292-5.7A1.968,1.968,0,0,0,4.957,3.687h0L8.09,11.743c-.145.137-.3.269-.435.41A22.569,22.569,0,0,0,1,28.759,22.61,22.61,0,0,0,7.655,45.425c6.068,6.112,15.7,9.463,27.133,9.463l.533,0c11.712.051,21.538-3.253,27.7-9.459a22.612,22.612,0,0,0,6.652-16.636,22.613,22.613,0,0,0-6.652-16.637" transform="translate(0.073 0.073)" fill="#fff"/>
        <path id="パス_41814" data-name="パス 41814" d="M63.019,12.152C56.858,5.946,47.034,2.637,35.354,2.693,27.271,2.642,20.1,4.208,14.4,7.218l-6.292-5.7A1.968,1.968,0,0,0,4.957,3.687h0L8.09,11.743c-.145.137-.3.269-.435.41A22.569,22.569,0,0,0,1,28.759,22.61,22.61,0,0,0,7.655,45.425c6.068,6.112,15.7,9.463,27.133,9.463l.533,0c11.712.051,21.538-3.253,27.7-9.459a22.612,22.612,0,0,0,6.652-16.636A22.613,22.613,0,0,0,63.019,12.152Z" transform="translate(0.073 0.073)" fill="none" stroke="#000" stroke-linejoin="round" stroke-width="2"/>
      </g>
    </g>
    <g id="グループ_14858" data-name="グループ 14858" transform="translate(222.426 1151.831)">
      <path id="パス_39575" data-name="パス 39575" d="M810.974,347.773a12.818,12.818,0,0,1-1.222-.4,13.413,13.413,0,0,1-1.29-.568,10.4,10.4,0,0,1-1.068-.611l.506-.58h-3.2l.506.58a8.72,8.72,0,0,1-1.055.6q-.623.309-1.3.562a12.631,12.631,0,0,1-1.24.4,3.975,3.975,0,0,0-.346-.611,3.177,3.177,0,0,0-.445-.549q.407-.086.907-.234t1.019-.346q.518-.2.95-.407H802.42v-5.319h7.812v5.319h-1.345q.432.21.951.407t1.03.346q.513.148.907.234a3.376,3.376,0,0,0-.45.549,3.459,3.459,0,0,0-.351.623M801.2,336.714h10.219v3.024H801.2Zm1.432,1.975h1.53v-.913h-1.53Zm1.271,3.11h4.851v-.506H803.9Zm0,1.407h4.851v-.543H803.9Zm0,1.419h4.851v-.555H803.9Zm1.7-5.937h1.444v-.913H805.6Zm2.888,0h1.518v-.913h-1.518Z" transform="translate(-798.4 -336.714)"/>
      <path id="パス_39576" data-name="パス 39576" d="M835.326,347.725v-2.456q-.358.136-.833.3t-.987.321q-.512.16-.969.3t-.778.222l-.42-1.358c.107-.017.251-.048.433-.093l.617-.154v-6.678h-.865v-1.3h6.036v.864h4.714a13.259,13.259,0,0,1-1.629,6.122,8.236,8.236,0,0,0,1.129,1.234,8.662,8.662,0,0,0,1.352.987,5.017,5.017,0,0,0-.556.574,4.771,4.771,0,0,0-.457.623,12.2,12.2,0,0,1-1.234-1.012,10.31,10.31,0,0,1-1.074-1.172,11.082,11.082,0,0,1-2.308,2.2,4.842,4.842,0,0,0-.29-.389,5.656,5.656,0,0,0-.413-.463v1.333Zm-1.468-8.393h1.468v-1.209h-1.468Zm0,2.431h1.468v-1.209h-1.468Zm0,2.666q.432-.111.814-.216t.654-.191v-1.037h-1.468Zm2.937,1.592a9.061,9.061,0,0,0,1.222-1,8.518,8.518,0,0,0,.987-1.148,11.689,11.689,0,0,1-.931-2.018,11.931,11.931,0,0,1-.549-2.252l1.321-.234a9.217,9.217,0,0,0,.975,3.135,9.86,9.86,0,0,0,.914-3.48h-3.37v-.9h-.568Z" transform="translate(-815.61 -336.778)"/>
      <path id="パス_39577" data-name="パス 39577" d="M871.521,347.656a5.5,5.5,0,0,1-2.271-.753,4.333,4.333,0,0,1-1.66-5.579,4.712,4.712,0,0,1,1.277-1.641q-.987.161-1.969.346t-1.777.346q-.8.16-1.228.271l-.334-1.592q.408-.024,1.129-.111t1.63-.216q.906-.13,1.876-.284t1.876-.315q.907-.16,1.629-.315t1.129-.278l.4,1.506c-.131.008-.29.025-.475.049l-.624.086a3.7,3.7,0,0,0-1.3.42,4.206,4.206,0,0,0-1.1.864,4.107,4.107,0,0,0-.771,1.209,3.761,3.761,0,0,0-.284,1.469,2.523,2.523,0,0,0,.482,1.579,3.155,3.155,0,0,0,1.314.981,6.9,6.9,0,0,0,1.87.475,2.56,2.56,0,0,0-.358.463,4.5,4.5,0,0,0-.3.555,2.347,2.347,0,0,0-.16.463m1.037-4.727a5.514,5.514,0,0,0-.617-.827,7.1,7.1,0,0,0-.7-.7l.678-.543a4.08,4.08,0,0,1,.445.432q.259.285.512.58a6.266,6.266,0,0,1,.389.494Zm1.111-.938a5.683,5.683,0,0,0-.623-.815,6.349,6.349,0,0,0-.71-.691l.667-.555a4.561,4.561,0,0,1,.45.432q.265.284.524.574a4.263,4.263,0,0,1,.395.5Z" transform="translate(-833.782 -337.177)"/>
      <path id="パス_39578" data-name="パス 39578" d="M796.48,382.085a3.86,3.86,0,0,0-.364-.34c-.152-.127-.306-.247-.463-.357a3.971,3.971,0,0,0-.395-.253,6.974,6.974,0,0,0,.808-.753,11.916,11.916,0,0,0,.8-.95,10.216,10.216,0,0,0,.685-1.024,5.965,5.965,0,0,0,.463-.963l1.358.654a12.814,12.814,0,0,1-.79,1.456,13.821,13.821,0,0,1-1.006,1.413,7.825,7.825,0,0,1-1.093,1.117m0,4.826a4.218,4.218,0,0,0-.16-.463q-.111-.278-.247-.549a2.274,2.274,0,0,0-.247-.407,15.669,15.669,0,0,0,3.333-.777,9.835,9.835,0,0,0,2.789-1.525,7.566,7.566,0,0,0,2.012-2.425l1.3.864a10.3,10.3,0,0,1-3.579,3.573,13.159,13.159,0,0,1-5.2,1.709m2.691-3.592q-.037-.321-.1-.784a4.531,4.531,0,0,0-.161-.771h.963a.669.669,0,0,0,.364-.068q.093-.067.093-.315V375.84h1.555v6.122q0,1.358-1.629,1.358Zm6.579-1.839a8.574,8.574,0,0,0-.531-.735q-.345-.437-.765-.907t-.833-.876a6.744,6.744,0,0,0-.734-.642l1.086-.926a10.1,10.1,0,0,1,1.1.932,15.19,15.19,0,0,1,1.062,1.135,12.241,12.241,0,0,1,.815,1.068,2.582,2.582,0,0,0-.389.259q-.241.185-.463.376c-.148.128-.263.233-.345.315" transform="translate(-795.259 -358.782)"/>
      <path id="パス_39579" data-name="パス 39579" d="M828.72,384.479a4.037,4.037,0,0,0-.567-.4,3.928,3.928,0,0,0-.679-.334,10.15,10.15,0,0,0,1.37-2.055,15.4,15.4,0,0,0,1-2.45q-.618.086-1.148.148t-.851.086l-.185-1.37q.432,0,1.116-.061t1.438-.173q.136-.58.21-1.141t.1-1.093l1.37.2q-.1.926-.259,1.8.432-.086.833-.179t.722-.179l.185,1.3q-.382.111-.919.222t-1.142.21a16.863,16.863,0,0,1-1.086,2.937,16.147,16.147,0,0,1-1.506,2.53m3.407,2.16a2.188,2.188,0,0,1-1.494-.593,1.757,1.757,0,0,1-.531-1.321,1.539,1.539,0,0,1,.636-1.222,2.6,2.6,0,0,1,1.746-.456q.173.012.346.018a2.914,2.914,0,0,1,.334.031v-2.8h1.407v3.135a7.094,7.094,0,0,1,1.339.6,10.4,10.4,0,0,1,1.228.839,3.108,3.108,0,0,0-.475.568,4.067,4.067,0,0,0-.376.654,9.962,9.962,0,0,0-.827-.673,6.342,6.342,0,0,0-.9-.549q-.123,1.876-2.431,1.765m.111-1.234a.981.981,0,0,0,.7-.216,1.018,1.018,0,0,0,.229-.759v-.086a4.967,4.967,0,0,0-.791-.111,1.252,1.252,0,0,0-.673.136.491.491,0,0,0-.265.419.516.516,0,0,0,.2.444.927.927,0,0,0,.6.173m4.32-4.863a4.73,4.73,0,0,0-.531-.469q-.334-.259-.716-.518t-.759-.469a4.311,4.311,0,0,0-.66-.309l.728-1.086q.3.123.691.327t.8.457q.408.254.753.5a5.514,5.514,0,0,1,.568.457Z" transform="translate(-813.43 -358.67)"/>
      <path id="パス_39580" data-name="パス 39580" d="M863.435,386.828a9.546,9.546,0,0,0-.6-1.031q-.377-.574-.827-1.185t-.919-1.191q-.469-.58-.882-1.043t-.71-.735a1.108,1.108,0,0,1-.42-.722.931.931,0,0,1,.407-.66q.309-.271.728-.691t.876-.926q.456-.505.9-1.036t.789-1.031a6.674,6.674,0,0,0,.549-.907l1.407.951q-.272.37-.747.913t-1.012,1.129q-.537.586-1.043,1.111t-.864.87a.384.384,0,0,0,.025.605q.271.271.673.722t.851,1q.451.549.9,1.1t.8,1.043q.358.488.568.809a3.493,3.493,0,0,0-.482.235q-.285.159-.549.339a2.8,2.8,0,0,0-.413.327" transform="translate(-831.255 -358.686)"/>
      <path id="パス_39581" data-name="パス 39581" d="M887.872,386.976a1.054,1.054,0,1,1,.74-.309,1.011,1.011,0,0,1-.74.309m-.6-3.049q-.025-.382-.062-1.006t-.08-1.345q-.044-.722-.074-1.419T887,378.922q-.019-.537-.018-.772v-1.913h1.777v1.913q0,.235-.018.772t-.049,1.234q-.031.7-.074,1.419t-.08,1.345q-.037.623-.062,1.006Z" transform="translate(-846.903 -359.006)"/>
    </g>
  </g>
</svg>
