<svg xmlns="http://www.w3.org/2000/svg" width="228.652" height="146.421" viewBox="0 0 228.652 146.421">
  <g id="グループ_14947" data-name="グループ 14947" transform="translate(7138 -1054.191)">
    <path id="パス_39591" data-name="パス 39591" d="M0,0H99.242V144.1H0Z" transform="translate(-7137.21 1054.98)" fill="#f8f8ef"/>
    <path id="パス_39562" data-name="パス 39562" d="M100.032,145.684H.79a.79.79,0,0,1-.79-.79V.79A.79.79,0,0,1,.79,0h99.242a.79.79,0,0,1,.79.79v144.1a.79.79,0,0,1-.79.79M1.579,144.1H99.242V1.579H1.579Z" transform="translate(-7138 1054.191)"/>
    <path id="パス_39590" data-name="パス 39590" d="M0,0H99.242V144.1H0Z" transform="translate(-7009.38 1055.718)" fill="#f8f8ef"/>
    <path id="パス_39563" data-name="パス 39563" d="M504.689,148.018H405.447a.79.79,0,0,1-.79-.79V3.124a.79.79,0,0,1,.79-.79h99.242a.79.79,0,0,1,.79.79v144.1a.79.79,0,0,1-.79.79m-98.453-1.579H503.9V3.913H406.236Z" transform="translate(-7414.827 1052.594)"/>
    <rect id="長方形_9218" data-name="長方形 9218" width="99.242" height="103.755" transform="translate(-7009.38 1055.718)" fill="#d2a700"/>
    <path id="パス_39564" data-name="パス 39564" d="M505.479,107.669H404.657V2.334H505.479Zm-99.243-1.579H503.9V3.913H406.236Z" transform="translate(-7414.827 1052.594)"/>
    <path id="パス_39565" data-name="パス 39565" d="M466.555,168.2a16.651,16.651,0,0,1-1.6-.525,17.611,17.611,0,0,1-1.688-.743,13.552,13.552,0,0,1-1.4-.8l.662-.759h-4.184l.662.759a11.442,11.442,0,0,1-1.381.792q-.816.4-1.7.735a16.44,16.44,0,0,1-1.623.525,5.218,5.218,0,0,0-.453-.8,4.142,4.142,0,0,0-.582-.719q.533-.113,1.187-.307t1.333-.452q.678-.258,1.244-.533h-1.68v-6.962h10.225v6.962h-1.76q.565.275,1.244.533t1.349.452q.67.194,1.188.307a4.42,4.42,0,0,0-.59.719,4.535,4.535,0,0,0-.46.816m-12.794-14.474h13.375v3.958H453.761Zm1.874,2.585h2v-1.2h-2Zm1.664,4.071h6.349v-.662H457.3Zm0,1.841h6.349v-.711H457.3Zm0,1.858h6.349v-.727H457.3Zm2.229-7.77h1.89v-1.2h-1.89Zm3.78,0h1.987v-1.2h-1.987Z" transform="translate(-7448.087 949.028)"/>
    <path id="パス_39566" data-name="パス 39566" d="M515.265,168.193v-3.215q-.469.178-1.091.388t-1.292.42q-.67.21-1.268.388t-1.017.291l-.55-1.777q.21-.032.566-.121l.807-.2v-8.739H510.29v-1.7h7.9v1.131h6.171a17.357,17.357,0,0,1-2.132,8.012,10.806,10.806,0,0,0,1.478,1.615,11.363,11.363,0,0,0,1.769,1.292,6.572,6.572,0,0,0-.727.751,6.214,6.214,0,0,0-.6.816,15.982,15.982,0,0,1-1.615-1.325,13.51,13.51,0,0,1-1.406-1.535,14.492,14.492,0,0,1-3.021,2.875,6.214,6.214,0,0,0-.379-.509,7.616,7.616,0,0,0-.541-.606v1.745Zm-1.923-10.985h1.923v-1.583h-1.923Zm0,3.182h1.923v-1.583h-1.923Zm0,3.489q.565-.145,1.066-.283t.856-.25V161.99h-1.923Zm3.845,2.084a11.9,11.9,0,0,0,1.6-1.308,11.207,11.207,0,0,0,1.292-1.5,15.315,15.315,0,0,1-1.22-2.641,15.6,15.6,0,0,1-.719-2.948l1.728-.307a12.063,12.063,0,0,0,1.276,4.1,12.84,12.84,0,0,0,.816-2.254,12.712,12.712,0,0,0,.38-2.3h-4.41v-1.179h-.743Z" transform="translate(-7486.924 948.888)"/>
    <path id="パス_39567" data-name="パス 39567" d="M569.339,166.2V164.54h3.376a10.775,10.775,0,0,0-.727-1.252,9.94,9.94,0,0,0-.84-1.107l1.438-.872h-2.261v-1.729h4.846V158.3h-2.633v-1.292q-.808.565-1.616,1.042t-1.486.8a7.814,7.814,0,0,0-.493-.824,4,4,0,0,0-.687-.791,12.52,12.52,0,0,0,2.068-1.01,20.146,20.146,0,0,0,2.059-1.413,17.985,17.985,0,0,0,1.785-1.583,9.2,9.2,0,0,0,1.227-1.5l1.826.275a9.944,9.944,0,0,0,1.389,1.518,18.919,18.919,0,0,0,3.683,2.585,13.789,13.789,0,0,0,1.826.824q-.307.339-.654.8a8.684,8.684,0,0,0-.638.977,17.928,17.928,0,0,1-3.037-1.729V158.3h-2.585v1.276h4.781v1.729H579.58l1.6.662q-.307.646-.678,1.332t-.695,1.236h3.085V166.2Zm4.022-1.664h1.809v-3.231h-2.455a9.109,9.109,0,0,1,.63.832q.323.477.622.953t.476.832Zm-.242-7.931h6.171a21.345,21.345,0,0,1-1.68-1.389,10.423,10.423,0,0,1-1.341-1.47,10.836,10.836,0,0,1-1.341,1.4q-.84.751-1.809,1.462m4.087,7.931h2.051l-1.179-.549q.226-.355.477-.84t.476-.977q.226-.493.388-.864h-2.213Z" transform="translate(-7526.745 950.392)"/>
    <path id="パス_39568" data-name="パス 39568" d="M635.687,167.087a6.719,6.719,0,0,0-.525-.671,3.591,3.591,0,0,0-.606-.573v.727h-5.072v-4.038q-.21.113-.412.218a3.341,3.341,0,0,1-.428.185,3.415,3.415,0,0,0-.251-.436q-.169-.258-.355-.509a1.626,1.626,0,0,0-.347-.363,9.049,9.049,0,0,0,1.632-.792,13.451,13.451,0,0,0,1.535-1.082c-.129-.14-.256-.283-.38-.428s-.245-.293-.364-.444q-.259.259-.533.493t-.549.428q-.21-.242-.542-.565a3.045,3.045,0,0,0-.622-.485,6.589,6.589,0,0,0,1.179-.945,9.158,9.158,0,0,0,1.082-1.284,5.591,5.591,0,0,0,.711-1.341l1.535.533q-.081.178-.178.372a3.593,3.593,0,0,1-.226.388h2.536l.485.436a12.461,12.461,0,0,1-.816,1.446,11.115,11.115,0,0,1-1.026,1.333,11.422,11.422,0,0,0,1.422.808,11.8,11.8,0,0,0,1.438.582v-5.7h1.857l.178-.565q.1-.307.178-.565h-2.568v-1.535h7.237v1.535h-2.778q-.081.259-.186.558l-.2.573h2.585v8.255h-1.664a10.408,10.408,0,0,0,.848.816,11.122,11.122,0,0,0,1.026.792,8.6,8.6,0,0,0,.985.589,5.437,5.437,0,0,0-.6.589,6.21,6.21,0,0,0-.533.671,11.193,11.193,0,0,1-1.648-1.187,11.941,11.941,0,0,1-1.454-1.462l1.034-.807h-2.552l1.05.807a10.567,10.567,0,0,1-1.454,1.462,11.939,11.939,0,0,1-1.664,1.187m-7.382-10.662v-2.811h2.714v-1.373h1.825v1.373h2.665v2.811h-1.534V155.02h-4.152v1.405Zm2.2,5.524h3.376a10.008,10.008,0,0,1-1.858-1.147q-.355.308-.735.59t-.783.557m.582,3.231h1.874v-1.841h-1.874Zm.856-6.461a6.935,6.935,0,0,0,.775-.969H631.1a7.33,7.33,0,0,0,.84.969m2.617,7.108a6.634,6.634,0,0,0,.985-.582q.533-.371,1.034-.8a8.176,8.176,0,0,0,.84-.816H636.01v-2.278q-.178.259-.388.6a3.159,3.159,0,0,0-.291.565q-.194-.064-.388-.137t-.388-.137Zm3.2-8.061h2.81v-.937h-2.81Zm0,2.181h2.81v-.937h-2.81Zm0,2.229h2.81v-.985h-2.81Z" transform="translate(-7567.404 950.043)"/>
    <path id="パス_39569" data-name="パス 39569" d="M449.314,393.032a17.783,17.783,0,0,1-2.14-.108,5.592,5.592,0,0,1-1.445-.348,2.929,2.929,0,0,1-.959-.623q-.228.156-.534.347t-.624.384q-.318.191-.582.336l-.552-1.355q.36-.132.8-.323t.762-.36v-2.974h-1.319v-1.247h2.638v4.1a1.358,1.358,0,0,0,.935.744q-.084-.132-.18-.27a2.709,2.709,0,0,0-.192-.246,7.743,7.743,0,0,0,.971-.27q.5-.173.947-.378h-1.415v-4.053h5.947v4.053h-1.343a8.609,8.609,0,0,0,.965.4,7.882,7.882,0,0,0,.989.276q-.12.144-.252.336a3.82,3.82,0,0,0-.228.372q.371-.024.677-.054t.558-.066a2.564,2.564,0,0,0-.126.378q-.066.246-.114.5t-.072.432q-.336,0-.876.006l-1.145.012q-.606.006-1.157.006Zm-4.388-7.95a6.161,6.161,0,0,0-.582-.6q-.354-.324-.738-.624a5.586,5.586,0,0,0-.707-.48l.827-.959a7.209,7.209,0,0,1,.7.462q.4.294.779.612a7.592,7.592,0,0,1,.606.558q-.108.1-.288.294t-.348.4a3.546,3.546,0,0,0-.252.336m.54.959v-.911h3.286v-.348h-2.482v-2.051h2.482v-.624h1.3v.624h2.482v2.051h-2.482v.348h3.405v.911Zm3.849,5.864q.708,0,1.331-.018t1.139-.03q-.516-.192-1.026-.438a10.151,10.151,0,0,1-.953-.522l.384-.456H448.7l.371.444a9.857,9.857,0,0,1-.893.5,10.349,10.349,0,0,1-.953.414,16.956,16.956,0,0,0,2.086.108m-1.739-7.9h1.175v-.492h-1.175Zm.156,3.5h3.333v-.372h-3.333Zm0,1.067h3.333v-.384h-3.333Zm0,1.067h3.333v-.4h-3.333ZM450.046,384h1.187v-.492h-1.187Z" transform="translate(-7440.701 792.79)"/>
    <path id="パス_39570" data-name="パス 39570" d="M485.79,389.142h4.6v4.809h-4.6Zm1.391,3.573H489v-2.29h-1.823Zm.648-8.862h6.079v4.389h-6.079Zm1.451,3.178h3.166v-1.954h-3.166Zm2.075,2.111h4.617v4.809h-4.617Zm1.391,3.573h1.847v-2.29h-1.847Z" transform="translate(-7470.33 791.596)"/>
    <path id="パス_39571" data-name="パス 39571" d="M525.825,393.163v-1.091h2.111v-1.667H529.3v1.667h1.259V390h-3.825V388.93h1.343v-1.271a9.292,9.292,0,0,1-.857.8,7.417,7.417,0,0,1-.941.665,3.783,3.783,0,0,0-.372-.444,2.574,2.574,0,0,0-.443-.384,4.288,4.288,0,0,0,.654-.4q.354-.258.7-.558t.593-.564h-1.247v-2.3h1.918v-.432h-2.267v-1h2.267v-.684h1.187v.684h2.182v1h-2.182v.432h1.918v.923a7.515,7.515,0,0,0,.6-.947q.3-.552.54-1.121a5.331,5.331,0,0,0,.323-.989l1.2.288a3.676,3.676,0,0,1-.138.5q-.09.258-.2.521h3.106v1.091h-.959a6.313,6.313,0,0,1-.335,1.1,4.552,4.552,0,0,1-.552.983,6.929,6.929,0,0,0,1,.588,9.98,9.98,0,0,0,1.145.468,4.924,4.924,0,0,0-.732,1.079A8.96,8.96,0,0,1,535,388.4a8.5,8.5,0,0,1-1.055-.7,6.184,6.184,0,0,1-1,.678,8.11,8.11,0,0,1-1.253.546,2.393,2.393,0,0,0-.216-.462,3.537,3.537,0,0,0-.323-.474q-.144.168-.294.372t-.234.336q-.312-.2-.678-.474t-.677-.546v1.259h6.391V390h-3.729v.516h2.914v.971h-2.914v.588h4.664v1.091Zm1.391-7.183h.863V385.3h-.863Zm2.05,0h.851V385.3h-.851Zm2.05,1.8a5.776,5.776,0,0,0,.983-.4,4.6,4.6,0,0,0,.78-.51q-.2-.252-.39-.516a4.687,4.687,0,0,1-.329-.539q-.1.132-.192.257c-.064.084-.128.166-.192.246a3.248,3.248,0,0,0-.378-.294q-.222-.15-.414-.27v1.019h-1.379q.324.264.755.552a8.178,8.178,0,0,0,.756.456M533.871,386a3.16,3.16,0,0,0,.33-.618,4.088,4.088,0,0,0,.2-.654h-1.284a4.215,4.215,0,0,0,.756,1.271" transform="translate(-7497.472 792.635)"/>
    <path id="パス_39572" data-name="パス 39572" d="M567.976,393.1l-.372-1.307q.312-.06.737-.156t.894-.216v-2.554h-1.271v-1.223h1.271v-2.182h-1.343v-1.235h4.065v1.235H570.6v2.182h1.188v1.223H570.6v2.206q.456-.12.833-.228t.642-.192v1.223q-.336.12-.864.288t-1.121.348q-.593.18-1.157.336t-.959.252m3.369.983v-1.187h3.3v-1.163h-2.087v-1.187h2.087V389.45h-2.327v-5.444H578.3v5.444h-2.326v1.091h2.218v1.187h-2.218v1.163h2.794v1.187Zm2.267-7.879h1.031v-1.079h-1.031Zm0,2.147h1.031v-1.115h-1.031Zm2.362-2.147h1.031v-1.079h-1.031Zm0,2.147h1.031v-1.115h-1.031Z" transform="translate(-7526.299 791.492)"/>
    <path id="パス_39573" data-name="パス 39573" d="M610.615,393.44c-.04-.1-.1-.232-.173-.384s-.156-.3-.24-.456a2.482,2.482,0,0,0-.234-.36q.539-.084,1.295-.276a12.771,12.771,0,0,0,1.416-.444h-1.151V388.1a8.085,8.085,0,0,1-.821.306q-.438.138-.917.258a6.1,6.1,0,0,0-.228-.57,2.708,2.708,0,0,0-.3-.522,8.979,8.979,0,0,0,1.649-.426,3.166,3.166,0,0,0,1.1-.665h-2.1a6.8,6.8,0,0,0,.167-.678q.084-.414.15-.821c.044-.272.073-.492.09-.66h2.554a1.731,1.731,0,0,0,.012-.2,1.872,1.872,0,0,1,.012-.216h-3v-.923h3v-.648h1.415v.648H615.5v-.648h1.415v.648h2.614v2.17h-2.614v.444h3.442a9.312,9.312,0,0,1-.138,1.361,1.921,1.921,0,0,1-.3.773,1.013,1.013,0,0,1-.522.366,3.581,3.581,0,0,1-.791.138q-.049-.288-.144-.642a5.95,5.95,0,0,0-.18-.57v4.5h-1.212a13.726,13.726,0,0,0,1.422.444q.749.192,1.289.276a2.492,2.492,0,0,0-.234.36q-.126.227-.24.456t-.174.384a12.006,12.006,0,0,1-1.217-.306q-.654-.2-1.283-.456t-1.157-.534l.407-.624h-2.015l.408.624a11.984,11.984,0,0,1-1.151.534q-.636.258-1.283.456a11.278,11.278,0,0,1-1.223.306m.744-7.842h1.259l.072-.216a1.952,1.952,0,0,0,.06-.228h-1.283a.951.951,0,0,1-.024.132c-.016.072-.032.14-.048.2a.388.388,0,0,1-.036.108m1.535,2.722h4.017v-.408h-4.017Zm0,1.163h4.017v-.432h-4.017Zm0,1.151h4.017v-.42h-4.017Zm.275-3.609H615.5v-.54H613.6a3.208,3.208,0,0,1-.432.54m.864-1.427H615.5v-.444h-1.331a1.838,1.838,0,0,1-.06.228l-.072.216m.252-1.271H615.5v-.42h-1.187a1.9,1.9,0,0,0-.012.216,1.743,1.743,0,0,1-.012.2m2.626,0h1.235v-.42h-1.235Zm0,2.7h1.4a1.878,1.878,0,0,0,.354-.024.233.233,0,0,0,.168-.132,1.336,1.336,0,0,0,.09-.383h-2.014Z" transform="translate(-7554.796 792.634)"/>
    <path id="パス_39574" data-name="パス 39574" d="M651.566,394.227q-.3-.192-.683-.39a3.717,3.717,0,0,0-.684-.281,6.062,6.062,0,0,0,1-2.147,12.123,12.123,0,0,0,.33-3.034v-4.749h9.029v9.233q0,1.283-1.547,1.283H658.1a4.357,4.357,0,0,0-.06-.48q-.047-.276-.1-.54a2.311,2.311,0,0,0-.126-.432h.839a.571.571,0,0,0,.348-.078.422.422,0,0,0,.1-.33v-2.015h-2.386v3.489h-1.427v-3.489h-2.362a9.719,9.719,0,0,1-.444,2.152,7.291,7.291,0,0,1-.912,1.805m1.427-5.2h2.29V387.6h-2.278v1.1q0,.156-.012.324m.012-2.71h2.278v-1.4h-2.278Zm3.706,0H659.1v-1.4h-2.386Zm0,2.71H659.1v-1.427h-2.386Z" transform="translate(-7582.803 791.752)"/>
    <path id="パス_39582" data-name="パス 39582" d="M57.51,192.01a24.051,24.051,0,0,1-2.884-.145,7.542,7.542,0,0,1-1.946-.469,3.949,3.949,0,0,1-1.292-.84q-.307.21-.719.468t-.84.517q-.429.258-.784.452l-.743-1.826q.484-.178,1.074-.436t1.026-.485v-4.006H48.626v-1.68H52.18v5.525a1.828,1.828,0,0,0,1.26,1q-.113-.178-.242-.364a3.708,3.708,0,0,0-.258-.331,10.438,10.438,0,0,0,1.308-.364q.679-.234,1.276-.509H53.618v-5.46H61.63v5.46H59.821a11.7,11.7,0,0,0,1.3.533,10.742,10.742,0,0,0,1.333.372q-.162.194-.339.452a5.121,5.121,0,0,0-.307.5q.5-.032.912-.073t.751-.089a3.424,3.424,0,0,0-.169.509q-.089.331-.154.67t-.1.582q-.453,0-1.179.008L60.33,192q-.816.008-1.559.008ZM51.6,181.3a8.227,8.227,0,0,0-.783-.808q-.477-.436-.994-.84a7.457,7.457,0,0,0-.953-.646l1.114-1.293a9.666,9.666,0,0,1,.945.622q.541.4,1.05.824a10.32,10.32,0,0,1,.816.751q-.145.129-.388.4t-.468.541a4.886,4.886,0,0,0-.34.452m.727,1.292v-1.228h4.426V180.9H53.408v-2.762h3.344v-.84H58.5v.84H61.84V180.9H58.5v.468h4.588v1.228Zm5.185,7.9q.953,0,1.793-.024t1.534-.04q-.694-.258-1.381-.589a13.652,13.652,0,0,1-1.284-.7l.517-.614h-2l.5.6a13.394,13.394,0,0,1-1.2.671q-.638.315-1.284.557a22.864,22.864,0,0,0,2.811.145m-2.342-10.645h1.583v-.662H55.168Zm.21,4.717h4.491v-.5H55.378Zm0,1.438h4.491v-.517H55.378Zm0,1.438h4.491v-.533H55.378Zm3.118-7.592h1.6v-.662H58.5Z" transform="translate(-7171.044 932.904)"/>
    <path id="パス_39583" data-name="パス 39583" d="M108.48,186.77h6.2v6.478h-6.2Zm1.874,4.814h2.455V188.5h-2.455Zm.872-11.938h8.19v5.912h-8.19Zm1.954,4.281h4.265v-2.633h-4.265Zm2.795,2.843h6.219v6.478h-6.219Zm1.874,4.814h2.488V188.5h-2.488Z" transform="translate(-7212.211 931.295)"/>
    <path id="パス_39584" data-name="パス 39584" d="M164.253,192.188v-1.47H167.1v-2.245h1.841v2.245h1.7v-2.795h-5.153v-1.437h1.809v-1.712a12.438,12.438,0,0,1-1.155,1.074,10.012,10.012,0,0,1-1.268.9,5.107,5.107,0,0,0-.5-.6,3.468,3.468,0,0,0-.6-.517,5.711,5.711,0,0,0,.88-.541q.476-.347.937-.751t.8-.759H164.7v-3.1h2.585v-.582h-3.053v-1.341h3.053v-.921h1.6v.921h2.94v1.341h-2.94v.582h2.585v1.244a10.211,10.211,0,0,0,.808-1.276q.4-.743.727-1.511a7.14,7.14,0,0,0,.436-1.332l1.615.388a5.048,5.048,0,0,1-.185.67q-.121.348-.267.7h4.184v1.47H177.5a8.5,8.5,0,0,1-.452,1.486,6.159,6.159,0,0,1-.743,1.325,9.35,9.35,0,0,0,1.349.791,13.608,13.608,0,0,0,1.543.63,5.729,5.729,0,0,0-.525.67,5.874,5.874,0,0,0-.46.783,12.071,12.071,0,0,1-1.6-.751,11.346,11.346,0,0,1-1.422-.945,8.328,8.328,0,0,1-1.349.913,10.9,10.9,0,0,1-1.688.735,3.255,3.255,0,0,0-.291-.622,4.7,4.7,0,0,0-.436-.638q-.194.226-.4.5t-.315.452q-.42-.275-.913-.638t-.913-.735v1.7h8.61v1.437h-5.024v.695H176.4v1.308h-3.925v.792h6.284v1.47Zm1.874-9.676h1.163v-.921h-1.163Zm2.762,0h1.147v-.921h-1.147Zm2.762,2.423a7.8,7.8,0,0,0,1.325-.541,6.226,6.226,0,0,0,1.05-.686q-.275-.339-.525-.695a6.352,6.352,0,0,1-.444-.727c-.087.119-.172.234-.259.347s-.172.224-.258.331a4.305,4.305,0,0,0-.509-.4q-.3-.2-.558-.364v1.373h-1.857q.436.355,1.018.743a11.093,11.093,0,0,0,1.017.614m3.441-2.391a4.287,4.287,0,0,0,.444-.832,5.537,5.537,0,0,0,.267-.88h-1.729a5.678,5.678,0,0,0,1.018,1.712" transform="translate(-7250.034 932.694)"/>
    <path id="パス_39585" data-name="パス 39585" d="M222.882,192.1l-.5-1.761q.42-.081.993-.21t1.2-.291v-3.441h-1.712v-1.648h1.712v-2.94h-1.809v-1.664h5.476v1.664h-1.825v2.94h1.6v1.648h-1.6v2.972q.614-.161,1.123-.307t.864-.258v1.648q-.452.162-1.163.388t-1.51.468q-.8.242-1.559.452t-1.292.339m4.539,1.325v-1.6h4.442v-1.567h-2.811v-1.6h2.811v-1.47H228.73v-7.334h8.06v7.334h-3.134v1.47h2.989v1.6h-2.989v1.567h3.764v1.6Zm3.053-10.613h1.389v-1.454h-1.389Zm0,2.891h1.389v-1.5h-1.389Zm3.182-2.891h1.389v-1.454h-1.389Zm0,2.891h1.389v-1.5h-1.389Z" transform="translate(-7290.131 931.155)"/>
    <path id="パス_39586" data-name="パス 39586" d="M117.094,263.513q-.081-.21-.234-.517t-.323-.614a3.338,3.338,0,0,0-.315-.485q.727-.113,1.744-.371a17.2,17.2,0,0,0,1.906-.6h-1.551v-4.6a10.913,10.913,0,0,1-1.107.412q-.589.186-1.235.348a8.126,8.126,0,0,0-.307-.767,3.648,3.648,0,0,0-.4-.7,12.1,12.1,0,0,0,2.221-.573,4.274,4.274,0,0,0,1.478-.9h-2.827a9.1,9.1,0,0,0,.226-.913q.113-.557.2-1.107t.121-.888h3.441a2.292,2.292,0,0,0,.016-.275,2.629,2.629,0,0,1,.016-.291h-4.038v-1.244h4.038v-.872h1.906v.872h1.6v-.872h1.906v.872H129.1v2.924h-3.522v.6h4.636a12.492,12.492,0,0,1-.186,1.833,2.6,2.6,0,0,1-.4,1.042,1.369,1.369,0,0,1-.7.493,4.84,4.84,0,0,1-1.066.186q-.065-.388-.194-.864t-.242-.767v6.058h-1.632a18.508,18.508,0,0,0,1.914.6q1.009.259,1.736.371a3.313,3.313,0,0,0-.315.485q-.17.307-.323.614t-.234.517a16.227,16.227,0,0,1-1.64-.412q-.881-.267-1.729-.614t-1.559-.719l.549-.84h-2.714l.549.84a16.288,16.288,0,0,1-1.55.719q-.857.347-1.729.614a15.4,15.4,0,0,1-1.648.412m1-10.565h1.7l.1-.291a2.538,2.538,0,0,0,.081-.307h-1.729a1.3,1.3,0,0,1-.032.178c-.022.1-.043.189-.065.275a.505.505,0,0,1-.049.145m2.068,3.667h5.411v-.549h-5.411Zm0,1.567h5.411V257.6h-5.411Zm0,1.551h5.411v-.565h-5.411Zm.371-4.862h3.134v-.727h-2.552a4.315,4.315,0,0,1-.582.727m1.163-1.922h1.971v-.6h-1.793a2.488,2.488,0,0,1-.081.307l-.1.291m.339-1.712h1.632v-.565h-1.6a2.553,2.553,0,0,0-.016.291,2.29,2.29,0,0,1-.016.275m3.537,0h1.664v-.565h-1.664Zm0,3.634h1.89a2.543,2.543,0,0,0,.477-.032.315.315,0,0,0,.226-.178,1.809,1.809,0,0,0,.121-.517h-2.714Z" transform="translate(-7216.856 884.154)"/>
    <path id="パス_39587" data-name="パス 39587" d="M174.08,264.574q-.4-.259-.921-.525a5.023,5.023,0,0,0-.921-.38,8.17,8.17,0,0,0,1.349-2.891,16.325,16.325,0,0,0,.444-4.087v-6.4H186.2v12.438q0,1.728-2.084,1.728h-1.228a5.927,5.927,0,0,0-.081-.646q-.065-.372-.137-.727a3.042,3.042,0,0,0-.17-.582h1.131a.766.766,0,0,0,.468-.105.566.566,0,0,0,.13-.444v-2.714h-3.215v4.7h-1.922v-4.7h-3.182a13.075,13.075,0,0,1-.6,2.9,9.844,9.844,0,0,1-1.228,2.431M176,257.563h3.086v-1.922h-3.069v1.486q0,.21-.016.436m.016-3.651h3.069v-1.89h-3.069Zm4.992,0h3.215v-1.89h-3.215Zm0,3.651h3.215v-1.922h-3.215Z" transform="translate(-7255.829 882.964)"/>
    <path id="パス_39588" data-name="パス 39588" d="M343.319,106.8l-.244-.894,1.218-.334.245.894Zm-1.078-3.941-.834-3.047,1.218-.333.834,3.047Zm-1.667-6.094-.834-3.047,1.219-.333.833,3.047Zm-1.667-6.094-.834-3.047,1.218-.333.834,3.047Zm-1.668-6.094-.833-3.047,1.218-.333.834,3.047Zm-1.667-6.094-.834-3.047,1.219-.333.834,3.047ZM333.9,72.387l-.834-3.047,1.218-.334.834,3.047Zm-1.667-6.094-.833-3.047,1.218-.334.834,3.047ZM330.57,60.2l-.834-3.047,1.219-.334.833,3.047ZM328.9,54.1l-.834-3.047,1.218-.334.834,3.047Zm-1.668-6.094-.833-3.047,1.218-.334.834,3.047Zm-1.667-6.094-.834-3.047,1.219-.334.833,3.047ZM323.9,35.822l-.834-3.047,1.218-.334.834,3.047Zm-1.668-6.094-.833-3.047,1.218-.334.834,3.047Zm-1.667-6.094-.834-3.047,1.219-.334.834,3.047ZM318.9,17.54l-.834-3.047,1.218-.334.834,3.047Zm-1.667-6.094L316.4,8.4l1.218-.334.834,3.047Zm-1.667-6.094-.834-3.047,1.219-.333.833,3.047Z" transform="translate(-7353.308 1052.842)"/>
    <path id="パス_39589" data-name="パス 39589" d="M345.029,458.669l-3.158-.081.032-1.263,3.158.082Zm-6.316-.163-3.158-.081.033-1.263,3.158.081Zm-6.316-.163-3.158-.081.032-1.263,3.158.081Zm-6.315-.163-3.158-.081.033-1.263,3.158.082Zm-6.316-.163-3.158-.081.033-1.263,3.159.081Z" transform="translate(-7354.592 741.78)"/>
  </g>
</svg>
