<svg id="グループ_14898" data-name="グループ 14898" xmlns="http://www.w3.org/2000/svg" xmlns:xlink="http://www.w3.org/1999/xlink" width="325.583" height="155.284" viewBox="0 0 325.583 155.284">
  <defs>
    <clipPath id="clip-path">
      <rect id="長方形_9215" data-name="長方形 9215" width="322.428" height="155.284" fill="none"/>
    </clipPath>
    <clipPath id="clip-path-2">
      <rect id="長方形_9219" data-name="長方形 9219" width="325.583" height="155.284" fill="none"/>
    </clipPath>
  </defs>
  <g id="グループ_14317" data-name="グループ 14317">
    <g id="グループ_14316" data-name="グループ 14316" clip-path="url(#clip-path)">
      <g id="グループ_14322" data-name="グループ 14322" transform="translate(248.525 92.928)">
        <path id="パス_39560" data-name="パス 39560" d="M807.458,311.087c-5.921-5.963-15.377-9.233-26.66-9.233l-.532,0c-11.53-.108-21.191,3.174-27.2,9.231a21.722,21.722,0,0,0-6.391,16,22.32,22.32,0,0,0,1.678,9l-6.046,7.094a2.008,2.008,0,0,0,1.5,3.307,2.092,2.092,0,0,0,.629-.1l9.062-2.873c5.943,5.7,15.21,8.825,26.229,8.825l.532,0c11.539.109,21.192-3.174,27.206-9.231a23.245,23.245,0,0,0,0-32.017" transform="translate(-740.884 -300.921)" fill="#fff"/>
        <path id="パス_39561" data-name="パス 39561" d="M779.246,351.7l-.561,0-.524,0c-10.976,0-20.347-3.086-26.469-8.7l-8.54,2.708a3.018,3.018,0,0,1-.911.143,2.872,2.872,0,0,1-2.422-1.318,2.912,2.912,0,0,1,.212-3.528l5.68-6.664a23.319,23.319,0,0,1-1.535-8.838,22.6,22.6,0,0,1,6.662-16.64c6.2-6.241,16.089-9.6,27.876-9.507l.523,0c11.531,0,21.234,3.377,27.323,9.508a24.179,24.179,0,0,1,0,33.333c-6.1,6.142-15.783,9.509-27.316,9.509m-.561-1.869.546,0c11.049,0,20.261-3.171,26.006-8.958a22.313,22.313,0,0,0,0-30.7c-5.735-5.776-14.968-8.957-26-8.957l-.523,0c-11.291-.115-20.713,3.075-26.551,8.955a20.8,20.8,0,0,0-6.12,15.325,21.43,21.43,0,0,0,1.606,8.655.932.932,0,0,1-.151.964l-6.046,7.094a1.069,1.069,0,0,0,1.137,1.713l9.062-2.873a.933.933,0,0,1,.928.216c5.853,5.613,15.132,8.664,26.107,8.563" transform="translate(-739.323 -299.355)"/>
      </g>
    </g>
  </g>
  <path id="パス_39591" data-name="パス 39591" d="M0,0H105.25V152.827H0Z" transform="translate(0.838 0.837)" fill="#f8f8ef"/>
  <g id="グループ_14319" data-name="グループ 14319">
    <g id="グループ_14318" data-name="グループ 14318" clip-path="url(#clip-path-2)">
      <path id="パス_39562" data-name="パス 39562" d="M106.087,154.5H.838A.838.838,0,0,1,0,153.664V.838A.837.837,0,0,1,.838,0h105.25a.837.837,0,0,1,.838.838V153.664a.838.838,0,0,1-.838.838M1.675,152.827H105.25V1.675H1.675Z"/>
      <path id="パス_39590" data-name="パス 39590" d="M0,0H105.25V152.827H0Z" transform="translate(136.406 1.619)" fill="#f8f8ef"/>
      <path id="パス_39563" data-name="パス 39563" d="M510.744,156.836H405.495a.837.837,0,0,1-.838-.838V3.172a.837.837,0,0,1,.838-.838h105.25a.837.837,0,0,1,.838.838V156a.837.837,0,0,1-.838.838m-104.412-1.675H509.907V4.009H406.332Z" transform="translate(-269.089 -1.552)"/>
      <rect id="長方形_9218" data-name="長方形 9218" width="105.25" height="110.036" transform="translate(136.406 1.619)" fill="#d2a700"/>
      <path id="パス_39564" data-name="パス 39564" d="M511.582,114.045H404.657V2.334H511.582Zm-105.25-1.675H509.907V4.009H406.332Z" transform="translate(-269.089 -1.552)"/>
      <path id="パス_39565" data-name="パス 39565" d="M467.359,169.074a17.658,17.658,0,0,1-1.7-.556,18.682,18.682,0,0,1-1.79-.788,14.377,14.377,0,0,1-1.482-.848l.7-.805h-4.437l.7.805a12.14,12.14,0,0,1-1.465.84q-.865.428-1.8.779a17.434,17.434,0,0,1-1.721.557,5.532,5.532,0,0,0-.48-.848,4.393,4.393,0,0,0-.617-.762q.565-.12,1.259-.325t1.413-.48q.72-.274,1.319-.566h-1.782v-7.383H466.33v7.383h-1.867q.6.292,1.319.566t1.431.48q.711.206,1.259.325a4.685,4.685,0,0,0-.625.762,4.812,4.812,0,0,0-.488.865m-13.568-15.35h14.185v4.2H453.79Zm1.987,2.741H457.9V155.2h-2.124Zm1.765,4.317h6.733v-.7h-6.733Zm0,1.953h6.733v-.754h-6.733Zm0,1.97h6.733v-.771h-6.733Zm2.364-8.24h2V155.2h-2Zm4.009,0h2.107V155.2h-2.107Z" transform="translate(-301.42 -102.223)"/>
      <path id="パス_39566" data-name="パス 39566" d="M515.581,169.056v-3.409q-.5.189-1.157.411t-1.371.446q-.711.223-1.345.411t-1.079.308l-.583-1.884q.223-.034.6-.128L511.5,165v-9.268h-1.2v-1.8h8.377v1.2h6.544a18.408,18.408,0,0,1-2.261,8.5,11.454,11.454,0,0,0,1.568,1.713,12.056,12.056,0,0,0,1.876,1.371,6.962,6.962,0,0,0-.771.8,6.585,6.585,0,0,0-.634.865,16.941,16.941,0,0,1-1.713-1.4,14.33,14.33,0,0,1-1.491-1.628,15.369,15.369,0,0,1-3.2,3.049,6.545,6.545,0,0,0-.4-.539,8.07,8.07,0,0,0-.574-.643v1.85Zm-2.039-11.65h2.039v-1.679h-2.039Zm0,3.375h2.039V159.1h-2.039Zm0,3.7q.6-.154,1.131-.3t.908-.265v-1.439h-2.039Zm4.077,2.21a12.62,12.62,0,0,0,1.7-1.388,11.893,11.893,0,0,0,1.371-1.593,16.236,16.236,0,0,1-1.294-2.8,16.536,16.536,0,0,1-.762-3.126l1.833-.325a12.794,12.794,0,0,0,1.353,4.351,13.67,13.67,0,0,0,1.268-4.831h-4.677v-1.251h-.788Z" transform="translate(-339.171 -102.36)"/>
      <path id="パス_39567" data-name="パス 39567" d="M569.4,167.08v-1.765h3.58a11.437,11.437,0,0,0-.771-1.328,10.542,10.542,0,0,0-.891-1.174l1.525-.925h-2.4v-1.833h5.139V158.7H572.8v-1.371q-.857.6-1.714,1.1t-1.576.848a8.264,8.264,0,0,0-.522-.874,4.239,4.239,0,0,0-.728-.839,13.278,13.278,0,0,0,2.193-1.071,21.367,21.367,0,0,0,2.184-1.5,19.074,19.074,0,0,0,1.893-1.679,9.754,9.754,0,0,0,1.3-1.593l1.936.291a10.544,10.544,0,0,0,1.473,1.61,20.069,20.069,0,0,0,3.906,2.741,14.621,14.621,0,0,0,1.936.874q-.326.36-.694.848a9.208,9.208,0,0,0-.676,1.037,19.012,19.012,0,0,1-3.221-1.833V158.7h-2.741v1.353h5.071v1.833h-2.553l1.7.7q-.326.685-.719,1.413t-.737,1.311h3.272v1.765Zm4.266-1.765h1.919v-3.426h-2.6a9.661,9.661,0,0,1,.668.882q.343.506.66,1.011t.505.882Zm-.257-8.411h6.544a22.622,22.622,0,0,1-1.782-1.473,11.052,11.052,0,0,1-1.422-1.559,11.49,11.49,0,0,1-1.422,1.482q-.89.8-1.919,1.55m4.335,8.411h2.176l-1.251-.582q.24-.377.506-.891t.505-1.037q.24-.523.411-.917h-2.347Z" transform="translate(-377.879 -100.897)"/>
      <path id="パス_39568" data-name="パス 39568" d="M636.171,167.985a7.134,7.134,0,0,0-.557-.711,3.81,3.81,0,0,0-.642-.608v.771h-5.379v-4.283q-.223.12-.437.231a3.54,3.54,0,0,1-.454.2,3.632,3.632,0,0,0-.266-.462q-.179-.274-.377-.54a1.724,1.724,0,0,0-.368-.385,9.6,9.6,0,0,0,1.73-.84,14.27,14.27,0,0,0,1.628-1.148c-.137-.148-.272-.3-.4-.454s-.26-.311-.386-.471q-.274.274-.565.523t-.582.454q-.223-.257-.574-.6a3.229,3.229,0,0,0-.66-.514,6.988,6.988,0,0,0,1.251-1,9.707,9.707,0,0,0,1.148-1.362,5.931,5.931,0,0,0,.754-1.422l1.628.565q-.085.188-.188.394a3.824,3.824,0,0,1-.24.411h2.69l.514.463a13.213,13.213,0,0,1-.865,1.533,11.783,11.783,0,0,1-1.088,1.413,12.11,12.11,0,0,0,1.508.857,12.511,12.511,0,0,0,1.525.617v-6.047h1.97l.189-.6q.1-.325.188-.6h-2.724v-1.628h7.675v1.628h-2.947q-.086.274-.2.591l-.214.608H643.2v8.754h-1.765a11.028,11.028,0,0,0,.9.865,11.8,11.8,0,0,0,1.088.84,9.114,9.114,0,0,0,1.045.625,5.764,5.764,0,0,0-.634.625,6.587,6.587,0,0,0-.565.711,11.872,11.872,0,0,1-1.747-1.259,12.656,12.656,0,0,1-1.542-1.55l1.1-.856h-2.707l1.113.856a11.207,11.207,0,0,1-1.542,1.55,12.665,12.665,0,0,1-1.765,1.259m-7.829-11.307V153.7h2.878v-1.456h1.936V153.7h2.826v2.981h-1.627v-1.491h-4.4v1.491Zm2.33,5.859h3.58a10.615,10.615,0,0,1-1.97-1.216q-.377.326-.78.625t-.831.591m.617,3.426h1.987v-1.953h-1.987Zm.908-6.852a7.359,7.359,0,0,0,.822-1.028h-1.713a7.777,7.777,0,0,0,.891,1.028m2.775,7.538a7.035,7.035,0,0,0,1.045-.617q.565-.394,1.1-.848a8.681,8.681,0,0,0,.891-.865h-1.49V161.9q-.189.274-.411.634a3.345,3.345,0,0,0-.309.6q-.206-.068-.411-.146t-.411-.145Zm3.392-8.549h2.981v-.994h-2.981Zm0,2.313h2.981v-.994h-2.981Zm0,2.364h2.981v-1.045h-2.981Z" transform="translate(-417.402 -101.237)"/>
      <path id="パス_39569" data-name="パス 39569" d="M449.727,393.693a18.853,18.853,0,0,1-2.27-.115,5.931,5.931,0,0,1-1.532-.369,3.106,3.106,0,0,1-1.017-.661q-.242.165-.566.368t-.661.407q-.337.2-.617.356l-.585-1.437q.381-.14.846-.343t.808-.382v-3.154h-1.4v-1.323h2.8v4.349a1.44,1.44,0,0,0,.992.789q-.089-.14-.191-.286a2.873,2.873,0,0,0-.2-.261,8.21,8.21,0,0,0,1.03-.286q.534-.184,1-.4h-1.5v-4.3h6.307v4.3h-1.424a9.133,9.133,0,0,0,1.024.42,8.362,8.362,0,0,0,1.049.292q-.127.153-.267.356a4.05,4.05,0,0,0-.242.394q.394-.026.718-.057t.592-.07a2.717,2.717,0,0,0-.134.4q-.07.261-.121.528t-.076.458q-.356,0-.929.006l-1.214.013q-.642.006-1.227.006Zm-4.654-8.431a6.53,6.53,0,0,0-.617-.636q-.375-.343-.782-.661a5.926,5.926,0,0,0-.75-.509l.877-1.017a7.637,7.637,0,0,1,.744.489q.426.312.826.649a8.053,8.053,0,0,1,.642.591q-.114.1-.305.312t-.369.426a3.769,3.769,0,0,0-.267.356m.572,1.017v-.967h3.485v-.369H446.5v-2.175h2.633v-.661H450.5v.661h2.632v2.175H450.5v.369h3.612v.967Zm4.082,6.219q.75,0,1.412-.019t1.208-.032q-.547-.2-1.088-.464a10.755,10.755,0,0,1-1.011-.553l.407-.483h-1.577l.394.471a10.459,10.459,0,0,1-.947.528,10.99,10.99,0,0,1-1.011.439,17.982,17.982,0,0,0,2.212.115m-1.844-8.38h1.247V383.6h-1.247Zm.166,3.713h3.535v-.394h-3.535Zm0,1.132h3.535v-.407h-3.535Zm0,1.132h3.535v-.42h-3.535Zm2.455-5.977h1.259V383.6H450.5Z" transform="translate(-294.24 -254.094)"/>
      <path id="パス_39570" data-name="パス 39570" d="M485.79,389.462h4.883v5.1H485.79Zm1.475,3.79H489.2v-2.429h-1.933Zm.687-9.4H494.4v4.654h-6.447Zm1.539,3.37h3.357v-2.073h-3.357Zm2.2,2.238h4.9v5.1h-4.9Zm1.475,3.79h1.958v-2.429h-1.958Z" transform="translate(-323.041 -255.255)"/>
      <path id="パス_39571" data-name="パス 39571" d="M525.846,393.819v-1.157h2.238v-1.768h1.45v1.768h1.335v-2.2h-4.057V389.33h1.424v-1.348a9.848,9.848,0,0,1-.909.846,7.862,7.862,0,0,1-1,.706,4.015,4.015,0,0,0-.394-.47,2.733,2.733,0,0,0-.47-.407,4.546,4.546,0,0,0,.693-.426q.375-.273.737-.592t.629-.6H526.2V384.6h2.035v-.458h-2.4v-1.055h2.4v-.725H529.5v.725h2.314v1.055H529.5v.458h2.035v.979a7.966,7.966,0,0,0,.636-1q.317-.585.572-1.189a5.647,5.647,0,0,0,.343-1.049l1.272.305a3.9,3.9,0,0,1-.146.528q-.095.273-.21.553h3.294v1.157h-1.017a6.691,6.691,0,0,1-.356,1.17,4.826,4.826,0,0,1-.585,1.043,7.347,7.347,0,0,0,1.062.623,10.59,10.59,0,0,0,1.214.5,5.224,5.224,0,0,0-.776,1.145,9.495,9.495,0,0,1-1.259-.591,9.019,9.019,0,0,1-1.119-.744,6.559,6.559,0,0,1-1.062.719,8.6,8.6,0,0,1-1.329.579,2.539,2.539,0,0,0-.229-.49,3.753,3.753,0,0,0-.343-.5q-.153.178-.312.394t-.248.356q-.331-.216-.719-.5t-.718-.579v1.335h6.778v1.132H532.32v.547h3.09v1.03h-3.09v.624h4.947v1.157Zm1.476-7.618h.916v-.725h-.916Zm2.175,0h.9v-.725h-.9Zm2.175,1.908a6.126,6.126,0,0,0,1.043-.426,4.88,4.88,0,0,0,.827-.54q-.217-.267-.413-.547a4.975,4.975,0,0,1-.349-.572q-.1.14-.2.273c-.068.089-.136.176-.2.261a3.44,3.44,0,0,0-.4-.312q-.236-.159-.439-.286v1.081h-1.462q.343.28.8.585a8.672,8.672,0,0,0,.8.483m2.709-1.882a3.351,3.351,0,0,0,.35-.655,4.335,4.335,0,0,0,.21-.693h-1.361a4.47,4.47,0,0,0,.8,1.348" transform="translate(-349.424 -254.245)"/>
      <path id="パス_39572" data-name="パス 39572" d="M568,393.646l-.394-1.386q.331-.063.782-.165t.948-.229v-2.709h-1.348v-1.3h1.348v-2.314h-1.424v-1.31h4.311v1.31h-1.437v2.314h1.259v1.3h-1.259v2.34q.484-.127.884-.242t.681-.2v1.3q-.356.127-.916.305t-1.189.369q-.629.191-1.227.356t-1.017.267m3.573,1.043v-1.259h3.5V392.2h-2.213v-1.259h2.213v-1.158H572.6v-5.773h6.346v5.773h-2.467v1.158h2.353V392.2h-2.353v1.234h2.963v1.259Zm2.4-8.355h1.094v-1.144h-1.094Zm0,2.276h1.094v-1.183h-1.094Zm2.505-2.276h1.094v-1.144h-1.094Zm0,2.276h1.094v-1.183h-1.094Z" transform="translate(-377.446 -255.356)"/>
      <path id="パス_39573" data-name="パス 39573" d="M610.7,394.112c-.043-.11-.1-.246-.184-.407s-.166-.322-.254-.483a2.63,2.63,0,0,0-.248-.382q.572-.089,1.373-.292a13.547,13.547,0,0,0,1.5-.471h-1.221v-3.624a8.569,8.569,0,0,1-.871.324q-.464.146-.973.273a6.482,6.482,0,0,0-.241-.6,2.868,2.868,0,0,0-.318-.553,9.525,9.525,0,0,0,1.749-.452,3.359,3.359,0,0,0,1.163-.706h-2.225a7.2,7.2,0,0,0,.178-.719q.089-.439.16-.871c.047-.288.078-.522.1-.7h2.709a1.829,1.829,0,0,0,.012-.216,2,2,0,0,1,.013-.229h-3.179v-.979h3.179v-.687h1.5v.687h1.259v-.687h1.5v.687h2.772v2.3h-2.772v.471h3.65a9.883,9.883,0,0,1-.146,1.443,2.038,2.038,0,0,1-.318.82,1.073,1.073,0,0,1-.553.388,3.8,3.8,0,0,1-.839.146q-.052-.305-.153-.68a6.314,6.314,0,0,0-.191-.6v4.769h-1.285a14.552,14.552,0,0,0,1.508.471q.794.2,1.367.292a2.64,2.64,0,0,0-.248.382q-.134.241-.254.483t-.185.407a12.728,12.728,0,0,1-1.291-.324q-.694-.21-1.361-.483t-1.227-.566l.432-.661h-2.137l.433.661a12.729,12.729,0,0,1-1.221.566q-.674.273-1.361.483a11.959,11.959,0,0,1-1.3.324m.789-8.317h1.335l.076-.229a2.077,2.077,0,0,0,.064-.242H611.6a1.008,1.008,0,0,1-.026.14c-.017.076-.034.148-.051.216a.409.409,0,0,1-.038.115m1.628,2.887h4.26v-.432h-4.26Zm0,1.234h4.26v-.458h-4.26Zm0,1.221h4.26v-.445h-4.26Zm.292-3.828h2.467v-.572h-2.009a3.4,3.4,0,0,1-.458.572m.916-1.513h1.552v-.471h-1.412a1.951,1.951,0,0,1-.064.242l-.076.229m.267-1.348h1.284V384h-1.259a2.032,2.032,0,0,0-.013.229,1.854,1.854,0,0,1-.012.216m2.785,0h1.31V384h-1.31Zm0,2.861h1.488a1.992,1.992,0,0,0,.376-.025.248.248,0,0,0,.178-.14,1.415,1.415,0,0,0,.1-.407h-2.136Z" transform="translate(-405.146 -254.246)"/>
      <path id="パス_39574" data-name="パス 39574" d="M651.649,394.868q-.318-.2-.725-.414a3.942,3.942,0,0,0-.725-.3,6.427,6.427,0,0,0,1.062-2.276,12.86,12.86,0,0,0,.35-3.218v-5.036h9.576v9.792q0,1.361-1.64,1.361h-.966a4.633,4.633,0,0,0-.064-.509q-.05-.293-.108-.572a2.453,2.453,0,0,0-.133-.458h.89a.606.606,0,0,0,.369-.082.447.447,0,0,0,.1-.35v-2.136H657.1v3.7h-1.514v-3.7h-2.505a10.3,10.3,0,0,1-.47,2.283,7.731,7.731,0,0,1-.967,1.914m1.514-5.519h2.429v-1.513h-2.416v1.17q0,.165-.013.343m.013-2.874h2.416v-1.488h-2.416Zm3.93,0h2.531v-1.488H657.1Zm0,2.874h2.531v-1.514H657.1Z" transform="translate(-432.37 -255.104)"/>
      <g id="グループ_14321" data-name="グループ 14321" transform="translate(266.427 105.013)">
        <path id="パス_39575" data-name="パス 39575" d="M810.859,347.648a12.671,12.671,0,0,1-1.208-.4,13.264,13.264,0,0,1-1.275-.561,10.284,10.284,0,0,1-1.056-.6l.5-.573h-3.16l.5.573a8.624,8.624,0,0,1-1.043.6q-.616.305-1.282.556a12.479,12.479,0,0,1-1.226.4,3.934,3.934,0,0,0-.342-.6,3.144,3.144,0,0,0-.44-.543q.4-.085.9-.231t1.007-.342q.512-.2.939-.4H802.4v-5.259h7.724v5.259H808.8q.427.207.94.4t1.019.342q.507.146.9.231a3.343,3.343,0,0,0-.445.543,3.423,3.423,0,0,0-.347.616m-9.665-10.934h10.1v2.99h-10.1Zm1.415,1.952h1.513v-.9H802.61Zm1.257,3.075h4.8v-.5h-4.8Zm0,1.391h4.8V342.6h-4.8Zm0,1.4h4.8v-.549h-4.8Zm1.684-5.87h1.428v-.9h-1.428Zm2.856,0h1.5v-.9h-1.5Z" transform="translate(-798.427 -336.714)"/>
        <path id="パス_39576" data-name="パス 39576" d="M835.281,347.6v-2.429q-.354.134-.824.293t-.976.317q-.506.158-.958.293t-.769.22l-.415-1.342c.106-.016.248-.047.428-.092l.61-.152v-6.6h-.855v-1.281h5.968v.854h4.661a13.111,13.111,0,0,1-1.61,6.053,8.144,8.144,0,0,0,1.116,1.22,8.563,8.563,0,0,0,1.336.976,4.961,4.961,0,0,0-.549.568,4.721,4.721,0,0,0-.452.616,12.057,12.057,0,0,1-1.22-1,10.192,10.192,0,0,1-1.062-1.159,10.96,10.96,0,0,1-2.282,2.172c-.057-.09-.152-.218-.287-.384a5.578,5.578,0,0,0-.409-.457V347.6Zm-1.452-8.3h1.452v-1.2h-1.452Zm0,2.4h1.452v-1.2h-1.452Zm0,2.636q.427-.109.805-.213t.647-.189v-1.025h-1.452Zm2.9,1.574a8.958,8.958,0,0,0,1.208-.988,8.426,8.426,0,0,0,.976-1.135A11.559,11.559,0,0,1,838,341.8a11.8,11.8,0,0,1-.543-2.227l1.306-.232a9.11,9.11,0,0,0,.964,3.1,9.746,9.746,0,0,0,.9-3.441h-3.332v-.891h-.561Z" transform="translate(-815.787 -336.778)"/>
        <path id="パス_39577" data-name="パス 39577" d="M871.431,347.542a5.438,5.438,0,0,1-2.245-.744,4.284,4.284,0,0,1-1.641-5.516,4.657,4.657,0,0,1,1.263-1.623q-.976.159-1.946.342t-1.757.342q-.786.158-1.214.268l-.33-1.574q.4-.024,1.117-.109t1.611-.214q.9-.128,1.854-.281t1.855-.311q.9-.158,1.611-.311t1.117-.275l.391,1.489c-.13.008-.287.025-.469.049l-.617.085a3.66,3.66,0,0,0-1.281.415,4.159,4.159,0,0,0-1.092.854,4.062,4.062,0,0,0-.763,1.2,3.719,3.719,0,0,0-.281,1.452,2.494,2.494,0,0,0,.476,1.562,3.119,3.119,0,0,0,1.3.97,6.82,6.82,0,0,0,1.849.47,2.533,2.533,0,0,0-.354.457,4.457,4.457,0,0,0-.293.549,2.323,2.323,0,0,0-.159.458m1.025-4.674a5.457,5.457,0,0,0-.61-.817,7.03,7.03,0,0,0-.7-.7l.671-.537a4.042,4.042,0,0,1,.44.427q.256.281.506.574a6.2,6.2,0,0,1,.384.488Zm1.1-.927a5.628,5.628,0,0,0-.616-.806,6.279,6.279,0,0,0-.7-.683l.659-.549a4.5,4.5,0,0,1,.445.427q.262.281.518.568a4.219,4.219,0,0,1,.391.494Z" transform="translate(-834.118 -337.181)"/>
        <path id="パス_39578" data-name="パス 39578" d="M796.466,382.015a3.826,3.826,0,0,0-.36-.336c-.15-.126-.3-.244-.457-.353a3.947,3.947,0,0,0-.39-.25,6.9,6.9,0,0,0,.8-.744,11.786,11.786,0,0,0,.787-.94,10.108,10.108,0,0,0,.677-1.013,5.894,5.894,0,0,0,.458-.952l1.342.647a12.66,12.66,0,0,1-.781,1.44,13.663,13.663,0,0,1-.995,1.4,7.735,7.735,0,0,1-1.08,1.1m0,4.771a4.151,4.151,0,0,0-.158-.458q-.11-.275-.244-.543a2.249,2.249,0,0,0-.244-.4,15.489,15.489,0,0,0,3.3-.769,9.726,9.726,0,0,0,2.758-1.508,7.48,7.48,0,0,0,1.989-2.4l1.281.854A10.184,10.184,0,0,1,801.6,385.1a13.011,13.011,0,0,1-5.138,1.69m2.66-3.551q-.037-.317-.1-.775a4.47,4.47,0,0,0-.159-.763h.952a.661.661,0,0,0,.36-.067q.092-.067.092-.311V375.84h1.538v6.053q0,1.342-1.611,1.342Zm6.5-1.818a8.48,8.48,0,0,0-.525-.726q-.341-.433-.757-.9t-.824-.866a6.669,6.669,0,0,0-.726-.635l1.074-.916a9.993,9.993,0,0,1,1.086.922,15.029,15.029,0,0,1,1.05,1.122,12.112,12.112,0,0,1,.806,1.056,2.549,2.549,0,0,0-.385.256q-.238.183-.458.372c-.146.126-.26.23-.341.311" transform="translate(-795.259 -358.974)"/>
        <path id="パス_39579" data-name="パス 39579" d="M828.706,384.38a3.994,3.994,0,0,0-.561-.391,3.882,3.882,0,0,0-.671-.33,10.033,10.033,0,0,0,1.355-2.032,15.23,15.23,0,0,0,.988-2.422q-.611.085-1.135.146t-.842.085l-.183-1.354q.427,0,1.1-.061t1.422-.171q.135-.573.208-1.129t.1-1.08l1.355.2q-.1.916-.257,1.782.427-.085.824-.177t.714-.177l.183,1.282q-.378.11-.909.219t-1.129.208a16.677,16.677,0,0,1-1.074,2.9,15.97,15.97,0,0,1-1.489,2.5m3.368,2.136a2.164,2.164,0,0,1-1.477-.586,1.737,1.737,0,0,1-.525-1.306,1.522,1.522,0,0,1,.629-1.208,2.575,2.575,0,0,1,1.727-.451q.171.012.342.018a2.878,2.878,0,0,1,.33.031v-2.77h1.391v3.1a7.006,7.006,0,0,1,1.324.6,10.279,10.279,0,0,1,1.214.83,3.073,3.073,0,0,0-.47.561,4.021,4.021,0,0,0-.372.647,9.863,9.863,0,0,0-.818-.665,6.276,6.276,0,0,0-.891-.543q-.122,1.854-2.4,1.745m.11-1.22a.97.97,0,0,0,.689-.214,1.007,1.007,0,0,0,.226-.75v-.085a4.916,4.916,0,0,0-.782-.11,1.238,1.238,0,0,0-.665.135.486.486,0,0,0-.262.415.51.51,0,0,0,.2.439.917.917,0,0,0,.6.171m4.271-4.808a4.674,4.674,0,0,0-.525-.464q-.33-.256-.708-.513t-.751-.463a4.27,4.27,0,0,0-.653-.305l.72-1.074q.293.122.683.323t.793.451q.4.251.744.494a5.445,5.445,0,0,1,.562.451Z" transform="translate(-813.588 -358.861)"/>
        <path id="パス_39580" data-name="パス 39580" d="M863.386,386.7a9.438,9.438,0,0,0-.592-1.019q-.372-.567-.818-1.172t-.909-1.177q-.464-.574-.872-1.031t-.7-.726a1.1,1.1,0,0,1-.415-.714.921.921,0,0,1,.4-.653q.305-.268.72-.684t.866-.915q.451-.5.885-1.025t.781-1.019a6.606,6.606,0,0,0,.543-.9l1.392.94q-.269.366-.739.9t-1,1.117q-.531.579-1.031,1.1t-.854.86a.38.38,0,0,0,.025.6q.268.268.665.713t.842.989q.445.543.885,1.092t.793,1.031q.354.482.562.8a3.454,3.454,0,0,0-.476.232q-.281.158-.543.335a2.774,2.774,0,0,0-.409.323" transform="translate(-831.569 -358.878)"/>
        <path id="パス_39581" data-name="パス 39581" d="M887.861,386.855a1.042,1.042,0,1,1,.732-.305,1,1,0,0,1-.732.305m-.6-3.014q-.024-.378-.061-.994t-.079-1.33q-.043-.714-.073-1.4t-.049-1.22q-.019-.531-.018-.763v-1.891h1.757v1.891q0,.232-.018.763t-.049,1.22q-.031.689-.073,1.4t-.079,1.33q-.037.616-.061.994Z" transform="translate(-847.353 -359.201)"/>
      </g>
      <path id="パス_39582" data-name="パス 39582" d="M58.068,192.9a25.5,25.5,0,0,1-3.058-.154,8,8,0,0,1-2.064-.5,4.188,4.188,0,0,1-1.371-.891q-.326.223-.763.5t-.89.548q-.455.274-.831.48l-.788-1.936q.514-.188,1.139-.462t1.088-.514v-4.248H48.645v-1.782h3.769V189.8a1.938,1.938,0,0,0,1.336,1.062q-.12-.188-.257-.386a3.932,3.932,0,0,0-.274-.351,11.065,11.065,0,0,0,1.388-.386q.72-.248,1.353-.539H53.939V183.41h8.5V189.2H60.518a12.406,12.406,0,0,0,1.379.565,11.4,11.4,0,0,0,1.413.394q-.171.206-.36.48a5.433,5.433,0,0,0-.325.531q.531-.034.968-.077t.8-.094a3.632,3.632,0,0,0-.18.54q-.094.351-.163.711t-.1.617q-.48,0-1.251.008l-1.636.017q-.866.009-1.653.009ZM51.8,181.543a8.726,8.726,0,0,0-.831-.857q-.506-.463-1.054-.891a7.911,7.911,0,0,0-1.01-.685l1.182-1.371a10.251,10.251,0,0,1,1,.66q.574.42,1.114.874a10.948,10.948,0,0,1,.865.8q-.154.137-.411.42t-.5.574a5.181,5.181,0,0,0-.36.48m.771,1.371v-1.3h4.694v-.5H53.717v-2.929h3.546v-.891h1.85v.891h3.547v2.929H59.113v.5h4.866v1.3Zm5.5,8.377q1.011,0,1.9-.026t1.627-.043q-.736-.274-1.465-.625a14.477,14.477,0,0,1-1.362-.745l.548-.651H57.194l.531.634a14.2,14.2,0,0,1-1.276.711q-.677.334-1.362.591a24.247,24.247,0,0,0,2.981.154M55.584,180h1.679v-.7H55.584Zm.222,5h4.763v-.531H55.806Zm0,1.525h4.763v-.548H55.806Zm0,1.525h4.763v-.565H55.806ZM59.113,180h1.7v-.7h-1.7Z" transform="translate(-32.121 -117.897)"/>
      <path id="パス_39583" data-name="パス 39583" d="M108.48,187.2h6.578v6.87H108.48Zm1.987,5.105h2.6v-3.272h-2.6Zm.925-12.66h8.686v6.27h-8.686Zm2.073,4.54h4.523v-2.792h-4.523Zm2.964,3.015h6.6v6.87h-6.6Zm1.987,5.105h2.638v-3.272h-2.638Z" transform="translate(-72.137 -119.461)"/>
      <path id="パス_39584" data-name="パス 39584" d="M164.282,193.071v-1.559H167.3V189.13h1.953v2.381h1.8v-2.964h-5.465v-1.524H167.5v-1.816a13.188,13.188,0,0,1-1.225,1.139,10.617,10.617,0,0,1-1.345.95,5.416,5.416,0,0,0-.531-.634,3.679,3.679,0,0,0-.634-.548,6.057,6.057,0,0,0,.934-.574q.505-.368.994-.8t.848-.805h-1.782V180.65H167.5v-.617h-3.238v-1.422H167.5v-.977h1.7v.977h3.118v1.422H169.2v.617h2.741v1.319a10.828,10.828,0,0,0,.857-1.353q.428-.788.771-1.6a7.573,7.573,0,0,0,.463-1.413l1.713.411a5.359,5.359,0,0,1-.2.711q-.129.369-.283.745H179.7v1.559H178.33a9.016,9.016,0,0,1-.48,1.576,6.532,6.532,0,0,1-.788,1.405,9.919,9.919,0,0,0,1.43.839,14.429,14.429,0,0,0,1.636.668,6.078,6.078,0,0,0-.557.711,6.23,6.23,0,0,0-.488.831,12.8,12.8,0,0,1-1.7-.8,12.032,12.032,0,0,1-1.508-1,8.831,8.831,0,0,1-1.431.968,11.552,11.552,0,0,1-1.79.779,3.453,3.453,0,0,0-.309-.659,4.985,4.985,0,0,0-.462-.677q-.206.24-.42.531t-.334.48q-.446-.291-.968-.677t-.968-.78v1.8h9.131v1.524H173v.737h4.163v1.388H173v.84h6.664v1.559Zm1.987-10.262H167.5v-.977h-1.234Zm2.929,0h1.216v-.977H169.2Zm2.929,2.57a8.275,8.275,0,0,0,1.405-.574,6.6,6.6,0,0,0,1.114-.728q-.292-.36-.557-.737a6.739,6.739,0,0,1-.471-.771c-.092.126-.183.248-.274.368s-.183.237-.274.351a4.566,4.566,0,0,0-.539-.42q-.318-.214-.591-.386v1.456h-1.97q.462.377,1.079.788a11.768,11.768,0,0,0,1.079.651m3.649-2.535a4.547,4.547,0,0,0,.471-.882,5.873,5.873,0,0,0,.283-.934H174.7a6.023,6.023,0,0,0,1.079,1.816" transform="translate(-108.903 -118.101)"/>
      <path id="パス_39585" data-name="パス 39585" d="M222.912,192.837l-.531-1.867q.445-.085,1.053-.223t1.276-.308v-3.649h-1.816v-1.747h1.816v-3.118h-1.919v-1.765H228.6v1.765h-1.936v3.118h1.7v1.747h-1.7v3.152q.651-.171,1.191-.326t.916-.274v1.747q-.479.171-1.234.411t-1.6.5q-.848.257-1.653.48t-1.371.36m4.814,1.4v-1.7h4.711v-1.662h-2.981v-1.7h2.981v-1.559h-3.323v-7.778h8.548v7.778h-3.324v1.559h3.17v1.7h-3.17v1.662h3.992v1.7Zm3.238-11.255h1.473v-1.542h-1.473Zm0,3.066h1.473v-1.593h-1.473Zm3.375-3.066h1.473v-1.542h-1.473Zm0,3.066h1.473v-1.593h-1.473Z" transform="translate(-147.879 -119.597)"/>
      <path id="パス_39586" data-name="パス 39586" d="M117.2,264.419q-.086-.223-.249-.548t-.342-.651a3.541,3.541,0,0,0-.334-.514q.771-.12,1.85-.394a18.251,18.251,0,0,0,2.022-.634h-1.645V256.8a11.576,11.576,0,0,1-1.174.437q-.625.2-1.31.368a8.617,8.617,0,0,0-.326-.814,3.869,3.869,0,0,0-.428-.745,12.828,12.828,0,0,0,2.356-.608,4.532,4.532,0,0,0,1.568-.951h-3a9.646,9.646,0,0,0,.24-.968q.12-.591.214-1.174t.129-.942h3.649a2.43,2.43,0,0,0,.017-.291,2.791,2.791,0,0,1,.017-.308h-4.283V249.48h4.283v-.925h2.022v.925h1.7v-.925H126.2v.925h3.735v3.1H126.2v.634h4.917a13.249,13.249,0,0,1-.2,1.944,2.753,2.753,0,0,1-.428,1.1,1.452,1.452,0,0,1-.745.523,5.135,5.135,0,0,1-1.131.2q-.069-.411-.206-.917t-.257-.814v6.424h-1.73a19.637,19.637,0,0,0,2.03.634q1.07.274,1.842.394a3.513,3.513,0,0,0-.334.514q-.18.325-.343.651t-.248.548a17.215,17.215,0,0,1-1.739-.437q-.934-.283-1.833-.651t-1.653-.763l.583-.891h-2.878l.582.891a17.266,17.266,0,0,1-1.644.763q-.909.368-1.833.651a16.332,16.332,0,0,1-1.747.437m1.062-11.2h1.8l.1-.309a2.694,2.694,0,0,0,.085-.325h-1.833a1.378,1.378,0,0,1-.034.188c-.023.1-.046.2-.069.291a.536.536,0,0,1-.052.154m2.193,3.889H126.2v-.582H120.46Zm0,1.662H126.2v-.617H120.46Zm0,1.645H126.2v-.6H120.46Zm.394-5.157h3.324v-.771h-2.707a4.576,4.576,0,0,1-.617.771m1.234-2.039h2.09v-.634h-1.9a2.638,2.638,0,0,1-.086.325l-.1.309m.36-1.816h1.73v-.6h-1.7a2.709,2.709,0,0,0-.017.308,2.43,2.43,0,0,1-.017.291m3.752,0h1.765v-.6H126.2Zm0,3.854h2a2.7,2.7,0,0,0,.506-.034.334.334,0,0,0,.24-.189,1.919,1.919,0,0,0,.128-.548H126.2Z" transform="translate(-76.652 -165.284)"/>
      <path id="パス_39587" data-name="パス 39587" d="M174.192,265.438q-.428-.274-.977-.557a5.326,5.326,0,0,0-.976-.4,8.664,8.664,0,0,0,1.431-3.066,17.313,17.313,0,0,0,.471-4.334v-6.784h12.9v13.191q0,1.833-2.21,1.833h-1.3a6.28,6.28,0,0,0-.085-.685q-.069-.395-.146-.771a3.225,3.225,0,0,0-.18-.617h1.2a.812.812,0,0,0,.5-.112.6.6,0,0,0,.137-.471v-2.878h-3.409v4.985H179.5v-4.985h-3.375a13.866,13.866,0,0,1-.634,3.075,10.44,10.44,0,0,1-1.3,2.578M176.23,258H179.5v-2.039h-3.255v1.576q0,.223-.017.463m.017-3.872H179.5v-2h-3.255Zm5.294,0h3.409v-2h-3.409Zm0,3.872h3.409v-2.039h-3.409Z" transform="translate(-114.536 -166.441)"/>
      <path id="パス_39588" data-name="パス 39588" d="M345.049,113.143l-.259-.948,1.292-.354.26.948Zm-1.143-4.18-.884-3.232,1.292-.353.884,3.231Zm-1.768-6.463-.884-3.232,1.292-.353.884,3.231Zm-1.768-6.463-.885-3.232,1.292-.353.884,3.231ZM338.6,89.575l-.884-3.232,1.292-.353.884,3.231Zm-1.768-6.463-.884-3.232,1.292-.353.884,3.231Zm-1.768-6.463-.884-3.232,1.292-.354.884,3.232ZM333.3,70.186l-.884-3.232,1.292-.354.884,3.232Zm-1.768-6.463-.884-3.232,1.292-.354.884,3.232Zm-1.768-6.463-.884-3.232,1.292-.354.884,3.232ZM327.992,50.8l-.884-3.232,1.292-.354.884,3.232Zm-1.768-6.463L325.34,41.1l1.292-.354.884,3.232Zm-1.768-6.463-.884-3.231,1.292-.354.884,3.231Zm-1.769-6.463-.884-3.231,1.292-.354.884,3.231Zm-1.768-6.463-.884-3.231,1.292-.354.884,3.231Zm-1.768-6.463-.884-3.231,1.292-.354.884,3.231Zm-1.768-6.463L316.5,8.789l1.292-.354.884,3.231Zm-1.768-6.463-.884-3.232,1.293-.353.884,3.231Z" transform="translate(-209.29 -1.311)"/>
      <path id="パス_39589" data-name="パス 39589" d="M346.75,458.79,343.4,458.7l.034-1.34,3.349.086Zm-6.7-.173-3.349-.086.035-1.34,3.349.086Zm-6.7-.173L330,458.359l.034-1.34,3.349.086Zm-6.7-.173-3.349-.086.035-1.34,3.349.086Zm-6.7-.173-3.349-.086.035-1.34,3.35.086Z" transform="translate(-210.538 -303.679)"/>
    </g>
  </g>
</svg>
