<svg xmlns="http://www.w3.org/2000/svg" xmlns:xlink="http://www.w3.org/1999/xlink" width="806" height="127.425" viewBox="0 0 806 127.425">
  <defs>
    <clipPath id="clip-path">
      <rect id="長方形_9164" data-name="長方形 9164" width="806" height="115.074" fill="none"/>
    </clipPath>
    <clipPath id="clip-path-2">
      <rect id="長方形_9165" data-name="長方形 9165" width="736.348" height="105.13" fill="none"/>
    </clipPath>
  </defs>
  <g id="グループ_14895" data-name="グループ 14895" transform="translate(-280 -479.911)">
    <g id="グループ_14202" data-name="グループ 14202" transform="translate(280 492.262)">
      <g id="グループ_14201" data-name="グループ 14201" clip-path="url(#clip-path)">
        <path id="パス_39333" data-name="パス 39333" d="M0,87.641V82.012H14.67q-.3-1.137-.717-2.395t-.839-2.395H4.131V71.474H23.353V66.563h7.6v4.911H50.539v5.749h-9.1q-.3,1.137-.718,2.395t-.778,2.395H54.43v5.629Zm29.76,34.071q-3.652,0-5.149-1.138a4.367,4.367,0,0,1-1.5-3.712v-4.73H6.946V90.276H46.825v21.856H30.419v1.8a1.628,1.628,0,0,0,.448,1.288,2.83,2.83,0,0,0,1.767.389H45.268a5.7,5.7,0,0,0,2.426-.419,2.791,2.791,0,0,0,1.316-1.736A18.154,18.154,0,0,0,49.7,109.5a19.239,19.239,0,0,0,1.976.9q1.2.479,2.486.9t2.245.66a29.573,29.573,0,0,1-1.167,5.388,7,7,0,0,1-1.707,2.9,4.962,4.962,0,0,1-2.545,1.2,22.006,22.006,0,0,1-3.742.27ZM14.311,98.838h8.8V95.6h-8.8Zm0,7.963h8.8v-3.293h-8.8Zm8.623-24.79h8.742q.36-1.137.779-2.425t.718-2.365h-11.8q.418,1.077.808,2.335t.749,2.455m7.485,16.826h9.1V95.6h-9.1Zm0,7.963h9.1v-3.293h-9.1Z" transform="translate(0 -7.476)"/>
        <path id="パス_39334" data-name="パス 39334" d="M72.757,87.087V72.656H95.271V66.968h7.785v5.688h22.873V87.028h-7.006V78.645H79.882v8.443Zm5.988,34.25V103.2h14.67q.36-1.019.748-2.276t.688-2.335H83.475V82.417h31.616V98.584H103q-.3,1.079-.688,2.335T101.5,103.2h18.382v18.143Zm7.244-6.047h26.647v-6.048H85.99Zm4.372-22.156h17.9V87.866h-17.9Z" transform="translate(-8.172 -7.521)"/>
        <path id="パス_39335" data-name="パス 39335" d="M143.875,120.313v-6.048h23.233v-3.832H150.581V104.5h16.526v-3.592H155.432V85.523h30.837v15.389H174.412V104.5H190.7v5.929H174.412v3.832h23.233v6.048Zm.6-29.1V76.9h11.5q-.66-1.137-1.5-2.425t-1.587-2.425a15.092,15.092,0,0,0-1.287-1.736l6.287-3.293a23.25,23.25,0,0,1,1.916,2.485q1.138,1.647,2.156,3.263a24.04,24.04,0,0,1,1.378,2.4,13.091,13.091,0,0,0-1.5.747q-.9.51-1.855.989h7v-10h7.545v10h7.185q-.959-.479-1.946-.868t-1.706-.629a25.684,25.684,0,0,0,1.647-2.664q.867-1.587,1.677-3.173a20.344,20.344,0,0,0,1.167-2.665l6.766,2.694q-.3.719-.958,2.006T186.928,74.3q-.779,1.409-1.5,2.605h11.677v14.31h-7.125V82.768H151.659v8.443Zm17.963,4.132h16.825V91.092H162.437Z" transform="translate(-16.159 -7.514)"/>
        <path id="パス_39336" data-name="パス 39336" d="M245.6,118.79a11.639,11.639,0,0,0-.9-2.275,19.69,19.69,0,0,0-1.528-2.545,13.032,13.032,0,0,0-1.705-2.006q8.2-1.257,12.484-5.359a13.84,13.84,0,0,0,4.522-9.67,14.787,14.787,0,0,0-1.617-7.9,15.591,15.591,0,0,0-12.095-8.2,84.176,84.176,0,0,1-1.8,11.377,59.551,59.551,0,0,1-3.562,10.9,31.425,31.425,0,0,1-5.479,8.623,9.065,9.065,0,0,1-4.761,3.053,8.535,8.535,0,0,1-4.88-.658,11.659,11.659,0,0,1-4.43-3.413,16.509,16.509,0,0,1-2.935-5.539,19.337,19.337,0,0,1-.838-6.856,24.78,24.78,0,0,1,8.682-17.785,26.218,26.218,0,0,1,8.8-4.969,28.184,28.184,0,0,1,10.6-1.378,23.81,23.81,0,0,1,8.562,2.036,22.352,22.352,0,0,1,11.707,12.215,20.751,20.751,0,0,1,1.347,9.042,20.649,20.649,0,0,1-5.749,13.742q-5.33,5.539-14.43,7.575m-19.461-12.1a2.3,2.3,0,0,0,1.377.479,2.068,2.068,0,0,0,1.437-.719,21.154,21.154,0,0,0,3.982-6.107,49.684,49.684,0,0,0,3.054-8.922,59.416,59.416,0,0,0,1.587-10.12,18.6,18.6,0,0,0-12.4,9.551,19,19,0,0,0-2.095,7.814,11.266,11.266,0,0,0,.747,4.88,7.386,7.386,0,0,0,2.306,3.143" transform="translate(-24.266 -8.326)"/>
        <path id="パス_39337" data-name="パス 39337" d="M317.274,121.248a89.022,89.022,0,0,1-10.688-.539,27.925,27.925,0,0,1-7.216-1.736,14.652,14.652,0,0,1-4.791-3.114q-1.137.779-2.665,1.736t-3.112,1.917q-1.589.956-2.905,1.676l-2.754-6.766q1.8-.658,3.981-1.616t3.8-1.8V96.159H284.34V89.931h13.173V110.41q.9,2.455,4.671,3.712-.421-.658-.9-1.348a13.481,13.481,0,0,0-.958-1.228,38.519,38.519,0,0,0,4.85-1.348q2.514-.867,4.73-1.885h-7.066V88.075h29.7v20.239h-6.706a43.175,43.175,0,0,0,4.82,1.975,39.477,39.477,0,0,0,4.94,1.378q-.6.719-1.258,1.677A19.411,19.411,0,0,0,333.2,115.2q1.856-.12,3.384-.27t2.783-.329a12.974,12.974,0,0,0-.628,1.886q-.329,1.228-.568,2.486t-.359,2.155q-1.676,0-4.371.03l-5.718.059q-3.024.029-5.778.03Zm-21.916-39.7a30.558,30.558,0,0,0-2.9-2.994q-1.767-1.616-3.683-3.113a27.8,27.8,0,0,0-3.532-2.4l4.131-4.79a35.931,35.931,0,0,1,3.5,2.305q2.005,1.469,3.892,3.054A38.252,38.252,0,0,1,299.79,76.4q-.541.481-1.438,1.467t-1.736,2.005a18.007,18.007,0,0,0-1.258,1.677m2.694,4.79v-4.55H314.46V80.051h-12.4V69.812h12.4V66.7h6.467v3.114h12.395V80.051H320.926v1.736h17.005v4.55Zm19.222,29.281q3.532,0,6.646-.09t5.688-.15q-2.574-.956-5.118-2.185a50.509,50.509,0,0,1-4.762-2.6l1.917-2.275h-7.426l1.857,2.215a49.964,49.964,0,0,1-4.461,2.486q-2.368,1.168-4.762,2.066a84.763,84.763,0,0,0,10.42.539m-8.682-39.46h5.868V73.7h-5.868Zm.778,17.485h16.647V91.788H309.369Zm0,5.329h16.647V97.057H309.369Zm0,5.33h16.647v-1.976H309.369Zm11.558-28.143h5.928V73.7h-5.928Z" transform="translate(-31.801 -7.491)"/>
        <path id="パス_39338" data-name="パス 39338" d="M358.14,96.208h22.993v24.011H358.14Zm6.945,17.844h9.1V102.615h-9.1ZM368.318,69.8h30.359V91.716H368.318Zm7.246,15.868h15.809v-9.76H375.564Zm10.358,10.539h23.053v24.011H385.923Zm6.946,17.844h9.222V102.615h-9.222Z" transform="translate(-40.224 -7.84)"/>
        <path id="パス_39339" data-name="パス 39339" d="M476.953,122.846a61.81,61.81,0,0,1-5.928-1.946,65.386,65.386,0,0,1-6.258-2.755,50.409,50.409,0,0,1-5.18-2.964l2.456-2.815h-15.51l2.455,2.815a42.483,42.483,0,0,1-5.119,2.934q-3.024,1.5-6.288,2.724a61.44,61.44,0,0,1-6.018,1.947,19.208,19.208,0,0,0-1.677-2.965,15.414,15.414,0,0,0-2.156-2.664q1.977-.419,4.4-1.138t4.941-1.677q2.515-.956,4.61-1.976h-6.226V86.559h37.9v25.808h-6.527q2.1,1.019,4.612,1.976t5,1.677q2.485.719,4.4,1.138a16.317,16.317,0,0,0-2.185,2.664,16.774,16.774,0,0,0-1.707,3.024M429.529,69.194h49.581v14.67H429.529Zm6.946,9.581H443.9V74.343h-7.425Zm6.168,15.09h23.533V91.409H442.642Zm0,6.826h23.533V98.056H442.642Zm0,6.886h23.533v-2.7H442.642Zm8.264-28.8h7.006V74.343h-7.006Zm14.011,0h7.365V74.343h-7.365Z" transform="translate(-48.04 -7.771)"/>
        <path id="パス_39340" data-name="パス 39340" d="M516.2,122.337V110.421q-1.738.659-4.043,1.437t-4.79,1.557q-2.486.779-4.7,1.437T498.9,115.93l-2.036-6.587q.778-.119,2.1-.449l2.993-.748V75.751h-4.192V69.464H527.04v4.192h22.874q-.779,17.366-7.9,29.7a40.02,40.02,0,0,0,5.479,5.987,42,42,0,0,0,6.556,4.79,24.365,24.365,0,0,0-2.7,2.785,23.148,23.148,0,0,0-2.215,3.023,59,59,0,0,1-5.988-4.91,50.174,50.174,0,0,1-5.209-5.688A53.787,53.787,0,0,1,526.74,120a23.45,23.45,0,0,0-1.407-1.886,28.485,28.485,0,0,0-2.006-2.246v6.468Zm-7.126-40.718H516.2V75.751h-7.125Zm0,11.8H516.2V87.547h-7.125Zm0,12.934q2.1-.538,3.952-1.047t3.174-.929v-5.03h-7.126Zm14.252,7.725a44.035,44.035,0,0,0,5.928-4.85,41.619,41.619,0,0,0,4.79-5.568,56.83,56.83,0,0,1-4.521-9.79,57.823,57.823,0,0,1-2.665-10.928l6.407-1.137A44.714,44.714,0,0,0,538,97.008a47.721,47.721,0,0,0,4.431-16.886H526.082V75.751h-2.754Z" transform="translate(-55.805 -7.802)"/>
        <path id="パス_39341" data-name="パス 39341" d="M590.475,77.222h3.832V93.391h15.569v3.593H594.308v16.287h-3.832V96.984H574.906V93.391h15.569Z" transform="translate(-64.57 -8.673)"/>
        <path id="パス_39342" data-name="パス 39342" d="M662.8,121.248a89.035,89.035,0,0,1-10.688-.539,27.926,27.926,0,0,1-7.216-1.736,14.639,14.639,0,0,1-4.79-3.114q-1.138.779-2.665,1.736t-3.113,1.917q-1.587.956-2.9,1.676l-2.754-6.766q1.8-.658,3.981-1.616t3.8-1.8V96.159h-6.587V89.931h13.172V110.41q.9,2.455,4.671,3.712-.419-.658-.9-1.348a13.326,13.326,0,0,0-.958-1.228,38.475,38.475,0,0,0,4.85-1.348q2.515-.867,4.731-1.885h-7.066V88.075h29.7v20.239h-6.706a43.164,43.164,0,0,0,4.819,1.975,39.49,39.49,0,0,0,4.941,1.378q-.6.719-1.258,1.677a19.237,19.237,0,0,0-1.137,1.856q1.855-.12,3.383-.27t2.784-.329a12.848,12.848,0,0,0-.628,1.886q-.329,1.228-.569,2.486t-.359,2.155q-1.678,0-4.372.03l-5.718.059q-3.025.029-5.779.03Zm-21.915-39.7a30.664,30.664,0,0,0-2.9-2.994q-1.767-1.616-3.682-3.113a27.86,27.86,0,0,0-3.533-2.4l4.132-4.79a36.034,36.034,0,0,1,3.5,2.305q2.005,1.469,3.892,3.054a38.231,38.231,0,0,1,3.024,2.785q-.539.481-1.437,1.467t-1.736,2.005a17.867,17.867,0,0,0-1.258,1.677m2.694,4.79v-4.55h16.407V80.051h-12.4V69.812h12.4V66.7h6.467v3.114h12.395V80.051H666.45v1.736h17.006v4.55ZM662.8,115.619q3.534,0,6.647-.09t5.688-.15q-2.575-.956-5.119-2.185a50.394,50.394,0,0,1-4.761-2.6l1.917-2.275h-7.425l1.857,2.215a49.959,49.959,0,0,1-4.461,2.486,51.893,51.893,0,0,1-4.761,2.066,84.736,84.736,0,0,0,10.419.539m-8.682-39.46h5.868V73.7h-5.868Zm.778,17.485h16.647V91.788H654.894Zm0,5.329h16.647V97.057H654.894Zm0,5.33h16.647v-1.976H654.894ZM666.45,76.159h5.928V73.7H666.45Z" transform="translate(-70.608 -7.491)"/>
        <path id="パス_39343" data-name="パス 39343" d="M703.664,96.208h22.993v24.011H703.664Zm6.945,17.844h9.1V102.615h-9.1ZM713.843,69.8H744.2V91.716H713.843Zm7.245,15.868H736.9v-9.76H721.088Zm10.359,10.539H754.5v24.011H731.448Zm6.945,17.844h9.222V102.615h-9.222Z" transform="translate(-79.032 -7.84)"/>
        <path id="パス_39344" data-name="パス 39344" d="M774.015,121.174v-5.45h10.539V107.4h6.826v8.323h6.287V105.365h-19.1v-5.329h6.707V93.689a46.221,46.221,0,0,1-4.281,3.981,37.106,37.106,0,0,1-4.7,3.323,19.027,19.027,0,0,0-1.857-2.216,12.755,12.755,0,0,0-2.215-1.916,21.36,21.36,0,0,0,3.263-2.006q1.766-1.286,3.473-2.785t2.965-2.814h-6.228v-11.5h9.581V75.605H773.955v-4.97h11.317V67.223H791.2v3.412h10.9v4.97H791.2v2.156h9.581v4.611a37.749,37.749,0,0,0,2.994-4.73q1.5-2.754,2.694-5.6a26.471,26.471,0,0,0,1.617-4.94l5.987,1.437a18.552,18.552,0,0,1-.688,2.485q-.449,1.289-.988,2.6h15.508v5.45h-4.79a31.389,31.389,0,0,1-1.677,5.509,22.77,22.77,0,0,1-2.754,4.91,34.654,34.654,0,0,0,5,2.934,50.148,50.148,0,0,0,5.718,2.335,21.306,21.306,0,0,0-1.947,2.485,21.771,21.771,0,0,0-1.705,2.9,44.652,44.652,0,0,1-5.929-2.785,42.184,42.184,0,0,1-5.269-3.5,30.736,30.736,0,0,1-5,3.383,40.326,40.326,0,0,1-6.256,2.725,12.04,12.04,0,0,0-1.078-2.306,17.6,17.6,0,0,0-1.617-2.365q-.719.839-1.467,1.856t-1.167,1.677q-1.558-1.017-3.383-2.366T791.2,93.749v6.287h31.915v5.329H804.493v2.575h14.551v4.85H804.493v2.934h23.294v5.45Zm6.945-35.868h4.311V81.893H780.96Zm10.24,0h4.251V81.893H791.2Zm10.24,8.982a28.945,28.945,0,0,0,4.91-2.005,23.055,23.055,0,0,0,3.893-2.545q-1.02-1.258-1.947-2.575a23.608,23.608,0,0,1-1.647-2.694q-.479.659-.958,1.287t-.958,1.228a16.1,16.1,0,0,0-1.886-1.467q-1.109-.747-2.066-1.348v5.09h-6.887q1.618,1.318,3.773,2.755a40.764,40.764,0,0,0,3.773,2.275m12.753-8.862a15.841,15.841,0,0,0,1.647-3.084,20.52,20.52,0,0,0,.989-3.263h-6.407a21.058,21.058,0,0,0,3.772,6.347" transform="translate(-86.731 -7.537)"/>
        <path id="パス_39345" data-name="パス 39345" d="M847.034,115.459l-1.856-6.527q1.557-.3,3.682-.779t4.462-1.077V94.322h-6.348V88.214h6.348v-10.9h-6.707V71.149h20.3v6.168h-6.767v10.9h5.929v6.107h-5.929V105.34q2.276-.6,4.161-1.138t3.2-.958v6.107q-1.677.6-4.312,1.438t-5.6,1.736q-2.965.9-5.779,1.676t-4.79,1.258m16.826,4.91v-5.928h16.466v-5.808H869.907V102.7h10.419V97.256H868.71V70.071h29.88V97.256H886.973V102.7H898.05v5.928H886.973v5.808h13.953v5.928Zm11.317-39.34h5.149V75.639h-5.149Zm0,10.719h5.149V86.179h-5.149Zm11.8-10.719h5.15V75.639h-5.15Zm0,10.719h5.15V86.179h-5.15Z" transform="translate(-94.926 -7.87)"/>
      </g>
    </g>
    <line id="線_495" data-name="線 495" x2="394.361" transform="translate(474.35 508.651)" fill="none" stroke="#adce42" stroke-width="11"/>
    <path id="パス_39346" data-name="パス 39346" d="M155.687,0l13.19,31.331h6.394L165.683,0Z" transform="translate(285.396 479.911)"/>
    <path id="パス_39347" data-name="パス 39347" d="M712.661,0l-9.587,31.331h6.394L722.657,0Z" transform="translate(181.928 479.911)"/>
    <g id="グループ_14204" data-name="グループ 14204" transform="translate(314.826 479.911)">
      <g id="グループ_14203" data-name="グループ 14203" clip-path="url(#clip-path-2)">
        <path id="パス_39348" data-name="パス 39348" d="M223.679,30.268a32.481,32.481,0,0,1-3.131-1.027,34.769,34.769,0,0,1-3.3-1.455,26.447,26.447,0,0,1-2.736-1.566l1.3-1.487h-8.192l1.3,1.487a22.314,22.314,0,0,1-2.7,1.55q-1.6.791-3.32,1.439a32.534,32.534,0,0,1-3.179,1.028,10.15,10.15,0,0,0-.886-1.565,8.106,8.106,0,0,0-1.139-1.408q1.044-.22,2.325-.6t2.609-.886q1.327-.506,2.436-1.044h-3.29V11.1h20.021V24.734h-3.448q1.108.538,2.436,1.044t2.641.886q1.313.378,2.325.6a8.529,8.529,0,0,0-1.154,1.408,8.963,8.963,0,0,0-.9,1.6M198.63,1.93h26.189V9.679H198.63ZM202.3,6.99h3.922V4.649H202.3Zm3.258,7.969h12.431v-1.3H205.556Zm0,3.606h12.431V17.175H205.556Zm0,3.637h12.431V20.78H205.556ZM209.921,6.99h3.7V4.649h-3.7Zm7.4,0h3.891V4.649h-3.891Z" transform="translate(-37.367 -0.365)"/>
        <path id="パス_39349" data-name="パス 39349" d="M249.705,30.014V23.72q-.917.348-2.134.759t-2.532.822q-1.311.411-2.482.759t-1.993.569L239.49,23.15q.411-.063,1.107-.238l1.581-.395V5.407h-2.214V2.086H255.43V4.3h12.081a34,34,0,0,1-4.174,15.687,21.126,21.126,0,0,0,2.894,3.163,22.3,22.3,0,0,0,3.463,2.53,12.752,12.752,0,0,0-1.422,1.471,12.169,12.169,0,0,0-1.171,1.6,31.425,31.425,0,0,1-3.164-2.593,26.636,26.636,0,0,1-2.751-3,28.368,28.368,0,0,1-5.914,5.63q-.223-.349-.743-1a15.116,15.116,0,0,0-1.06-1.186v3.416ZM245.941,8.506h3.765v-3.1h-3.765Zm0,6.231h3.765v-3.1h-3.765Zm0,6.832q1.107-.285,2.087-.554t1.676-.49V17.868h-3.764Zm7.528,4.08a23.3,23.3,0,0,0,3.13-2.562,21.939,21.939,0,0,0,2.531-2.941,29.966,29.966,0,0,1-2.387-5.171A30.466,30.466,0,0,1,255.336,9.2l3.384-.6a23.583,23.583,0,0,0,2.5,8.034,25.262,25.262,0,0,0,2.34-8.919h-8.634V5.407H253.47Z" transform="translate(-45.27 -0.394)"/>
        <path id="パス_39350" data-name="パス 39350" d="M304.973,29a14.072,14.072,0,0,1-5.82-1.93,11.1,11.1,0,0,1-4.254-14.3,12.077,12.077,0,0,1,3.274-4.207q-2.53.411-5.045.886t-4.554.886q-2.041.411-3.147.7l-.853-4.08q1.042-.063,2.894-.285t4.175-.553q2.325-.333,4.807-.728t4.807-.806q2.324-.411,4.175-.806t2.894-.712l1.012,3.859q-.506.032-1.218.127t-1.6.221A9.443,9.443,0,0,0,303.2,8.343a10.755,10.755,0,0,0-2.83,2.214,10.565,10.565,0,0,0-1.976,3.1,9.643,9.643,0,0,0-.728,3.764,6.471,6.471,0,0,0,1.233,4.048,8.088,8.088,0,0,0,3.369,2.515,17.659,17.659,0,0,0,4.791,1.217,6.614,6.614,0,0,0-.917,1.186,11.613,11.613,0,0,0-.758,1.422A5.887,5.887,0,0,0,304.973,29m2.657-12.114a14.146,14.146,0,0,0-1.581-2.119,18.158,18.158,0,0,0-1.8-1.8l1.74-1.392a10.549,10.549,0,0,1,1.139,1.107q.664.727,1.313,1.487t1,1.265Zm2.847-2.4a14.483,14.483,0,0,0-1.6-2.087,16.289,16.289,0,0,0-1.818-1.771L308.769,9.2a11.507,11.507,0,0,1,1.154,1.107q.68.727,1.345,1.47a11.1,11.1,0,0,1,1.012,1.281Z" transform="translate(-53.792 -0.579)"/>
        <path id="パス_39351" data-name="パス 39351" d="M326,29.281V26.4h5.566v-4.4h3.606v4.4h3.32V20.931H328.409V18.117h3.542V14.763a24.216,24.216,0,0,1-2.262,2.1,19.61,19.61,0,0,1-2.483,1.756,9.825,9.825,0,0,0-.98-1.171,6.724,6.724,0,0,0-1.169-1.012,11.181,11.181,0,0,0,1.723-1.059q.933-.68,1.834-1.471t1.565-1.487H326.89V6.351h5.061V5.211h-5.978V2.586h5.978V.784h3.131v1.8h5.756V5.211h-5.756V6.351h5.06V8.787a20.144,20.144,0,0,0,1.581-2.5q.79-1.456,1.423-2.958A14.029,14.029,0,0,0,344,.721l3.163.759a9.991,9.991,0,0,1-.363,1.313q-.238.68-.523,1.375h8.192V7.047h-2.53a16.759,16.759,0,0,1-.886,2.91A12.053,12.053,0,0,1,349.6,12.55a18.377,18.377,0,0,0,2.641,1.55,26.3,26.3,0,0,0,3.02,1.233,11.339,11.339,0,0,0-1.028,1.313,11.53,11.53,0,0,0-.9,1.534,23.652,23.652,0,0,1-3.131-1.471,22.254,22.254,0,0,1-2.783-1.85,16.234,16.234,0,0,1-2.64,1.787,21.349,21.349,0,0,1-3.306,1.439,6.336,6.336,0,0,0-.568-1.217,9.344,9.344,0,0,0-.854-1.25q-.379.444-.775.98c-.264.359-.47.653-.616.886q-.822-.536-1.787-1.25T335.082,14.8v3.322H351.94v2.814H342.1v1.36h7.686v2.562H342.1V26.4h12.3v2.878Zm3.668-18.946h2.278v-1.8h-2.278Zm5.409,0h2.246v-1.8h-2.246Zm5.408,4.745a15.314,15.314,0,0,0,2.594-1.059,12.21,12.21,0,0,0,2.056-1.344q-.539-.664-1.028-1.362a12.214,12.214,0,0,1-.869-1.422c-.169.233-.338.458-.506.68s-.337.439-.506.65a8.411,8.411,0,0,0-1-.775q-.585-.4-1.091-.711v2.688H336.5q.855.7,1.993,1.455a21.944,21.944,0,0,0,1.993,1.2m6.737-4.681a8.308,8.308,0,0,0,.87-1.629,10.776,10.776,0,0,0,.522-1.723h-3.384a11.135,11.135,0,0,0,1.992,3.353" transform="translate(-61.444 -0.136)"/>
        <path id="パス_39352" data-name="パス 39352" d="M369.013,26.41l-.98-3.447q.822-.157,1.945-.411t2.356-.569V15.246h-3.353V12.02h3.353V6.263h-3.542V3.006h10.721V6.263H375.94V12.02h3.131v3.226H375.94v5.819q1.2-.315,2.2-.6t1.693-.506v3.226q-.884.315-2.277.758t-2.957.918q-1.566.474-3.053.886t-2.53.663M377.9,29v-3.13h8.7V22.805h-5.5V19.674h5.5V16.8h-6.137V2.437h15.782V16.8h-6.136v2.878h5.851v3.131h-5.851v3.068h7.37V29Zm5.978-20.78h2.72V5.378h-2.72Zm0,5.662h2.72V10.945h-2.72Zm6.231-5.662h2.72V5.378h-2.72Zm0,5.662h2.72V10.945h-2.72Z" transform="translate(-69.568 -0.461)"/>
        <path id="パス_39353" data-name="パス 39353" d="M414.818,30.009q-.157-.412-.457-1.012t-.633-1.2a6.459,6.459,0,0,0-.617-.949q1.423-.221,3.417-.728a33.633,33.633,0,0,0,3.731-1.169h-3.036V15.934a21.333,21.333,0,0,1-2.167.806q-1.154.365-2.419.68a16.155,16.155,0,0,0-.6-1.5,7.1,7.1,0,0,0-.791-1.375,23.662,23.662,0,0,0,4.348-1.123,8.356,8.356,0,0,0,2.9-1.755h-5.536a18.08,18.08,0,0,0,.444-1.787q.22-1.09.395-2.166t.237-1.74h6.736a4.192,4.192,0,0,0,.032-.538,5.184,5.184,0,0,1,.032-.57h-7.907V2.428h7.907V.721h3.732V2.428h3.13V.721h3.733V2.428h6.895V8.154h-6.895V9.323H440.5a24.329,24.329,0,0,1-.363,3.59,5.1,5.1,0,0,1-.791,2.04,2.679,2.679,0,0,1-1.376.964,9.414,9.414,0,0,1-2.087.363,17.239,17.239,0,0,0-.38-1.691,15.468,15.468,0,0,0-.474-1.5v11.86h-3.194a36.127,36.127,0,0,0,3.748,1.169q1.977.507,3.4.728a6.408,6.408,0,0,0-.616.949q-.332.6-.633,1.2t-.457,1.012a31.67,31.67,0,0,1-3.211-.807q-1.725-.522-3.385-1.2t-3.052-1.409l1.075-1.644h-5.313l1.075,1.644A31.843,31.843,0,0,1,421.43,28q-1.678.679-3.385,1.2a30.034,30.034,0,0,1-3.227.807M416.78,9.323H420.1l.19-.568a5.005,5.005,0,0,0,.159-.6h-3.385A2.366,2.366,0,0,1,417,8.5c-.043.19-.084.369-.126.538a.958.958,0,0,1-.095.284m4.048,7.18h10.6V15.428h-10.6Zm0,3.068h10.6V18.433h-10.6Zm0,3.036h10.6V21.5h-10.6Zm.727-9.52h6.135V11.664h-5a8.43,8.43,0,0,1-1.139,1.423m2.277-3.765h3.858V8.154h-3.51a5.017,5.017,0,0,1-.158.6l-.19.568m.664-3.352h3.194V4.863h-3.13a5.169,5.169,0,0,0-.032.57,4.357,4.357,0,0,1-.032.538m6.927,0h3.258V4.864h-3.258Zm0,7.116h3.7a4.907,4.907,0,0,0,.933-.063.619.619,0,0,0,.443-.348,3.569,3.569,0,0,0,.237-1.012h-5.313Z" transform="translate(-77.736 -0.136)"/>
        <path id="パス_39354" data-name="パス 39354" d="M457.634,30.006q-.792-.506-1.8-1.028a9.786,9.786,0,0,0-1.8-.743,15.987,15.987,0,0,0,2.641-5.661,31.953,31.953,0,0,0,.869-8V2.047h23.817V26.4q0,3.385-4.081,3.385h-2.4a11.614,11.614,0,0,0-.158-1.265q-.127-.729-.269-1.423a6.091,6.091,0,0,0-.332-1.139h2.213a1.509,1.509,0,0,0,.917-.2,1.109,1.109,0,0,0,.254-.871V19.569H471.2v9.2h-3.765v-9.2h-6.23a25.64,25.64,0,0,1-1.17,5.678,19.326,19.326,0,0,1-2.4,4.76M461.4,16.28h6.041V12.515h-6.009v2.911c0,.274-.01.559-.032.854m.032-7.149h6.009v-3.7h-6.009Zm9.774,0H477.5v-3.7H471.2Zm0,7.149H477.5V12.515H471.2Z" transform="translate(-85.823 -0.387)"/>
        <path id="パス_39355" data-name="パス 39355" d="M514.671,29.129a19.937,19.937,0,0,1-4.68-.506,7.214,7.214,0,0,1-3.29-1.629,3.857,3.857,0,0,1-1.2-2.957,4.563,4.563,0,0,1,.918-2.767,9.239,9.239,0,0,1,2.53-2.278,23.865,23.865,0,0,1,3.669-1.881v-.254a2.147,2.147,0,0,0-.553-1.628,2.222,2.222,0,0,0-1.408-.585,6.534,6.534,0,0,0-2.783.411,7.449,7.449,0,0,0-2.625,1.834q-.38.381-.981.965t-1.2,1.155q-.6.568-1.044.948l-2.751-2.719a21.07,21.07,0,0,0,4.174-3.669,25.406,25.406,0,0,0,3.321-4.713q-1.771.063-3.227.11t-2.182.015l-.126-3.636q1.074.095,2.988.095t4.159-.095a14.164,14.164,0,0,0,.822-3.922l3.765.189a15.162,15.162,0,0,1-.633,3.479q2.341-.189,4.349-.427a19.74,19.74,0,0,0,3.083-.554l.222,3.511q-.887.159-2.31.332t-3.147.332Q512.8,8.444,511,8.57q-.412.887-.933,1.788t-1.092,1.723a6.844,6.844,0,0,1,2.562-.507,5.03,5.03,0,0,1,3.147.98,4.689,4.689,0,0,1,1.6,3.227q1.771-.6,3.622-1.092t3.589-.9l1.075,3.479q-2.214.316-4.3.774t-3.891,1.028v4.206h-3.731V20.495a11.772,11.772,0,0,0-2.529,1.565,2.171,2.171,0,0,0-.949,1.534q0,1.075,1.3,1.5a13.556,13.556,0,0,0,3.954.427,23.222,23.222,0,0,0,2.42-.143q1.343-.142,2.688-.38t2.357-.521c-.043.273-.079.67-.111,1.186s-.048,1.028-.048,1.534.011.886.032,1.138a26.39,26.39,0,0,1-3.479.586,34.167,34.167,0,0,1-3.606.206" transform="translate(-94.375 -0.269)"/>
        <path id="パス_39356" data-name="パス 39356" d="M550.684,28.647a10.811,10.811,0,0,1-4.143-.206,5.644,5.644,0,0,1-2.815-1.628,4.13,4.13,0,0,1-1.012-2.847,6.84,6.84,0,0,1,1.819-4.412,13.092,13.092,0,0,1,5.013-3.526V11.251q-1.739.128-3.367.191t-3.021,0l-.19-3.638a22.664,22.664,0,0,0,2.941.079q1.738-.047,3.636-.237V2.554l3.512.032V7.234q1.58-.252,2.958-.553a15.116,15.116,0,0,0,2.261-.648l.379,3.479a18.91,18.91,0,0,1-2.562.727q-1.456.317-3.036.57v4.143a19.647,19.647,0,0,1,2.309-.38,24.086,24.086,0,0,1,2.5-.126,12.9,12.9,0,0,1,5.172.933,7.545,7.545,0,0,1,3.241,2.5,5.964,5.964,0,0,1,1.107,3.527,6.269,6.269,0,0,1-1.834,4.776,6.819,6.819,0,0,1-4.966,1.708,6.288,6.288,0,0,1-6.483-4.84,16.323,16.323,0,0,0,1.771-.68,10.328,10.328,0,0,0,1.644-.87q.792,2.626,3.036,2.625a2.708,2.708,0,0,0,2.12-.806,2.889,2.889,0,0,0,.727-2.008,3.1,3.1,0,0,0-1.391-2.578,7,7,0,0,0-4.175-1.028,17.54,17.54,0,0,0-4.776.633v7.875a2.39,2.39,0,0,1-.538,1.723,3.033,3.033,0,0,1-1.834.712m-2.277-3.353a1.624,1.624,0,0,0,.869-.127.6.6,0,0,0,.268-.57V19.76a8.977,8.977,0,0,0-2.308,1.929,3.3,3.3,0,0,0-.854,2.087,1.268,1.268,0,0,0,.538,1.107,2.7,2.7,0,0,0,1.486.411M566.784,14a15.358,15.358,0,0,0-2.056-1.661q-1.3-.9-2.657-1.708a16.414,16.414,0,0,0-2.435-1.217l1.992-2.847a20.38,20.38,0,0,1,2.5,1.2q1.36.759,2.657,1.614a18.97,18.97,0,0,1,2.182,1.645c-.211.232-.471.548-.775.949s-.59.791-.854,1.169-.448.665-.553.855" transform="translate(-102.587 -0.483)"/>
        <path id="パス_39357" data-name="パス 39357" d="M587.11,29.643V17.562q-.571.569-1.139,1.075t-1.17.98a4.817,4.817,0,0,0-.7-.87q-.476-.489-1-.949a6.16,6.16,0,0,0-.964-.711,20.426,20.426,0,0,0,2.134-1.787q1.154-1.091,2.293-2.4a32.517,32.517,0,0,0,2.071-2.641,19.714,19.714,0,0,0,1.5-2.467l3.13,1.676q-.538.98-1.186,1.993t-1.376,1.993V29.643Zm-1.74-19.609a10.4,10.4,0,0,0-.744-.933q-.458-.521-.949-1.028a4.816,4.816,0,0,0-.9-.759,20.153,20.153,0,0,0,2.782-1.851,24.715,24.715,0,0,0,2.579-2.324A16.651,16.651,0,0,0,590.051.8l2.814,1.993a26.157,26.157,0,0,1-2.246,2.752,32.394,32.394,0,0,1-2.609,2.514,23,23,0,0,1-2.641,1.977m15.877,19.673a16.983,16.983,0,0,0-.252-1.787,13.8,13.8,0,0,0-.444-1.756h2.214a1.678,1.678,0,0,0,.886-.157q.221-.158.222-.792V21.23h-11.45V18.288h11.45V16.708H592.865V13.8h18.787v2.911h-4.017v1.581h4.49V21.23h-4.49v5.093a3.176,3.176,0,0,1-.964,2.577,4.661,4.661,0,0,1-3.021.807Zm-3.036-2.246a11.579,11.579,0,0,0-1.217-1.423q-.776-.791-1.567-1.518a9.309,9.309,0,0,0-1.358-1.075l2.339-2.183a20.945,20.945,0,0,1,2.135,1.756q1.187,1.091,2.04,2.04a15.094,15.094,0,0,0-1.3,1.17,9.873,9.873,0,0,0-1.075,1.233M594.352,1.748h15.656V12.5H594.352Zm3.827,4.142h8.033V4.341h-8.033Zm0,4.017h8.033V8.357h-8.033Z" transform="translate(-110.04 -0.151)"/>
        <path id="パス_39358" data-name="パス 39358" d="M630.219,28.2q-.22-1.3-.347-3.179t-.174-4.112q-.046-2.23,0-4.6t.19-4.634q.142-2.261.38-4.191a32.054,32.054,0,0,1,.554-3.289l3.7.76a19.58,19.58,0,0,0-.6,2.957q-.253,1.819-.411,3.984t-.206,4.445q-.047,2.276.016,4.428t.221,3.89a20.911,20.911,0,0,0,.411,2.814Zm13.443-1.709q-5.472-.158-6.2-3.574a6.819,6.819,0,0,1-.126-1.9,9.393,9.393,0,0,1,.474-2.309l3.32.823a3.5,3.5,0,0,0-.236,1.075,2.415,2.415,0,0,0,.11.854q.41,1.14,3.353,1.233a27.635,27.635,0,0,0,3.053-.111q1.629-.141,3.194-.427a26.134,26.134,0,0,0,2.736-.633q-.065.443-.143,1.2t-.11,1.534a12.343,12.343,0,0,0,0,1.281,26.932,26.932,0,0,1-3.178.6q-1.693.22-3.322.3t-2.925.047m-4.744-15.434-.221-3.89a26.583,26.583,0,0,0,2.941.191q1.738.03,3.621-.048t3.607-.285a19.572,19.572,0,0,0,2.862-.521l-.158,3.827q-1.265.221-2.941.4t-3.464.268q-1.787.1-3.416.112t-2.83-.048" transform="translate(-119.025 -0.792)"/>
        <path id="パス_39359" data-name="パス 39359" d="M676.91,29.485a2.7,2.7,0,1,1,1.9-.791,2.588,2.588,0,0,1-1.9.791m-1.55-7.812q-.064-.98-.158-2.578T675,15.648q-.112-1.849-.19-3.637t-.126-3.162q-.047-1.376-.047-1.977v-4.9h4.554v4.9q0,.6-.048,1.977t-.126,3.162q-.08,1.788-.19,3.637t-.205,3.447q-.1,1.6-.159,2.578Z" transform="translate(-127.445 -0.372)"/>
      </g>
    </g>
  </g>
</svg>
