<svg xmlns="http://www.w3.org/2000/svg" xmlns:xlink="http://www.w3.org/1999/xlink" width="616.919" height="140.708" viewBox="0 0 616.919 140.708">
  <defs>
    <clipPath id="clip-path">
      <rect id="長方形_9226" data-name="長方形 9226" width="137.492" height="77.247" fill="none"/>
    </clipPath>
    <clipPath id="clip-path-2">
      <rect id="長方形_2367" data-name="長方形 2367" width="16.791" height="22.142" fill="none"/>
    </clipPath>
    <clipPath id="clip-path-3">
      <rect id="長方形_2366" data-name="長方形 2366" width="22.62" height="30.224" fill="none"/>
    </clipPath>
    <clipPath id="clip-path-4">
      <rect id="長方形_9221" data-name="長方形 9221" width="110.021" height="112.15" fill="none"/>
    </clipPath>
    <clipPath id="clip-path-5">
      <path id="パス_39625" data-name="パス 39625" d="M16.987,64.245l38.9-22.377-38.829-22.5a43.764,43.764,0,0,0-.074,44.879" transform="translate(-10.834 -19.366)" fill="none"/>
    </clipPath>
    <clipPath id="clip-path-6">
      <path id="パス_39642" data-name="パス 39642" d="M36.274,51.609l38.9-22.375a43.762,43.762,0,0,0-38.829-22.5Z" transform="translate(-36.274 -6.732)" fill="none"/>
    </clipPath>
    <clipPath id="clip-path-7">
      <path id="パス_39659" data-name="パス 39659" d="M36.232,76.951a43.772,43.772,0,0,0,38.9-22.377l-38.83-22.5Z" transform="translate(-36.232 -32.071)" fill="none"/>
    </clipPath>
    <clipPath id="clip-path-9">
      <rect id="長方形_2367-2" data-name="長方形 2367" width="16.165" height="21.317" fill="none"/>
    </clipPath>
    <clipPath id="clip-path-10">
      <rect id="長方形_2366-2" data-name="長方形 2366" width="26.897" height="35.938" fill="none"/>
    </clipPath>
    <clipPath id="clip-path-12">
      <rect id="長方形_2366-3" data-name="長方形 2366" width="29.316" height="39.171" fill="none"/>
    </clipPath>
    <clipPath id="clip-path-13">
      <rect id="長方形_9477" data-name="長方形 9477" width="102.594" height="128.743" fill="none"/>
    </clipPath>
  </defs>
  <g id="グループ_15294" data-name="グループ 15294" transform="translate(9162.789 857.743)">
    <g id="グループ_14765" data-name="グループ 14765" transform="translate(-9543 -1497)">
      <g id="グループ_14340" data-name="グループ 14340" transform="translate(413.293 694)">
        <ellipse id="楕円形_293" data-name="楕円形 293" cx="64.801" cy="10.151" rx="64.801" ry="10.151" transform="matrix(0.995, 0.105, -0.105, 0.995, 8.601, 52.227)" fill="#555" opacity="0.297" style="mix-blend-mode: multiply;isolation: isolate"/>
        <g id="グループ_14339" data-name="グループ 14339" transform="translate(0 0)" clip-path="url(#clip-path)">
          <path id="パス_39673" data-name="パス 39673" d="M80.948,26.263a.754.754,0,0,0-.1.023l0-.027-12.959-.491-.453,12,12.957.491,0-.027c.034.005.064.029.1.03,1.268.048,2.4-2.6,2.523-5.913s-.8-6.038-2.068-6.086" transform="translate(53.316 20.374)" fill="#7f4f21"/>
          <path id="パス_39674" data-name="パス 39674" d="M82.261,39.531a2.192,2.192,0,0,1-1.3.389l-.045,0h-.054L67.9,39.423a1.154,1.154,0,0,1-.8-.369,1.142,1.142,0,0,1-.306-.824l.455-12a1.153,1.153,0,0,1,1.193-1.107l12.959.491.054,0,.038,0H81.5c.652.027,1.855.4,2.6,2.6a13.535,13.535,0,0,1,.571,4.681,13.477,13.477,0,0,1-.924,4.625,4.379,4.379,0,0,1-1.488,2.005m-1.54-1.921a1.119,1.119,0,0,1,.346-.009c.315-.24,1.2-1.893,1.307-4.786.109-2.842-.616-4.545-.985-4.87a1.234,1.234,0,0,1-.324-.038L69.5,27.468l-.371,9.7Z" transform="translate(52.807 19.866)"/>
          <path id="パス_39675" data-name="パス 39675" d="M112.063,50.35c2.734-.945,6.849-6.439,7.107-13.261s-3.427-12.613-6.083-13.763a2.058,2.058,0,0,0-.287-.118,2.3,2.3,0,0,0-.31-.057c-.045-.005-.088-.023-.134-.025l-.029,0c-.045,0-.09-.02-.136-.021s-.091.011-.138.011L12,19.324c4.888.184,3.852,27.556-1.037,27.369l100.052,3.791c.047,0,.091.02.136.021s.093-.011.138-.011h.029c.047,0,.09-.013.136-.014a2.271,2.271,0,0,0,.312-.034,1.964,1.964,0,0,0,.3-.1" transform="translate(8.669 15.278)" fill="#8d725c"/>
          <path id="パス_39676" data-name="パス 39676" d="M114.084,51.095a5.611,5.611,0,0,1-1.23.636,2.636,2.636,0,0,1-.432.14,2.671,2.671,0,0,1-.367.047,2,2,0,0,1-.338.023,1.556,1.556,0,0,1-.4-.021L11.374,48.137h0a1,1,0,1,1,.077-2c.215.007.532-.278.834-.761,2.666-4.238,3.239-19.355.9-23.783-.267-.507-.555-.813-.774-.822h0a1,1,0,0,1,.077-2l100.052,3.789a1.35,1.35,0,0,1,.372.02,1.936,1.936,0,0,1,.2.032,3.066,3.066,0,0,1,.419.084,3.151,3.151,0,0,1,.44.179c2.869,1.241,6.928,7.207,6.643,14.7-.247,6.5-3.669,11.614-6.53,13.526M14.1,46.235l97.4,3.69c.056,0,.177.021.229.03l.276-.047c.013-.005.163-.059.175-.066,2.113-.72,6.178-5.614,6.434-12.352s-3.433-11.917-5.481-12.8l-.267-.095c-.027,0-.2-.034-.227-.041L15.063,20.867c2.505,5.2,1.928,20.375-.962,25.368" transform="translate(8.228 14.836)" fill="#040000"/>
          <path id="パス_39677" data-name="パス 39677" d="M18.415,33.2c-.286,7.567-2.817,13.616-5.651,13.508s-4.9-6.33-4.614-13.9S10.966,19.2,13.8,19.306s4.9,6.33,4.614,13.9" transform="translate(6.422 15.263)" fill="#a48b65"/>
          <path id="パス_39678" data-name="パス 39678" d="M15.249,47.763a3.356,3.356,0,0,1-2.02.605c-4.124-.158-6-7.709-5.721-15.091A29.791,29.791,0,0,1,9.467,23.246c1.268-3.024,3.006-4.652,4.887-4.582s3.492,1.825,4.523,4.939a29.74,29.74,0,0,1,1.2,10.151c-.224,5.918-1.948,12.088-4.824,14.01M13.584,21.2a6.811,6.811,0,0,0-2,2.938,27.461,27.461,0,0,0-1.78,9.231c-.29,7.662,1.886,12.643,3.508,12.7s4.17-4.742,4.459-12.4A27.483,27.483,0,0,0,16.7,24.326c-.67-2.013-1.621-3.332-2.428-3.363a1.168,1.168,0,0,0-.684.233" transform="translate(5.914 14.755)"/>
          <path id="パス_39679" data-name="パス 39679" d="M116.531,31.759,14.458,27.893,14.228,24.3l101.726,3.929Z" transform="translate(11.249 19.216)" fill="#a48b65"/>
          <path id="パス_39680" data-name="パス 39680" d="M117.676,33.222a1.147,1.147,0,0,1-.679.193L14.922,29.551a1.15,1.15,0,0,1-1.1-1.076l-.229-3.59a1.148,1.148,0,0,1,1.193-1.219l101.726,3.927a1.147,1.147,0,0,1,1.092.962l.575,3.526a1.143,1.143,0,0,1-.274.947,1.063,1.063,0,0,1-.224.2M16.046,27.292l99.633,3.773-.2-1.21L15.966,26.011Z" transform="translate(10.741 18.71)"/>
          <path id="パス_39681" data-name="パス 39681" d="M54.3,48.126,35.064,47.4c1.637-.913,5-7.128,5.212-14.148.192-6.482-2.288-11.635-4.188-12.887l19.233.729c1.889.07,5.25,6.439,5.08,12.921-.184,7.019-4.058,14.191-6.1,14.114" transform="translate(27.722 16.1)" fill="#a48b65"/>
          <path id="パス_39682" data-name="パス 39682" d="M56.284,49.294a2.6,2.6,0,0,1-1.524.492l-19.233-.731a1.151,1.151,0,0,1-1.074-.881A1.172,1.172,0,0,1,35.01,46.9c1.026-.5,4.416-6.217,4.625-13.177.192-6.486-2.34-11.014-3.673-11.893a1.151,1.151,0,0,1,.677-2.111l19.231.731c3.06.115,6.357,7.628,6.185,14.1-.154,5.957-2.8,12.035-5.159,14.25a4.73,4.73,0,0,1-.612.492M54.82,47.485c1.277-.313,4.772-6.464,4.94-12.993.161-6.21-2.974-11.474-4.011-11.748L39.191,22.12a22.062,22.062,0,0,1,2.741,11.673,26.614,26.614,0,0,1-3.87,13.057Zm.025,0,0,0Z" transform="translate(27.215 15.591)"/>
          <path id="パス_39683" data-name="パス 39683" d="M16.44,23.819a.756.756,0,0,0-.1.023l0-.027L3.381,23.325l-.453,12,12.957.491,0-.027c.034.005.064.029.1.03,1.268.048,2.4-2.6,2.523-5.913s-.8-6.038-2.068-6.086" transform="translate(2.315 18.442)" fill="#7f4f21"/>
          <path id="パス_39684" data-name="パス 39684" d="M17.75,37.1a2.164,2.164,0,0,1-1.3.378.2.2,0,0,0-.036,0H16.35L3.393,36.981a1.152,1.152,0,0,1-1.107-1.193l.455-12a1.153,1.153,0,0,1,1.193-1.107l12.957.492.043,0a.468.468,0,0,0,.05,0l.009,0c2.365.091,3.3,3.835,3.173,7.279-.106,2.743-.9,5.628-2.416,6.641M16.2,35.167a1.009,1.009,0,0,1,.321-.013l.034.005c.321-.236,1.2-1.85,1.307-4.79.109-2.84-.618-4.546-.985-4.87a1.2,1.2,0,0,1-.321-.034L5,25.025l-.371,9.7Z" transform="translate(1.807 17.934)"/>
          <path id="パス_39685" data-name="パス 39685" d="M6.426,29.46C6.3,32.8,5.169,35.472,3.9,35.425s-2.193-2.8-2.066-6.138,1.257-6.013,2.525-5.965,2.193,2.8,2.066,6.138" transform="translate(1.442 18.439)" fill="#7f4f21"/>
          <path id="パス_39686" data-name="パス 39686" d="M5.664,36.692a2.149,2.149,0,0,1-1.3.387C2,36.991,1.063,33.217,1.193,29.75s1.357-7.15,3.719-7.069,3.3,3.864,3.173,7.331a13.684,13.684,0,0,1-.926,4.657,4.384,4.384,0,0,1-1.5,2.023M4.744,24.96c-.2.174-1.135,1.812-1.252,4.878s.689,4.768,1.044,4.964c.2-.174,1.135-1.814,1.25-4.876S5.1,25.155,4.744,24.96m2.192,5.008.016-.011Z" transform="translate(0.934 17.931)"/>
          <path id="パス_39687" data-name="パス 39687" d="M61.407,25.493a2.382,2.382,0,0,1-1.11.392c-1.644.057-9.522.43-13.788,2.654a13.263,13.263,0,0,0-4.516,3.771c-.267.31-.537.625-.822.942-.261.286-.5.573-.747.861a17.785,17.785,0,0,1-2.768,2.772c-.376.294-.722.55-1.051.77a4.918,4.918,0,0,1-2.98,1.017,4.1,4.1,0,0,1-2.9-1.277c-1.545-1.66-1.941-5.155,2.04-9.531A26.543,26.543,0,0,1,37.551,23.8a21.023,21.023,0,0,1,6.634-3.055c6.48-1.542,16.388.421,16.477.442a2.386,2.386,0,0,1,.745,4.3M33.877,34.117a2.059,2.059,0,0,0,.328-.183c.07-.047.145-.1.222-.163a26.912,26.912,0,0,0,3.565-3.463,21.43,21.43,0,0,1,4.117-3.562A33.751,33.751,0,0,1,45.9,24.591a11.248,11.248,0,0,1,1.295-.528,7.4,7.4,0,0,0-2,.423,29.744,29.744,0,0,0-4.446,2.469,27.826,27.826,0,0,0-5.03,4.22c-1.479,1.628-1.783,2.553-1.835,2.942" transform="translate(23.426 15.939)" fill="#a48b65"/>
          <path id="パス_39688" data-name="パス 39688" d="M38.577,25.11a20.084,20.084,0,0,1,6.3-2.908c6.077-1.445,15.7.369,15.99.44a1.359,1.359,0,0,1-.209,2.672c-.054.005-9.283.217-14.171,2.766a15.793,15.793,0,0,0-1.461.861,20.567,20.567,0,0,0-4.165,4.074,24.061,24.061,0,0,1-3.386,3.513c-.353.276-.679.517-.987.723a3.963,3.963,0,0,1-2.369.847,3.088,3.088,0,0,1-2.181-.949c-1.25-1.343-1.463-4.281,2.047-8.142a25.482,25.482,0,0,1,4.591-3.9M35.23,35.243c.091-.063.186-.131.286-.209a27.848,27.848,0,0,0,3.692-3.581,20.305,20.305,0,0,1,3.923-3.4,32.606,32.606,0,0,1,3.674-2.088c2.079-1.031,6.774-1.85,8.072-2.312-1.982-.387-7.7-.514-9.65.344a30.429,30.429,0,0,0-4.6,2.555A28.955,28.955,0,0,0,35.4,30.936c-2.555,2.811-2.2,4.115-1.916,4.421.167.188.664.605,1.742-.115m2.2-11.843a27.636,27.636,0,0,0-4.971,4.224c-4.448,4.894-3.875,8.944-2.031,10.926a5.129,5.129,0,0,0,3.608,1.6,5.99,5.99,0,0,0,3.59-1.191c.347-.231.714-.5,1.112-.815a18.564,18.564,0,0,0,2.913-2.91c.238-.281.476-.562.731-.843.294-.324.568-.643.838-.96a13.732,13.732,0,0,1,2.944-2.783,13.976,13.976,0,0,1,1.27-.748c3.153-1.644,9.1-2.392,13.238-2.532.054,0,.163-.009.217-.014a3.415,3.415,0,0,0,.475-6.709C61.276,20.626,51.125,18.6,44.4,20.2a22.116,22.116,0,0,0-6.967,3.2" transform="translate(22.972 15.486)"/>
          <path id="パス_39689" data-name="パス 39689" d="M58.022,34.865a2.049,2.049,0,0,1-2.756-.883c-1.1-2.129-5.687-5.443-8.323-7.035a2.049,2.049,0,0,1-.7-2.808,2.073,2.073,0,0,1,.621-.65,2.043,2.043,0,0,1,2.2-.043c.793.478,7.857,4.819,9.838,8.659a2.045,2.045,0,0,1-.682,2.639c-.03.021-.165.1-.2.12" transform="translate(36.332 18.3)" fill="#a48b65"/>
          <path id="パス_39690" data-name="パス 39690" d="M47.891,24.8a1.006,1.006,0,0,1,1.09-.023c.31.186,7.578,4.595,9.463,8.255a1.022,1.022,0,0,1-.34,1.316c-.03.02-.064.039-.1.057a1.019,1.019,0,0,1-1.373-.44c-1.347-2.611-6.738-6.256-8.7-7.442a1.02,1.02,0,0,1-.347-1.4,1.009,1.009,0,0,1,.308-.324m-1.142-1.71a3.075,3.075,0,0,0,.118,5.193c2.648,1.6,7,4.806,7.938,6.623a3.073,3.073,0,0,0,4.142,1.327,2.715,2.715,0,0,0,.3-.177,3.074,3.074,0,0,0,1.026-3.966c-2.07-4.016-8.885-8.264-10.23-9.073a3.068,3.068,0,0,0-3.295.073" transform="translate(35.879 17.846)"/>
          <path id="パス_39691" data-name="パス 39691" d="M80.948,26.543a2.272,2.272,0,0,1-1.338.36l-50.082-1.9a1.91,1.91,0,0,1-1.98-1.848,1.688,1.688,0,0,1,.777-1.334,2.276,2.276,0,0,1,1.339-.36l50.08,1.9a1.907,1.907,0,0,1,1.98,1.848,1.685,1.685,0,0,1-.777,1.334" transform="translate(21.779 16.969)" fill="#a48b65"/>
          <path id="パス_39692" data-name="パス 39692" d="M29.352,23.135a1.226,1.226,0,0,1,.725-.188l50.085,1.9c.562.021,1,.372.988.782a.656.656,0,0,1-.321.516,1.222,1.222,0,0,1-.725.188l-50.085-1.9c-.56-.021-1-.372-.988-.782a.656.656,0,0,1,.321-.516m-1.142-1.71a2.7,2.7,0,0,0-1.234,2.149,2.918,2.918,0,0,0,2.967,2.915l50.085,1.9a3.289,3.289,0,0,0,1.945-.534A2.691,2.691,0,0,0,83.206,25.7a2.917,2.917,0,0,0-2.965-2.917l-50.087-1.9a3.293,3.293,0,0,0-1.945.534" transform="translate(21.326 16.515)"/>
          <path id="パス_39693" data-name="パス 39693" d="M44.659,50.452a4.945,4.945,0,0,1-3.316.183,1.768,1.768,0,0,1-1.117-.947,1.212,1.212,0,0,1,.423-1.529,2.122,2.122,0,0,1,.833-.283,2.273,2.273,0,0,0,.68-.2c.861-.577,4.281-5.973,4.494-13.037.184-6.278-1.452-10.224-2.675-11.021l-.213-.129a2.418,2.418,0,0,1-1.316-1.4,1.339,1.339,0,0,1,.2-1.044,1.859,1.859,0,0,1,.39-.387,3.932,3.932,0,0,1,3.411.1c2.838,1.848,4.407,7.08,4.2,14-.211,7.141-3.135,13.795-5.734,15.532-.086.057-.174.111-.26.159" transform="translate(31.713 16.06)" fill="#a48b65"/>
          <path id="パス_39694" data-name="パス 39694" d="M44.066,21.968a3.1,3.1,0,0,1,2.281.115c2.467,1.6,3.929,6.457,3.73,13.1-.2,6.942-3.06,13.229-5.273,14.708-.063.041-.125.081-.188.115-.632.349-2.7.412-2.994-.27-.056-.133-.03-.213.05-.267a11.5,11.5,0,0,0,1.44-.439.668.668,0,0,0,.075-.048c1.345-.9,4.738-6.758,4.947-13.858C48.321,28.89,46.72,24.335,45,23.212c-.448-.292-1.329-.7-1.037-1.142a.368.368,0,0,1,.107-.1m-1.142-1.71a2.422,2.422,0,0,0-.673.67,2.355,2.355,0,0,0-.347,1.844,3.368,3.368,0,0,0,1.789,2.052l.179.111c.634.412,2.4,3.7,2.21,10.129-.186,6.281-3.042,11.3-4.013,12.185a3.134,3.134,0,0,1-.322.07,3.072,3.072,0,0,0-1.214.44,2.24,2.24,0,0,0-.8,2.79,2.761,2.761,0,0,0,1.732,1.513,5.963,5.963,0,0,0,4.145-.256c.111-.061.222-.129.335-.2,3.209-2.145,5.986-9.483,6.188-16.357.222-7.386-1.479-12.814-4.663-14.887a4.888,4.888,0,0,0-4.548-.1" transform="translate(31.259 15.605)"/>
          <path id="パス_39695" data-name="パス 39695" d="M82.655,37.484a1.1,1.1,0,0,0-.111-.018l.013-.025L69.81,31.774l-5.246,11.8L77.31,49.241l.011-.025c.032.018.054.054.088.07,1.246.553,3.433-1.638,4.881-4.9s1.613-6.35.365-6.9" transform="translate(51.045 25.121)" fill="#7f4f21"/>
          <path id="パス_39696" data-name="パス 39696" d="M78.907,51.094a2.355,2.355,0,0,1-1.456-.132c-.014-.007-.03-.013-.045-.021l-.054-.021L64.609,45.251a1.246,1.246,0,0,1-.652-.688,1.228,1.228,0,0,1,.023-.945l5.246-11.8a1.24,1.24,0,0,1,1.633-.629l12.746,5.665c.018.009.034.018.052.025l.038.016.007,0c.639.286,1.694,1.137,1.561,3.635a14.5,14.5,0,0,1-1.3,4.9,14.561,14.561,0,0,1-2.77,4.251,4.716,4.716,0,0,1-2.288,1.407m-.77-2.534a1.224,1.224,0,0,1,.349.129c.41-.113,1.954-1.411,3.218-4.258,1.243-2.793,1.2-4.785.962-5.257a1.324,1.324,0,0,1-.31-.167l-11.37-5.055-4.244,9.54Z" transform="translate(50.499 24.576)"/>
          <path id="パス_39697" data-name="パス 39697" d="M106.817,73.865c3.109.149,9.411-3.7,12.395-10.405s1.615-13.965-.578-16.173a1.945,1.945,0,0,0-.238-.233,2.67,2.67,0,0,0-.286-.183c-.043-.021-.077-.057-.124-.077l-.027-.013c-.045-.023-.082-.057-.129-.077s-.095-.025-.141-.043l-98.4-43.75c4.808,2.136-7.161,29.056-11.968,26.92l98.4,43.748c.045.023.082.057.127.077s.1.027.143.045l.027.011a1.388,1.388,0,0,0,.141.039,2.508,2.508,0,0,0,.326.091,2.279,2.279,0,0,0,.333.021" transform="translate(5.784 2.303)" fill="#5a863e"/>
          <path id="パス_39698" data-name="パス 39698" d="M108.748,75.272a5.958,5.958,0,0,1-1.484.143,2.946,2.946,0,0,1-.485-.032,3.128,3.128,0,0,1-.385-.1,2.127,2.127,0,0,1-.347-.113,1.819,1.819,0,0,1-.387-.177l-98.3-43.7H7.353a1.078,1.078,0,0,1,.877-1.97c.213.093.643-.066,1.137-.426,4.357-3.168,10.966-18.037,10.4-23.393-.063-.611-.229-1.033-.444-1.128l0,0A1.078,1.078,0,1,1,20.2,2.4l98.4,43.748a1.486,1.486,0,0,1,.365.168c.045.023.149.086.19.115a2.575,2.575,0,0,1,.752.607c2.369,2.383,4.04,9.963.765,17.331-2.845,6.4-8.3,10.133-11.925,10.9M10.841,30.482l95.792,42.591a2.157,2.157,0,0,1,.217.122l.294.063c.014,0,.186.005.2,0,2.4.125,8.412-3.139,11.36-9.766s1.332-13.272-.36-14.973l-.227-.2c-.027-.014-.186-.113-.211-.133L21.934,5.533c.424,6.192-6.212,21.118-11.093,24.949" transform="translate(5.308 1.827)" fill="#040000"/>
          <path id="パス_39699" data-name="パス 39699" d="M18.919,18.6C15.61,26.04,10.667,31.068,7.879,29.829s-2.367-8.278.942-15.722S17.074,1.636,19.862,2.875s2.365,8.278-.944,15.722" transform="translate(4.771 2.125)" fill="#a48b65"/>
          <path id="パス_39700" data-name="パス 39700" d="M10.192,31.707a3.614,3.614,0,0,1-2.262-.2c-4.054-1.8-2.91-10.094.315-17.355A32.07,32.07,0,0,1,14.21,4.913c2.475-2.514,4.862-3.443,6.711-2.623s2.758,3.216,2.544,6.738A31.962,31.962,0,0,1,20.6,19.642c-2.586,5.821-6.774,11.3-10.412,12.065M19.14,4.51a7.309,7.309,0,0,0-3.164,2.136,29.534,29.534,0,0,0-5.469,8.507C7.159,22.69,7.34,28.534,8.937,29.242s6.059-3.069,9.4-10.6A29.437,29.437,0,0,0,21,8.879c.14-2.276-.286-3.975-1.082-4.328a1.248,1.248,0,0,0-.775-.041" transform="translate(4.215 1.581)"/>
          <path id="パス_39701" data-name="パス 39701" d="M114.41,57.266,14.017,12.631l1.205-3.673,100.02,44.556Z" transform="translate(11.082 7.083)" fill="#a48b65"/>
          <path id="パス_39702" data-name="パス 39702" d="M115.212,59.021a1.254,1.254,0,0,1-.757-.079L14.06,14.309a1.237,1.237,0,0,1-.671-1.517l1.205-3.674a1.234,1.234,0,0,1,.671-.745,1.253,1.253,0,0,1,1.006,0L116.293,52.931a1.235,1.235,0,0,1,.7,1.4l-.833,3.751a1.239,1.239,0,0,1-.652.836,1.278,1.278,0,0,1-.3.106M16.087,12.5l97.991,43.566.285-1.289L16.515,11.19Z" transform="translate(10.536 6.538)"/>
          <path id="パス_39703" data-name="パス 39703" d="M49.957,48.572l-18.916-8.41c2-.258,7.843-5.121,10.856-12.047,2.781-6.4,2.362-12.532.965-14.542l18.916,8.409c1.859.827,2.672,8.529-.088,14.934C58.7,43.852,51.97,49.468,49.957,48.572" transform="translate(24.541 10.731)" fill="#a48b65"/>
          <path id="パス_39704" data-name="パス 39704" d="M51.719,50.367A2.77,2.77,0,0,1,50,50.249l-18.914-8.41a1.24,1.24,0,0,1-.722-1.309,1.259,1.259,0,0,1,1.065-1.049c1.223-.091,6.892-4.444,9.881-11.313,2.783-6.4,2.065-11.934,1.083-13.344a1.238,1.238,0,0,1,1.518-1.837L62.828,21.4c3.008,1.338,3.3,10.156.543,16.554-2.534,5.888-7.6,10.9-10.844,12.169a5.141,5.141,0,0,1-.808.247m-.741-2.392c1.4.2,7.349-4.55,10.124-11,2.641-6.136,1.613-12.647.688-13.335L45.5,16.4a23.714,23.714,0,0,1-1.927,12.753A28.615,28.615,0,0,1,34.5,40.648Zm.025.013h0Z" transform="translate(23.996 10.185)"/>
          <path id="パス_39705" data-name="パス 39705" d="M19.21,9.276a1.1,1.1,0,0,0-.111-.018l.013-.027L6.365,3.566l-5.246,11.8,12.746,5.665.011-.025c.032.018.054.054.088.07,1.246.553,3.433-1.638,4.881-4.9s1.613-6.35.365-6.9" transform="translate(0.885 2.82)" fill="#7f4f21"/>
          <path id="パス_39706" data-name="パス 39706" d="M15.455,22.9a2.324,2.324,0,0,1-1.449-.141l-.034-.018-.066-.025L1.164,17.043A1.237,1.237,0,0,1,.535,15.41L5.782,3.61a1.24,1.24,0,0,1,1.633-.629L20.159,8.649l.041.02.05.02.009.005c2.326,1.035,1.766,5.15.261,8.536-1.2,2.7-3.148,5.261-5.066,5.667m-.772-2.546a1.062,1.062,0,0,1,.324.115l.034.02c.414-.107,1.932-1.37,3.218-4.26,1.243-2.8,1.2-4.788.962-5.259a1.323,1.323,0,0,1-.306-.163L7.542,5.744,3.3,15.285Z" transform="translate(0.339 2.274)"/>
          <path id="パス_39707" data-name="パス 39707" d="M6.425,10.58c-1.461,3.286-3.656,5.5-4.9,4.947s-1.073-3.669.389-6.955,3.656-5.5,4.9-4.947,1.073,3.669-.389,6.955" transform="translate(0.544 2.8)" fill="#7f4f21"/>
          <path id="パス_39708" data-name="パス 39708" d="M3.015,17.336a2.323,2.323,0,0,1-1.45-.133c-2.328-1.033-1.757-5.177-.242-8.588s4.212-6.6,6.539-5.574,1.755,5.178.24,8.59a14.74,14.74,0,0,1-2.786,4.281,4.729,4.729,0,0,1-2.3,1.424M6.781,5.252c-.27.093-1.857,1.355-3.2,4.371S2.369,14.659,2.645,15c.272-.093,1.857-1.357,3.194-4.371s1.219-5.037.942-5.374m.19,5.877.021,0Z" transform="translate(0 2.252)"/>
          <path id="パス_39709" data-name="パス 39709" d="M64.01,26.244a2.549,2.549,0,0,1-1.266-.052c-1.663-.6-9.682-3.375-14.828-2.858a15.954,15.954,0,0,0-1.687.258,15.774,15.774,0,0,0-4.33,1.7c-.39.2-.786.41-1.2.612-.374.183-.732.371-1.089.56a19.005,19.005,0,0,1-3.871,1.663c-.494.143-.942.261-1.357.349A5.292,5.292,0,0,1,31,28.308a4.432,4.432,0,0,1-2.383-2.432c-.879-2.276.122-5.923,5.846-8.7a28.569,28.569,0,0,1,6.394-2.145,22.65,22.65,0,0,1,7.846-.4c7.087,1.051,16.2,6.967,16.278,7.025a2.566,2.566,0,0,1-.974,4.593M33.072,23.859a2.357,2.357,0,0,0,.4-.052c.09-.018.186-.043.286-.073A29.141,29.141,0,0,0,38.7,21.7a23.063,23.063,0,0,1,5.535-1.912,36.322,36.322,0,0,1,4.643-.641,11.9,11.9,0,0,1,1.5-.009,7.941,7.941,0,0,0-2.167-.38,31.853,31.853,0,0,0-5.427.691,29.85,29.85,0,0,0-6.709,2.206c-2.127,1.033-2.8,1.837-3.008,2.2" transform="translate(22.405 11.421)" fill="#a48b65"/>
          <path id="パス_39710" data-name="パス 39710" d="M41.579,16.6a21.583,21.583,0,0,1,7.453-.389c6.647.985,15.532,6.641,15.793,6.829a1.461,1.461,0,0,1-1.275,2.584c-.057-.016-9.358-3.492-15.258-2.9a16.564,16.564,0,0,0-1.8.276A22.127,22.127,0,0,0,40.7,25.4a25.817,25.817,0,0,1-4.786,2.158c-.462.134-.885.245-1.275.328a4.251,4.251,0,0,1-2.7-.1,3.308,3.308,0,0,1-1.8-1.817c-.711-1.841.249-4.86,5.3-7.313A27.326,27.326,0,0,1,41.579,16.6m-7.392,8.781c.116-.025.24-.056.371-.093a30.139,30.139,0,0,0,5.119-2.1,21.782,21.782,0,0,1,5.273-1.826,35.388,35.388,0,0,1,4.5-.618c2.489-.2,7.5.858,8.985.915-1.825-1.176-7.483-3.588-9.773-3.511a32.982,32.982,0,0,0-5.619.713,31.346,31.346,0,0,0-6.965,2.292c-3.674,1.787-3.841,3.232-3.68,3.651.091.254.423.868,1.785.58m6.933-10.946a29.662,29.662,0,0,0-6.652,2.235c-6.4,3.109-7.442,7.383-6.392,10.1a5.522,5.522,0,0,0,2.963,3.042,6.45,6.45,0,0,0,4.061.245c.439-.093.915-.218,1.436-.369a20.132,20.132,0,0,0,4.072-1.742c.351-.186.7-.372,1.065-.552.423-.206.824-.415,1.221-.623a14.734,14.734,0,0,1,4.052-1.6,14.955,14.955,0,0,1,1.567-.238c3.805-.383,10.044,1.246,14.23,2.758.056.02.167.057.224.073a3.673,3.673,0,0,0,3.151-6.511c-.081-.059-9.41-6.135-16.764-7.225a23.766,23.766,0,0,0-8.235.412" transform="translate(21.918 10.932)"/>
          <path id="パス_39711" data-name="パス 39711" d="M54.638,36.706a2.2,2.2,0,0,1-2.4-1.982c-.245-2.564-3.5-7.709-5.5-10.35a2.2,2.2,0,1,1,3.52-2.648c.6.793,5.923,7.95,6.366,12.577a2.2,2.2,0,0,1-1.733,2.364c-.041.009-.208.034-.251.039" transform="translate(36.599 16.479)" fill="#a48b65"/>
          <path id="パス_39712" data-name="パス 39712" d="M48.758,22.461a1.079,1.079,0,0,1,1.1.412c.235.31,5.732,7.615,6.154,12.024a1.1,1.1,0,0,1-.867,1.176.864.864,0,0,1-.122.02,1.1,1.1,0,0,1-1.2-.988c-.3-3.146-4.229-8.941-5.717-10.908a1.1,1.1,0,0,1,.211-1.536,1.116,1.116,0,0,1,.439-.2M48.3,20.3a3.308,3.308,0,0,0-1.955,5.234c2.005,2.652,5.071,7.594,5.281,9.786a3.308,3.308,0,1,0,6.586-.629c-.462-4.838-5.571-11.8-6.591-13.148A3.3,3.3,0,0,0,48.3,20.3" transform="translate(36.112 15.991)"/>
          <path id="パス_39713" data-name="パス 39713" d="M80.79,37.568a2.435,2.435,0,0,1-1.479-.175l-49.256-21.9a2.052,2.052,0,0,1-1.241-2.636,1.817,1.817,0,0,1,1.309-1.022,2.437,2.437,0,0,1,1.481.175l49.256,21.9A2.054,2.054,0,0,1,82.1,36.547a1.815,1.815,0,0,1-1.309,1.021" transform="translate(22.664 9.322)" fill="#a48b65"/>
          <path id="パス_39714" data-name="パス 39714" d="M30.843,13.406a1.328,1.328,0,0,1,.8.1L80.9,35.409c.555.245.858.772.679,1.176a.714.714,0,0,1-.53.387,1.331,1.331,0,0,1-.8-.1l-49.258-21.9c-.553-.247-.856-.774-.675-1.176a.714.714,0,0,1,.526-.389m-.458-2.163a2.9,2.9,0,0,0-2.09,1.653,3.136,3.136,0,0,0,1.8,4.1l49.26,21.9a3.546,3.546,0,0,0,2.156.245,2.9,2.9,0,0,0,2.09-1.653,3.138,3.138,0,0,0-1.8-4.1l-49.26-21.9a3.545,3.545,0,0,0-2.156-.244" transform="translate(22.175 8.833)"/>
          <path id="パス_39715" data-name="パス 39715" d="M39.764,46.572a5.31,5.31,0,0,1-3.382-1.142,1.888,1.888,0,0,1-.738-1.391,1.3,1.3,0,0,1,1.033-1.359,2.29,2.29,0,0,1,.942.05,2.47,2.47,0,0,0,.761.073c1.089-.231,6.661-4.254,9.693-11.225,2.695-6.2,2.636-10.79,1.732-12.074l-.158-.213a2.584,2.584,0,0,1-.756-1.925,1.442,1.442,0,0,1,.614-.963,2.1,2.1,0,0,1,.546-.231,4.237,4.237,0,0,1,3.365,1.468c2.1,2.978,1.572,8.829-1.4,15.655-3.066,7.048-8.643,12.525-11.931,13.222-.109.023-.218.041-.324.056" transform="translate(28.18 12.758)" fill="#a48b65"/>
          <path id="パス_39716" data-name="パス 39716" d="M50.769,17.741A3.347,3.347,0,0,1,53,18.767c1.821,2.589,1.343,8.018-1.509,14.576-2.978,6.851-8.342,11.988-11.143,12.581-.081.016-.158.03-.233.039-.77.1-2.86-.666-2.881-1.465,0-.156.054-.226.156-.247a12.194,12.194,0,0,0,1.612.136c.03,0,.064-.009.1-.016,1.7-.36,7.429-4.858,10.475-11.863,2.675-6.154,2.9-11.342,1.624-13.152-.331-.471-1.049-1.23-.578-1.554a.417.417,0,0,1,.147-.061m-.458-2.163a2.648,2.648,0,0,0-.94.4,2.545,2.545,0,0,0-1.083,1.7,3.619,3.619,0,0,0,.967,2.763l.136.183c.466.664.915,4.654-1.843,11C44.853,37.823,40,41.7,38.676,42.192c-.091-.007-.242-.036-.349-.057a3.3,3.3,0,0,0-1.39-.048,2.414,2.414,0,0,0-1.911,2.469,2.971,2.971,0,0,0,1.125,2.2,6.421,6.421,0,0,0,4.242,1.4c.134-.018.274-.041.417-.072,4.061-.859,9.764-7.078,12.713-13.863,3.171-7.288,3.642-13.385,1.289-16.728a5.249,5.249,0,0,0-4.5-1.918" transform="translate(27.692 12.27)"/>
          <path id="パス_39717" data-name="パス 39717" d="M52.756,13.6a3.666,3.666,0,0,0-2.681-.954,3.611,3.611,0,0,0-.89-1.262,3.65,3.65,0,0,0-3.1-.9,3.628,3.628,0,0,0-1.133-2.134,3.677,3.677,0,0,0-5.189.227,3.668,3.668,0,0,0-5.057.337c-.039.043-.066.093-.1.138a3.68,3.68,0,0,0-1.338-.328A3.654,3.654,0,0,0,29.525,6a3.625,3.625,0,0,0-3.986-2.158,3.657,3.657,0,0,0-6.323-1.907,3.67,3.67,0,0,0-5.058.337c-.039.043-.064.093-.1.138A3.667,3.667,0,1,0,13.8,9.126a3.649,3.649,0,0,0,6.926,1.737,3.652,3.652,0,0,0,1.142.156,3.636,3.636,0,0,0,5.832,1.7,3.67,3.67,0,0,0,1.789.605,3.639,3.639,0,0,0,4.863,2.437,3.661,3.661,0,0,0,6.373,2.561,3.564,3.564,0,0,0,.552-.824,3.717,3.717,0,0,0,1.144.156,3.633,3.633,0,0,0,5.83,1.7A3.669,3.669,0,0,0,52.756,13.6" transform="translate(6.952 0.592)" fill="#727171"/>
          <path id="パス_39718" data-name="パス 39718" d="M46.483,22.146a4.98,4.98,0,0,1-3.368-1.3,4.8,4.8,0,0,1-.833-.994,5.006,5.006,0,0,1-8.457-1.9,5.022,5.022,0,0,1-3.6-1.3,4.966,4.966,0,0,1-1.13-1.529,4.941,4.941,0,0,1-.722-.24,5.024,5.024,0,0,1-5.812-.671,4.813,4.813,0,0,1-.834-.994,5,5,0,0,1-8.453-1.9,5.014,5.014,0,0,1-3.92-8.394A4.973,4.973,0,0,1,14.3,1.452,5,5,0,0,1,19.7.863a5.031,5.031,0,0,1,6.206.448,4.877,4.877,0,0,1,1.225,1.74,4.964,4.964,0,0,1,3.006,1.289,4.893,4.893,0,0,1,.8.942A4.981,4.981,0,0,1,34.84,8.1a5.008,5.008,0,0,1,5.408-.6,5.026,5.026,0,0,1,6.206.448,4.877,4.877,0,0,1,1.221,1.74,4.95,4.95,0,0,1,3.01,1.289,5.023,5.023,0,0,1,.8.942,5.015,5.015,0,1,1-2.561,9.6,5.039,5.039,0,0,1-2.441.627m-3.472-5.239a1.345,1.345,0,0,1,1.28.936,2.3,2.3,0,0,0,.632,1.019,2.328,2.328,0,0,0,3.057.061,1.345,1.345,0,0,1,1.6-.086,2.327,2.327,0,1,0,1.155-4.263,1.344,1.344,0,0,1-1.305-.811,2.265,2.265,0,0,0-.562-.8,2.326,2.326,0,0,0-1.966-.564,1.366,1.366,0,0,1-1.008-.231,1.343,1.343,0,0,1-.541-.881,2.314,2.314,0,0,0-4.007-1.209A1.344,1.344,0,0,1,39.5,10.2a2.323,2.323,0,0,0-3.209.208,1.438,1.438,0,0,1-1.674.444,2.363,2.363,0,0,0-.856-.2,1.343,1.343,0,0,1-1.2-.994,2.313,2.313,0,0,0-.675-1.123,2.232,2.232,0,0,0-1.7-.6,1.373,1.373,0,0,1-1.309-.813,2.3,2.3,0,0,0-.562-.8,2.328,2.328,0,0,0-1.966-.562A1.338,1.338,0,0,1,24.8,4.647,2.314,2.314,0,0,0,20.795,3.44a1.343,1.343,0,0,1-1.846.124,2.323,2.323,0,0,0-3.209.208,1.448,1.448,0,0,1-1.674.446,2.311,2.311,0,0,0-2.729.512A2.326,2.326,0,0,0,13.9,8.466a1.344,1.344,0,0,1,1.828,1.28,2.285,2.285,0,0,0,.743,1.773,2.382,2.382,0,0,0,1.678.611,2.316,2.316,0,0,0,1.617-.757,2.28,2.28,0,0,0,.346-.523,1.344,1.344,0,0,1,1.579-.684,2.5,2.5,0,0,0,.722.1,1.3,1.3,0,0,1,1.32.936,2.3,2.3,0,0,0,3.692,1.08,1.343,1.343,0,0,1,1.6-.086,2.373,2.373,0,0,0,1.139.383,1.34,1.34,0,0,1,1.2.981,2.3,2.3,0,0,0,3.085,1.544,1.342,1.342,0,0,1,1.826,1.28,2.291,2.291,0,0,0,.743,1.773,2.34,2.34,0,0,0,3.3-.147,2.272,2.272,0,0,0,.344-.525,1.345,1.345,0,0,1,1.579-.682,2.556,2.556,0,0,0,.723.1h.039" transform="translate(6.36 0)"/>
          <path id="パス_39719" data-name="パス 39719" d="M80.914,27.443A3.674,3.674,0,0,0,77.6,21.5a3.628,3.628,0,0,0-4.122-1.887,3.656,3.656,0,0,0-6.435-1.479,3.668,3.668,0,0,0-5.024.671c-.036.047-.059.1-.093.147a3.666,3.666,0,1,0,.192,6.713,3.663,3.663,0,0,0,6.53,2.131,3.547,3.547,0,0,0,.5-.859,3.725,3.725,0,0,0,1.151.081,3.634,3.634,0,0,0,5.93,1.311,3.666,3.666,0,0,0,4.691-.886" transform="translate(44.973 13.249)" fill="#727171"/>
          <path id="パス_39720" data-name="パス 39720" d="M74.27,31.278a4.974,4.974,0,0,1-3.11-1.083,4.88,4.88,0,0,1-.9-.936A5.007,5.007,0,0,1,61.7,27.924a4.975,4.975,0,0,1-3.678-1.058,5.03,5.03,0,0,1-.791-7.055,4.964,4.964,0,0,1,4.833-1.792,5.007,5.007,0,0,1,5.349-.949,5.027,5.027,0,0,1,6.222.034,4.915,4.915,0,0,1,1.336,1.655,4.945,4.945,0,0,1,3.085,1.087,4.864,4.864,0,0,1,.863.885,4.975,4.975,0,0,1,2.847,1.089A5.014,5.014,0,0,1,77,30.478a5.034,5.034,0,0,1-2.729.8m-3.388-5.01a1.345,1.345,0,0,1,1.252.852,2.306,2.306,0,0,0,.7.976,2.334,2.334,0,0,0,3.051-.145,1.343,1.343,0,0,1,1.594-.2,2.327,2.327,0,1,0,.868-4.33,1.335,1.335,0,0,1-1.357-.725,2.286,2.286,0,0,0-.612-.757,2.32,2.32,0,0,0-2-.432A1.343,1.343,0,0,1,72.757,20.5a2.308,2.308,0,0,0-.8-1.3,2.334,2.334,0,0,0-3.277.365,1.345,1.345,0,0,1-1.835.247,2.324,2.324,0,0,0-3.187.423,1.472,1.472,0,0,1-1.644.555,2.31,2.31,0,0,0-2.686.695,2.325,2.325,0,0,0,2.813,3.556A1.341,1.341,0,0,1,64.047,26.2a2.292,2.292,0,0,0,.859,1.719,2.334,2.334,0,0,0,3.282-.369A2.3,2.3,0,0,0,68.5,27a1.337,1.337,0,0,1,1.531-.784,2.406,2.406,0,0,0,.731.054c.043,0,.086-.005.125-.005m10.624,1.767h0Z" transform="translate(44.381 12.657)"/>
        </g>
      </g>
      <g id="グループ_14354" data-name="グループ 14354" transform="translate(380.211 714.84)">
        <g id="グループ_8888" data-name="グループ 8888" transform="translate(0 0)" clip-path="url(#clip-path-2)">
          <path id="パス_18438" data-name="パス 18438" d="M15.052,10.505c-4.921,1.258-6.317,3.163-7.247,9.9-.93-6.732-2.324-8.638-7.247-9.9C5.477,9.217,6.875,7.3,7.805.558c.93,6.743,2.328,8.659,7.247,9.947" transform="translate(0.59 0.591)" fill="#d0a500"/>
          <path id="パス_18439" data-name="パス 18439" d="M8.4,22.142a1.149,1.149,0,0,1-1.14-.992c-.916-6.63-2.184-7.864-6.391-8.937A1.152,1.152,0,0,1,.858,9.984c4.209-1.1,5.481-2.348,6.4-8.99a1.151,1.151,0,0,1,2.281,0c.916,6.642,2.188,7.887,6.4,8.99a1.152,1.152,0,0,1-.006,2.229c-4.207,1.074-5.475,2.307-6.391,8.937a1.151,1.151,0,0,1-1.14.992M4.52,11.088A7.639,7.639,0,0,1,8.4,15.682a7.629,7.629,0,0,1,3.878-4.594A7.683,7.683,0,0,1,8.4,6.469,7.694,7.694,0,0,1,4.52,11.088" transform="translate(0 0)" fill="#040000"/>
        </g>
      </g>
      <g id="グループ_14352" data-name="グループ 14352" transform="translate(491.3 678.888)">
        <g id="グループ_8886" data-name="グループ 8886" transform="translate(0 0)" clip-path="url(#clip-path-3)">
          <path id="パス_18436" data-name="パス 18436" d="M21.166,14.7c-7,1.788-8.98,4.5-10.3,14.069C9.539,19.2,7.558,16.489.559,14.7c6.993-1.833,8.98-4.558,10.3-14.143,1.324,9.585,3.31,12.31,10.3,14.143" transform="translate(0.448 0.447)" fill="#d0a500"/>
          <path id="パス_18437" data-name="パス 18437" d="M11.312,30.224a1,1,0,0,1-1-.868c-1.271-9.2-2.97-11.55-9.558-13.232a1.008,1.008,0,0,1-.005-1.95c6.592-1.727,8.292-4.09,9.563-13.306a1.006,1.006,0,0,1,1.994,0c1.271,9.216,2.97,11.578,9.561,13.306a1.008,1.008,0,0,1-.005,1.95c-6.586,1.682-8.284,4.032-9.556,13.232a1,1,0,0,1-1,.868M4.3,15.139c3.816,1.529,5.781,3.9,7.017,8.632,1.234-4.729,3.2-7.1,7.013-8.632-3.814-1.554-5.779-3.941-7.013-8.677-1.235,4.737-3.2,7.123-7.017,8.677" transform="translate(0 0)" fill="#040000"/>
        </g>
      </g>
    </g>
    <g id="グループ_14764" data-name="グループ 14764" transform="translate(-9532 -1497)">
      <g id="グループ_14338" data-name="グループ 14338" transform="translate(620.101 658)">
        <ellipse id="楕円形_294" data-name="楕円形 294" cx="38.16" cy="7.869" rx="38.16" ry="7.869" transform="translate(26.754 101.68)" fill="#555" opacity="0.297" style="mix-blend-mode: multiply;isolation: isolate"/>
        <g id="グループ_14329" data-name="グループ 14329" transform="translate(0 0)">
          <g id="グループ_14328" data-name="グループ 14328" clip-path="url(#clip-path-4)">
            <path id="パス_39603" data-name="パス 39603" d="M53.195,51.576,14.329,29.137A43.764,43.764,0,0,1,53.195,6.7Z" transform="translate(11.048 5.165)" fill="#4c93b9"/>
            <path id="パス_39604" data-name="パス 39604" d="M55.89,41.807,17.024,64.247a43.768,43.768,0,0,1,0-44.879Z" transform="translate(8.354 14.934)" fill="#e6e6e6"/>
            <path id="パス_39605" data-name="パス 39605" d="M53.195,32.038V76.917A43.764,43.764,0,0,1,14.329,54.477Z" transform="translate(11.048 24.704)" fill="#4c93b9"/>
            <path id="パス_39606" data-name="パス 39606" d="M36.274,32.038,75.14,54.477A43.764,43.764,0,0,1,36.274,76.917Z" transform="translate(27.969 24.704)" fill="#e6e6e6"/>
            <path id="パス_39607" data-name="パス 39607" d="M36.274,41.807,75.14,19.368a43.768,43.768,0,0,1,0,44.879Z" transform="translate(27.969 14.934)" fill="#4c93b9"/>
            <path id="パス_39608" data-name="パス 39608" d="M36.274,51.576V6.7A43.764,43.764,0,0,1,75.14,29.137Z" transform="translate(27.969 5.165)" fill="#e6e6e6"/>
          </g>
        </g>
        <g id="グループ_14331" data-name="グループ 14331" transform="translate(19.187 34.298)">
          <g id="グループ_14330" data-name="グループ 14330" clip-path="url(#clip-path-5)">
            <path id="パス_39609" data-name="パス 39609" d="M14.447,62.945a.462.462,0,0,1-.347-.154.47.47,0,0,1,.032-.662L48.554,31.007a.469.469,0,0,1,.629.7L14.762,62.824a.469.469,0,0,1-.315.12" transform="translate(-8.409 -10.483)" fill="#4c93b9"/>
            <path id="パス_39610" data-name="パス 39610" d="M12.45,60.736a.462.462,0,0,1-.347-.154.47.47,0,0,1,.032-.662L46.557,28.8a.469.469,0,1,1,.629.7L12.765,60.615a.469.469,0,0,1-.315.12" transform="translate(-9.949 -12.186)" fill="#4c93b9"/>
            <path id="パス_39611" data-name="パス 39611" d="M10.453,58.527a.462.462,0,0,1-.347-.154.47.47,0,0,1,.032-.662L44.56,26.59a.469.469,0,1,1,.629.7L10.768,58.406a.469.469,0,0,1-.315.12" transform="translate(-11.488 -13.889)" fill="#4c93b9"/>
            <path id="パス_39612" data-name="パス 39612" d="M8.456,56.318a.462.462,0,0,1-.347-.154.47.47,0,0,1,.032-.662L42.563,24.38a.469.469,0,0,1,.629.7L8.771,56.2a.469.469,0,0,1-.315.12" transform="translate(-13.028 -15.592)" fill="#4c93b9"/>
            <path id="パス_39613" data-name="パス 39613" d="M6.459,54.11a.462.462,0,0,1-.347-.154.47.47,0,0,1,.032-.662L40.566,22.172a.469.469,0,0,1,.629.7L6.774,53.989a.469.469,0,0,1-.315.12" transform="translate(-14.568 -17.295)" fill="#4c93b9"/>
            <path id="パス_39614" data-name="パス 39614" d="M4.463,51.9a.461.461,0,0,1-.347-.154.47.47,0,0,1,.032-.662L38.57,19.964a.468.468,0,1,1,.629.694L4.778,51.781a.469.469,0,0,1-.315.12" transform="translate(-16.107 -18.998)" fill="#4c93b9"/>
            <path id="パス_39615" data-name="パス 39615" d="M2.466,49.692a.462.462,0,0,1-.347-.154.47.47,0,0,1,.032-.662L36.573,17.754a.469.469,0,0,1,.629.7L2.781,49.571a.469.469,0,0,1-.315.12" transform="translate(-17.647 -20.701)" fill="#4c93b9"/>
            <path id="パス_39616" data-name="パス 39616" d="M.469,47.484a.462.462,0,0,1-.347-.154.47.47,0,0,1,.032-.662L34.576,15.546a.469.469,0,1,1,.629.7L.784,47.363a.469.469,0,0,1-.315.12" transform="translate(-19.187 -22.404)" fill="#4c93b9"/>
            <path id="パス_39617" data-name="パス 39617" d="M31.78,64.572a.462.462,0,0,1-.347-.154L.31,30a.47.47,0,0,1,.7-.63L32.127,63.789a.467.467,0,0,1-.347.783" transform="translate(-19.04 -11.773)" fill="#4c93b9"/>
            <path id="パス_39618" data-name="パス 39618" d="M33.987,62.574a.462.462,0,0,1-.347-.154L2.519,28a.47.47,0,0,1,.7-.63L34.334,61.792a.467.467,0,0,1-.347.783" transform="translate(-17.337 -13.313)" fill="#4c93b9"/>
            <path id="パス_39619" data-name="パス 39619" d="M36.2,60.577a.455.455,0,0,1-.347-.154L4.727,26a.47.47,0,0,1,.7-.63L36.544,59.8a.468.468,0,0,1-.032.661.461.461,0,0,1-.315.12" transform="translate(-15.634 -14.852)" fill="#4c93b9"/>
            <path id="パス_39620" data-name="パス 39620" d="M38.406,58.582a.462.462,0,0,1-.347-.154L6.936,24.008a.47.47,0,0,1,.7-.63L38.753,57.8a.468.468,0,0,1-.032.661.463.463,0,0,1-.315.122" transform="translate(-13.931 -16.392)" fill="#4c93b9"/>
            <path id="パス_39621" data-name="パス 39621" d="M40.613,56.584a.462.462,0,0,1-.347-.154L9.145,22.009a.47.47,0,0,1,.7-.63L40.96,55.8a.467.467,0,0,1-.347.783" transform="translate(-12.228 -17.932)" fill="#4c93b9"/>
            <path id="パス_39622" data-name="パス 39622" d="M42.822,54.588a.462.462,0,0,1-.347-.154L11.354,20.014a.47.47,0,0,1,.7-.63L43.169,53.805a.467.467,0,0,1-.347.783" transform="translate(-10.525 -19.472)" fill="#4c93b9"/>
            <path id="パス_39623" data-name="パス 39623" d="M45.032,52.59a.462.462,0,0,1-.347-.154L13.562,18.016a.47.47,0,0,1,.7-.63L45.379,51.808a.467.467,0,0,1-.347.783" transform="translate(-8.822 -21.011)" fill="#4c93b9"/>
            <path id="パス_39624" data-name="パス 39624" d="M47.241,50.594a.462.462,0,0,1-.347-.154L15.771,16.019a.47.47,0,0,1,.7-.63L47.588,49.811a.467.467,0,0,1-.347.783" transform="translate(-7.119 -22.551)" fill="#4c93b9"/>
          </g>
        </g>
        <g id="グループ_14333" data-name="グループ 14333" transform="translate(64.243 11.923)">
          <g id="グループ_14332" data-name="グループ 14332" clip-path="url(#clip-path-6)">
            <path id="パス_39626" data-name="パス 39626" d="M62.715,46.427a.471.471,0,0,1-.46-.375L53.082.564a.469.469,0,0,1,.367-.553A.454.454,0,0,1,54,.378l9.174,45.488a.472.472,0,0,1-.367.553.442.442,0,0,1-.094.009" transform="translate(-23.321 -11.923)" fill="#4c93b9"/>
            <path id="パス_39627" data-name="パス 39627" d="M59.8,47.015a.471.471,0,0,1-.46-.375L50.163,1.152A.469.469,0,0,1,50.53.6a.452.452,0,0,1,.553.367l9.174,45.488a.472.472,0,0,1-.367.553.442.442,0,0,1-.094.009" transform="translate(-25.572 -11.468)" fill="#4c93b9"/>
            <path id="パス_39628" data-name="パス 39628" d="M56.879,47.6a.471.471,0,0,1-.46-.375L47.244,1.74a.467.467,0,0,1,.367-.551.456.456,0,0,1,.553.367l9.176,45.488a.472.472,0,0,1-.367.553.431.431,0,0,1-.094.009" transform="translate(-27.823 -11.015)" fill="#4c93b9"/>
            <path id="パス_39629" data-name="パス 39629" d="M53.96,48.193a.471.471,0,0,1-.46-.375L44.325,2.33a.469.469,0,0,1,.367-.553.456.456,0,0,1,.553.367L54.42,47.631a.472.472,0,0,1-.367.553.431.431,0,0,1-.094.009" transform="translate(-30.073 -10.561)" fill="#4c93b9"/>
            <path id="パス_39630" data-name="パス 39630" d="M51.04,48.781a.471.471,0,0,1-.46-.375L41.407,2.916a.467.467,0,0,1,.367-.551.455.455,0,0,1,.553.367L51.5,48.22a.472.472,0,0,1-.367.553.441.441,0,0,1-.094.009" transform="translate(-32.323 -10.107)" fill="#4c93b9"/>
            <path id="パス_39631" data-name="パス 39631" d="M48.121,49.37a.471.471,0,0,1-.46-.375L38.488,3.507a.469.469,0,0,1,.367-.553.456.456,0,0,1,.553.367l9.174,45.488a.472.472,0,0,1-.367.553.442.442,0,0,1-.094.009" transform="translate(-34.574 -9.653)" fill="#4c93b9"/>
            <path id="パス_39632" data-name="パス 39632" d="M45.2,49.96a.471.471,0,0,1-.46-.375L35.569,4.1a.469.469,0,0,1,.367-.553.453.453,0,0,1,.553.367L45.662,49.4a.472.472,0,0,1-.367.553.442.442,0,0,1-.094.009" transform="translate(-36.825 -9.199)" fill="#4c93b9"/>
            <path id="パス_39633" data-name="パス 39633" d="M42.283,50.547a.471.471,0,0,1-.46-.375L32.65,4.684a.469.469,0,0,1,.367-.553.458.458,0,0,1,.553.367l9.174,45.488a.472.472,0,0,1-.367.553.442.442,0,0,1-.094.009" transform="translate(-39.075 -8.745)" fill="#4c93b9"/>
            <path id="パス_39634" data-name="パス 39634" d="M35.134,32.642a.469.469,0,0,1-.094-.928L80.528,22.54a.459.459,0,0,1,.553.367.467.467,0,0,1-.367.551L35.228,32.633a.431.431,0,0,1-.094.009" transform="translate(-37.515 5.448)" fill="#4c93b9"/>
            <path id="パス_39635" data-name="パス 39635" d="M34.545,29.722a.469.469,0,0,1-.094-.928L79.939,19.62a.462.462,0,0,1,.553.367.47.47,0,0,1-.367.553L34.639,29.713a.431.431,0,0,1-.094.009" transform="translate(-37.969 3.198)" fill="#4c93b9"/>
            <path id="パス_39636" data-name="パス 39636" d="M33.956,26.8a.469.469,0,0,1-.094-.928L79.352,16.7a.461.461,0,0,1,.553.367.47.47,0,0,1-.367.553L34.05,26.794a.442.442,0,0,1-.094.009" transform="translate(-38.423 0.947)" fill="#4c93b9"/>
            <path id="パス_39637" data-name="パス 39637" d="M33.367,23.885a.469.469,0,0,1-.094-.928l45.49-9.174a.451.451,0,0,1,.553.367.47.47,0,0,1-.367.553L33.461,23.876a.431.431,0,0,1-.094.009" transform="translate(-38.877 -1.304)" fill="#4c93b9"/>
            <path id="パス_39638" data-name="パス 39638" d="M32.778,20.966a.469.469,0,0,1-.094-.928l45.49-9.174a.461.461,0,0,1,.553.367.467.467,0,0,1-.367.551L32.872,20.957a.442.442,0,0,1-.094.009" transform="translate(-39.331 -3.555)" fill="#4c93b9"/>
            <path id="パス_39639" data-name="パス 39639" d="M32.19,18.048a.469.469,0,0,1-.094-.928L77.584,7.945a.468.468,0,1,1,.186.917L32.284,18.037a.347.347,0,0,1-.094.011" transform="translate(-39.785 -5.804)" fill="#4c93b9"/>
            <path id="パス_39640" data-name="パス 39640" d="M31.6,15.129a.469.469,0,0,1-.094-.928L77,5.026a.456.456,0,0,1,.553.367.47.47,0,0,1-.367.553L31.7,15.12a.431.431,0,0,1-.094.009" transform="translate(-40.239 -8.055)" fill="#4c93b9"/>
            <path id="パス_39641" data-name="パス 39641" d="M31.013,12.21a.469.469,0,0,1-.094-.928L76.407,2.108a.462.462,0,0,1,.554.367.471.471,0,0,1-.367.553L31.105,12.2a.416.416,0,0,1-.092.009" transform="translate(-40.692 -10.306)" fill="#4c93b9"/>
          </g>
        </g>
        <g id="グループ_14335" data-name="グループ 14335" transform="translate(64.169 56.8)">
          <g id="グループ_14334" data-name="グループ 14334" clip-path="url(#clip-path-7)">
            <path id="パス_39643" data-name="パス 39643" d="M51.376,83.531a.421.421,0,0,1-.094-.009.471.471,0,0,1-.367-.553l9.241-45.475a.47.47,0,0,1,.921.186L51.837,83.155a.472.472,0,0,1-.46.375" transform="translate(-24.917 -28.18)" fill="#4c93b9"/>
            <path id="パス_39644" data-name="パス 39644" d="M48.458,82.936a.422.422,0,0,1-.094-.009A.471.471,0,0,1,48,82.375L57.239,36.9a.47.47,0,0,1,.921.188L48.919,82.561a.472.472,0,0,1-.46.375" transform="translate(-27.167 -28.638)" fill="#4c93b9"/>
            <path id="パス_39645" data-name="パス 39645" d="M45.54,82.345a.421.421,0,0,1-.094-.009.471.471,0,0,1-.367-.553l9.241-45.475a.47.47,0,0,1,.921.186L46,81.97a.472.472,0,0,1-.46.375" transform="translate(-29.417 -29.095)" fill="#4c93b9"/>
            <path id="パス_39646" data-name="パス 39646" d="M42.622,81.752a.422.422,0,0,1-.094-.009.471.471,0,0,1-.367-.553L51.4,35.716a.464.464,0,0,1,.554-.367.471.471,0,0,1,.367.553L43.083,81.377a.472.472,0,0,1-.46.375" transform="translate(-31.667 -29.552)" fill="#4c93b9"/>
            <path id="パス_39647" data-name="パス 39647" d="M39.7,81.158a.421.421,0,0,1-.094-.009.471.471,0,0,1-.367-.553l9.241-45.475a.47.47,0,0,1,.921.188L40.165,80.782a.472.472,0,0,1-.46.375" transform="translate(-33.917 -30.008)" fill="#4c93b9"/>
            <path id="パス_39648" data-name="パス 39648" d="M36.786,80.566a.421.421,0,0,1-.094-.009A.471.471,0,0,1,36.326,80l9.241-45.475a.47.47,0,0,1,.921.186L37.247,80.19a.472.472,0,0,1-.46.375" transform="translate(-36.166 -30.466)" fill="#4c93b9"/>
            <path id="パス_39649" data-name="パス 39649" d="M33.868,79.973a.422.422,0,0,1-.094-.009.471.471,0,0,1-.367-.553l9.241-45.475a.47.47,0,0,1,.921.186L34.329,79.6a.472.472,0,0,1-.46.375" transform="translate(-38.416 -30.924)" fill="#4c93b9"/>
            <path id="パス_39650" data-name="パス 39650" d="M30.95,79.38a.421.421,0,0,1-.094-.009.471.471,0,0,1-.367-.553l9.241-45.475a.463.463,0,0,1,.554-.365.471.471,0,0,1,.367.553L31.411,79a.472.472,0,0,1-.46.375" transform="translate(-40.666 -31.381)" fill="#4c93b9"/>
            <path id="パス_39651" data-name="パス 39651" d="M74.334,65.662a.422.422,0,0,1-.094-.009L28.766,56.412a.468.468,0,1,1,.186-.917l45.475,9.24a.469.469,0,0,1-.094.928" transform="translate(-42.279 -14.018)" fill="#4c93b9"/>
            <path id="パス_39652" data-name="パス 39652" d="M74.927,62.744a.421.421,0,0,1-.094-.009L29.359,53.494a.468.468,0,1,1,.186-.917l45.475,9.24a.469.469,0,0,1-.094.928" transform="translate(-41.822 -16.268)" fill="#4c93b9"/>
            <path id="パス_39653" data-name="パス 39653" d="M75.52,59.828a.422.422,0,0,1-.094-.009L29.952,50.577a.471.471,0,0,1-.368-.553.465.465,0,0,1,.554-.365L75.614,58.9a.469.469,0,0,1-.094.928" transform="translate(-41.365 -18.518)" fill="#4c93b9"/>
            <path id="パス_39654" data-name="パス 39654" d="M76.112,56.908a.421.421,0,0,1-.094-.009L30.544,47.658a.468.468,0,1,1,.186-.917l45.475,9.24a.469.469,0,0,1-.094.928" transform="translate(-40.908 -20.768)" fill="#4c93b9"/>
            <path id="パス_39655" data-name="パス 39655" d="M76.7,53.989a.422.422,0,0,1-.094-.009l-45.474-9.24a.472.472,0,0,1-.367-.554.467.467,0,0,1,.554-.363L76.8,53.061a.469.469,0,0,1-.094.928" transform="translate(-40.45 -23.017)" fill="#4c93b9"/>
            <path id="パス_39656" data-name="パス 39656" d="M77.3,51.073a.422.422,0,0,1-.094-.009L31.731,41.823a.468.468,0,1,1,.186-.917l45.475,9.24a.469.469,0,0,1-.094.928" transform="translate(-39.993 -25.267)" fill="#4c93b9"/>
            <path id="パス_39657" data-name="パス 39657" d="M77.892,48.155a.422.422,0,0,1-.094-.009L32.324,38.9a.468.468,0,1,1,.186-.917l45.475,9.24a.469.469,0,0,1-.094.928" transform="translate(-39.536 -27.517)" fill="#4c93b9"/>
            <path id="パス_39658" data-name="パス 39658" d="M78.484,45.237a.421.421,0,0,1-.094-.009L32.916,35.987a.468.468,0,1,1,.186-.917l45.475,9.24a.469.469,0,0,1-.094.928" transform="translate(-39.08 -29.767)" fill="#4c93b9"/>
          </g>
        </g>
        <g id="グループ_14337" data-name="グループ 14337" transform="translate(0 0)">
          <g id="グループ_14336" data-name="グループ 14336" clip-path="url(#clip-path-4)">
            <path id="パス_39660" data-name="パス 39660" d="M69.8,42.209a23.36,23.36,0,1,1-23.36-23.362A23.359,23.359,0,0,1,69.8,42.209" transform="translate(17.799 14.533)" fill="#e6e6e6"/>
            <path id="パス_39661" data-name="パス 39661" d="M46.946,67.221A24.511,24.511,0,1,1,71.458,42.709,24.54,24.54,0,0,1,46.946,67.221m0-46.72A22.209,22.209,0,1,0,69.153,42.709,22.233,22.233,0,0,0,46.946,20.5" transform="translate(17.297 14.032)" fill="#040000"/>
            <path id="パス_39662" data-name="パス 39662" d="M47.481,39.594c9.305,12.943-.59,18.414-6.6,3.65-12.943,9.305-18.414-.59-3.65-6.6-9.305-12.943.592-18.414,6.6-3.65,12.945-9.305,18.415.59,3.65,6.6" transform="translate(21.889 18.623)" fill="#4c93b9"/>
            <path id="パス_39663" data-name="パス 39663" d="M56.2,97.747a45.779,45.779,0,1,1,45.778-45.778A45.832,45.832,0,0,1,56.2,97.747m0-89.61a43.831,43.831,0,1,0,43.83,43.832A43.882,43.882,0,0,0,56.2,8.137" transform="translate(8.038 4.773)" fill="#040000"/>
            <rect id="長方形_9222" data-name="長方形 9222" width="5.779" height="9.008" transform="translate(36.817 93.45)" fill="#d0a500"/>
            <path id="パス_39664" data-name="パス 39664" d="M27.145,63.679H21.366a1.329,1.329,0,0,1-1.328-1.328V53.343a1.329,1.329,0,0,1,1.328-1.328h5.779a1.329,1.329,0,0,1,1.328,1.328v9.008a1.329,1.329,0,0,1-1.328,1.328m-4.451-2.657h3.122V54.672H22.695Z" transform="translate(15.45 40.107)" fill="#040000"/>
            <rect id="長方形_9223" data-name="長方形 9223" width="5.779" height="9.008" transform="translate(86.125 93.45)" fill="#d0a500"/>
            <path id="パス_39665" data-name="パス 39665" d="M54.986,63.679H49.207a1.329,1.329,0,0,1-1.328-1.328V53.343a1.329,1.329,0,0,1,1.328-1.328h5.779a1.329,1.329,0,0,1,1.328,1.328v9.008a1.329,1.329,0,0,1-1.328,1.328m-4.451-2.657h3.122V54.672H50.536Z" transform="translate(36.917 40.107)" fill="#040000"/>
            <rect id="長方形_9224" data-name="長方形 9224" width="64.757" height="5.779" transform="translate(31.865 102.447)" fill="#d0a500"/>
            <path id="パス_39666" data-name="パス 39666" d="M83.327,65.531H18.57A1.329,1.329,0,0,1,17.242,64.2V58.423a1.329,1.329,0,0,1,1.328-1.328H83.327a1.329,1.329,0,0,1,1.328,1.328V64.2a1.329,1.329,0,0,1-1.328,1.328M19.9,62.874H82V59.752H19.9Z" transform="translate(13.295 44.024)" fill="#040000"/>
            <path id="パス_39669" data-name="パス 39669" d="M42.2,9.278a3.634,3.634,0,0,0-5.96-3.128,3.583,3.583,0,0,0-4.433.664,3.616,3.616,0,0,0-6.13,2.255,3.629,3.629,0,0,0-3.8,3.271c-.005.058,0,.113,0,.172a3.627,3.627,0,1,0,3.788,5.458,3.608,3.608,0,0,0,6.507-2.747,3.641,3.641,0,0,0,1-.554,3.584,3.584,0,0,0,1.752.668,3.623,3.623,0,0,0,3.87-2.788A3.629,3.629,0,0,0,42.2,9.278" transform="translate(14.613 4.083)" fill="#727171"/>
            <path id="パス_39670" data-name="パス 39670" d="M23.172,21.605c-.158,0-.317-.007-.476-.023a4.975,4.975,0,0,1-4.472-5.414,4.923,4.923,0,0,1,3.036-4.1,4.957,4.957,0,0,1,3.918-3.677,4.991,4.991,0,0,1,5.17-3.337,4.838,4.838,0,0,1,2,.648,4.888,4.888,0,0,1,3.142-.769,4.822,4.822,0,0,1,1.194.269,4.96,4.96,0,1,1,3.682,9.109,4.988,4.988,0,0,1-4.991,2.922,4.764,4.764,0,0,1-1.249-.29,4.961,4.961,0,0,1-5.412,4.429,4.9,4.9,0,0,1-2.4-.907,4.908,4.908,0,0,1-3.144,1.135m2.9-10.635a2.3,2.3,0,0,0-2.3,2.076,1.418,1.418,0,0,1-1.061,1.348,2.288,2.288,0,0,0-1.849,2.028,2.313,2.313,0,0,0,2.077,2.517,2.275,2.275,0,0,0,2.171-1.091,1.328,1.328,0,0,1,2.207-.074,2.275,2.275,0,0,0,1.645.96,2.25,2.25,0,0,0,2.476-2.7,1.329,1.329,0,0,1,.843-1.479,2.244,2.244,0,0,0,.63-.349,1.334,1.334,0,0,1,1.6-.046,2.277,2.277,0,0,0,1.109.43,2.314,2.314,0,0,0,2.449-1.771A1.331,1.331,0,0,1,39.3,11.8a2.29,2.29,0,0,0,2.161-2.07l0,0a2.308,2.308,0,0,0-2.077-2.517,2.27,2.27,0,0,0-1.706.533,1.323,1.323,0,0,1-1.516.135,2.281,2.281,0,0,0-.919-.3,2.255,2.255,0,0,0-1.886.723,1.335,1.335,0,0,1-.935.416,1.423,1.423,0,0,1-.953-.37A2.286,2.286,0,0,0,30.093,7.7a2.326,2.326,0,0,0-2.515,2.074,1.388,1.388,0,0,1-1.387,1.2c-.037,0-.078,0-.115,0" transform="translate(14.034 3.505)"/>
            <path id="パス_39671" data-name="パス 39671" d="M60.556,62.415a3.634,3.634,0,0,0-3.65-5.653,3.593,3.593,0,0,0-4.187-1.6,3.616,3.616,0,0,0-6.447-1.052,3.628,3.628,0,0,0-4.916.981c-.034.048-.053.1-.083.151a3.626,3.626,0,1,0,.615,6.615,3.623,3.623,0,0,0,6.581,1.688,3.538,3.538,0,0,0,.434-.88,3.635,3.635,0,0,0,1.142.007,3.595,3.595,0,0,0,5.938.917,3.626,3.626,0,0,0,4.573-1.172" transform="translate(28.149 40.526)" fill="#727171"/>
            <path id="パス_39672" data-name="パス 39672" d="M46.06,67a4.925,4.925,0,0,1-4.481-2.864,4.955,4.955,0,1,1-.271-9.8,4.959,4.959,0,0,1,5.219-1.277,4.976,4.976,0,0,1,6.144-.361,4.835,4.835,0,0,1,1.424,1.548,4.929,4.929,0,0,1,3.115.877,4.741,4.741,0,0,1,.905.82l.053,0a4.961,4.961,0,1,1-1.325,9.744,4.974,4.974,0,0,1-5.782.09,4.843,4.843,0,0,1-.946-.868A4.965,4.965,0,0,1,46.06,67m-3.593-5.9a1.326,1.326,0,0,1,1.319,1.183,2.281,2.281,0,0,0,.96,1.644A2.263,2.263,0,0,0,48.231,62.8a1.324,1.324,0,0,1,1.461-.871,2.244,2.244,0,0,0,.721.007,1.324,1.324,0,0,1,1.415.749,2.269,2.269,0,0,0,.753.917,2.305,2.305,0,0,0,3-.337,1.328,1.328,0,0,1,1.562-.292,2.286,2.286,0,0,0,2.9-.74v0a2.3,2.3,0,0,0-2.317-3.586,1.339,1.339,0,0,1-1.385-.627,2.256,2.256,0,0,0-2.653-1.01,1.347,1.347,0,0,1-1.018-.1,1.328,1.328,0,0,1-.648-.792,2.271,2.271,0,0,0-.875-1.236,2.309,2.309,0,0,0-3.211.567,1.33,1.33,0,0,1-1.8.361,2.3,2.3,0,0,0-3.117.618,1.453,1.453,0,0,1-1.585.654,2.3,2.3,0,1,0,.39,4.187,1.334,1.334,0,0,1,.638-.163" transform="translate(27.57 39.95)"/>
          </g>
        </g>
      </g>
      <g id="グループ_14351" data-name="グループ 14351" transform="translate(612.018 746.683)">
        <g id="グループ_8888-2" data-name="グループ 8888" transform="translate(0 0)" clip-path="url(#clip-path-9)">
          <path id="パス_18438-2" data-name="パス 18438" d="M14.512,10.135C9.774,11.345,8.43,13.18,7.535,19.662,6.639,13.18,5.3,11.345.558,10.135,5.294,8.894,6.639,7.049,7.535.558c.9,6.491,2.241,8.336,6.977,9.577" transform="translate(0.548 0.548)" fill="#d0a500"/>
          <path id="パス_18439-2" data-name="パス 18439" d="M8.083,21.317a1.106,1.106,0,0,1-1.1-.955c-.882-6.382-2.1-7.571-6.153-8.6A1.109,1.109,0,0,1,.826,9.612C4.878,8.55,6.1,7.351,6.985.957a1.108,1.108,0,0,1,2.2,0c.882,6.394,2.106,7.593,6.158,8.655a1.109,1.109,0,0,1-.006,2.146c-4.05,1.034-5.271,2.221-6.153,8.6a1.108,1.108,0,0,1-1.1.955M4.351,10.674A7.355,7.355,0,0,1,8.083,15.1a7.345,7.345,0,0,1,3.733-4.423A7.4,7.4,0,0,1,8.083,6.228a7.407,7.407,0,0,1-3.731,4.446" transform="translate(0 0)" fill="#040000"/>
        </g>
      </g>
      <g id="グループ_14353" data-name="グループ 14353" transform="translate(733.85 651.13)">
        <g id="グループ_8886-2" data-name="グループ 8886" transform="translate(0 0)" clip-path="url(#clip-path-10)">
          <path id="パス_18436-2" data-name="パス 18436" d="M25.062,17.375C16.74,19.5,14.384,22.724,12.81,34.1,11.236,22.724,8.881,19.5.559,17.375,8.874,15.195,11.236,11.955,12.81.558c1.574,11.4,3.936,14.637,12.251,16.817" transform="translate(0.638 0.637)" fill="#d0a500"/>
          <path id="パス_18437-2" data-name="パス 18437" d="M13.451,35.938a1.194,1.194,0,0,1-1.186-1.032C10.752,23.967,8.733,21.173.9,19.173a1.2,1.2,0,0,1-.006-2.319C8.731,14.8,10.752,11.99,12.264,1.032a1.2,1.2,0,0,1,2.371,0C16.147,11.99,18.166,14.8,26,16.853A1.2,1.2,0,0,1,26,19.173c-7.831,2-9.851,4.795-11.363,15.733a1.194,1.194,0,0,1-1.184,1.032M5.107,18c4.538,1.818,6.874,4.641,8.343,10.264,1.467-5.623,3.8-8.444,8.339-10.264-4.536-1.848-6.872-4.686-8.339-10.318C11.981,13.316,9.647,16.153,5.107,18" transform="translate(0 0)" fill="#040000"/>
        </g>
      </g>
    </g>
    <g id="グループ_14763" data-name="グループ 14763" transform="translate(-9496.232 -1497)">
      <g id="グループ_14356" data-name="グループ 14356" transform="translate(793.211 690.235)">
        <g id="グループ_8888-3" data-name="グループ 8888" transform="translate(0 0)" clip-path="url(#clip-path-9)">
          <path id="パス_18438-3" data-name="パス 18438" d="M14.512,10.135C9.774,11.345,8.43,13.18,7.535,19.662,6.639,13.18,5.3,11.345.558,10.135,5.294,8.894,6.639,7.049,7.535.558c.9,6.491,2.241,8.336,6.977,9.577" transform="translate(0.548 0.548)" fill="#d0a500"/>
          <path id="パス_18439-3" data-name="パス 18439" d="M8.083,21.317a1.106,1.106,0,0,1-1.1-.955c-.882-6.382-2.1-7.571-6.153-8.6A1.109,1.109,0,0,1,.826,9.612C4.878,8.55,6.1,7.351,6.985.957a1.108,1.108,0,0,1,2.2,0c.882,6.394,2.106,7.593,6.158,8.655a1.109,1.109,0,0,1-.006,2.146c-4.05,1.034-5.271,2.221-6.153,8.6a1.108,1.108,0,0,1-1.1.955M4.351,10.674A7.355,7.355,0,0,1,8.083,15.1a7.345,7.345,0,0,1,3.733-4.423A7.4,7.4,0,0,1,8.083,6.228a7.407,7.407,0,0,1-3.731,4.446" transform="translate(0 0)" fill="#040000"/>
        </g>
      </g>
      <g id="グループ_14355" data-name="グループ 14355" transform="translate(921.046 646.338)">
        <g id="グループ_8886-3" data-name="グループ 8886" transform="translate(0 0)" clip-path="url(#clip-path-12)">
          <path id="パス_18436-3" data-name="パス 18436" d="M27.266,18.888c-9.07,2.318-11.638,5.831-13.353,18.234C12.2,24.718,9.629,21.205.559,18.888,9.622,16.511,12.2,12.98,13.912.558c1.716,12.422,4.29,15.953,13.353,18.33" transform="translate(0.746 0.744)" fill="#d0a500"/>
          <path id="パス_18437-3" data-name="パス 18437" d="M14.66,39.171a1.3,1.3,0,0,1-1.293-1.125C11.719,26.123,9.518,23.077.98,20.9a1.306,1.306,0,0,1-.007-2.528c8.543-2.238,10.746-5.3,12.394-17.244a1.3,1.3,0,0,1,2.584,0C17.6,13.069,19.8,16.131,28.343,18.369a1.306,1.306,0,0,1-.007,2.528C19.8,23.077,17.6,26.123,15.951,38.046a1.3,1.3,0,0,1-1.291,1.125M5.567,19.62c4.946,1.982,7.492,5.058,9.094,11.187,1.6-6.129,4.143-9.2,9.089-11.187-4.944-2.014-7.49-5.107-9.089-11.246-1.6,6.139-4.145,9.231-9.094,11.246" transform="translate(0 0)" fill="#040000"/>
        </g>
      </g>
      <g id="グループ_14746" data-name="グループ 14746">
        <ellipse id="楕円形_295" data-name="楕円形 295" cx="51.297" cy="9.969" rx="51.297" ry="9.969" transform="translate(818.453 755.479)" fill="#555" opacity="0.297" style="mix-blend-mode: multiply;isolation: isolate"/>
        <g id="グループ_14744" data-name="グループ 14744" transform="translate(818.453 639.257)">
          <g id="グループ_14730" data-name="グループ 14730" transform="translate(0 0)" clip-path="url(#clip-path-13)">
            <path id="パス_41353" data-name="パス 41353" d="M70.249,85.079H16.364a7.59,7.59,0,0,1-7.58-7.222L5.636,12.691a7.588,7.588,0,0,1,7.578-7.957h60.68a7.588,7.588,0,0,1,7.576,8.013L77.828,77.913a7.592,7.592,0,0,1-7.578,7.166" transform="translate(7.385 6.213)" fill="#892b2b"/>
            <path id="パス_41354" data-name="パス 41354" d="M70.995,87.135H17.109a8.891,8.891,0,0,1-8.892-8.471L5.07,13.5a8.9,8.9,0,0,1,8.889-9.331H74.637a8.9,8.9,0,0,1,8.887,9.4L79.879,78.731a8.9,8.9,0,0,1-8.885,8.4M13.959,6.792A6.273,6.273,0,0,0,7.69,13.373l3.147,65.164a6.27,6.27,0,0,0,6.271,5.973H70.995a6.279,6.279,0,0,0,6.267-5.922l3.644-65.168a6.276,6.276,0,0,0-6.269-6.628Z" transform="translate(6.64 5.469)"/>
            <rect id="長方形_9470" data-name="長方形 9470" width="99.971" height="12.358" transform="translate(1.311 91.293)" fill="#ad7955"/>
            <path id="パス_41355" data-name="パス 41355" d="M101.282,53.895H1.311A1.312,1.312,0,0,1,0,52.581V40.223A1.312,1.312,0,0,1,1.311,38.91h99.971a1.312,1.312,0,0,1,1.311,1.313V52.581a1.312,1.312,0,0,1-1.311,1.313M2.622,51.27H99.974V41.535H2.622Z" transform="translate(0 51.069)"/>
            <rect id="長方形_9471" data-name="長方形 9471" width="15.267" height="23.779" transform="translate(13.614 103.65)" fill="#ad7955"/>
            <path id="パス_41356" data-name="パス 41356" d="M21.9,70.659H6.631A1.312,1.312,0,0,1,5.32,69.348V45.566a1.312,1.312,0,0,1,1.311-1.311H21.9a1.312,1.312,0,0,1,1.311,1.311V69.348A1.312,1.312,0,0,1,21.9,70.659M7.942,68.034H20.587V46.88H7.942Z" transform="translate(6.982 58.084)"/>
            <path id="パス_41357" data-name="パス 41357" d="M75.623,45.851H10.39a4.42,4.42,0,0,1-4.419-4.419V39.041a4.419,4.419,0,0,1,4.419-4.419H75.623a4.419,4.419,0,0,1,4.419,4.419v2.391a4.42,4.42,0,0,1-4.419,4.419" transform="translate(7.837 45.441)" fill="#892b2b"/>
            <path id="パス_41358" data-name="パス 41358" d="M76.367,47.907H11.134A5.736,5.736,0,0,1,5.4,42.179V39.785a5.738,5.738,0,0,1,5.73-5.73H76.367a5.738,5.738,0,0,1,5.73,5.73v2.393a5.736,5.736,0,0,1-5.73,5.728M11.134,36.68a3.111,3.111,0,0,0-3.108,3.106v2.393a3.111,3.111,0,0,0,3.108,3.106H76.367a3.111,3.111,0,0,0,3.108-3.106V39.785a3.111,3.111,0,0,0-3.108-3.106Z" transform="translate(7.093 44.697)"/>
            <rect id="長方形_9472" data-name="長方形 9472" width="14.356" height="11.576" transform="translate(3.728 70.503)" fill="#ad7955"/>
            <path id="パス_41359" data-name="パス 41359" d="M16.713,44.123H2.355A1.312,1.312,0,0,1,1.044,42.81V31.231A1.312,1.312,0,0,1,2.355,29.92H16.713a1.312,1.312,0,0,1,1.311,1.311V42.81a1.312,1.312,0,0,1-1.311,1.313M3.666,41.5H15.4V32.545H3.666Z" transform="translate(1.37 39.27)"/>
            <path id="パス_41360" data-name="パス 41360" d="M17.129,18.6c-.173,0-.349,0-.53-.014-3.42-.164-5.716-1.792-5.716-4.049a1.311,1.311,0,1,1,2.622,0c0,.6,1.323,1.339,3.221,1.431,1.788.076,3.7-.472,3.806-1.559a1.312,1.312,0,0,1,2.611.254c-.229,2.361-2.671,3.936-6.015,3.936" transform="translate(14.284 17.355)" fill="#601b1b"/>
            <path id="パス_41361" data-name="パス 41361" d="M21.837,20.407a1.314,1.314,0,0,1-1.3-1.186c-.1-1.082-2.021-1.63-3.806-1.559-1.9.095-3.221.83-3.221,1.434a1.311,1.311,0,0,1-2.622,0c0-2.257,2.3-3.885,5.716-4.049,3.591-.183,6.3,1.436,6.544,3.922A1.312,1.312,0,0,1,21.964,20.4a1.173,1.173,0,0,1-.127.007" transform="translate(14.284 19.73)" fill="#601b1b"/>
            <path id="パス_41362" data-name="パス 41362" d="M17.227,16.634a2.369,2.369,0,1,1-2.368-2.368,2.368,2.368,0,0,1,2.368,2.368" transform="translate(16.392 18.724)" fill="#231612"/>
            <path id="パス_41363" data-name="パス 41363" d="M25.622,18.6q-.26,0-.527-.014c-3.42-.164-5.719-1.79-5.719-4.049a1.311,1.311,0,1,1,2.622,0c0,.6,1.323,1.339,3.224,1.431,1.771.076,3.7-.472,3.8-1.559a1.312,1.312,0,0,1,2.611.254c-.229,2.361-2.673,3.936-6.015,3.936" transform="translate(25.431 17.355)" fill="#601b1b"/>
            <path id="パス_41364" data-name="パス 41364" d="M30.328,20.407a1.312,1.312,0,0,1-1.3-1.186c-.1-1.082-2.033-1.63-3.8-1.559-1.9.095-3.224.83-3.224,1.434a1.31,1.31,0,1,1-2.62,0c0-2.259,2.3-3.885,5.716-4.049,3.594-.183,6.3,1.436,6.542,3.922A1.312,1.312,0,0,1,30.455,20.4a1.173,1.173,0,0,1-.127.007" transform="translate(25.431 19.73)" fill="#601b1b"/>
            <path id="パス_41365" data-name="パス 41365" d="M25.719,16.634a2.369,2.369,0,1,1-2.368-2.368,2.368,2.368,0,0,1,2.368,2.368" transform="translate(27.537 18.724)" fill="#231612"/>
            <path id="パス_41366" data-name="パス 41366" d="M34.282,18.6c-.173,0-.349,0-.53-.014-3.42-.164-5.716-1.792-5.716-4.049a1.311,1.311,0,1,1,2.622,0c0,.6,1.323,1.339,3.221,1.431,1.778.076,3.7-.472,3.806-1.559a1.312,1.312,0,0,1,2.611.254c-.229,2.361-2.671,3.936-6.015,3.936" transform="translate(36.797 17.355)" fill="#601b1b"/>
            <path id="パス_41367" data-name="パス 41367" d="M38.99,20.407a1.314,1.314,0,0,1-1.3-1.186c-.106-1.082-2.014-1.63-3.806-1.559-1.9.095-3.221.83-3.221,1.434a1.311,1.311,0,0,1-2.622,0c0-2.257,2.3-3.885,5.716-4.049,3.6-.183,6.3,1.436,6.544,3.922A1.312,1.312,0,0,1,39.117,20.4a1.173,1.173,0,0,1-.127.007" transform="translate(36.797 19.73)" fill="#601b1b"/>
            <path id="パス_41368" data-name="パス 41368" d="M34.38,16.634a2.369,2.369,0,1,1-2.37-2.368,2.369,2.369,0,0,1,2.37,2.368" transform="translate(38.905 18.724)" fill="#231612"/>
            <path id="パス_41369" data-name="パス 41369" d="M21.53,29.565q-.26,0-.527-.014c-3.42-.164-5.719-1.79-5.719-4.049a1.311,1.311,0,1,1,2.622,0c0,.6,1.323,1.339,3.224,1.431,1.781.069,3.7-.474,3.8-1.559A1.286,1.286,0,0,1,26.365,24.2a1.314,1.314,0,0,1,1.179,1.431c-.229,2.361-2.673,3.936-6.015,3.936" transform="translate(20.06 31.746)" fill="#601b1b"/>
            <path id="パス_41370" data-name="パス 41370" d="M26.237,31.373a1.312,1.312,0,0,1-1.3-1.186c-.1-1.085-2.023-1.635-3.8-1.559-1.9.095-3.224.83-3.224,1.434a1.31,1.31,0,1,1-2.62,0c0-2.259,2.3-3.885,5.716-4.049,3.6-.19,6.3,1.436,6.542,3.922a1.312,1.312,0,0,1-1.179,1.431,1.172,1.172,0,0,1-.127.007" transform="translate(20.061 34.121)" fill="#601b1b"/>
            <path id="パス_41371" data-name="パス 41371" d="M21.628,27.6a2.369,2.369,0,1,1-2.368-2.368A2.368,2.368,0,0,1,21.628,27.6" transform="translate(22.168 33.115)" fill="#231612"/>
            <path id="パス_41372" data-name="パス 41372" d="M30.023,29.565c-.173,0-.349,0-.53-.014-3.42-.164-5.716-1.792-5.716-4.049a1.311,1.311,0,1,1,2.622,0c0,.6,1.323,1.339,3.221,1.431,1.79.069,3.7-.474,3.806-1.559A1.292,1.292,0,0,1,34.858,24.2a1.311,1.311,0,0,1,1.179,1.431c-.229,2.361-2.671,3.936-6.015,3.936" transform="translate(31.207 31.746)" fill="#601b1b"/>
            <path id="パス_41373" data-name="パス 41373" d="M34.731,31.373a1.314,1.314,0,0,1-1.3-1.186c-.1-1.085-2.019-1.635-3.806-1.559-1.9.095-3.221.83-3.221,1.434a1.311,1.311,0,1,1-2.622,0c0-2.257,2.3-3.885,5.716-4.049,3.6-.19,6.3,1.436,6.544,3.922a1.312,1.312,0,0,1-1.179,1.431,1.172,1.172,0,0,1-.127.007" transform="translate(31.207 34.121)" fill="#601b1b"/>
            <path id="パス_41374" data-name="パス 41374" d="M30.12,27.6a2.369,2.369,0,1,1-2.368-2.368A2.368,2.368,0,0,1,30.12,27.6" transform="translate(33.314 33.115)" fill="#231612"/>
            <rect id="長方形_9473" data-name="長方形 9473" width="8.947" height="9.213" transform="translate(6.174 82.08)" fill="#ad7955"/>
            <path id="パス_41375" data-name="パス 41375" d="M12.36,46.762H3.413A1.31,1.31,0,0,1,2.1,45.451V36.238a1.31,1.31,0,0,1,1.309-1.311H12.36a1.312,1.312,0,0,1,1.311,1.311v9.213a1.312,1.312,0,0,1-1.311,1.311M4.724,44.138h6.325V37.549H4.724Z" transform="translate(2.761 45.841)"/>
            <rect id="長方形_9474" data-name="長方形 9474" width="8.947" height="9.213" transform="translate(87.264 82.08)" fill="#ad7955"/>
            <path id="パス_41376" data-name="パス 41376" d="M47.427,46.762H38.48a1.312,1.312,0,0,1-1.311-1.311V36.238a1.312,1.312,0,0,1,1.311-1.311h8.947a1.312,1.312,0,0,1,1.311,1.311v9.213a1.312,1.312,0,0,1-1.311,1.311m-7.636-2.625h6.325V37.549H39.791Z" transform="translate(48.784 45.841)"/>
            <rect id="長方形_9475" data-name="長方形 9475" width="15.267" height="23.779" transform="translate(75.787 103.65)" fill="#ad7955"/>
            <path id="パス_41377" data-name="パス 41377" d="M48.783,70.659H33.516a1.31,1.31,0,0,1-1.309-1.311V45.566a1.31,1.31,0,0,1,1.309-1.311H48.783a1.312,1.312,0,0,1,1.311,1.311V69.348a1.312,1.312,0,0,1-1.311,1.311M34.827,68.034H47.472V46.88H34.827Z" transform="translate(42.271 58.084)"/>
            <rect id="長方形_9476" data-name="長方形 9476" width="14.356" height="11.576" transform="translate(84.561 70.503)" fill="#ad7955"/>
            <path id="パス_41378" data-name="パス 41378" d="M51.667,44.123H37.309A1.31,1.31,0,0,1,36,42.81V31.231a1.31,1.31,0,0,1,1.309-1.311H51.667a1.312,1.312,0,0,1,1.311,1.311V42.81a1.312,1.312,0,0,1-1.311,1.313M38.62,41.5H50.356V32.545H38.62Z" transform="translate(47.25 39.27)"/>
            <path id="パス_41379" data-name="パス 41379" d="M15.2,36.278a1.332,1.332,0,0,1-1.126-.606.875.875,0,0,0-.657-.375l-.06,0a.861.861,0,0,0-.641.284,1.469,1.469,0,0,1-1.082.481,1.409,1.409,0,0,1-.647-.157,1.427,1.427,0,0,1-.726-.867.862.862,0,0,0-1.288-.481,2.356,2.356,0,0,1-1.239.361,2.225,2.225,0,0,1-1.024-.247,2.273,2.273,0,0,1-1.179-1.522.868.868,0,0,0-.412-.553.885.885,0,0,0-.43-.113.914.914,0,0,0-.259.039,1.383,1.383,0,0,1-1.041-.083,1.38,1.38,0,0,1-.6-1.85,1.363,1.363,0,0,1,1.219-.742,1.48,1.48,0,0,1,.266.025.835.835,0,0,0,.169.016.847.847,0,0,0,.525-.178.865.865,0,0,0,.34-.627,2.007,2.007,0,0,1,1.7-1.836,2.05,2.05,0,0,1,.289-.021,2.01,2.01,0,0,1,1.7.943.857.857,0,0,0,.567.393.843.843,0,0,0,.171.018.886.886,0,0,0,.5-.16,2.814,2.814,0,0,1,1.626-.525,2.726,2.726,0,0,1,1.237.3,2.767,2.767,0,0,1,1.378,1.614.868.868,0,0,0,.823.6.775.775,0,0,0,.125-.009,2.377,2.377,0,0,1,.34-.025,2.213,2.213,0,0,1,1.027.247,2.288,2.288,0,0,1,1,3.087,2.214,2.214,0,0,1-.856.909.878.878,0,0,0-.4.562,1.342,1.342,0,0,1-1.339,1.1" transform="translate(3.467 35.732)" fill="#6d6d6d"/>
            <path id="パス_41380" data-name="パス 41380" d="M7.794,28.584a1.139,1.139,0,0,1,.957.537,1.73,1.73,0,0,0,1.131.784,1.7,1.7,0,0,0,.342.035,1.733,1.733,0,0,0,1-.321,1.965,1.965,0,0,1,1.124-.363,1.861,1.861,0,0,1,.844.2,1.9,1.9,0,0,1,.946,1.112,1.736,1.736,0,0,0,1.649,1.2,1.876,1.876,0,0,0,.252-.019,1.356,1.356,0,0,1,.217-.016,1.4,1.4,0,0,1,.634.15,1.427,1.427,0,0,1,.622,1.922,1.383,1.383,0,0,1-.534.562,1.732,1.732,0,0,0-.8,1.128.724.724,0,0,1-.035.127.514.514,0,0,1-.456.28.5.5,0,0,1-.229-.058.47.47,0,0,1-.178-.169,1.739,1.739,0,0,0-1.316-.754c-.039,0-.079,0-.118,0a1.73,1.73,0,0,0-1.286.571.6.6,0,0,1-.439.2.572.572,0,0,1-.252-.062.581.581,0,0,1-.291-.351,1.742,1.742,0,0,0-1.052-1.119,1.773,1.773,0,0,0-.606-.109A1.732,1.732,0,0,0,9,34.312a1.449,1.449,0,0,1-.777.229,1.387,1.387,0,0,1-.629-.153,1.412,1.412,0,0,1-.726-.948,1.738,1.738,0,0,0-1.688-1.334,1.76,1.76,0,0,0-.523.081.52.52,0,0,1-.157.025.49.49,0,0,1-.227-.055.511.511,0,0,1-.22-.684.5.5,0,0,1,.483-.259l.065,0a1.805,1.805,0,0,0,.333.032,1.736,1.736,0,0,0,1.73-1.614,1.134,1.134,0,0,1,.96-1.038,1.343,1.343,0,0,1,.167-.012m0-1.734a2.857,2.857,0,0,0-2.856,2.664,2.307,2.307,0,0,0-.435-.042,2.237,2.237,0,0,0,0,4.475,2.257,2.257,0,0,0,.68-.106,3.125,3.125,0,0,0,3.043,2.435,3.206,3.206,0,0,0,1.7-.495,2.306,2.306,0,0,0,3.927.874,2.194,2.194,0,0,0,.823.738,2.235,2.235,0,0,0,3.015-.976,2.149,2.149,0,0,0,.19-.562A3.151,3.151,0,0,0,16.26,30a3.533,3.533,0,0,0-.469.032,3.62,3.62,0,0,0-1.806-2.118,3.576,3.576,0,0,0-1.633-.4,3.683,3.683,0,0,0-2.127.684,2.869,2.869,0,0,0-2.43-1.355" transform="translate(2.973 35.24)" fill="#231815"/>
            <path id="パス_41381" data-name="パス 41381" d="M59.063,12.717A3.372,3.372,0,0,0,55.839,9.77a3.856,3.856,0,0,0-2.213-3.3,3.58,3.58,0,0,0-1.591-.3,2.551,2.551,0,0,0-.976-.779,2.8,2.8,0,0,0-3.1.659,3.745,3.745,0,0,0-2.43.134,3.72,3.72,0,0,0-1.966-2.148,3.669,3.669,0,0,0-2.393-.187A4.318,4.318,0,0,0,38.84,1.212a4.477,4.477,0,0,0-4.741.832A3.293,3.293,0,0,0,30.471.606a4.139,4.139,0,0,0-3.02,3.816,3.019,3.019,0,0,0-3.036,1.855,2.933,2.933,0,0,0,1.3,3.929,2.651,2.651,0,0,0,2.144-.014,3.772,3.772,0,0,0,2.1,2.613,3.861,3.861,0,0,0,3.934-.571,2.755,2.755,0,0,0,1.5,1.723,2.934,2.934,0,0,0,3.483-1.015,2.54,2.54,0,0,0,1.057.893,2.858,2.858,0,0,0,3.457-1.091,3.634,3.634,0,0,0,1.549,1.341,3.813,3.813,0,0,0,3.566-.312,2.93,2.93,0,0,0,1.579,3.254,2.84,2.84,0,0,0,2.93-.456,3.28,3.28,0,0,0,3.071.789,4.162,4.162,0,0,0,2.981-4.641" transform="translate(31.666 0.656)" fill="#6d6d6d"/>
            <path id="パス_41382" data-name="パス 41382" d="M59.063,12.717A3.372,3.372,0,0,0,55.839,9.77a3.856,3.856,0,0,0-2.213-3.3,3.58,3.58,0,0,0-1.591-.3,2.551,2.551,0,0,0-.976-.779,2.8,2.8,0,0,0-3.1.659,3.745,3.745,0,0,0-2.43.134,3.72,3.72,0,0,0-1.966-2.148,3.669,3.669,0,0,0-2.393-.187A4.318,4.318,0,0,0,38.84,1.212a4.477,4.477,0,0,0-4.741.832A3.293,3.293,0,0,0,30.471.606a4.139,4.139,0,0,0-3.02,3.816,3.019,3.019,0,0,0-3.036,1.855,2.933,2.933,0,0,0,1.3,3.929,2.651,2.651,0,0,0,2.144-.014,3.772,3.772,0,0,0,2.1,2.613,3.861,3.861,0,0,0,3.934-.571,2.755,2.755,0,0,0,1.5,1.723,2.934,2.934,0,0,0,3.483-1.015,2.54,2.54,0,0,0,1.057.893,2.858,2.858,0,0,0,3.457-1.091,3.634,3.634,0,0,0,1.549,1.341,3.813,3.813,0,0,0,3.566-.312,2.93,2.93,0,0,0,1.579,3.254,2.84,2.84,0,0,0,2.93-.456,3.28,3.28,0,0,0,3.071.789A4.162,4.162,0,0,0,59.063,12.717Z" transform="translate(31.666 0.656)" fill="none" stroke="#231815" stroke-linecap="round" stroke-linejoin="round" stroke-width="1"/>
            <line id="線_578" data-name="線 578" y1="7.021" x2="8.767" transform="translate(81.57 112.031)" fill="#c15656"/>
            <line id="線_579" data-name="線 579" x1="1.082" y1="6.038" transform="translate(84.871 117.175)" fill="#c15656"/>
            <line id="線_580" data-name="線 580" y1="7.021" x2="8.767" transform="translate(13.614 96.019)" fill="#c15656"/>
            <line id="線_581" data-name="線 581" x2="4.287" y2="1.066" transform="translate(20.323 98.464)" fill="#c15656"/>
          </g>
        </g>
      </g>
    </g>
  </g>
</svg>
