<svg xmlns="http://www.w3.org/2000/svg" width="132.2" height="46.674" viewBox="0 0 132.2 46.674">
  <g id="グループ_14940" data-name="グループ 14940" transform="translate(-0.001)">
    <g id="合体_11" data-name="合体 11" transform="translate(0.001 0)" fill="#fff">
      <path d="M 32.17905044555664 45.67422103881836 C 31.52921485900879 45.67422103881836 30.70148849487305 45.34709548950195 30.32721519470215 44.42900466918945 L 28.54592514038086 40.06032943725586 L 28.29214286804199 39.43789291381836 L 27.61994361877441 39.43789291381836 L 20.218505859375 39.43789291381836 C 17.62359809875488 39.43789291381836 15.10683345794678 38.92989349365234 12.73814296722412 37.92800521850586 C 10.4497241973877 36.96005630493164 8.394306182861328 35.57416534423828 6.628997325897217 33.80880355834961 C 4.863669872283936 32.04342269897461 3.477797269821167 29.98791313171387 2.509888172149658 27.69940376281738 C 1.507997393608093 25.33056640625 0.9999973177909851 22.81362152099609 0.9999973177909851 20.2184944152832 C 0.9999973177909851 17.62358474731445 1.507997393608093 15.10684013366699 2.509888172149658 12.73813056945801 C 3.477797269821167 10.44973087310791 4.863669872283936 8.394312858581543 6.628997325897217 6.629003524780273 C 8.39432430267334 4.863676071166992 10.4497241973877 3.477803230285645 12.73812484741211 2.509894132614136 C 15.10683345794678 1.508003354072571 17.62359809875488 1.000003337860107 20.218505859375 1.000003337860107 L 111.9816131591797 1.000003337860107 C 114.5765228271484 1.000003337860107 117.0932693481445 1.508003354072571 119.4619827270508 2.509894132614136 C 121.7503814697266 3.477803230285645 123.805793762207 4.863676071166992 125.5711059570312 6.629003524780273 C 127.3364334106445 8.394312858581543 128.7223052978516 10.44973087310791 129.6902160644531 12.73813056945801 C 130.6921081542969 15.10684013366699 131.2001037597656 17.62358474731445 131.2001037597656 20.2184944152832 C 131.2001037597656 22.81362152099609 130.6921081542969 25.33056640625 129.6902160644531 27.69940376281738 C 128.7223052978516 29.98791313171387 127.3364334106445 32.04342269897461 125.5711059570312 33.80880355834961 C 123.805793762207 35.57416534423828 121.7503814697266 36.96005630493164 119.4619827270508 37.92800521850586 C 117.0932846069336 38.92989349365234 114.5765228271484 39.43789291381836 111.9816131591797 39.43789291381836 L 36.73843383789062 39.43789291381836 L 36.06628799438477 39.43789291381836 L 35.81246948242188 40.06027603149414 L 34.03094100952148 44.42887496948242 C 33.6566162109375 45.34709548950195 32.82888793945312 45.67422103881836 32.17905044555664 45.67422103881836 Z" stroke="none"/>
      <path d="M 32.17905044555664 44.67422103881836 C 32.38108825683594 44.67422103881836 32.87575912475586 44.61354827880859 33.10498046875 44.05127716064453 L 35.39412307739258 38.43789291381836 L 111.9816131591797 38.43789291381836 C 116.8479461669922 38.43789291381836 121.4229965209961 36.54280471801758 124.8639755249023 33.1016960144043 C 128.3050384521484 29.66054916381836 130.2001037597656 25.08520317077637 130.2001037597656 20.2184944152832 C 130.2001037597656 15.35220336914062 128.3050537109375 10.77713108062744 124.864013671875 7.336094379425049 C 121.422981262207 3.895057916641235 116.8479080200195 2.000003337860107 111.9816131591797 2.000003337860107 L 20.218505859375 2.000003337860107 C 15.35219764709473 2.000003337860107 10.77714252471924 3.895076036453247 7.336106300354004 7.336112499237061 C 3.89507007598877 10.77713108062744 1.99999737739563 15.35218524932861 1.99999737739563 20.2184944152832 C 1.99999737739563 25.08520317077637 3.89507007598877 29.66054916381836 7.336124420166016 33.1016960144043 C 10.77710628509521 36.54280471801758 15.3521614074707 38.43789291381836 20.218505859375 38.43789291381836 L 28.96432495117188 38.43789291381836 L 31.25321578979492 44.051513671875 C 31.48234367370605 44.61354827880859 31.97701644897461 44.67422103881836 32.17905044555664 44.67422103881836 M 32.17905044555664 46.67422103881836 C 31.04392433166504 46.67422103881836 29.90879821777344 46.05165863037109 29.40119743347168 44.80649566650391 L 27.61994361877441 40.43789291381836 L 20.218505859375 40.43789291381836 C 9.052197456359863 40.43789291381836 -2.665571628313046e-06 31.38569450378418 -2.665571628313046e-06 20.2184944152832 C -2.665571628313046e-06 9.052203178405762 9.052197456359863 3.335848759888904e-06 20.218505859375 3.335848759888904e-06 L 111.9816131591797 3.335848759888904e-06 C 123.1479034423828 3.335848759888904e-06 132.2001037597656 9.052203178405762 132.2001037597656 20.2184944152832 C 132.2001037597656 31.38569450378418 123.1479034423828 40.43789291381836 111.9816131591797 40.43789291381836 L 36.73843383789062 40.43789291381836 L 34.95690536499023 44.80649566650391 C 34.44930648803711 46.05165863037109 33.31417846679688 46.67422103881836 32.17905044555664 46.67422103881836 Z" stroke="none" fill="#000"/>
    </g>
    <g id="グループ_8126" data-name="グループ 8126" transform="translate(15.015 4.093)">
      <path id="パス_41907" data-name="パス 41907" d="M7.5.021a7.749,7.749,0,0,0-.157-.787q-.115-.473-.262-.945A3.641,3.641,0,0,0,6.741-2.5a4.6,4.6,0,0,0,1.89-.263.98.98,0,0,0,.5-.955V-9.681q-.966,0-2.005.01l-1.974.021q-.934.01-1.606.031T2.6-9.576v-2.415q.42.021,1.439.042t2.363.032q1.344.01,2.73.01v-3.8H11.76v3.8q1.05,0,2.11-.01t1.984-.032q.924-.021,1.6-.031t.924-.01v2.415Q18-9.618,16.989-9.639T14.616-9.67q-1.365-.01-2.856-.01v6.468a3.7,3.7,0,0,1-.368,1.743A2.332,2.332,0,0,1,10.1-.42,8.717,8.717,0,0,1,7.5.021ZM3.213-2.226a5.066,5.066,0,0,0-.525-.619Q2.352-3.192,2-3.518a4.4,4.4,0,0,0-.63-.493,9.24,9.24,0,0,0,1.554-1.2,14.951,14.951,0,0,0,1.4-1.512A10.42,10.42,0,0,0,5.355-8.253l2.1,1.2a12.363,12.363,0,0,1-1.166,1.8,16.707,16.707,0,0,1-1.5,1.7A12.471,12.471,0,0,1,3.213-2.226ZM17.22-2.373a11.227,11.227,0,0,0-1.05-1.543q-.672-.851-1.407-1.659a11.118,11.118,0,0,0-1.386-1.312L15.12-8.3a14.591,14.591,0,0,1,1.512,1.3q.8.777,1.512,1.586A14.811,14.811,0,0,1,19.3-3.948a5.109,5.109,0,0,0-.724.43q-.41.284-.777.588A4.469,4.469,0,0,0,17.22-2.373Zm.042-10.836a1.986,1.986,0,0,1-1.47-.62,2.038,2.038,0,0,1-.609-1.48,2,2,0,0,1,.609-1.47,2,2,0,0,1,1.47-.609,2,2,0,0,1,1.47.609,2,2,0,0,1,.609,1.47,2.038,2.038,0,0,1-.609,1.48A1.986,1.986,0,0,1,17.262-13.209Zm0-.9a1.167,1.167,0,0,0,.84-.347,1.139,1.139,0,0,0,.357-.85,1.115,1.115,0,0,0-.357-.83,1.167,1.167,0,0,0-.84-.347,1.167,1.167,0,0,0-.84.347,1.115,1.115,0,0,0-.357.83,1.139,1.139,0,0,0,.357.85A1.167,1.167,0,0,0,17.262-14.112ZM31.584.336V-8.757q-1.6,1.092-3.265,2.027A36.3,36.3,0,0,1,25.053-5.1a7.365,7.365,0,0,0-.462-.735q-.294-.42-.619-.819a3.587,3.587,0,0,0-.641-.63,27.53,27.53,0,0,0,3.78-1.7,36.645,36.645,0,0,0,3.77-2.331,31.657,31.657,0,0,0,3.328-2.688A16.805,16.805,0,0,0,36.666-16.8l2.184,1.491a21.34,21.34,0,0,1-2.09,2.362,33.5,33.5,0,0,1-2.551,2.258V.336ZM47.628-.588,46.2-3.171A16.134,16.134,0,0,0,49.34-4.21a31.558,31.558,0,0,0,3.307-1.7,33.279,33.279,0,0,0,3.15-2.1,30.136,30.136,0,0,0,2.7-2.278A16.269,16.269,0,0,0,60.459-12.5a7.256,7.256,0,0,0,.284.882q.2.525.431,1.018a8,8,0,0,0,.4.766A19.734,19.734,0,0,1,59-7.15a32.812,32.812,0,0,1-3.413,2.6,37.2,37.2,0,0,1-3.906,2.279A28.245,28.245,0,0,1,47.628-.588Zm2.247-9.261a7.539,7.539,0,0,0-.766-.693q-.493-.4-1.092-.84t-1.165-.809a7.648,7.648,0,0,0-.987-.556l1.68-2.121q.42.231.987.588T49.7-13.5q.6.42,1.124.83a9.294,9.294,0,0,1,.84.724ZM70.791.651V-16.275h2.562v6.363l.945-1.344q.5.357,1.333.893t1.774,1.092q.945.557,1.827,1.019a14.172,14.172,0,0,0,1.491.693,5.029,5.029,0,0,0-.577.662,10.29,10.29,0,0,0-.6.882q-.273.452-.441.766-.5-.273-1.25-.7t-1.575-.956q-.83-.525-1.6-1.04t-1.333-.935V.651Z" transform="translate(0 24.817)"/>
      <path id="パス_41908" data-name="パス 41908" d="M11.88-4.944A4.074,4.074,0,0,0,9.672-8.832a3.647,3.647,0,0,0,1.968-3.5,4.865,4.865,0,0,0-5.208-4.9A4.888,4.888,0,0,0,1.2-12.36H4.32a2.029,2.029,0,0,1,2.112-2.064A2.016,2.016,0,0,1,8.52-12.24,1.961,1.961,0,0,1,6.36-10.1H5.9v2.712H6.36A2.195,2.195,0,0,1,8.76-5.04a2.175,2.175,0,0,1-2.3,2.376A2.161,2.161,0,0,1,4.128-4.9H1.008C1.056-1.32,3.672.144,6.456.144,9.384.144,11.88-1.536,11.88-4.944Z" transform="translate(88.276 24)"/>
    </g>
  </g>
</svg>
