<svg xmlns="http://www.w3.org/2000/svg" xmlns:xlink="http://www.w3.org/1999/xlink" width="235.425" height="147.64" viewBox="0 0 235.425 147.64">
  <defs>
    <clipPath id="clip-path">
      <path id="パス_41145" data-name="パス 41145" d="M0,0H145.319V106.842H0Z" fill="none"/>
    </clipPath>
    <filter id="パス_41144" x="4.065" y="2.014" width="154.549" height="124.345" filterUnits="userSpaceOnUse">
      <feOffset dx="6" dy="6" input="SourceAlpha"/>
      <feGaussianBlur stdDeviation="3.5" result="blur"/>
      <feFlood flood-opacity="0.161"/>
      <feComposite operator="in" in2="blur"/>
      <feComposite in="SourceGraphic"/>
    </filter>
    <clipPath id="clip-path-2">
      <rect id="長方形_9430" data-name="長方形 9430" width="122.616" height="87.128" fill="none"/>
    </clipPath>
    <clipPath id="clip-path-3">
      <path id="パス_41096" data-name="パス 41096" d="M27.341,62.63V68.4h3.942a8.676,8.676,0,0,0,1.971,2.252,15.757,15.757,0,0,0,3.45,1.83h9.079a7.155,7.155,0,0,0,1.689-1.267c.631-.709,1.549-1.83,1.549-1.83H72.532a6.831,6.831,0,0,0,1.549,1.83,10.437,10.437,0,0,0,2.158,1.267H85.39s1.626-1.046,2.91-1.83A5.176,5.176,0,0,0,90.271,68.4h3.941V62.63Z" transform="translate(-27.341 -62.63)" fill="none"/>
    </clipPath>
    <clipPath id="clip-path-4">
      <rect id="長方形_9432" data-name="長方形 9432" width="2.132" height="20.129" fill="none"/>
    </clipPath>
    <clipPath id="clip-path-5">
      <rect id="長方形_9433" data-name="長方形 9433" width="2.132" height="22.66" fill="none"/>
    </clipPath>
    <clipPath id="clip-path-6">
      <rect id="長方形_9435" data-name="長方形 9435" width="70.108" height="3.379" fill="none"/>
    </clipPath>
    <clipPath id="clip-path-7">
      <rect id="長方形_9436" data-name="長方形 9436" width="2.131" height="22.66" fill="none"/>
    </clipPath>
    <clipPath id="clip-path-8">
      <rect id="長方形_9437" data-name="長方形 9437" width="2.131" height="20.129" fill="none"/>
    </clipPath>
    <clipPath id="clip-path-9">
      <rect id="長方形_9439" data-name="長方形 9439" width="65.885" height="3.105" fill="none"/>
    </clipPath>
    <clipPath id="clip-path-11">
      <rect id="長方形_9441" data-name="長方形 9441" width="47.876" height="76.587" fill="none"/>
    </clipPath>
    <clipPath id="clip-path-12">
      <rect id="長方形_9442" data-name="長方形 9442" width="40.636" height="80.221" fill="none"/>
    </clipPath>
    <clipPath id="clip-path-13">
      <rect id="長方形_9454" data-name="長方形 9454" width="116.198" height="87.91" fill="none"/>
    </clipPath>
    <filter id="長方形_9444" x="105.124" y="43.78" width="126.102" height="102.025" filterUnits="userSpaceOnUse">
      <feOffset dx="6" dy="6" input="SourceAlpha"/>
      <feGaussianBlur stdDeviation="3" result="blur-2"/>
      <feFlood flood-opacity="0.161"/>
      <feComposite operator="in" in2="blur-2"/>
      <feComposite in="SourceGraphic"/>
    </filter>
    <clipPath id="clip-path-14">
      <rect id="長方形_9449" data-name="長方形 9449" width="99.198" height="70.91" transform="translate(0 0)" fill="none"/>
    </clipPath>
    <clipPath id="clip-path-15">
      <rect id="長方形_9450" data-name="長方形 9450" width="12.528" height="19.827" transform="translate(43.754 25.412)" fill="none"/>
    </clipPath>
    <clipPath id="clip-path-17">
      <rect id="長方形_9451" data-name="長方形 9451" width="37.684" height="59.168" transform="translate(46.814 6.404)" fill="none"/>
    </clipPath>
    <clipPath id="clip-path-18">
      <rect id="長方形_9452" data-name="長方形 9452" width="30.445" height="58.866" transform="translate(36.93 6.758)" fill="none"/>
    </clipPath>
  </defs>
  <g id="グループ_14945" data-name="グループ 14945" transform="translate(7519.829 -6737.686)">
    <g id="グループ_14829" data-name="グループ 14829" transform="translate(-7499.137 6744.199) rotate(8)">
      <g id="マスクグループ_10506" data-name="マスクグループ 10506" transform="translate(-6.671 -5.64)" clip-path="url(#clip-path)">
        <g transform="matrix(0.99, -0.14, 0.14, 0.99, -14.73, 2.07)" filter="url(#パス_41144)">
          <path id="パス_41144-2" data-name="パス 41144" d="M0,0H122.616V87.128H0Z" transform="translate(20.69 6.51) rotate(8)" fill="#fff"/>
        </g>
        <rect id="長方形_9386" data-name="長方形 9386" width="107.119" height="72.264" transform="translate(13.844 13.072)" fill="#bbd9f2"/>
        <g id="グループ_14679" data-name="グループ 14679" transform="translate(6.671 5.64)">
          <g id="グループ_14678" data-name="グループ 14678" clip-path="url(#clip-path-2)">
            <path id="パス_41068" data-name="パス 41068" d="M45.854,72.414c0,1.775-2.048,3.214-4.575,3.214S36.7,74.189,36.7,72.414Z" transform="translate(0 0)" fill="#802419"/>
            <path id="パス_41069" data-name="パス 41069" d="M85.39,72.414c0,1.775-2.048,3.214-4.575,3.214s-4.576-1.439-4.576-3.214Z" transform="translate(0 0)" fill="#802419"/>
            <rect id="長方形_9387" data-name="長方形 9387" width="14.042" height="20.13" transform="translate(77.545 42.5)" fill="#802419"/>
            <rect id="長方形_9388" data-name="長方形 9388" width="28.085" height="11.33" transform="translate(29.966 16.735)" fill="#802419"/>
            <rect id="長方形_9389" data-name="長方形 9389" width="28.085" height="10.072" transform="translate(29.966 29.323)" fill="#802419"/>
            <rect id="長方形_9390" data-name="長方形 9390" width="28.085" height="1.258" transform="translate(29.966 28.065)" fill="#892e19"/>
            <rect id="長方形_9391" data-name="長方形 9391" width="28.085" height="11.33" transform="translate(63.502 16.735)" fill="#802419"/>
            <rect id="長方形_9392" data-name="長方形 9392" width="28.085" height="10.072" transform="translate(63.502 29.323)" fill="#802419"/>
            <rect id="長方形_9393" data-name="長方形 9393" width="28.085" height="1.258" transform="translate(63.502 28.065)" fill="#892e19"/>
            <rect id="長方形_9394" data-name="長方形 9394" width="30.289" height="9.548" transform="translate(29.966 42.5)" fill="#802419"/>
            <rect id="長方形_9395" data-name="長方形 9395" width="30.289" height="9.548" transform="translate(29.966 53.082)" fill="#802419"/>
            <rect id="長方形_9396" data-name="長方形 9396" width="14.042" height="20.13" transform="translate(63.503 42.5)" fill="#802419"/>
            <rect id="長方形_9397" data-name="長方形 9397" width="2.132" height="22.66" transform="translate(27.834 16.735)" fill="#892e19"/>
            <rect id="長方形_9398" data-name="長方形 9398" width="2.132" height="22.66" transform="translate(91.587 16.735)" fill="#892e19"/>
            <rect id="長方形_9399" data-name="長方形 9399" width="9.606" height="2.041" transform="translate(65.721 44.702)" fill="#892e19"/>
            <rect id="長方形_9400" data-name="長方形 9400" width="9.606" height="2.041" transform="translate(65.721 48.947)" fill="#892e19"/>
            <rect id="長方形_9401" data-name="長方形 9401" width="9.606" height="2.041" transform="translate(65.721 54.985)" fill="#892e19"/>
            <rect id="長方形_9402" data-name="長方形 9402" width="9.606" height="2.041" transform="translate(65.721 59.039)" fill="#892e19"/>
            <rect id="長方形_9403" data-name="長方形 9403" width="1.723" height="2.041" transform="translate(73.604 44.702)" fill="#4c392b"/>
            <rect id="長方形_9404" data-name="長方形 9404" width="1.723" height="2.041" transform="translate(73.604 48.947)" fill="#4c392b"/>
            <rect id="長方形_9405" data-name="長方形 9405" width="1.723" height="2.041" transform="translate(73.604 54.985)" fill="#4c392b"/>
            <rect id="長方形_9406" data-name="長方形 9406" width="1.723" height="2.041" transform="translate(73.604 59.039)" fill="#4c392b"/>
            <rect id="長方形_9407" data-name="長方形 9407" width="1.723" height="2.041" transform="translate(65.721 44.702)" fill="#4c392b"/>
            <rect id="長方形_9408" data-name="長方形 9408" width="1.723" height="2.041" transform="translate(65.721 48.947)" fill="#4c392b"/>
            <rect id="長方形_9409" data-name="長方形 9409" width="1.723" height="2.041" transform="translate(65.721 54.985)" fill="#4c392b"/>
            <rect id="長方形_9410" data-name="長方形 9410" width="1.723" height="2.041" transform="translate(65.721 59.039)" fill="#4c392b"/>
            <rect id="長方形_9411" data-name="長方形 9411" width="9.606" height="2.041" transform="translate(79.764 44.702)" fill="#892e19"/>
            <rect id="長方形_9412" data-name="長方形 9412" width="9.606" height="2.041" transform="translate(79.764 48.947)" fill="#892e19"/>
            <rect id="長方形_9413" data-name="長方形 9413" width="9.606" height="2.041" transform="translate(79.764 54.985)" fill="#892e19"/>
            <rect id="長方形_9414" data-name="長方形 9414" width="9.606" height="2.041" transform="translate(79.764 59.039)" fill="#892e19"/>
            <rect id="長方形_9415" data-name="長方形 9415" width="1.723" height="2.041" transform="translate(87.647 44.702)" fill="#4c392b"/>
            <rect id="長方形_9416" data-name="長方形 9416" width="1.723" height="2.041" transform="translate(87.647 48.947)" fill="#4c392b"/>
            <rect id="長方形_9417" data-name="長方形 9417" width="1.723" height="2.041" transform="translate(87.647 54.985)" fill="#4c392b"/>
            <rect id="長方形_9418" data-name="長方形 9418" width="1.723" height="2.041" transform="translate(87.647 59.039)" fill="#4c392b"/>
            <rect id="長方形_9419" data-name="長方形 9419" width="1.723" height="2.041" transform="translate(79.763 44.702)" fill="#4c392b"/>
            <rect id="長方形_9420" data-name="長方形 9420" width="1.723" height="2.041" transform="translate(79.763 48.947)" fill="#4c392b"/>
            <rect id="長方形_9421" data-name="長方形 9421" width="1.723" height="2.041" transform="translate(79.763 54.985)" fill="#4c392b"/>
            <rect id="長方形_9422" data-name="長方形 9422" width="1.723" height="2.041" transform="translate(79.763 59.039)" fill="#4c392b"/>
            <rect id="長方形_9423" data-name="長方形 9423" width="5.452" height="22.66" transform="translate(58.051 16.735)" fill="#4c392b"/>
            <path id="パス_41070" data-name="パス 41070" d="M63.5,39.75H58.051A.355.355,0,0,1,57.7,39.4V16.735a.355.355,0,0,1,.354-.354H63.5a.355.355,0,0,1,.355.354V39.4a.355.355,0,0,1-.355.355m-5.1-.709h4.743V17.09H58.406Z" transform="translate(0 0)"/>
            <rect id="長方形_9424" data-name="長方形 9424" width="2.132" height="20.13" transform="translate(91.587 42.5)" fill="#892e19"/>
            <rect id="長方形_9425" data-name="長方形 9425" width="3.248" height="20.129" transform="translate(60.255 42.501)" fill="#4c392b"/>
            <rect id="長方形_9426" data-name="長方形 9426" width="2.218" height="20.13" transform="translate(63.503 42.5)" fill="#4c392b"/>
            <rect id="長方形_9427" data-name="長方形 9427" width="2.218" height="20.13" transform="translate(75.327 42.5)" fill="#4c392b"/>
            <path id="パス_41071" data-name="パス 41071" d="M77.545,62.984H75.327a.355.355,0,0,1-.354-.354V42.5a.355.355,0,0,1,.354-.355h2.218a.355.355,0,0,1,.355.355V62.63a.355.355,0,0,1-.355.354m-1.863-.709h1.509V42.854H75.682Z" transform="translate(0 0)"/>
            <rect id="長方形_9428" data-name="長方形 9428" width="2.218" height="20.13" transform="translate(77.545 42.5)" fill="#4c392b"/>
            <path id="パス_41072" data-name="パス 41072" d="M79.763,62.984H77.545a.355.355,0,0,1-.354-.354V42.5a.355.355,0,0,1,.354-.355h2.218a.355.355,0,0,1,.354.355V62.63a.355.355,0,0,1-.354.354M77.9,62.275h1.509V42.854H77.9Z" transform="translate(0 0)"/>
            <rect id="長方形_9429" data-name="長方形 9429" width="2.218" height="20.13" transform="translate(89.369 42.5)" fill="#4c392b"/>
            <path id="パス_41073" data-name="パス 41073" d="M47.6,33.815l-1.02-1.184a.349.349,0,0,0-.511-.02l-1.2,1.2h1.225a1.329,1.329,0,0,1-.092.989c-.278.457-1,.7-2.081.7-1.061,0-1.752-.23-2-.663a1.313,1.313,0,0,1-.013-1.024h1.257l-1.02-1.184a.35.35,0,0,0-.512-.02l-1.2,1.2h.739a1.873,1.873,0,0,0,.134,1.371c.385.68,1.265,1.025,2.617,1.025,1.367,0,2.271-.352,2.689-1.043a1.937,1.937,0,0,0,.2-1.353Z" transform="translate(0 0)" fill="#231815"/>
            <path id="パス_41074" data-name="パス 41074" d="M40.805,46.729l-1.02-1.184a.349.349,0,0,0-.511-.02l-1.2,1.2h1.225a1.329,1.329,0,0,1-.092.989c-.278.457-1,.7-2.081.7-1.061,0-1.752-.23-2-.663a1.313,1.313,0,0,1-.013-1.024h1.257l-1.02-1.184a.35.35,0,0,0-.512-.02l-1.2,1.2h.739a1.873,1.873,0,0,0,.134,1.371c.385.68,1.265,1.025,2.617,1.025s2.271-.352,2.689-1.043a1.937,1.937,0,0,0,.2-1.353Z" transform="translate(0 0)" fill="#231815"/>
            <path id="パス_41075" data-name="パス 41075" d="M56.589,46.729l-1.02-1.184a.349.349,0,0,0-.511-.02l-1.2,1.2h1.225a1.329,1.329,0,0,1-.092.989c-.278.457-1,.7-2.081.7-1.061,0-1.752-.23-2-.663a1.313,1.313,0,0,1-.013-1.024h1.257l-1.02-1.184a.35.35,0,0,0-.512-.02l-1.2,1.2h.739a1.873,1.873,0,0,0,.134,1.371c.385.68,1.265,1.025,2.617,1.025,1.367,0,2.271-.352,2.689-1.043a1.937,1.937,0,0,0,.2-1.353Z" transform="translate(0 0)" fill="#231815"/>
            <path id="パス_41076" data-name="パス 41076" d="M40.805,57.311l-1.02-1.184a.349.349,0,0,0-.511-.02l-1.2,1.2h1.225a1.329,1.329,0,0,1-.092.989c-.278.457-1,.7-2.081.7-1.061,0-1.752-.23-2-.663a1.313,1.313,0,0,1-.013-1.024h1.257l-1.02-1.184a.35.35,0,0,0-.512-.02l-1.2,1.2h.739a1.873,1.873,0,0,0,.134,1.371c.385.68,1.265,1.025,2.617,1.025s2.271-.352,2.689-1.043a1.937,1.937,0,0,0,.2-1.353Z" transform="translate(0 0)" fill="#231815"/>
            <path id="パス_41077" data-name="パス 41077" d="M56.589,57.311l-1.02-1.184a.349.349,0,0,0-.511-.02l-1.2,1.2h1.225a1.329,1.329,0,0,1-.092.989c-.278.457-1,.7-2.081.7-1.061,0-1.752-.23-2-.663a1.313,1.313,0,0,1-.013-1.024h1.257l-1.02-1.184a.35.35,0,0,0-.512-.02l-1.2,1.2h.739a1.873,1.873,0,0,0,.134,1.371c.385.68,1.265,1.025,2.617,1.025,1.367,0,2.271-.352,2.689-1.043a1.937,1.937,0,0,0,.2-1.353Z" transform="translate(0 0)" fill="#231815"/>
            <path id="パス_41078" data-name="パス 41078" d="M81.132,33.815l-1.02-1.184a.349.349,0,0,0-.511-.02l-1.2,1.2h1.225a1.329,1.329,0,0,1-.092.989c-.278.457-1,.7-2.081.7-1.061,0-1.752-.23-2-.663a1.313,1.313,0,0,1-.013-1.024h1.257l-1.02-1.184a.35.35,0,0,0-.512-.02l-1.2,1.2H74.7a1.873,1.873,0,0,0,.134,1.371c.385.68,1.265,1.025,2.617,1.025,1.367,0,2.271-.352,2.689-1.043a1.937,1.937,0,0,0,.2-1.353Z" transform="translate(0 0)" fill="#231815"/>
            <path id="パス_41079" data-name="パス 41079" d="M47.6,21.856l-1.02-1.184a.349.349,0,0,0-.511-.02l-1.2,1.2h1.225a1.329,1.329,0,0,1-.092.989c-.278.457-1,.7-2.081.7-1.061,0-1.752-.23-2-.663a1.313,1.313,0,0,1-.013-1.024h1.257l-1.02-1.184a.35.35,0,0,0-.512-.02l-1.2,1.2h.739a1.873,1.873,0,0,0,.134,1.371c.385.68,1.265,1.025,2.617,1.025,1.367,0,2.271-.352,2.689-1.043a1.937,1.937,0,0,0,.2-1.353Z" transform="translate(0 0)" fill="#231815"/>
            <path id="パス_41080" data-name="パス 41080" d="M81.132,21.856l-1.02-1.184a.349.349,0,0,0-.511-.02l-1.2,1.2h1.225a1.329,1.329,0,0,1-.092.989c-.278.457-1,.7-2.081.7-1.061,0-1.752-.23-2-.663a1.313,1.313,0,0,1-.013-1.024h1.257l-1.02-1.184a.35.35,0,0,0-.512-.02l-1.2,1.2H74.7a1.873,1.873,0,0,0,.134,1.371c.385.68,1.265,1.025,2.617,1.025,1.367,0,2.271-.352,2.689-1.043a1.937,1.937,0,0,0,.2-1.353Z" transform="translate(0 0)" fill="#231815"/>
            <path id="パス_41081" data-name="パス 41081" d="M42.761,52.565V58.2c0,1.442,1.551,1.507,2.123,1.507s2.576.18,2.576-1.425V52.565Z" transform="translate(0 0)" fill="#4c392b"/>
            <path id="パス_41082" data-name="パス 41082" d="M45.319,60.067c-.1,0-.2,0-.281,0l-.154,0c-2.155,0-2.477-1.166-2.477-1.862V52.566a.355.355,0,0,1,.355-.355h4.7a.355.355,0,0,1,.354.355v5.716a1.594,1.594,0,0,1-.461,1.187,2.949,2.949,0,0,1-2.035.6m-2.2-7.147V58.2c0,.285,0,1.153,1.768,1.153l.169,0a2.789,2.789,0,0,0,1.805-.394.9.9,0,0,0,.248-.68V52.92Z" transform="translate(0 0)"/>
            <path id="パス_41083" data-name="パス 41083" d="M42.761,42.149v5.635c0,1.442,1.551,1.507,2.123,1.507s2.576.18,2.576-1.425V42.149Z" transform="translate(0 0)" fill="#4c392b"/>
            <path id="パス_41084" data-name="パス 41084" d="M45.319,49.65c-.1,0-.2,0-.281,0l-.154,0c-2.155,0-2.477-1.166-2.477-1.862V42.149a.355.355,0,0,1,.355-.355h4.7a.355.355,0,0,1,.354.355v5.716a1.594,1.594,0,0,1-.461,1.187,2.949,2.949,0,0,1-2.035.6m-2.2-7.147v5.28c0,.285,0,1.153,1.768,1.153l.169,0a2.783,2.783,0,0,0,1.805-.394.9.9,0,0,0,.248-.68V42.5Z" transform="translate(0 0)"/>
          </g>
        </g>
        <g id="グループ_14681" data-name="グループ 14681" transform="translate(34.012 68.27)">
          <g id="グループ_14680" data-name="グループ 14680" clip-path="url(#clip-path-3)">
            <path id="パス_41085" data-name="パス 41085" d="M27.341,62.63V68.4h3.942a8.667,8.667,0,0,0,1.971,2.253,15.761,15.761,0,0,0,3.449,1.83h9.08a7.173,7.173,0,0,0,1.69-1.267c.63-.71,1.548-1.83,1.548-1.83H72.532a6.831,6.831,0,0,0,1.549,1.83,10.488,10.488,0,0,0,2.158,1.267H85.39s1.625-1.046,2.909-1.83A5.167,5.167,0,0,0,90.27,68.4h3.942V62.63Z" transform="translate(-27.341 -62.63)" fill="#892e19"/>
            <path id="パス_41086" data-name="パス 41086" d="M84.8,62.63s1.592,2.646,2.735,2.809a8.281,8.281,0,0,1,1.832.449,2.444,2.444,0,0,0-1.138,1.306,1.619,1.619,0,0,0-1.145.817.948.948,0,0,0-1.386,0,4.625,4.625,0,0,0-1.714,1.837c-.164.571.58,1.837.58,1.837l-1.234.8H94.8V62.63Z" transform="translate(-27.341 -62.63)" fill="#4c392b"/>
            <path id="パス_41087" data-name="パス 41087" d="M94.8,72.839H83.334a.354.354,0,0,1-.193-.651l.957-.621a3.054,3.054,0,0,1-.453-1.817,4.752,4.752,0,0,1,1.841-2.021A1.369,1.369,0,0,1,87,67.5a2.029,2.029,0,0,1,.953-.6,2.341,2.341,0,0,1,.645-.885,9.75,9.75,0,0,0-1.108-.224c-1.272-.182-2.817-2.691-2.989-2.977a.354.354,0,0,1,.3-.537h10a.355.355,0,0,1,.355.354v9.854a.355.355,0,0,1-.355.355M84.531,72.13h9.918V62.984h-9c.629.923,1.547,2.02,2.137,2.1a8.581,8.581,0,0,1,1.917.472.354.354,0,0,1,.034.637,2.051,2.051,0,0,0-.961,1.07.355.355,0,0,1-.3.277,1.272,1.272,0,0,0-.876.616.356.356,0,0,1-.6.073c-.075-.085-.367-.345-.895.059-.705.537-1.447,1.153-1.589,1.652a3.262,3.262,0,0,0,.546,1.56.356.356,0,0,1-.113.477Z" transform="translate(-27.341 -62.63)"/>
            <path id="パス_41088" data-name="パス 41088" d="M37.342,62.63s-1.592,2.646-2.735,2.809a8.281,8.281,0,0,0-1.832.449,2.444,2.444,0,0,1,1.138,1.306,1.619,1.619,0,0,1,1.145.817.948.948,0,0,1,1.386,0,4.625,4.625,0,0,1,1.714,1.837c.164.571-.58,1.837-.58,1.837l1.234.8H27.341V62.63Z" transform="translate(-27.341 -62.63)" fill="#4c392b"/>
            <path id="パス_41089" data-name="パス 41089" d="M38.812,72.838H27.341a.355.355,0,0,1-.354-.354V62.63a.355.355,0,0,1,.354-.355h10a.354.354,0,0,1,.3.537c-.172.285-1.716,2.8-2.988,2.978a9.56,9.56,0,0,0-1.11.223,2.35,2.35,0,0,1,.647.885,2.024,2.024,0,0,1,.953.6,1.362,1.362,0,0,1,1.511.23A4.747,4.747,0,0,1,38.5,69.75a3.051,3.051,0,0,1-.452,1.816l.957.621a.353.353,0,0,1-.192.651M27.7,72.13h9.918l-.228-.149a.353.353,0,0,1-.113-.476,3.269,3.269,0,0,0,.545-1.56c-.142-.5-.882-1.114-1.588-1.653-.531-.4-.823-.144-.9-.054a.357.357,0,0,1-.592-.077,1.274,1.274,0,0,0-.878-.616.357.357,0,0,1-.293-.278A2.058,2.058,0,0,0,32.6,66.2a.354.354,0,0,1,.034-.638,8.542,8.542,0,0,1,1.919-.472c.589-.084,1.507-1.181,2.136-2.1h-9Zm9.646-9.146h0Z" transform="translate(-27.341 -62.63)"/>
            <path id="パス_41090" data-name="パス 41090" d="M38.648,70.482l2.631,1.461,2.631-1.461-2.631-1.7Z" transform="translate(-27.341 -62.63)" fill="#4c392b"/>
            <path id="パス_41091" data-name="パス 41091" d="M41.278,72.3a.347.347,0,0,1-.171-.045l-2.631-1.461a.353.353,0,0,1-.021-.607l2.631-1.7a.354.354,0,0,1,.385,0l2.631,1.7a.353.353,0,0,1-.021.607L41.45,72.253a.348.348,0,0,1-.172.045M39.337,70.46l1.941,1.078L43.22,70.46l-1.942-1.252Z" transform="translate(-27.341 -62.63)"/>
            <path id="パス_41092" data-name="パス 41092" d="M77.994,70.482l2.631,1.461,2.631-1.461-2.631-1.7Z" transform="translate(-27.341 -62.63)" fill="#4c392b"/>
            <path id="パス_41093" data-name="パス 41093" d="M80.624,72.3a.347.347,0,0,1-.171-.045l-2.631-1.461a.353.353,0,0,1-.021-.607l2.631-1.7a.354.354,0,0,1,.385,0l2.632,1.7a.354.354,0,0,1,.162.309.358.358,0,0,1-.183.3L80.8,72.253a.348.348,0,0,1-.172.045M78.683,70.46l1.941,1.078,1.943-1.078-1.943-1.252Z" transform="translate(-27.341 -62.63)"/>
            <path id="パス_41094" data-name="パス 41094" d="M55.779,62.63s1.305,3.027,3.374,4.088c0,0,.735,2.341,2.368,2.341s2.313-2.45,2.313-2.45a6.814,6.814,0,0,0,3.048-3.979Z" transform="translate(-27.341 -62.63)" fill="#4c392b"/>
            <path id="パス_41095" data-name="パス 41095" d="M61.521,69.413c-1.638,0-2.457-1.9-2.657-2.449-2.082-1.157-3.357-4.068-3.411-4.194a.355.355,0,0,1,.326-.495h11.1a.354.354,0,0,1,.347.426,7.011,7.011,0,0,1-3.1,4.14c-.183.558-.957,2.572-2.612,2.572m-5.176-6.429a8.274,8.274,0,0,0,2.97,3.418.358.358,0,0,1,.176.209c.006.02.678,2.093,2.03,2.093,1.326,0,1.966-2.168,1.971-2.19a.358.358,0,0,1,.165-.212,6.743,6.743,0,0,0,2.767-3.318Z" transform="translate(-27.341 -62.63)"/>
          </g>
        </g>
        <g id="グループ_14683" data-name="グループ 14683" transform="translate(34.505 48.141)">
          <g id="グループ_14682" data-name="グループ 14682" clip-path="url(#clip-path-4)">
            <rect id="長方形_9431" data-name="長方形 9431" width="2.132" height="20.13" transform="translate(0 -0.001)" fill="#892e19"/>
            <path id="パス_41097" data-name="パス 41097" d="M27.368,34.089,28.9,35.531l1.478-1.442V48.512l-1.506-1.36-1.5,1.36Z" transform="translate(-27.834 -42.501)" fill="#4c392b"/>
            <path id="パス_41098" data-name="パス 41098" d="M30.378,48.866a.348.348,0,0,1-.237-.092l-1.268-1.145L27.6,48.774a.35.35,0,0,1-.381.062.357.357,0,0,1-.211-.324V34.089a.354.354,0,0,1,.6-.258L28.9,35.04l1.235-1.205a.355.355,0,0,1,.6.254V48.512a.354.354,0,0,1-.355.354M27.722,34.909V47.714l.914-.826a.352.352,0,0,1,.475,0l.913.826V34.93l-.877.855a.355.355,0,0,1-.49,0Z" transform="translate(-27.834 -42.501)"/>
            <path id="パス_41099" data-name="パス 41099" d="M27.368,57.856,28.9,59.3l1.478-1.442V62.63H27.368Z" transform="translate(-27.834 -42.501)" fill="#4c392b"/>
            <path id="パス_41100" data-name="パス 41100" d="M30.378,62.984h-3.01a.355.355,0,0,1-.355-.355V57.856a.353.353,0,0,1,.214-.325.36.36,0,0,1,.384.067L28.9,58.807l1.235-1.2a.355.355,0,0,1,.6.254v4.773a.355.355,0,0,1-.355.355m-2.656-.709h2.3V58.7l-.877.855a.354.354,0,0,1-.49,0l-.935-.88Z" transform="translate(-27.834 -42.501)"/>
          </g>
        </g>
        <g id="グループ_14685" data-name="グループ 14685" transform="translate(34.505 22.376)">
          <g id="グループ_14684" data-name="グループ 14684" clip-path="url(#clip-path-5)">
            <path id="パス_41101" data-name="パス 41101" d="M36.116,12.535l-1.074,2.511,1.1,1.689H29.966v5.577l-1.093-1.286L27.533,22.4l-2.921-8.314L25.285,12Z" transform="translate(-27.834 -16.736)" fill="#4c392b"/>
            <path id="パス_41102" data-name="パス 41102" d="M27.534,22.755a.322.322,0,0,1-.076-.009.351.351,0,0,1-.258-.228L24.279,14.2a.35.35,0,0,1,0-.226l.673-2.083a.316.316,0,0,1,.354-.244l10.831.531a.351.351,0,0,1,.284.166.357.357,0,0,1,.025.327l-1,2.336,1,1.531a.354.354,0,0,1-.3.548H30.321v5.221a.354.354,0,0,1-.624.23l-.841-.988-1.068,1.094a.353.353,0,0,1-.254.108m-2.547-8.673,2.691,7.662.942-.965a.337.337,0,0,1,.265-.107.355.355,0,0,1,.258.125l.469.551V16.735a.355.355,0,0,1,.354-.354H35.49l-.744-1.142a.358.358,0,0,1-.03-.333l.875-2.042L25.54,12.372Z" transform="translate(-27.834 -16.736)"/>
            <path id="パス_41103" data-name="パス 41103" d="M27.368,34.089,28.9,35.531l1.478-1.442V48.512l-1.506-1.36-1.5,1.36Z" transform="translate(-27.834 -16.736)" fill="#4c392b"/>
            <path id="パス_41104" data-name="パス 41104" d="M30.378,48.866a.348.348,0,0,1-.237-.092l-1.268-1.145L27.6,48.774a.35.35,0,0,1-.381.062.357.357,0,0,1-.211-.324V34.089a.354.354,0,0,1,.6-.258L28.9,35.04l1.235-1.205a.355.355,0,0,1,.6.254V48.512a.354.354,0,0,1-.355.354M27.722,34.909V47.714l.914-.826a.352.352,0,0,1,.475,0l.913.826V34.93l-.877.855a.355.355,0,0,1-.49,0Z" transform="translate(-27.834 -16.736)"/>
          </g>
        </g>
        <g id="グループ_14687" data-name="グループ 14687" transform="translate(32.394 18.996)">
          <g id="グループ_14686" data-name="グループ 14686" clip-path="url(#clip-path-6)">
            <rect id="長方形_9434" data-name="長方形 9434" width="70.108" height="3.379" fill="#892e19"/>
            <path id="パス_41105" data-name="パス 41105" d="M36.116,12.535l-1.074,2.511,1.1,1.689H29.966v5.577l-1.093-1.286L27.533,22.4l-2.921-8.314L25.285,12Z" transform="translate(-25.723 -13.356)" fill="#4c392b"/>
            <path id="パス_41106" data-name="パス 41106" d="M27.534,22.755a.322.322,0,0,1-.076-.009.351.351,0,0,1-.258-.228L24.279,14.2a.35.35,0,0,1,0-.226l.673-2.083a.316.316,0,0,1,.354-.244l10.831.531a.351.351,0,0,1,.284.166.357.357,0,0,1,.025.327l-1,2.336,1,1.531a.354.354,0,0,1-.3.548H30.321v5.221a.354.354,0,0,1-.624.23l-.841-.988-1.068,1.094a.353.353,0,0,1-.254.108m-2.547-8.673,2.691,7.662.942-.965a.337.337,0,0,1,.265-.107.355.355,0,0,1,.258.125l.469.551V16.735a.355.355,0,0,1,.354-.354H35.49l-.744-1.142a.358.358,0,0,1-.03-.333l.875-2.042L25.54,12.372Z" transform="translate(-25.723 -13.356)"/>
            <path id="パス_41107" data-name="パス 41107" d="M85.441,12.535l1.074,2.511-1.1,1.689h6.178v5.577l1.093-1.286,1.34,1.374,2.921-8.314L96.272,12Z" transform="translate(-25.723 -13.356)" fill="#4c392b"/>
            <path id="パス_41108" data-name="パス 41108" d="M94.025,22.755a.354.354,0,0,1-.254-.107l-1.068-1.1-.842.989a.353.353,0,0,1-.392.1.357.357,0,0,1-.232-.333V17.09H85.414a.354.354,0,0,1-.3-.548l1-1.531-1-2.336a.357.357,0,0,1,.025-.327.353.353,0,0,1,.283-.166l10.83-.531a.319.319,0,0,1,.355.245l.674,2.082a.35.35,0,0,1,0,.226l-2.921,8.314a.351.351,0,0,1-.258.228.329.329,0,0,1-.076.009m-1.34-2.083a.356.356,0,0,1,.254.107l.941.965,2.692-7.662-.554-1.71-10.05.492.874,2.042a.357.357,0,0,1-.029.333l-.745,1.142h5.523a.355.355,0,0,1,.355.354v4.614l.469-.552a.359.359,0,0,1,.258-.125Z" transform="translate(-25.723 -13.356)"/>
            <path id="パス_41109" data-name="パス 41109" d="M55.507,12.916l-1.524,2.13,1.524,1.979H67.182l1.333-1.979-1.333-2.13Z" transform="translate(-25.723 -13.356)" fill="#4c392b"/>
            <path id="パス_41110" data-name="パス 41110" d="M67.182,17.38H55.507a.35.35,0,0,1-.28-.139L53.7,15.263a.354.354,0,0,1-.007-.422l1.524-2.131a.354.354,0,0,1,.288-.148H67.182a.357.357,0,0,1,.3.167l1.333,2.13a.355.355,0,0,1-.007.386l-1.333,1.979a.356.356,0,0,1-.294.156m-11.5-.709H66.994l1.1-1.631-1.106-1.769H55.69l-1.266,1.768Z" transform="translate(-25.723 -13.356)"/>
          </g>
        </g>
        <g id="グループ_14689" data-name="グループ 14689" transform="translate(98.259 22.376)">
          <g id="グループ_14688" data-name="グループ 14688" clip-path="url(#clip-path-7)">
            <path id="パス_41111" data-name="パス 41111" d="M91.148,34.089l1.533,1.442,1.478-1.442V48.512l-1.506-1.36-1.5,1.36Z" transform="translate(-91.588 -16.736)" fill="#4c392b"/>
            <path id="パス_41112" data-name="パス 41112" d="M94.158,48.866a.348.348,0,0,1-.237-.092l-1.268-1.145-1.268,1.145a.35.35,0,0,1-.381.062.357.357,0,0,1-.211-.324V34.089a.354.354,0,0,1,.6-.258l1.285,1.209,1.235-1.205a.355.355,0,0,1,.6.254V48.512a.354.354,0,0,1-.355.354M91.5,34.909V47.714l.914-.826a.352.352,0,0,1,.475,0l.913.826V34.93l-.876.855a.355.355,0,0,1-.49,0Z" transform="translate(-91.588 -16.736)"/>
            <path id="パス_41113" data-name="パス 41113" d="M85.441,12.535l1.074,2.511-1.1,1.689h6.178v5.577l1.093-1.286,1.34,1.374,2.921-8.314L96.272,12Z" transform="translate(-91.588 -16.736)" fill="#4c392b"/>
            <path id="パス_41114" data-name="パス 41114" d="M94.025,22.755a.354.354,0,0,1-.254-.107l-1.068-1.1-.842.989a.353.353,0,0,1-.392.1.357.357,0,0,1-.232-.333V17.09H85.414a.354.354,0,0,1-.3-.548l1-1.531-1-2.336a.357.357,0,0,1,.025-.327.353.353,0,0,1,.283-.166l10.83-.531a.319.319,0,0,1,.355.245l.674,2.082a.35.35,0,0,1,0,.226l-2.921,8.314a.351.351,0,0,1-.258.228.329.329,0,0,1-.076.009m-1.34-2.083a.356.356,0,0,1,.254.107l.941.965,2.692-7.662-.554-1.71-10.05.492.874,2.042a.357.357,0,0,1-.029.333l-.745,1.142h5.523a.355.355,0,0,1,.355.354v4.614l.469-.552a.359.359,0,0,1,.258-.125Z" transform="translate(-91.588 -16.736)"/>
          </g>
        </g>
        <g id="グループ_14691" data-name="グループ 14691" transform="translate(98.259 48.141)">
          <g id="グループ_14690" data-name="グループ 14690" clip-path="url(#clip-path-8)">
            <path id="パス_41115" data-name="パス 41115" d="M91.148,57.856,92.681,59.3l1.478-1.442V62.63H91.148Z" transform="translate(-91.588 -42.501)" fill="#4c392b"/>
            <path id="パス_41116" data-name="パス 41116" d="M94.158,62.984h-3.01a.355.355,0,0,1-.355-.355V57.856a.353.353,0,0,1,.214-.325.359.359,0,0,1,.384.067l1.285,1.209,1.235-1.2a.355.355,0,0,1,.6.254v4.773a.355.355,0,0,1-.355.355M91.5,62.275h2.3V58.7l-.876.855a.354.354,0,0,1-.49,0l-.936-.88Z" transform="translate(-91.588 -42.501)"/>
            <path id="パス_41117" data-name="パス 41117" d="M91.148,34.089l1.533,1.442,1.478-1.442V48.512l-1.506-1.36-1.5,1.36Z" transform="translate(-91.588 -42.501)" fill="#4c392b"/>
            <path id="パス_41118" data-name="パス 41118" d="M94.158,48.866a.348.348,0,0,1-.237-.092l-1.268-1.145-1.268,1.145a.35.35,0,0,1-.381.062.357.357,0,0,1-.211-.324V34.089a.354.354,0,0,1,.6-.258l1.285,1.209,1.235-1.205a.355.355,0,0,1,.6.254V48.512a.354.354,0,0,1-.355.354M91.5,34.909V47.714l.914-.826a.352.352,0,0,1,.475,0l.913.826V34.93l-.876.855a.355.355,0,0,1-.49,0Z" transform="translate(-91.588 -42.501)"/>
          </g>
        </g>
        <g id="グループ_14693" data-name="グループ 14693" transform="translate(34.505 45.036)">
          <g id="グループ_14692" data-name="グループ 14692" clip-path="url(#clip-path-9)">
            <rect id="長方形_9438" data-name="長方形 9438" width="65.885" height="3.105" transform="translate(0 -0.001)" fill="#892e19"/>
            <path id="パス_41119" data-name="パス 41119" d="M55.507,38.893l-1.524,2.13L55.507,43H67.182l1.333-1.979-1.333-2.13Z" transform="translate(-27.834 -39.396)" fill="#4c392b"/>
            <path id="パス_41120" data-name="パス 41120" d="M67.182,43.358H55.507a.35.35,0,0,1-.28-.139L53.7,41.24a.353.353,0,0,1-.008-.422l1.524-2.13a.355.355,0,0,1,.288-.148H67.182a.357.357,0,0,1,.3.167l1.333,2.13a.354.354,0,0,1-.007.385L67.476,43.2a.355.355,0,0,1-.294.156m-11.5-.709H66.994l1.1-1.632-1.106-1.768H55.69l-1.266,1.767Z" transform="translate(-27.834 -39.396)"/>
            <path id="パス_41121" data-name="パス 41121" d="M27.834,39.4h8.2l-.857,1.553.857,1.552h-8.2Z" transform="translate(-27.834 -39.396)" fill="#4c392b"/>
            <path id="パス_41122" data-name="パス 41122" d="M36.036,42.855h-8.2a.355.355,0,0,1-.355-.355V39.4a.355.355,0,0,1,.355-.354h8.2a.355.355,0,0,1,.31.525l-.762,1.382.762,1.381a.354.354,0,0,1-.31.525m-7.847-.709h7.246l-.567-1.026a.353.353,0,0,1,0-.342l.567-1.028H28.189Z" transform="translate(-27.834 -39.396)"/>
            <path id="パス_41123" data-name="パス 41123" d="M93.719,39.4h-8.2l.857,1.553L85.518,42.5h8.2Z" transform="translate(-27.834 -39.396)" fill="#4c392b"/>
            <path id="パス_41124" data-name="パス 41124" d="M93.719,42.855h-8.2a.352.352,0,0,1-.305-.175.348.348,0,0,1-.006-.35l.763-1.381-.763-1.382a.356.356,0,0,1,.311-.525h8.2a.356.356,0,0,1,.355.354v3.1a.356.356,0,0,1-.355.355m-7.6-.709h7.247v-2.4H86.118l.568,1.028a.358.358,0,0,1,0,.342Z" transform="translate(-27.834 -39.396)"/>
          </g>
        </g>
        <g id="グループ_14701" data-name="グループ 14701" transform="translate(6.671 5.64)">
          <g id="グループ_14700" data-name="グループ 14700" clip-path="url(#clip-path-2)">
            <rect id="長方形_9440" data-name="長方形 9440" width="30.289" height="1.034" transform="translate(29.966 52.048)" fill="#892e19"/>
            <path id="パス_41125" data-name="パス 41125" d="M58.051,29.677H29.966a.355.355,0,0,1-.354-.354V28.065a.355.355,0,0,1,.354-.354H58.051a.356.356,0,0,1,.355.354v1.258a.356.356,0,0,1-.355.354m-27.73-.709H57.7v-.549H30.321Z" transform="translate(0 0)"/>
            <path id="パス_41126" data-name="パス 41126" d="M91.587,29.677H63.5a.355.355,0,0,1-.354-.354V28.065a.355.355,0,0,1,.354-.354H91.587a.355.355,0,0,1,.355.354v1.258a.355.355,0,0,1-.355.354m-27.729-.709H91.233v-.549H63.858Z" transform="translate(0 0)"/>
            <path id="パス_41127" data-name="パス 41127" d="M29.966,39.963H27.834a.567.567,0,0,1-.567-.568V16.735a.567.567,0,0,1,.567-.567h2.132a.567.567,0,0,1,.567.567V39.4a.567.567,0,0,1-.567.568M28.4,38.828h1V17.3h-1Z" transform="translate(0 0)"/>
            <path id="パス_41128" data-name="パス 41128" d="M93.719,39.963H91.587a.567.567,0,0,1-.567-.568V16.735a.567.567,0,0,1,.567-.567h2.132a.567.567,0,0,1,.567.567V39.4a.567.567,0,0,1-.567.568m-1.564-1.135h1V17.3h-1Z" transform="translate(0 0)"/>
            <path id="パス_41129" data-name="パス 41129" d="M93.719,63.2H91.587a.567.567,0,0,1-.567-.567V42.5a.567.567,0,0,1,.567-.568h2.132a.567.567,0,0,1,.567.568V62.63a.567.567,0,0,1-.567.567m-1.564-1.135h1V43.067h-1Z" transform="translate(0 0)"/>
            <path id="パス_41130" data-name="パス 41130" d="M85.39,73.052H76.24A.585.585,0,0,1,76.015,73a10.96,10.96,0,0,1-2.3-1.353,7.8,7.8,0,0,1-1.5-1.7H49.289c-.3.359-.923,1.111-1.392,1.639a7.662,7.662,0,0,1-1.848,1.391.566.566,0,0,1-.265.067H36.7a.6.6,0,0,1-.2-.035,16.21,16.21,0,0,1-3.594-1.911A8.984,8.984,0,0,1,30.97,68.97H27.341a.567.567,0,0,1-.567-.568V62.63a.567.567,0,0,1,.567-.567H94.213a.567.567,0,0,1,.567.567V68.4a.567.567,0,0,1-.567.568H90.627A5.818,5.818,0,0,1,88.6,71.138c-1.279.781-2.9,1.822-2.9,1.823a.568.568,0,0,1-.307.091m-9.029-1.135h8.863c.422-.271,1.717-1.1,2.78-1.746a4.661,4.661,0,0,0,1.741-1.98.572.572,0,0,1,.526-.356h3.374V63.2H27.909v4.638h3.374a.568.568,0,0,1,.49.282A8.139,8.139,0,0,0,33.6,70.2a14.925,14.925,0,0,0,3.213,1.716h8.828a6.233,6.233,0,0,0,1.413-1.075c.624-.7,1.532-1.812,1.534-1.814a.563.563,0,0,1,.438-.208H72.533a.572.572,0,0,1,.5.3,6.329,6.329,0,0,0,1.411,1.661,9.511,9.511,0,0,0,1.915,1.133" transform="translate(0 0)"/>
            <path id="パス_41131" data-name="パス 41131" d="M29.966,63.2H27.834a.567.567,0,0,1-.567-.567V42.5a.567.567,0,0,1,.567-.568h2.132a.567.567,0,0,1,.567.568V62.63a.567.567,0,0,1-.567.567M28.4,62.062h1V43.067h-1Z" transform="translate(0 0)"/>
            <path id="パス_41132" data-name="パス 41132" d="M95.831,17.3H25.723a.566.566,0,0,1-.567-.567V13.357a.567.567,0,0,1,.567-.567H95.831a.567.567,0,0,1,.568.567v3.378a.567.567,0,0,1-.568.567M26.29,16.168H95.264V13.925H26.29Z" transform="translate(0 0)"/>
            <path id="パス_41133" data-name="パス 41133" d="M93.719,43.067H27.834a.567.567,0,0,1-.567-.567V39.4a.567.567,0,0,1,.567-.567H93.719a.567.567,0,0,1,.567.567v3.1a.567.567,0,0,1-.567.567M28.4,41.932h64.75v-1.97H28.4Z" transform="translate(0 0)"/>
            <path id="パス_41134" data-name="パス 41134" d="M60.255,53.436H29.966a.355.355,0,0,1-.354-.354V52.048a.355.355,0,0,1,.354-.355H60.255a.356.356,0,0,1,.355.355v1.034a.356.356,0,0,1-.355.354m-29.934-.709H59.9V52.4H30.321Z" transform="translate(0 0)"/>
            <path id="パス_41135" data-name="パス 41135" d="M63.5,39.75H58.051A.355.355,0,0,1,57.7,39.4V16.735a.355.355,0,0,1,.354-.354H63.5a.355.355,0,0,1,.355.354V39.4a.355.355,0,0,1-.355.355m-5.1-.709h4.743V17.09H58.406Z" transform="translate(0 0)"/>
            <path id="パス_41136" data-name="パス 41136" d="M63.5,62.984H60.255a.355.355,0,0,1-.354-.354V42.5a.355.355,0,0,1,.354-.355H63.5a.355.355,0,0,1,.355.355V62.63a.355.355,0,0,1-.355.354m-2.893-.709h2.539V42.854H60.61Z" transform="translate(0 0)"/>
            <path id="パス_41137" data-name="パス 41137" d="M77.545,63.2a.567.567,0,0,1-.567-.567V42.5a.567.567,0,1,1,1.134,0V62.636a.567.567,0,0,1-.567.567" transform="translate(0 0)"/>
            <path id="パス_41138" data-name="パス 41138" d="M77.545,62.984H75.327a.355.355,0,0,1-.354-.354V61.435h-8.9V62.63a.355.355,0,0,1-.354.354H63.5a.355.355,0,0,1-.354-.354V42.5a.355.355,0,0,1,.354-.355h2.218a.355.355,0,0,1,.354.355v1.846h8.9V42.5a.355.355,0,0,1,.354-.355h2.218a.355.355,0,0,1,.355.355V62.63a.355.355,0,0,1-.355.354m-1.863-.709h1.509V42.855H75.682V44.7a.355.355,0,0,1-.355.354H65.721a.355.355,0,0,1-.354-.354V42.855H63.858v19.42h1.509V61.081a.355.355,0,0,1,.354-.355h9.606a.355.355,0,0,1,.355.355Zm-.355-2.881H65.721a.355.355,0,0,1-.354-.354V57.026a.355.355,0,0,1,.354-.354h9.606a.355.355,0,0,1,.355.354V59.04a.355.355,0,0,1-.355.354m-9.252-.709h8.9V57.38h-8.9Zm9.252-3.345H65.721a.356.356,0,0,1-.354-.355v-4a.355.355,0,0,1,.354-.354h9.606a.355.355,0,0,1,.355.354v4a.356.356,0,0,1-.355.355m-9.252-.709h8.9V51.343h-8.9Zm9.252-5.33H65.721a.355.355,0,0,1-.354-.354v-2.2a.356.356,0,0,1,.354-.355h9.606a.356.356,0,0,1,.355.355v2.2a.355.355,0,0,1-.355.354m-9.252-.708h8.9V47.1h-8.9Z" transform="translate(0 0)"/>
            <path id="パス_41139" data-name="パス 41139" d="M91.587,62.984H89.369a.355.355,0,0,1-.354-.354V61.435h-8.9V62.63a.355.355,0,0,1-.354.354H77.545a.355.355,0,0,1-.354-.354V42.5a.355.355,0,0,1,.354-.355h2.218a.355.355,0,0,1,.354.355v1.846h8.9V42.5a.355.355,0,0,1,.354-.355h2.218a.355.355,0,0,1,.355.355V62.63a.355.355,0,0,1-.355.354m-1.863-.709h1.509V42.855H89.724V44.7a.355.355,0,0,1-.355.354H79.763a.356.356,0,0,1-.355-.354V42.855H77.9v19.42h1.508V61.081a.356.356,0,0,1,.355-.355h9.606a.355.355,0,0,1,.355.355Zm-.355-2.881H79.763a.356.356,0,0,1-.355-.354V57.026a.356.356,0,0,1,.355-.354h9.606a.355.355,0,0,1,.355.354V59.04a.355.355,0,0,1-.355.354m-9.252-.709h8.9V57.38h-8.9Zm9.252-3.345H79.763a.356.356,0,0,1-.355-.355v-4a.356.356,0,0,1,.355-.354h9.606a.355.355,0,0,1,.355.354v4a.356.356,0,0,1-.355.355m-9.252-.709h8.9V51.343h-8.9Zm9.252-5.33H79.763a.356.356,0,0,1-.355-.354v-2.2a.356.356,0,0,1,.355-.355h9.606a.356.356,0,0,1,.355.355v2.2a.355.355,0,0,1-.355.354m-9.252-.708h8.9V47.1h-8.9Z" transform="translate(0 0)"/>
            <path id="パス_41140" data-name="パス 41140" d="M41.278,76.2c-2.834,0-5.141-1.7-5.141-3.782a.566.566,0,0,1,.566-.568h9.151a.568.568,0,0,1,.568.568c0,2.085-2.309,3.782-5.144,3.782m-3.91-3.215c.4,1.173,2.032,2.08,3.91,2.08s3.507-.907,3.911-2.08Z" transform="translate(0 0)"/>
            <path id="パス_41141" data-name="パス 41141" d="M80.815,76.2c-2.835,0-5.142-1.7-5.142-3.782a.567.567,0,0,1,.567-.568h9.15a.568.568,0,0,1,.568.568c0,2.085-2.308,3.782-5.143,3.782M76.9,72.982c.4,1.173,2.032,2.08,3.911,2.08s3.506-.907,3.911-2.08Z" transform="translate(0 0)"/>
            <g id="グループ_14696" data-name="グループ 14696" transform="translate(56.629 6.065)" opacity="0.5">
              <g id="グループ_14695" data-name="グループ 14695">
                <g id="グループ_14694" data-name="グループ 14694" clip-path="url(#clip-path-11)">
                  <path id="パス_41142" data-name="パス 41142" d="M88.009,6.477l16.5-.412L72.644,82.429l-16.015.223Z" transform="translate(-56.629 -6.066)" fill="#fff"/>
                </g>
              </g>
            </g>
            <g id="グループ_14699" data-name="グループ 14699" transform="translate(40.805 4.591)" opacity="0.5">
              <g id="グループ_14698" data-name="グループ 14698">
                <g id="グループ_14697" data-name="グループ 14697" clip-path="url(#clip-path-12)">
                  <path id="パス_41143" data-name="パス 41143" d="M75.163,4.746l6.277-.154L47.89,84.717l-7.085.1Z" transform="translate(-40.805 -4.592)" fill="#feffff"/>
                </g>
              </g>
            </g>
          </g>
        </g>
      </g>
    </g>
    <g id="グループ_14830" data-name="グループ 14830" transform="translate(-7411.705 6798.271) rotate(-8)">
      <g id="グループ_14716" data-name="グループ 14716" clip-path="url(#clip-path-13)">
        <g transform="matrix(0.99, 0.14, -0.14, 0.99, -98.64, -75.04)" filter="url(#長方形_9444)">
          <rect id="長方形_9444-2" data-name="長方形 9444" width="99.198" height="70.91" transform="translate(108.12 60.59) rotate(-8)" fill="#fff"/>
        </g>
        <rect id="長方形_9445" data-name="長方形 9445" width="83.432" height="55.807" transform="translate(7.978 7.357)" fill="#bbd9f2"/>
        <g id="グループ_14705" data-name="グループ 14705">
          <g id="グループ_14704" data-name="グループ 14704" clip-path="url(#clip-path-14)">
            <path id="パス_41146" data-name="パス 41146" d="M69.183,53a3.648,3.648,0,0,0-.442-2.791c-.019-.031-.044-.055-.063-.085V20.683c.019-.03.044-.054.063-.086a3.645,3.645,0,0,0,.442-2.79.994.994,0,0,1,.15-.763,1.635,1.635,0,0,0-.536-2.257A1.037,1.037,0,0,0,67.5,13.2a1.729,1.729,0,0,0-2.332-.126.912.912,0,0,1-.832.139,3.558,3.558,0,0,0-2.47.208H38.173a3.559,3.559,0,0,0-2.47-.208.914.914,0,0,1-.833-.139,1.728,1.728,0,0,0-2.331.126,1.037,1.037,0,0,0-1.3,1.583,1.653,1.653,0,0,0-.763,1.155,1.635,1.635,0,0,0,.228,1.1.994.994,0,0,1,.15.763,3.645,3.645,0,0,0,.441,2.79c.019.032.044.056.064.086V50.122c-.02.03-.045.054-.064.085A3.648,3.648,0,0,0,30.852,53a.994.994,0,0,1-.15.763,1.635,1.635,0,0,0-.228,1.1,1.653,1.653,0,0,0,.763,1.155,1.037,1.037,0,0,0,1.3,1.582,1.727,1.727,0,0,0,2.331.127.912.912,0,0,1,.833-.139,3.583,3.583,0,0,0,2.736-.343H61.6a3.582,3.582,0,0,0,2.736.343.909.909,0,0,1,.832.139A1.728,1.728,0,0,0,67.5,57.6a1.02,1.02,0,0,0,.373.133,1.036,1.036,0,0,0,.928-1.715,1.635,1.635,0,0,0,.536-2.257.994.994,0,0,1-.15-.763" fill="#6b4e1f"/>
            <rect id="長方形_9446" data-name="長方形 9446" width="25.121" height="32.421" transform="translate(37.457 19.115)" fill="#e6e6e6"/>
            <rect id="長方形_9447" data-name="長方形 9447" width="16.726" height="24.026" transform="translate(41.655 23.313)" fill="#b49e66"/>
            <rect id="長方形_9448" data-name="長方形 9448" width="12.528" height="19.828" transform="translate(43.754 25.412)" fill="#ac870b"/>
          </g>
        </g>
        <g id="グループ_14707" data-name="グループ 14707">
          <g id="グループ_14706" data-name="グループ 14706" clip-path="url(#clip-path-15)">
            <path id="パス_41147" data-name="パス 41147" d="M47.582,41.522c.389,1.415,2.066,2.193,3.658,2.193s3.268-.778,3.657-2.193a21.458,21.458,0,0,1-7.315,0" fill="#fff"/>
            <path id="パス_41148" data-name="パス 41148" d="M54.388,37.741h-6.3a8.482,8.482,0,0,0-.594,3.148,2.368,2.368,0,0,0,.085.634,21.458,21.458,0,0,0,7.315,0,2.409,2.409,0,0,0,.084-.634,8.482,8.482,0,0,0-.594-3.148" fill="#056069"/>
            <path id="パス_41149" data-name="パス 41149" d="M48.616,39.033a4.9,4.9,0,0,0,3.8-.965c1.181-.906,1.928.748,1.928.748a2.564,2.564,0,0,0,2.441,1.157,2.939,2.939,0,0,0-.98-3.325V33.886s-.336-.717-.738-1.633a7.736,7.736,0,0,0,2.874.4,3.2,3.2,0,0,0-2.826-2.939c-2.618-.241-5-3.228-5-3.228s-.442-.643-2.241-.45c0,0-.224,2.152.948,2.827a14.882,14.882,0,0,0-4.69-.579,7.135,7.135,0,0,0,1.674,3.2c1.139.947,2.817,7.549,2.817,7.549" fill="#3b4726"/>
            <path id="パス_41150" data-name="パス 41150" d="M47.674,30.947a1.736,1.736,0,0,1-.795-2.417,2.021,2.021,0,0,1,2.144-1.213s.161-1.381,1.992-1.381,2.666.932,2.73,2.345c0,0,1.687-.048,1.831,1.381.217,2.152-1.638,1.863-1.638,1.863s-.672,1.636-2.088,1.638a3.029,3.029,0,0,1-2.9-1.766s-.319.1-1.277-.45" fill="#fff"/>
            <path id="パス_41151" data-name="パス 41151" d="M51.384,35.492s-.873-.859.313-2.045a2.077,2.077,0,0,1,2.626-.171,1.374,1.374,0,0,1,1.59.192c1,1.116.265,1.7.265,1.7a1.682,1.682,0,0,1,.652,2.079A1.865,1.865,0,0,1,54.9,38.624a1.448,1.448,0,0,1-1.638.771c-1.132-.169-1.06-1.036-1.06-1.036a1.973,1.973,0,0,1-1.125-1.125,2,2,0,0,1,.306-1.742" fill="#a2242d"/>
            <path id="パス_41152" data-name="パス 41152" d="M52.131,29.394a.783.783,0,1,1-.783-.783.784.784,0,0,1,.783.783" fill="#ffc900"/>
            <path id="パス_41153" data-name="パス 41153" d="M55.295,35.606a.668.668,0,1,1-.668-.668.668.668,0,0,1,.668.668" fill="#ffc900"/>
            <path id="パス_41154" data-name="パス 41154" d="M48.469,36s.538,2.53-.45,3.035c0,0-1.307-.554-1.356-1.71,0,0-.242.867-.748.915a1.355,1.355,0,0,1-.674-1.349s.313,1.157-1.325,1.277l.674-3.228Z" fill="#314035"/>
            <path id="パス_41155" data-name="パス 41155" d="M46.012,30.819a2.187,2.187,0,0,1,3.1-.43,1.954,1.954,0,0,1,.488,2.984,2.8,2.8,0,0,1,0,2.915c-1.157,1.806-3.71,1.132-4.024.746,0,0-1.71.367-2.192-.861a2.3,2.3,0,0,1,.145-2.1s-1.47-1.662.013-3.044a1.839,1.839,0,0,1,2.468-.208" fill="#a2242d"/>
            <path id="パス_41156" data-name="パス 41156" d="M46.494,33.049a.668.668,0,1,1-.668-.668.668.668,0,0,1,.668.668" fill="#ffc900"/>
            <path id="パス_41157" data-name="パス 41157" d="M52.936,43.788c0,.452-.76.819-1.7.819s-1.7-.367-1.7-.819.76-.819,1.7-.819,1.7.367,1.7.819" fill="#fff"/>
          </g>
        </g>
        <g id="グループ_14715" data-name="グループ 14715">
          <g id="グループ_14714" data-name="グループ 14714" clip-path="url(#clip-path-14)">
            <path id="パス_41158" data-name="パス 41158" d="M66.259,58.647a2.287,2.287,0,0,1-.329-.024,2.257,2.257,0,0,1-1.1-.489.4.4,0,0,0-.352-.039,4.136,4.136,0,0,1-3.014-.322H38.571a4.136,4.136,0,0,1-3.014.322.4.4,0,0,0-.352.039,2.252,2.252,0,0,1-2.763.078,1.522,1.522,0,0,1-.2.043,1.572,1.572,0,0,1-1.781-1.322,1.539,1.539,0,0,1,.091-.793,2.154,2.154,0,0,1-.3-2.654.509.509,0,0,0,.088-.357,4.2,4.2,0,0,1,.49-3.174v-29.1a4.2,4.2,0,0,1-.49-3.174.511.511,0,0,0-.088-.358,2.153,2.153,0,0,1,.3-2.653,1.539,1.539,0,0,1-.091-.793,1.565,1.565,0,0,1,1.781-1.322,1.521,1.521,0,0,1,.2.043,2.253,2.253,0,0,1,2.763.076.394.394,0,0,0,.352.04,4.093,4.093,0,0,1,2.727.187H61.75a4.087,4.087,0,0,1,2.727-.187.4.4,0,0,0,.352-.039,2.253,2.253,0,0,1,2.765-.077,1.329,1.329,0,0,1,.2-.043,1.563,1.563,0,0,1,1.688,2.115,2.154,2.154,0,0,1,.3,2.653.515.515,0,0,0-.088.357,4.211,4.211,0,0,1-.488,3.175v29.1a4.2,4.2,0,0,1,.488,3.173h0a.51.51,0,0,0,.088.356,2.157,2.157,0,0,1-.3,2.655,1.547,1.547,0,0,1,.091.792,1.573,1.573,0,0,1-1.779,1.323,1.449,1.449,0,0,1-.2-.043,2.261,2.261,0,0,1-1.334.435m-1.633-1.628a1.365,1.365,0,0,1,.873.3,1.2,1.2,0,0,0,.586.26,1.218,1.218,0,0,0,1.033-.347.527.527,0,0,1,.644-.087.531.531,0,0,0,.183.066.51.51,0,0,0,.457-.846.527.527,0,0,1,.113-.793,1.122,1.122,0,0,0,.524-.787,1.107,1.107,0,0,0-.156-.75,1.522,1.522,0,0,1-.211-1.169,3.142,3.142,0,0,0-.381-2.385.741.741,0,0,1-.062-.083.533.533,0,0,1-.079-.277V20.683a.53.53,0,0,1,.083-.283l.066-.09a3.134,3.134,0,0,0,.373-2.373,1.5,1.5,0,0,1,.211-1.168,1.107,1.107,0,0,0,.156-.75,1.122,1.122,0,0,0-.524-.787.528.528,0,0,1-.113-.794.506.506,0,0,0-.075-.749.521.521,0,0,0-.381-.1.529.529,0,0,0-.184.066.525.525,0,0,1-.644-.088,1.2,1.2,0,0,0-1.62-.086,1.435,1.435,0,0,1-1.311.238,3.039,3.039,0,0,0-2.1.18.547.547,0,0,1-.221.049H38.173a.54.54,0,0,1-.221-.049,3.034,3.034,0,0,0-2.1-.18,1.434,1.434,0,0,1-1.313-.239,1.2,1.2,0,0,0-1.618.087.525.525,0,0,1-.644.088.509.509,0,0,0-.565.029.5.5,0,0,0-.075.749.535.535,0,0,1,.127.424.528.528,0,0,1-.241.371,1.108,1.108,0,0,0-.368,1.536,1.506,1.506,0,0,1,.212,1.169,3.14,3.14,0,0,0,.38,2.386.457.457,0,0,1,.053.067.523.523,0,0,1,.089.292V50.122a.531.531,0,0,1-.085.286c-.01.017-.053.072-.065.088a3.127,3.127,0,0,0-.372,2.372,1.524,1.524,0,0,1-.212,1.169,1.107,1.107,0,0,0,.368,1.535.528.528,0,0,1,.241.371.534.534,0,0,1-.127.424.509.509,0,0,0,.457.845.519.519,0,0,0,.183-.066.527.527,0,0,1,.644.087,1.2,1.2,0,0,0,1.618.087,1.443,1.443,0,0,1,1.313-.239,3.081,3.081,0,0,0,2.333-.3.532.532,0,0,1,.258-.068H61.6a.532.532,0,0,1,.258.068,3.079,3.079,0,0,0,2.333.3,1.627,1.627,0,0,1,.439-.062M69.183,53h0Z"/>
            <path id="パス_41159" data-name="パス 41159" d="M62.579,52.065H37.457a.527.527,0,0,1-.527-.528V19.116a.528.528,0,0,1,.527-.528H62.579a.528.528,0,0,1,.527.528V51.537a.527.527,0,0,1-.527.528M37.985,51.009H62.051V19.644H37.985Z"/>
            <path id="パス_41160" data-name="パス 41160" d="M58.381,47.669H41.654a.33.33,0,0,1-.329-.33V23.313a.33.33,0,0,1,.329-.33H58.381a.33.33,0,0,1,.33.33V47.339a.33.33,0,0,1-.33.33m-16.4-.66H58.051V23.642H41.984Z"/>
            <path id="パス_41161" data-name="パス 41161" d="M56.281,45.57H43.754a.33.33,0,0,1-.33-.33V25.413a.33.33,0,0,1,.33-.33H56.281a.33.33,0,0,1,.33.33V45.24a.33.33,0,0,1-.33.33m-12.2-.659H55.952V25.743H44.084Z"/>
            <g id="グループ_14710" data-name="グループ 14710" opacity="0.5">
              <g id="グループ_14709" data-name="グループ 14709">
                <g id="グループ_14708" data-name="グループ 14708" clip-path="url(#clip-path-17)">
                  <path id="パス_41162" data-name="パス 41162" d="M71.685,6.616,84.5,6.4,59.254,65.5l-12.439.068Z" fill="#feffff"/>
                </g>
              </g>
            </g>
            <g id="グループ_14713" data-name="グループ 14713" opacity="0.5">
              <g id="グループ_14712" data-name="グループ 14712">
                <g id="グループ_14711" data-name="グループ 14711" clip-path="url(#clip-path-18)">
                  <path id="パス_41163" data-name="パス 41163" d="M62.748,6.832l4.627-.074L42.152,65.6l-5.222.027Z" fill="#feffff"/>
                </g>
              </g>
            </g>
          </g>
        </g>
      </g>
    </g>
  </g>
</svg>
