<svg xmlns="http://www.w3.org/2000/svg" xmlns:xlink="http://www.w3.org/1999/xlink" width="199.546" height="147.064" viewBox="0 0 199.546 147.064">
  <defs>
    <clipPath id="clip-path">
      <rect id="長方形_9321" data-name="長方形 9321" width="105.921" height="147.065" fill="none"/>
    </clipPath>
    <clipPath id="clip-path-2">
      <path id="パス_40557" data-name="パス 40557" d="M30.424,39.63c-2.358.489-4.821,2.187-4.877,4.675-.057,2.629,2.1,2.787-.887,4.087-2.63,1.147-12.553,3.241-19.139,15.051C.036,73.282.674,85.4,2.077,92.264c3.738,17.261,9.547,29.524,13.91,36.559,0,0,3.087,5.106,4.133,5.16H82.777c1.047-.054,4.133-5.16,4.133-5.16,4.362-7.035,10.172-19.3,13.909-36.559,1.4-6.868,2.042-18.983-3.445-28.821-6.585-11.811-16.508-13.9-19.138-15.051-2.983-1.3-.83-1.458-.888-4.087-.054-2.488-2.517-4.186-4.876-4.675-6.518-1.35-16.638-1.587-21.024-1.587s-14.507.237-21.024,1.587" transform="translate(-1.102 -38.043)" fill="none"/>
    </clipPath>
    <clipPath id="clip-path-5">
      <rect id="長方形_9324" data-name="長方形 9324" width="43.9" height="40.934" fill="none"/>
    </clipPath>
    <clipPath id="clip-path-7">
      <rect id="長方形_9486" data-name="長方形 9486" width="88.757" height="75.416" transform="translate(0 0)" fill="none"/>
    </clipPath>
  </defs>
  <g id="グループ_14938" data-name="グループ 14938" transform="translate(-1016.527 -5205.86)">
    <g id="グループ_14515" data-name="グループ 14515" transform="translate(1016.527 5205.86)">
      <g id="グループ_14504" data-name="グループ 14504">
        <g id="グループ_14503" data-name="グループ 14503" clip-path="url(#clip-path)">
          <path id="パス_40553" data-name="パス 40553" d="M97.374,63.442c-6.586-11.81-16.509-13.9-19.139-15.05-2.982-1.3-.829-1.458-.887-4.088-.054-2.488-2.517-4.185-4.876-4.674-6.518-1.35-16.638-1.587-21.024-1.587s-14.507.237-21.024,1.587c-2.358.489-4.821,2.186-4.877,4.674-.057,2.63,2.1,2.788-.887,4.088-2.63,1.147-12.553,3.241-19.139,15.05C.036,73.282.674,85.4,2.077,92.263c3.738,17.262,9.547,29.526,13.91,36.56,0,0,3.086,5.106,4.133,5.16H82.776c1.047-.054,4.134-5.16,4.134-5.16,4.362-7.034,10.172-19.3,13.909-36.56,1.4-6.867,2.042-18.982-3.445-28.821" transform="translate(0.069 2.367)" fill="#367937"/>
          <path id="パス_40554" data-name="パス 40554" d="M97.948,82.626c-2.711-3.89-6.59,1.818-7.861,3.724s-3.473,6.066-5.76,6.829c-4.067.763-5.339-1.017-9.152-4.576-4.194-3.05-8.166,1.313-11.471,5.126-2.808,3.15-8.164,4.042-12.018,3.763-4.223-.306-8.5-4.353-11.168-9.691-2-3.545-3.77-5.879-7.041-5.927-4.759-.07-6.681,4.41-8.69,8.483-2.335,4.735-3.4,8.943-8.321,8.943-4.55,0-5.914-5.765-8.329-9.2C5.888,84,1.153,84.552,1.153,84.552c-.227-4.252.013-13.324,4.37-21.139,6.585-11.811,16.554-13.8,19.138-15.05s.7-2.608.888-4.089c.478-3.041,3.131-3.631,4.95-4.177A146.317,146.317,0,0,1,51.437,38.53C65.109,38.53,72.8,40.1,72.8,40.1c1.817.546,4.394,1.575,4.873,4.616.191,1.482-1.62,2.4.963,3.65s12.553,3.24,19.139,15.05c4.726,8.475,4.42,17.349,3.969,22.872a10.422,10.422,0,0,1-3.792-3.659" transform="translate(0.068 2.397)" fill="#4a864b"/>
          <path id="パス_40555" data-name="パス 40555" d="M69.945,42.676c0,1.119-9.074,1.453-20.269,1.453s-20.269-.387-20.269-1.453,9.075-1.453,20.269-1.453,20.269.414,20.269,1.453" transform="translate(1.829 2.564)"/>
        </g>
      </g>
      <g id="グループ_14506" data-name="グループ 14506" transform="translate(1.171 40.41)">
        <g id="グループ_14505" data-name="グループ 14505" clip-path="url(#clip-path-2)">
          <path id="パス_40556" data-name="パス 40556" d="M79.783,102.585c.348-6.306-.394-15.64-8.488-26.915A40.331,40.331,0,0,1,83.175,64.319h.013c1.588,0,11.985.175,16.254,4.638a.782.782,0,1,0,1.129-1.081c-4.546-4.751-14.654-5.106-17.092-5.12-1.735-3.691-7.963-10.916-12.768-13.895a15.556,15.556,0,0,0,3-.8.781.781,0,0,0-.632-1.429c-2.1.925-10.362,2.059-20.73,1.9a.747.747,0,0,0-.139-.024l-.539.012-.539-.012a.692.692,0,0,0-.14.024c-10.368.163-18.633-.972-20.729-1.9a.781.781,0,1,0-.632,1.429,15.556,15.556,0,0,0,3,.8c-4.8,2.978-11.033,10.2-12.767,13.895-2.439.014-12.546.369-17.093,5.12A.782.782,0,1,0,3.9,68.956c4.269-4.462,14.667-4.638,16.254-4.638h.013A40.347,40.347,0,0,1,32.053,75.669c-8.116,11.305-8.841,20.658-8.488,26.915-5.966-.684-15.712-.047-20.685,3.583a.781.781,0,1,0,.921,1.262c4.654-3.395,14.307-3.939,19.844-3.259.371,6.349,5.677,15.6,10.935,22.222-10.609.2-22.708-5.659-26.488-11.248a.781.781,0,1,0-1.294.876c4.015,5.936,16.119,11.946,27.212,11.946q1.037,0,2.06-.073a50.6,50.6,0,0,0,13.54,2.229.758.758,0,0,0,.4.129h.016c.565-.012,1.11-.027,1.644-.044.534.017,1.079.032,1.644.044h.016a.758.758,0,0,0,.4-.129,50.6,50.6,0,0,0,13.54-2.229q1.021.072,2.06.073c11.092,0,23.2-6.01,27.213-11.946a.782.782,0,0,0-1.295-.876c-3.78,5.587-15.877,11.443-26.488,11.248,5.272-6.643,10.594-15.922,10.938-22.223,5.537-.679,15.19-.135,19.842,3.26a.781.781,0,1,0,.921-1.262c-4.972-3.629-14.718-4.266-20.684-3.583m-58.4-39.365c1.954-3.934,9.412-12.211,13.707-13.871a.781.781,0,0,0,.113-.072,104.175,104.175,0,0,0,13.749.833c.887,0,1.8-.012,2.727-.031.927.019,1.84.031,2.727.031a104.175,104.175,0,0,0,13.749-.833.791.791,0,0,0,.114.072c4.293,1.66,11.751,9.937,13.706,13.871a42.658,42.658,0,0,0-11.9,11.469c-1.8-.8-7.374-2.837-17.652-3.012a.656.656,0,0,0-.066-.014c-.23,0-.454,0-.68.005s-.449-.005-.68-.005c-.023,0-.042.012-.066.014-10.278.175-15.852,2.214-17.652,3.012a42.658,42.658,0,0,0-11.9-11.469M66.726,126.43a52.309,52.309,0,0,1-30.105,0c-5.536-6.688-11.435-16.659-11.437-23.008-.452-6.107-.075-15.551,8.338-27.123.954-.462,6.666-2.972,18.151-3.069,11.489.1,17.2,2.608,18.151,3.069,8.414,11.573,8.791,21.018,8.336,27.181,0,6.293-5.9,16.263-11.435,22.951" transform="translate(-1.012 -37.513)"/>
        </g>
      </g>
      <g id="グループ_14508" data-name="グループ 14508">
        <g id="グループ_14507" data-name="グループ 14507" clip-path="url(#clip-path)">
          <path id="パス_40558" data-name="パス 40558" d="M82.874,135.224l-62.746,0c-.5-.025-1.669-.084-5.077-5.723C11.58,123.9,5.127,111.643,1,92.581c-.818-4-2.969-17.92,3.567-29.64A31.745,31.745,0,0,1,22.956,47.873c.535-.19,1-.354,1.3-.488A7.174,7.174,0,0,0,25.045,47c-.01-.023-.02-.048-.03-.069a5.615,5.615,0,0,1-.57-2.583c.07-3.171,3.06-5.227,5.81-5.8,7.4-1.533,19.01-1.611,21.262-1.611s13.86.079,21.262,1.611c2.749.569,5.74,2.626,5.809,5.8a5.615,5.615,0,0,1-.57,2.583c-.01.021-.019.046-.03.069a7.175,7.175,0,0,0,.784.387c.307.134.769.3,1.305.488A31.745,31.745,0,0,1,98.467,62.941C105,74.66,102.85,88.579,102.036,92.567c-4.13,19.076-10.582,31.334-14.06,36.944-3.4,5.628-4.572,5.686-5.071,5.712ZM20.41,132.88H82.623a24.7,24.7,0,0,0,3.352-4.594c3.407-5.493,9.714-17.483,13.766-36.2.771-3.774,2.819-16.988-3.323-28a29.169,29.169,0,0,0-17.125-14c-.6-.212-1.076-.381-1.458-.548-1.117-.486-1.869-.942-2.168-1.706a2.3,2.3,0,0,1,.207-1.846,3.365,3.365,0,0,0,.371-1.585c-.04-1.8-2.013-3.153-3.942-3.552-7.178-1.487-18.575-1.563-20.786-1.563s-13.609.075-20.787,1.563c-1.928.4-3.9,1.748-3.941,3.552a3.353,3.353,0,0,0,.371,1.585,2.3,2.3,0,0,1,.206,1.846c-.3.764-1.051,1.219-2.168,1.706-.381.167-.857.336-1.458.548a29.175,29.175,0,0,0-17.125,14C.473,75.1,2.521,88.311,3.295,92.1c4.049,18.705,10.357,30.7,13.756,36.178a24.793,24.793,0,0,0,3.36,4.6" transform="translate(0 2.298)"/>
          <path id="パス_40559" data-name="パス 40559" d="M74.872,107.938C69.264,93.921,53.3,92.757,50.185,92.852c-3.111-.1-19.079,1.069-24.687,15.085-1.686,4.215-2.67,11.071-2.129,18.652.337,4.719,2.776,7.284,7.316,8.823,4.238,1.437,13.646,1.773,19.414,1.778h.17c5.768-.005,15.176-.341,19.414-1.778,4.541-1.539,6.98-4.1,7.316-8.823.542-7.581-.443-14.438-2.129-18.652" transform="translate(1.444 5.776)" fill="#b7ce50"/>
          <path id="パス_40560" data-name="パス 40560" d="M50.317,138.024c-3.537,0-14.9-.146-19.837-1.82-5.083-1.724-7.5-4.659-7.849-9.512-.516-7.2.3-14.3,2.183-19C31.206,91.714,50.08,92.1,50.254,92.113s19-.4,25.393,15.578c1.882,4.7,2.7,11.8,2.183,19-.345,4.853-2.765,7.788-7.848,9.512-4.941,1.674-16.3,1.817-19.665,1.82m-.523-44.347c-5.364,0-18.7,2.545-23.52,14.6-1.8,4.491-2.573,11.334-2.076,18.305.3,4.188,2.329,6.623,6.785,8.133,4.715,1.6,15.86,1.736,19.16,1.74,3.474,0,14.618-.141,19.334-1.74,4.455-1.51,6.484-3.945,6.785-8.133.5-6.971-.277-13.814-2.077-18.305C69.225,95.864,55.281,93.493,50.254,93.683q-.218-.006-.459-.006" transform="translate(1.398 5.73)"/>
          <path id="パス_40561" data-name="パス 40561" d="M86.409,126.082c-.313.535-2.209,3.447-4.432,4.6a39.812,39.812,0,0,0,1.2-9.136c.218-10.284-3.256-17.74-8.4-23.336-7.63-8.3-17.879-9.646-23.565-9.72v0h-.524v0c-5.684.074-15.934,1.416-23.563,9.72-5.141,5.6-8.614,13.051-8.4,23.336a39.844,39.844,0,0,0,1.2,9.136c-2.223-1.149-4.118-4.061-4.43-4.6-.94-1.6-4.752.645-2.707,5.036a11.875,11.875,0,0,0,6.735,6.226,15.464,15.464,0,0,0,7.2.581c2.428-.461,2.428-3.231,1.232-4.656-1.379-1.74-2.483-3.295-2.913-8.4-.629-7.465.115-14.111,4.109-20.071,6.586-9.825,17.1-10.983,21.8-11.006,4.691.022,15.21,1.18,21.793,11.006,3.995,5.96,4.739,12.606,4.111,20.071-.43,5.106-1.534,6.661-2.914,8.4-1.2,1.424-1.2,4.195,1.233,4.656a15.463,15.463,0,0,0,7.2-.581,11.869,11.869,0,0,0,6.733-6.226c2.047-4.391-1.765-6.64-2.7-5.036" transform="translate(0.759 5.504)" fill="#ddd"/>
          <path id="パス_40562" data-name="パス 40562" d="M24.4,139.353a15.927,15.927,0,0,1-5.19-.834,13.038,13.038,0,0,1-7.411-6.836c-1.5-3.217-.4-5.89,1.471-6.868a2.4,2.4,0,0,1,3.309.745,15.494,15.494,0,0,0,1.593,2.15,44.581,44.581,0,0,1-.546-6.073c-.2-9.521,2.728-17.647,8.7-24.154,7.484-8.146,17.338-9.992,24.32-10.1.035,0,.071-.005.107-.005l.27,0,.253,0c.036,0,.072,0,.108.005,6.982.106,16.835,1.952,24.319,10.1,5.977,6.506,8.907,14.633,8.706,24.154a44.751,44.751,0,0,1-.546,6.073,15.463,15.463,0,0,0,1.592-2.15h0a2.4,2.4,0,0,1,3.309-.745c1.865.978,2.969,3.651,1.47,6.868a13.035,13.035,0,0,1-7.411,6.836,16.584,16.584,0,0,1-7.808.626,3.457,3.457,0,0,1-2.739-2.267,4.533,4.533,0,0,1,.834-4.293c1.183-1.5,2.225-2.811,2.641-7.747.7-8.281-.51-14.24-3.915-19.32-6.076-9.066-15.656-10.461-20.827-10.485-5.159.024-14.74,1.419-20.816,10.485-3.4,5.081-4.612,11.04-3.914,19.32.415,4.936,1.456,6.25,2.662,7.773a4.519,4.519,0,0,1,.813,4.267,3.459,3.459,0,0,1-2.744,2.267,14.982,14.982,0,0,1-2.615.208M14.6,126.807a1.2,1.2,0,0,0-.71.5c-.288.375-.861,1.455.039,3.388a10.679,10.679,0,0,0,6.058,5.613,14.4,14.4,0,0,0,6.594.536,1.145,1.145,0,0,0,.974-.751,2.214,2.214,0,0,0-.42-2c-1.594-2.012-2.743-3.823-3.183-9.058-.745-8.847.582-15.269,4.3-20.822,6.678-9.965,17.128-11.5,22.763-11.524,5.646.027,16.1,1.559,22.775,11.524,3.721,5.553,5.049,11.975,4.3,20.822-.441,5.236-1.588,7.047-3.161,9.032a2.229,2.229,0,0,0-.441,2.025,1.144,1.144,0,0,0,.972.751,14.444,14.444,0,0,0,6.6-.536,10.682,10.682,0,0,0,6.058-5.613c.9-1.933.327-3.013.039-3.388a1.2,1.2,0,0,0-.711-.5c-.3.492-2.3,3.657-4.866,4.982a1.173,1.173,0,0,1-1.666-1.362,39.057,39.057,0,0,0,1.157-8.841c.191-9.02-2.455-16.387-8.088-22.518C67.035,91.5,57.8,89.813,51.27,89.726l-.069,0h-.355l-.068,0c-6.526.086-15.765,1.776-22.717,9.342-5.632,6.131-8.278,13.5-8.088,22.518a39.129,39.129,0,0,0,1.157,8.841,1.173,1.173,0,0,1-1.666,1.362c-2.561-1.325-4.565-4.49-4.866-4.982" transform="translate(0.691 5.436)"/>
          <path id="パス_40563" data-name="パス 40563" d="M68.035,117.727a6.186,6.186,0,1,1-6.185-6.185,6.185,6.185,0,0,1,6.185,6.185" transform="translate(3.463 6.939)" fill="#fff"/>
          <path id="パス_40564" data-name="パス 40564" d="M67.007,117.5a2.381,2.381,0,1,1-2.381-2.381,2.382,2.382,0,0,1,2.381,2.381" transform="translate(3.872 7.161)"/>
          <path id="パス_40565" data-name="パス 40565" d="M48.03,125.594a.98.98,0,1,1-.98-.98.98.98,0,0,1,.98.98" transform="translate(2.866 7.752)"/>
          <path id="パス_40566" data-name="パス 40566" d="M51.4,125.594a.98.98,0,1,1-.98-.98.98.98,0,0,1,.98.98" transform="translate(3.075 7.752)"/>
          <path id="パス_40567" data-name="パス 40567" d="M49.964,134.137c.036-2.744-2.8-6.482-8.855-6.482a16.9,16.9,0,0,0-10.93,3.94c-2.7,2.318-2.161,5.535,1.081,5.9a104.753,104.753,0,0,0,11.628.456c2.542-.008,7.032-.581,7.075-3.813" transform="translate(1.77 7.941)" fill="#b7ce50"/>
          <path id="パス_40568" data-name="パス 40568" d="M42.281,138.783a104.463,104.463,0,0,1-11.062-.461,3.682,3.682,0,0,1-3.359-2.464c-.484-1.572.226-3.416,1.852-4.814a17.759,17.759,0,0,1,11.443-4.128,10.6,10.6,0,0,1,7.662,2.812,6.4,6.4,0,0,1,1.979,4.466c-.039,2.857-2.977,4.573-7.859,4.588-.222,0-.439,0-.656,0m-1.125-10.3a16.168,16.168,0,0,0-10.419,3.751,3.21,3.21,0,0,0-1.373,3.158,2.168,2.168,0,0,0,2.031,1.366,110.44,110.44,0,0,0,11.539.45c1.466-.006,6.252-.239,6.293-3.039a4.9,4.9,0,0,0-1.527-3.339,9.048,9.048,0,0,0-6.542-2.347" transform="translate(1.724 7.895)"/>
          <path id="パス_40569" data-name="パス 40569" d="M42.293,139.192a104.467,104.467,0,0,1-11.095-.464,4.106,4.106,0,0,1-3.685-2.734c-.53-1.721.225-3.721,1.97-5.22a18.153,18.153,0,0,1,11.694-4.223,10.976,10.976,0,0,1,7.937,2.928,6.789,6.789,0,0,1,2.089,4.742c-.04,3.1-3.123,4.953-8.243,4.97h-.668m-1.115-10.3a15.778,15.778,0,0,0-10.166,3.657,2.89,2.89,0,0,0-1.258,2.751,1.813,1.813,0,0,0,1.707,1.1,107.071,107.071,0,0,0,11.493.447c.98,0,5.873-.146,5.907-2.657a4.516,4.516,0,0,0-1.415-3.063,8.679,8.679,0,0,0-6.268-2.231" transform="translate(1.701 7.872)"/>
          <path id="パス_40570" data-name="パス 40570" d="M48.558,134.137c-.037-2.744,2.8-6.482,8.855-6.482a16.9,16.9,0,0,1,10.93,3.94c2.7,2.318,2.161,5.535-1.081,5.9a104.754,104.754,0,0,1-11.628.456c-2.542-.008-7.032-.581-7.075-3.813" transform="translate(3.021 7.941)" fill="#b7ce50"/>
          <path id="パス_40571" data-name="パス 40571" d="M56.335,138.783c-.217,0-.434,0-.656,0-4.884-.015-7.82-1.73-7.859-4.588A6.4,6.4,0,0,1,49.8,129.73a10.591,10.591,0,0,1,7.662-2.814A17.745,17.745,0,0,1,68.9,131.047c1.628,1.395,2.337,3.239,1.855,4.811a3.685,3.685,0,0,1-3.361,2.464,104.418,104.418,0,0,1-11.06.461m1.123-10.3a9.057,9.057,0,0,0-6.544,2.347,4.906,4.906,0,0,0-1.523,3.339c.038,2.8,4.827,3.033,6.293,3.039a108.889,108.889,0,0,0,11.537-.45,2.171,2.171,0,0,0,2.033-1.366,3.212,3.212,0,0,0-1.376-3.158,16.168,16.168,0,0,0-10.419-3.751" transform="translate(2.975 7.895)"/>
          <path id="パス_40572" data-name="パス 40572" d="M56.366,139.191H55.7c-5.12-.016-8.2-1.874-8.244-4.97a6.794,6.794,0,0,1,2.09-4.741,10.976,10.976,0,0,1,7.937-2.928,18.153,18.153,0,0,1,11.694,4.223c1.745,1.5,2.5,3.5,1.97,5.22a4.106,4.106,0,0,1-3.685,2.734,104.529,104.529,0,0,1-11.095.463m-6.568-5c.034,2.511,4.927,2.654,5.907,2.657A106.829,106.829,0,0,0,67.2,136.4a1.813,1.813,0,0,0,1.707-1.1,2.89,2.89,0,0,0-1.258-2.751A15.778,15.778,0,0,0,57.481,128.9a8.679,8.679,0,0,0-6.268,2.231,4.511,4.511,0,0,0-1.415,3.063" transform="translate(2.952 7.872)"/>
          <path id="パス_40573" data-name="パス 40573" d="M45.478,116.891A12.161,12.161,0,1,1,33.317,104.73a12.161,12.161,0,0,1,12.161,12.161" transform="translate(1.316 6.515)" fill="#fff"/>
          <path id="パス_40574" data-name="パス 40574" d="M44.04,116.48a5.135,5.135,0,1,1-5.135-5.135,5.134,5.134,0,0,1,5.135,5.135" transform="translate(2.101 6.926)"/>
          <path id="パス_40575" data-name="パス 40575" d="M2.909,138.817a1.172,1.172,0,0,1-1.041-1.71c.772-1.493,3.234-7.157,2.507-17.321a4.347,4.347,0,0,1,1.343-3.8c1.912-1.674,5.007-1.093,5.355-1.022a1.172,1.172,0,0,1-.472,2.3c-.59-.118-2.464-.281-3.342.492-.158.139-.639.563-.546,1.86.771,10.776-1.918,16.936-2.762,18.566a1.171,1.171,0,0,1-1.042.634" transform="translate(0.108 7.142)"/>
          <path id="パス_40576" data-name="パス 40576" d="M12.291,113.009a3.2,3.2,0,0,0,0,6.406H22.7v-6.406Z" transform="translate(0.565 7.03)" fill="#d2a700"/>
          <path id="パス_40577" data-name="パス 40577" d="M23.937,120.655H12.359a4.375,4.375,0,1,1,0-8.75H23.937Zm-11.578-6.406a2.031,2.031,0,1,0,0,4.062h9.234v-4.062Z" transform="translate(0.497 6.961)"/>
          <path id="パス_40578" data-name="パス 40578" d="M33.64,100.926a16.2,16.2,0,1,0,16.2,16.2,16.22,16.22,0,0,0-16.2-16.2m0,27.317a11.115,11.115,0,1,1,11.115-11.115A11.127,11.127,0,0,1,33.64,128.243" transform="translate(1.085 6.278)" fill="#d2a700"/>
          <path id="パス_40579" data-name="パス 40579" d="M33.708,134.57A17.373,17.373,0,1,1,51.082,117.2,17.393,17.393,0,0,1,33.708,134.57m0-32.4A15.029,15.029,0,1,0,48.738,117.2a15.046,15.046,0,0,0-15.029-15.029m0,27.317A12.288,12.288,0,1,1,46,117.2a12.3,12.3,0,0,1-12.288,12.288m0-22.231a9.943,9.943,0,1,0,9.943,9.943,9.954,9.954,0,0,0-9.943-9.943" transform="translate(1.016 6.21)"/>
        </g>
      </g>
      <g id="グループ_14510" data-name="グループ 14510">
        <g id="グループ_14509" data-name="グループ 14509" clip-path="url(#clip-path)">
          <path id="パス_40580" data-name="パス 40580" d="M9.854,56.6a1.61,1.61,0,0,1-.634-3.092,1.064,1.064,0,0,0,.494-1.514A2.359,2.359,0,0,1,12.7,48.64a1.06,1.06,0,0,0,.426.089,1.06,1.06,0,0,0,1-.7A3.273,3.273,0,0,1,19.2,46.546a1.051,1.051,0,0,0,.648.221,1.068,1.068,0,0,0,.721-.281,2.7,2.7,0,0,1,1.487-.7,2.909,2.909,0,0,1,.356-.022,2.721,2.721,0,0,1,2.69,2.368,2.672,2.672,0,0,1-.226,1.463,1.057,1.057,0,0,0-.014.844,1.711,1.711,0,0,1,.122.414A1.6,1.6,0,0,1,23.4,52.67a1.637,1.637,0,0,1-.6-.119,1.074,1.074,0,0,0-.386-.072,1.063,1.063,0,0,0-1.053.92A1.7,1.7,0,0,1,18.615,54.5a1.062,1.062,0,0,0-.661-.23,1.017,1.017,0,0,0-.258.032,1.061,1.061,0,0,0-.717.609,2.683,2.683,0,0,1-2.132,1.624,2.587,2.587,0,0,1-.346.023,2.714,2.714,0,0,1-1.822-.718,1.062,1.062,0,0,0-.713-.275.9.9,0,0,0-.091,0,1.06,1.06,0,0,0-.746.4,1.606,1.606,0,0,1-1.064.609,1.8,1.8,0,0,1-.211.014" transform="translate(0.513 2.847)" fill="#6d6d6d"/>
          <path id="パス_40581" data-name="パス 40581" d="M22.475,46.883a1.657,1.657,0,0,1,1.637,1.442,1.621,1.621,0,0,1-.142.887,2.124,2.124,0,0,0-.024,1.693.763.763,0,0,1,.048.138.564.564,0,0,1-.529.626.616.616,0,0,1-.218-.046,2.1,2.1,0,0,0-.771-.146,2.125,2.125,0,0,0-2.1,1.84.644.644,0,0,1-.547.557.744.744,0,0,1-.085.005.635.635,0,0,1-.4-.144,2.127,2.127,0,0,0-1.325-.462,2.1,2.1,0,0,0-.516.064,2.122,2.122,0,0,0-1.433,1.217,1.64,1.64,0,0,1-1.295.994,1.728,1.728,0,0,1-.208.014,1.651,1.651,0,0,1-1.107-.443,2.127,2.127,0,0,0-1.428-.551c-.061,0-.121,0-.181.008a2.125,2.125,0,0,0-1.493.808.545.545,0,0,1-.364.209.583.583,0,0,1-.074.005.555.555,0,0,1-.548-.484.548.548,0,0,1,.336-.571,2.124,2.124,0,0,0,.987-3.027,1.3,1.3,0,0,1,.235-1.608,1.289,1.289,0,0,1,.878-.344,1.329,1.329,0,0,1,.528.11,2.125,2.125,0,0,0,2.848-1.214,2.218,2.218,0,0,1,1.789-1.454,2.26,2.26,0,0,1,.292-.019,2.2,2.2,0,0,1,1.353.463,2.126,2.126,0,0,0,2.739-.124,1.644,1.644,0,0,1,.9-.429,1.873,1.873,0,0,1,.218-.014m0-2.124a3.86,3.86,0,0,0-.492.032,3.75,3.75,0,0,0-2.072.976,4.342,4.342,0,0,0-2.65-.9,4.27,4.27,0,0,0-.566.037,4.334,4.334,0,0,0-3.51,2.829,3.419,3.419,0,0,0-4.324,4.865,2.673,2.673,0,0,0,1.056,5.13,2.766,2.766,0,0,0,.348-.022,2.671,2.671,0,0,0,1.764-1.009,3.776,3.776,0,0,0,2.534.994,3.714,3.714,0,0,0,.482-.032,3.766,3.766,0,0,0,2.97-2.257,2.757,2.757,0,0,0,4.459-1.8,2.713,2.713,0,0,0,.989.191,2.571,2.571,0,0,0,.323-.02,2.681,2.681,0,0,0,2.312-3,2.739,2.739,0,0,0-.193-.682,3.762,3.762,0,0,0-3.431-5.329" transform="translate(0.45 2.784)" fill="#231815"/>
          <path id="パス_40582" data-name="パス 40582" d="M100.566,60.873a3.256,3.256,0,0,0-2.361-3.5,3.732,3.732,0,0,0-1.331-3.605,3.493,3.493,0,0,0-1.427-.647,2.479,2.479,0,0,0-.74-.951,2.7,2.7,0,0,0-3.058-.082,3.626,3.626,0,0,0-2.315-.425,3.6,3.6,0,0,0-1.36-2.462,3.541,3.541,0,0,0-2.208-.719,4.165,4.165,0,0,0-1.6-3,4.324,4.324,0,0,0-4.643-.291,3.183,3.183,0,0,0-3.081-2.173,4,4,0,0,0-3.7,2.9,2.922,2.922,0,0,0-3.274,1.056,2.834,2.834,0,0,0,.335,3.984,2.566,2.566,0,0,0,2.016.474A3.648,3.648,0,0,0,73.2,54.368a3.734,3.734,0,0,0,3.826.355,2.656,2.656,0,0,0,1.014,1.958,2.835,2.835,0,0,0,3.5-.167,2.475,2.475,0,0,0,.79,1.077,2.761,2.761,0,0,0,3.5-.242,3.519,3.519,0,0,0,1.152,1.611,3.681,3.681,0,0,0,3.419.513,2.833,2.833,0,0,0,.749,3.414,2.742,2.742,0,0,0,2.855.236,3.165,3.165,0,0,0,2.708,1.435,4.02,4.02,0,0,0,3.851-3.685" transform="translate(4.281 2.676)" fill="#6d6d6d"/>
          <path id="パス_40583" data-name="パス 40583" d="M100.566,60.873a3.256,3.256,0,0,0-2.361-3.5,3.732,3.732,0,0,0-1.331-3.605,3.493,3.493,0,0,0-1.427-.647,2.479,2.479,0,0,0-.74-.951,2.7,2.7,0,0,0-3.058-.082,3.626,3.626,0,0,0-2.315-.425,3.6,3.6,0,0,0-1.36-2.462,3.541,3.541,0,0,0-2.208-.719,4.165,4.165,0,0,0-1.6-3,4.324,4.324,0,0,0-4.643-.291,3.183,3.183,0,0,0-3.081-2.173,4,4,0,0,0-3.7,2.9,2.922,2.922,0,0,0-3.274,1.056,2.834,2.834,0,0,0,.335,3.984,2.566,2.566,0,0,0,2.016.474A3.648,3.648,0,0,0,73.2,54.368a3.734,3.734,0,0,0,3.826.355,2.656,2.656,0,0,0,1.014,1.958,2.835,2.835,0,0,0,3.5-.167,2.475,2.475,0,0,0,.79,1.077,2.761,2.761,0,0,0,3.5-.242,3.519,3.519,0,0,0,1.152,1.611,3.681,3.681,0,0,0,3.419.513,2.833,2.833,0,0,0,.749,3.414,2.742,2.742,0,0,0,2.855.236,3.165,3.165,0,0,0,2.708,1.435A4.02,4.02,0,0,0,100.566,60.873Z" transform="translate(4.281 2.676)" fill="none" stroke="#231815" stroke-linecap="round" stroke-linejoin="round" stroke-width="2"/>
          <path id="パス_40584" data-name="パス 40584" d="M69.339,3.5c-5.892-1.676-11.3-.684-12.084,2.216a2.665,2.665,0,0,0-.079.492l-.041-.01L48.582,44.317l16.088.29,13.66-32.2a2.767,2.767,0,0,0,.263-.622c.781-2.9-3.363-6.61-9.255-8.286" transform="translate(3.022 0.167)" fill="#7e7f7f"/>
          <path id="パス_40585" data-name="パス 40585" d="M65.349,45.6l-17.856-.323L56.506,5.111l.052.014a4.432,4.432,0,0,1,2.013-2.168c2.5-1.417,6.755-1.534,11.089-.3,6.477,1.842,10.825,5.981,9.9,9.422a3.624,3.624,0,0,1-.352.836Zm-15.542-2.14,14.32.258L77.541,12.1a2.413,2.413,0,0,0,.223-.5c.557-2.065-2.844-5.509-8.611-7.15-3.818-1.086-7.61-1.032-9.666.131A2.441,2.441,0,0,0,58.22,6.008a1.874,1.874,0,0,0-.051.327l-.089,1.1L57.9,7.386Z" transform="translate(2.954 0.112)"/>
          <path id="パス_40586" data-name="パス 40586" d="M56.858,6.452c.482,4.566,9.71,8.091,16.242,6.841,7.57-1.449-2.659-9.381-9.783-7.882-6.006,1.264.088,3.956,2.278,4.566,2.3.641,5.563,1.939,6.353.753.646-.969-5.007-3.087-5.75-3.087" transform="translate(3.537 0.325)" fill="#7e7f7f"/>
          <path id="パス_40587" data-name="パス 40587" d="M70.271,14.282a19.7,19.7,0,0,1-11.158-3.4,6.451,6.451,0,0,1-2.9-4.315.691.691,0,1,1,1.373-.144,5.151,5.151,0,0,0,2.35,3.35A18.46,18.46,0,0,0,73.01,12.655c1.165-.223,1.9-.616,2.066-1.109.148-.434-.122-1.086-.741-1.785C72.244,7.4,67.288,5.334,63.5,6.127c-1.858.391-2.025.822-2.026.826-.011.493,2.179,1.8,4.348,2.4.4.113.838.245,1.283.382,1.13.346,3.34,1.021,4.093.795a16.689,16.689,0,0,0-4.972-2.155.706.706,0,0,1-.659-.713.675.675,0,0,1,.671-.667c.813,0,5.632,1.737,6.353,3.084a1.025,1.025,0,0,1-.029,1.077c-.938,1.406-3.439.641-5.861-.1-.434-.133-.857-.262-1.251-.373-.054-.014-5.427-1.573-5.356-3.776.042-1.329,1.8-1.852,3.121-2.13,4.305-.915,9.763,1.372,12.153,4.069,1.246,1.405,1.24,2.487,1.015,3.145-.344,1.011-1.393,1.691-3.114,2.02a16.05,16.05,0,0,1-3,.27" transform="translate(3.497 0.284)"/>
          <path id="パス_40588" data-name="パス 40588" d="M43.143,11.212c5.377-1.38,10.314-.563,11.027,1.824a2.114,2.114,0,0,1,.072.4l.037-.008,7.805,31.373L47.4,45.044l-12.465-26.5a2.133,2.133,0,0,1-.241-.513c-.713-2.386,3.069-5.438,8.446-6.818" transform="translate(2.153 0.656)" fill="#a8a9a9"/>
          <path id="パス_40589" data-name="パス 40589" d="M46.872,46.038,34.151,18.994a2.581,2.581,0,0,1-.29-.641,3.439,3.439,0,0,1,.4-2.71c1.243-2.2,4.577-4.218,8.7-5.276C48.711,8.9,53.711,9.775,54.951,12.4l.029-.005.072.247c.023.062.044.122.063.186s.034.127.049.19l.071.247,8.088,32.507Zm1.335-34.5a19.44,19.44,0,0,0-4.779.635c-4.092,1.048-6.739,2.96-7.547,4.389a1.623,1.623,0,0,0-.239,1.263,1.209,1.209,0,0,0,.14.289l12.26,26.051,12.911-.21-7.3-29.358-.147.033-.133-1.044a1.137,1.137,0,0,0-.038-.224c-.323-1.082-2.332-1.823-5.125-1.823" transform="translate(2.099 0.601)"/>
          <path id="パス_40590" data-name="パス 40590" d="M53.7,13.559c-.4,3.537-8.114,6.267-13.573,5.3-6.328-1.122,2.221-7.267,8.175-6.1,5.019.979-.074,3.064-1.9,3.537-1.923.5-4.649,1.5-5.31.583-.54-.75,4.185-2.391,4.805-2.391" transform="translate(2.358 0.784)" fill="#a8a9a9"/>
          <path id="パス_40591" data-name="パス 40591" d="M42.548,19.785a14.329,14.329,0,0,1-2.5-.208c-1.489-.263-2.4-.826-2.7-1.67a2.371,2.371,0,0,1,.7-2.4c1.89-2.2,6.761-4.112,10.428-3.4,1.146.223,2.675.654,2.71,1.8.056,1.861-4.383,3.03-4.572,3.079-.33.086-.684.186-1.047.288-2.145.61-4.167,1.182-4.994.032a.926.926,0,0,1-.061-.983c.6-1.18,4.829-2.5,5.425-2.5a.69.69,0,1,1,0,1.381,16.188,16.188,0,0,0-3.7,1.4,17.283,17.283,0,0,0,2.952-.651c.375-.106.739-.209,1.079-.3a8.683,8.683,0,0,0,3.5-1.671,4,4,0,0,0-1.556-.519,11.251,11.251,0,0,0-9.118,2.94c-.359.419-.524.8-.443,1.034.044.121.29.534,1.638.773a16.2,16.2,0,0,0,11.121-2.4,3.646,3.646,0,0,0,1.646-2.3.7.7,0,0,1,.763-.609.69.69,0,0,1,.609.764,4.931,4.931,0,0,1-2.192,3.248,17.244,17.244,0,0,1-9.687,2.861" transform="translate(2.317 0.744)"/>
        </g>
      </g>
      <g id="グループ_14512" data-name="グループ 14512" transform="translate(24.626 4.365)">
        <g id="グループ_14511" data-name="グループ 14511" clip-path="url(#clip-path-5)">
          <path id="パス_40592" data-name="パス 40592" d="M46.219,74.048c1.046,1.068,4.521,1.772,7.763.383s5.127-4.391,5.076-5.885a1,1,0,0,0-.007-.16,1.371,1.371,0,0,0-.041-.157c-.007-.021-.008-.046-.018-.067l-.006-.014c-.007-.022-.011-.047-.019-.069s-.025-.04-.036-.062L38.562,20.482c1,2.323-12.008,7.894-13,5.572L45.925,73.589c.008.023.011.047.02.069s.025.04.036.062l.005.014c.01.022.027.039.037.059a1.433,1.433,0,0,0,.085.139,1.029,1.029,0,0,0,.11.116" transform="translate(-23.036 -3.09)" fill="#5a863e"/>
          <path id="パス_40593" data-name="パス 40593" d="M46.457,74.882a2.9,2.9,0,0,1-.569-.433,1.528,1.528,0,0,1-.16-.171,1.5,1.5,0,0,1-.1-.161,1,1,0,0,1-.085-.152.926.926,0,0,1-.079-.189L25.114,26.291v0a.518.518,0,1,1,.952-.407c.045.1.247.186.54.221,2.569.307,9.751-2.77,11.3-4.842.177-.236.257-.439.212-.543h0a.518.518,0,1,1,.952-.408L59.436,67.845a.659.659,0,0,1,.073.178c.008.022.024.079.03.1a1.254,1.254,0,0,1,.067.46c.056,1.612-1.83,4.827-5.39,6.352a9.169,9.169,0,0,1-7.758-.055M26.6,27.143,46.431,73.418a.832.832,0,0,1,.036.114l.083.118c.005,0,.064.063.07.067.8.826,3.988,1.641,7.189.27s4.8-4.238,4.762-5.39l-.015-.146c0-.014-.028-.1-.031-.116L38.657,21.978c-1.872,2.32-9.082,5.409-12.052,5.164" transform="translate(-23.067 -3.121)" fill="#040000"/>
          <path id="パス_40594" data-name="パス 40594" d="M33.023,25.56c-3.6,1.54-6.978,1.7-7.554.351s1.869-3.688,5.465-5.228,6.978-1.7,7.554-.351-1.869,3.688-5.465,5.228" transform="translate(-23.047 -3.157)" fill="#a48b65"/>
          <path id="パス_40595" data-name="パス 40595" d="M25.688,26.989a1.738,1.738,0,0,1-.731-.809c-.838-1.96,2.272-4.5,5.778-6.009a15.356,15.356,0,0,1,5.116-1.3c1.692-.079,2.836.373,3.22,1.266s-.079,2.033-1.3,3.2a15.384,15.384,0,0,1-4.473,2.8c-2.812,1.2-6.074,1.765-7.605.849m12.031-6.656a3.525,3.525,0,0,0-1.812-.281,14.167,14.167,0,0,0-4.7,1.211c-3.641,1.56-5.485,3.677-5.154,4.449s3.136.9,6.775-.664a14.137,14.137,0,0,0,4.12-2.569c.792-.756,1.2-1.493,1.032-1.877a.6.6,0,0,0-.259-.268" transform="translate(-23.082 -3.192)"/>
          <path id="パス_40596" data-name="パス 40596" d="M54.132,73.849l-20.779-48.5,1.623-.9L55.65,72.8Z" transform="translate(-22.551 -2.844)" fill="#a48b65"/>
          <path id="パス_40597" data-name="パス 40597" d="M53.863,74.392a.6.6,0,0,1-.241-.275l-20.78-48.5a.593.593,0,0,1,.258-.753l1.624-.9a.593.593,0,0,1,.48-.042.6.6,0,0,1,.354.328L56.232,72.6a.592.592,0,0,1-.208.721l-1.518,1.048a.59.59,0,0,1-.5.082.549.549,0,0,1-.14-.061M34.145,25.647,54.427,72.982l.522-.36-20.224-47.3Z" transform="translate(-22.586 -2.878)"/>
          <path id="パス_40598" data-name="パス 40598" d="M37.79,54.465l-3.915-9.137c.788.561,4.435.757,7.756-.7,3.068-1.344,4.924-3.641,5.089-4.805l3.915,9.138c.385.9-1.844,3.875-4.907,5.229-3.317,1.468-7.521,1.246-7.938.274" transform="translate(-22.519 -1.887)" fill="#a48b65"/>
          <path id="パス_40599" data-name="パス 40599" d="M37.845,55.337a1.33,1.33,0,0,1-.567-.6L33.364,45.6a.6.6,0,0,1,.174-.7.6.6,0,0,1,.717-.021c.461.368,3.879.685,7.173-.757,3.07-1.345,4.624-3.529,4.739-4.345a.595.595,0,0,1,1.134-.151l3.914,9.138c.624,1.453-2.153,4.654-5.212,6.006-2.815,1.247-6.236,1.356-7.792.746a2.488,2.488,0,0,1-.365-.177m.52-1.085c.428.527,4.072.8,7.157-.568,2.934-1.3,4.7-3.927,4.6-4.471l-3.371-7.867A11.4,11.4,0,0,1,41.9,45.209a13.744,13.744,0,0,1-6.95,1.082Zm0,.013h0Z" transform="translate(-22.554 -1.922)"/>
          <path id="パス_40600" data-name="パス 40600" d="M34.525,21.6c-.007-.016-.024-.027-.033-.042l.013-.005-2.639-6.157-5.7,2.443L28.8,23.995l.013-.005c.005.017,0,.036.007.053.258.6,1.744.544,3.318-.131s2.641-1.71,2.383-2.312" transform="translate(-22.998 -3.407)" fill="#7f4f21"/>
          <path id="パス_40601" data-name="パス 40601" d="M28.777,24.833a1.106,1.106,0,0,1-.463-.523l-.007-.017-.014-.031-2.637-6.157a.6.6,0,0,1,.312-.781l5.7-2.441a.593.593,0,0,1,.78.311l2.637,6.157.008.02a.16.16,0,0,0,.012.023v0c.48,1.124-1.06,2.391-2.695,3.091-1.3.559-2.827.825-3.635.342m.56-1.148a.5.5,0,0,1,.076.147l.005.017a4.072,4.072,0,0,0,2.525-.449A3.959,3.959,0,0,0,34,21.862a.66.66,0,0,1-.055-.157L31.59,16.21l-4.61,1.974Z" transform="translate(-23.033 -3.442)"/>
          <path id="パス_40602" data-name="パス 40602" d="M29.488,17.787c-1.588.68-3.084.744-3.342.141s.819-1.642,2.407-2.323,3.084-.742,3.342-.14-.819,1.642-2.407,2.322" transform="translate(-23.002 -3.428)" fill="#7f4f21"/>
          <path id="パス_40603" data-name="パス 40603" d="M26.1,18.716a1.117,1.117,0,0,1-.467-.52c-.482-1.124,1.072-2.4,2.719-3.1s3.637-.949,4.122.172-1.073,2.4-2.72,3.1a7.03,7.03,0,0,1-2.378.6,2.267,2.267,0,0,1-1.276-.25m5.273-3.026a4.624,4.624,0,0,0-2.552.5c-1.456.624-2.073,1.377-2.086,1.586a4.635,4.635,0,0,0,2.552-.5c1.456-.625,2.073-1.377,2.086-1.586m-1.852,2.132.008.005Z" transform="translate(-23.037 -3.463)"/>
          <path id="パス_40604" data-name="パス 40604" d="M48.894,50.871a1.236,1.236,0,0,1-.428-.432c-.391-.754-2.307-4.349-4.289-5.847a7.684,7.684,0,0,0-.678-.46,7.574,7.574,0,0,0-2.082-.814c-.2-.056-.41-.112-.621-.175-.191-.058-.378-.108-.566-.158a9.164,9.164,0,0,1-1.907-.678c-.22-.112-.416-.216-.592-.321A2.539,2.539,0,0,1,36.6,40.82a2.123,2.123,0,0,1-.045-1.635c.433-1.088,1.977-2.046,4.9-1.157A13.762,13.762,0,0,1,44.4,39.362,10.862,10.862,0,0,1,47.3,41.782c2.152,2.684,3.429,7.741,3.438,7.788a1.233,1.233,0,0,1-1.843,1.3M38.779,39.929a1.083,1.083,0,0,0,.157.113c.038.022.08.045.125.067a13.913,13.913,0,0,0,2.4.9A11.005,11.005,0,0,1,44.04,42.14a17.577,17.577,0,0,1,1.844,1.29,6.264,6.264,0,0,1,.533.488,3.852,3.852,0,0,0-.641-.84,15.259,15.259,0,0,0-2.136-1.529,14.379,14.379,0,0,0-3.083-1.414,3.224,3.224,0,0,0-1.779-.206" transform="translate(-22.361 -2.021)" fill="#a48b65"/>
          <path id="パス_40605" data-name="パス 40605" d="M44.163,39.849a10.372,10.372,0,0,1,2.752,2.3c2.018,2.517,3.3,7.41,3.331,7.561a.7.7,0,0,1-1.293.494c-.015-.024-2.155-4.285-4.426-6a8.428,8.428,0,0,0-.725-.491,10.626,10.626,0,0,0-2.822-1.043,12.4,12.4,0,0,1-2.389-.8c-.207-.1-.392-.2-.557-.3a2.042,2.042,0,0,1-.919-.919,1.6,1.6,0,0,1-.04-1.227c.351-.881,1.675-1.63,4.253-.847a13.115,13.115,0,0,1,2.835,1.281m-5.469.679c.049.03.1.058.16.088a14.475,14.475,0,0,0,2.489.932A10.438,10.438,0,0,1,43.8,42.626a16.9,16.9,0,0,1,1.789,1.253,36.694,36.694,0,0,1,2.865,3.256,13.038,13.038,0,0,0-2.3-4.427,15.762,15.762,0,0,0-2.212-1.584,14.982,14.982,0,0,0-3.2-1.467c-1.878-.571-2.409-.117-2.489.084-.05.119-.135.444.44.787m6.015-1.591a14.381,14.381,0,0,0-3.072-1.385c-3.267-.993-5.032.171-5.549,1.47a2.649,2.649,0,0,0,.051,2.038,3.084,3.084,0,0,0,1.35,1.412c.185.112.393.223.626.339a9.667,9.667,0,0,0,2,.717c.184.049.368.1.554.154.217.065.426.122.633.18a7.047,7.047,0,0,1,1.951.757,7.422,7.422,0,0,1,.63.427A18.957,18.957,0,0,1,48,50.664c.013.025.039.074.054.1A1.764,1.764,0,0,0,51.289,49.5c-.01-.047-1.312-5.232-3.545-8.016a11.41,11.41,0,0,0-3.035-2.545" transform="translate(-22.392 -2.052)"/>
          <path id="パス_40606" data-name="パス 40606" d="M45.015,57.186a1.057,1.057,0,0,1-.2-1.482c.751-.983,1.282-3.858,1.441-5.441a1.058,1.058,0,1,1,2.1.217c-.048.476-.51,4.733-1.865,6.507a1.055,1.055,0,0,1-1.382.267c-.017-.011-.084-.055-.1-.068" transform="translate(-21.852 -1.297)" fill="#a48b65"/>
          <path id="パス_40607" data-name="パス 40607" d="M47.615,49.95a.521.521,0,0,1,.252.5c-.018.185-.468,4.553-1.759,6.243a.529.529,0,0,1-.689.133c-.016-.011-.033-.021-.049-.034a.527.527,0,0,1-.1-.738c.921-1.206,1.43-4.529,1.549-5.708a.527.527,0,0,1,.576-.472.549.549,0,0,1,.22.072m.545-.911a1.589,1.589,0,0,0-2.4,1.2c-.159,1.589-.695,4.33-1.335,5.17a1.589,1.589,0,0,0,.3,2.227c.05.037.1.07.15.1a1.589,1.589,0,0,0,2.078-.4c1.417-1.856,1.892-5.976,1.973-6.783a1.584,1.584,0,0,0-.764-1.521" transform="translate(-21.883 -1.328)"/>
          <path id="パス_40608" data-name="パス 40608" d="M51.606,59.9a1.173,1.173,0,0,1-.464-.545l-10.2-23.793a.985.985,0,0,1,.424-1.333.869.869,0,0,1,.795.068,1.168,1.168,0,0,1,.465.545L52.824,58.636a.985.985,0,0,1-.424,1.333.872.872,0,0,1-.795-.068" transform="translate(-22.085 -2.239)" fill="#a48b65"/>
          <path id="パス_40609" data-name="パス 40609" d="M41.924,34.784a.638.638,0,0,1,.249.3l10.2,23.8a.472.472,0,0,1-.146.634.341.341,0,0,1-.312-.035.626.626,0,0,1-.249-.3l-10.2-23.8a.472.472,0,0,1,.147-.634.345.345,0,0,1,.312.035m.545-.911a1.393,1.393,0,0,0-1.276-.1,1.505,1.505,0,0,0-.7,2.029l10.2,23.8a1.7,1.7,0,0,0,.68.79,1.391,1.391,0,0,0,1.275.1,1.505,1.505,0,0,0,.7-2.029l-10.2-23.8a1.7,1.7,0,0,0-.68-.79" transform="translate(-22.116 -2.271)"/>
          <path id="パス_40610" data-name="パス 40610" d="M35.428,52.039a2.556,2.556,0,0,1-.819-1.507A.912.912,0,0,1,34.8,49.8a.627.627,0,0,1,.807-.141,1.1,1.1,0,0,1,.317.326,1.19,1.19,0,0,0,.243.274,11.079,11.079,0,0,0,7.079-.788c2.972-1.3,4.452-2.939,4.553-3.687l.014-.127a1.246,1.246,0,0,1,.362-.924.69.69,0,0,1,.531-.137.974.974,0,0,1,.268.1,2.03,2.03,0,0,1,.705,1.615c-.234,1.734-2.328,3.623-5.6,5.057-3.38,1.482-7.133,1.589-8.518.761-.046-.028-.09-.056-.132-.086" transform="translate(-22.474 -1.591)" fill="#a48b65"/>
          <path id="パス_40611" data-name="パス 40611" d="M48.735,45.18a1.6,1.6,0,0,1,.451,1.091c-.2,1.506-2.144,3.262-5.29,4.64-3.285,1.44-6.852,1.5-8.031.792-.034-.02-.065-.041-.095-.063-.3-.218-.79-1.167-.536-1.456.05-.055.091-.062.135-.036.117.07.242.373.523.575l.039.025c.717.429,4.2.715,7.563-.757,2.951-1.294,4.723-3.047,4.865-4.1.037-.274.034-.775.3-.736a.2.2,0,0,1,.071.027m.545-.911a1.246,1.246,0,0,0-.462-.166,1.218,1.218,0,0,0-.937.245,1.742,1.742,0,0,0-.563,1.29l-.012.108c-.052.386-1.2,1.939-4.239,3.272a10.988,10.988,0,0,1-6.573.824c-.03-.033-.073-.092-.1-.135a1.619,1.619,0,0,0-.475-.471,1.158,1.158,0,0,0-1.479.245,1.429,1.429,0,0,0-.324,1.143A3.1,3.1,0,0,0,35.149,52.5c.053.038.11.075.17.112,1.711,1.023,5.751.7,9-.731,3.5-1.531,5.653-3.524,5.916-5.47a2.52,2.52,0,0,0-.959-2.145" transform="translate(-22.505 -1.622)"/>
        </g>
      </g>
      <g id="グループ_14514" data-name="グループ 14514">
        <g id="グループ_14513" data-name="グループ 14513" clip-path="url(#clip-path)">
          <path id="パス_40612" data-name="パス 40612" d="M77.252,10.268a1.166,1.166,0,0,1-1.068-.7.7.7,0,0,0-.408-.374.676.676,0,0,0-.224-.038.694.694,0,0,0-.324.081,1.978,1.978,0,0,1-.927.236,1.886,1.886,0,0,1-.691-.132,1.923,1.923,0,0,1-1.191-1.493.69.69,0,0,0-.967-.518,1.236,1.236,0,0,1-.514.113,1.22,1.22,0,0,1-.447-.085,1.233,1.233,0,0,1-.766-1.285.693.693,0,0,0-.686-.769.538.538,0,0,0-.084.006,1.483,1.483,0,0,1-.168.011,1.1,1.1,0,0,1-.407-.076,1.173,1.173,0,0,1-.661-1.519,1.234,1.234,0,0,1,.159-.269A.691.691,0,0,0,68,2.925,1.929,1.929,0,0,1,70.612.786a1.934,1.934,0,0,1,.906.744.69.69,0,0,0,.851.257,2.318,2.318,0,0,1,3.238,1.9.7.7,0,0,0,.27.477.685.685,0,0,0,.417.141.6.6,0,0,0,.115-.011,1.626,1.626,0,0,1,.279-.023,1.685,1.685,0,0,1,1.2,2.87.688.688,0,0,0,.071,1.031,1.166,1.166,0,0,1-.71,2.095" transform="translate(4.208 0.04)" fill="#6d6d6d"/>
          <path id="パス_40613" data-name="パス 40613" d="M69.943,1.381h0a1.259,1.259,0,0,1,.457.087,1.237,1.237,0,0,1,.58.479,1.382,1.382,0,0,0,1.706.513,1.625,1.625,0,0,1,.654-.137A1.627,1.627,0,0,1,74.961,3.8a1.382,1.382,0,0,0,1.6,1.216A1.09,1.09,0,0,1,76.729,5a.994.994,0,0,1,.71,1.693,1.382,1.382,0,0,0,.142,2.065.476.476,0,0,1-.288.857.486.486,0,0,1-.176-.034.477.477,0,0,1-.262-.254,1.381,1.381,0,0,0-1.912-.659,1.284,1.284,0,0,1-.6.154,1.2,1.2,0,0,1-.438-.084,1.231,1.231,0,0,1-.762-.962,1.382,1.382,0,0,0-1.934-1.036.543.543,0,0,1-.229.051.53.53,0,0,1-.193-.037.542.542,0,0,1-.334-.566,1.382,1.382,0,0,0-1.372-1.536,1.337,1.337,0,0,0-.172.011.669.669,0,0,1-.08.005.409.409,0,0,1-.153-.027.482.482,0,0,1-.272-.624.567.567,0,0,1,.068-.107,1.381,1.381,0,0,0,.254-1.072,1.211,1.211,0,0,1,.059-.673,1.24,1.24,0,0,1,1.159-.788m0-1.381a2.611,2.611,0,0,0-2.578,3.087,1.838,1.838,0,0,0,.8,2.842,1.788,1.788,0,0,0,.661.123,1.978,1.978,0,0,0,.252-.016A1.915,1.915,0,0,0,71.78,8,2.612,2.612,0,0,0,73.4,10.026a2.555,2.555,0,0,0,.944.181,2.668,2.668,0,0,0,1.251-.317,1.859,1.859,0,1,0,2.83-2.224,2.375,2.375,0,0,0-1.693-4.044,2.479,2.479,0,0,0-.4.033,3.01,3.01,0,0,0-4.2-2.462A2.611,2.611,0,0,0,69.943,0" transform="translate(4.167)" fill="#231815"/>
        </g>
      </g>
    </g>
    <g id="グループ_14759" data-name="グループ 14759" transform="translate(1127.316 5277.507)">
      <path id="パス_41610" data-name="パス 41610" d="M74.627,63.151,74.713,73.4l6.969-13.233-.6-7.573Z" fill="#b3b3b4"/>
      <g id="グループ_14758" data-name="グループ 14758">
        <g id="グループ_14757" data-name="グループ 14757" clip-path="url(#clip-path-7)">
          <path id="パス_41611" data-name="パス 41611" d="M8.528,63.118a10.494,10.494,0,0,0-.1,10.007l65.9,1.291s.057-5.62.109-10.623Z" fill="#85522a"/>
          <path id="パス_41612" data-name="パス 41612" d="M73.589,63.165,8.528,63.118,26.807,49.912l54.723.276Z" fill="#512b00"/>
          <path id="パス_41613" data-name="パス 41613" d="M74.329,75.416a1.053,1.053,0,0,1-.242-.029,1,1,0,0,1-.758-.981l.108-10.623a1,1,0,0,1,.113-.452L79.885,51.18l-52.757-.266L9.115,63.929,7.943,62.308,26.221,49.1a1.307,1.307,0,0,1,.591-.19l54.723.276a1,1,0,0,1,.995.987l.152,9.978a1.018,1.018,0,0,1-.111.475L75.217,74.875a1,1,0,0,1-.888.541m1.1-11.373-.062,6.172,5.306-10.281-.088-5.781Z" fill="#231815"/>
          <path id="パス_41614" data-name="パス 41614" d="M19.15,73.09c-1.688-3.1-1.293-8.147.783-10l.666.746c-1.572,1.406-2.131,5.917-.57,8.78Z" fill="#512b00"/>
          <path id="パス_41615" data-name="パス 41615" d="M29.888,73.2c-1.688-3.1-1.3-8.147.782-10l.666.746c-1.572,1.406-2.131,5.916-.569,8.78Z" fill="#512b00"/>
          <path id="パス_41616" data-name="パス 41616" d="M40.543,73.31c-1.688-3.1-1.295-8.147.782-10l.666.746c-1.572,1.406-2.131,5.916-.569,8.78Z" fill="#512b00"/>
          <path id="パス_41617" data-name="パス 41617" d="M51.011,73.417c-1.688-3.1-1.294-8.147.782-10.006l.666.746c-1.572,1.406-2.131,5.918-.569,8.781Z" fill="#512b00"/>
          <path id="パス_41618" data-name="パス 41618" d="M61.967,73.529c-1.687-3.1-1.293-8.147.782-10.005l.666.746c-1.571,1.406-2.13,5.916-.569,8.78Z" fill="#512b00"/>
          <path id="パス_41619" data-name="パス 41619" d="M74.506,75.416h-.02l-65.9-1.291a1,1,0,0,1-.878-.558,11.434,11.434,0,0,1,.163-11,1,1,0,0,1,.837-.454h.011l65.908.675a1,1,0,0,1,.99,1.011l-.109,10.622a1,1,0,0,1-1,.99M9.249,72.138,73.517,73.4l.088-8.614L9.292,64.124a9.548,9.548,0,0,0-.043,8.014" fill="#231815"/>
          <path id="パス_41620" data-name="パス 41620" d="M72.7,55.285l.117,7.218,3.862-10.389-.238-3.327Z" fill="#b3b3b4"/>
          <path id="パス_41621" data-name="パス 41621" d="M6.6,55.062a5.564,5.564,0,0,0-.072,7.045l65.9,1.109s.041-3.956.077-7.479Z" fill="#6f592c"/>
          <path id="パス_41622" data-name="パス 41622" d="M71.66,55.292,6.6,55.062l18.238-9.243,52.445.345Z" fill="#473813"/>
          <path id="パス_41623" data-name="パス 41623" d="M72.432,64.217h-.016l-65.9-1.109a1,1,0,0,1-.8-.427,6.566,6.566,0,0,1,.158-8.3.95.95,0,0,1,.744-.321l65.908.675a1,1,0,0,1,.991,1.011l-.078,7.479a1,1,0,0,1-1,.99m-65.356-3.1L71.443,62.2l.056-5.474L7.088,56.067a4.538,4.538,0,0,0-.012,5.05" fill="#231815"/>
          <path id="パス_41624" data-name="パス 41624" d="M72.434,64.216a1.086,1.086,0,0,1-.188-.017,1,1,0,0,1-.813-.993l.077-7.48a1,1,0,0,1,.1-.436l4.058-8.137-50.6-.331L7.053,55.954l-.9-1.784,18.238-9.242a1,1,0,0,1,.452-.108h.007l52.444.344a1,1,0,0,1,.99,1.074l-.367,5.3a1.01,1.01,0,0,1-.063.288L73.367,63.573a1,1,0,0,1-.933.643m1.074-8.239-.018,1.664L75.939,51.1Z" fill="#231815"/>
          <path id="パス_41625" data-name="パス 41625" d="M17.692,62.449a.5.5,0,0,1-.395-.193,5.652,5.652,0,0,1-1.014-4.4,4.3,4.3,0,0,1,1.791-2.947.5.5,0,0,1,.531.848,3.306,3.306,0,0,0-1.338,2.273,4.64,4.64,0,0,0,.82,3.607.5.5,0,0,1-.4.807" fill="#231815"/>
          <path id="パス_41626" data-name="パス 41626" d="M28.429,62.558a.5.5,0,0,1-.4-.193,5.652,5.652,0,0,1-1.014-4.4,4.3,4.3,0,0,1,1.791-2.947.5.5,0,0,1,.531.848A3.306,3.306,0,0,0,28,58.144a4.64,4.64,0,0,0,.82,3.607.5.5,0,0,1-.395.807" fill="#231815"/>
          <path id="パス_41627" data-name="パス 41627" d="M39.084,62.667a.5.5,0,0,1-.4-.193,5.656,5.656,0,0,1-1.013-4.4,4.293,4.293,0,0,1,1.79-2.945A.5.5,0,0,1,40,55.98a3.3,3.3,0,0,0-1.337,2.271,4.641,4.641,0,0,0,.819,3.609.5.5,0,0,1-.4.807" fill="#231815"/>
          <path id="パス_41628" data-name="パス 41628" d="M49.552,62.775a.5.5,0,0,1-.395-.193,5.656,5.656,0,0,1-1.013-4.4,4.293,4.293,0,0,1,1.79-2.945.5.5,0,0,1,.531.848,3.3,3.3,0,0,0-1.337,2.271,4.641,4.641,0,0,0,.819,3.609.5.5,0,0,1-.4.807" fill="#231815"/>
          <path id="パス_41629" data-name="パス 41629" d="M60.508,62.887a.5.5,0,0,1-.4-.193A5.656,5.656,0,0,1,59.1,58.3a4.293,4.293,0,0,1,1.79-2.945.5.5,0,0,1,.531.848,3.3,3.3,0,0,0-1.337,2.271A4.641,4.641,0,0,0,60.9,62.08a.5.5,0,0,1-.4.807" fill="#231815"/>
          <path id="パス_41630" data-name="パス 41630" d="M7.06,52.921l56.052,9.29s-2.1-2.993.086-8.741c.412-1.086-55.33-8.579-55.33-8.579C5.184,45.9,4.952,51.2,7.06,52.921" fill="#42210d"/>
          <path id="パス_41631" data-name="パス 41631" d="M63.2,53.469l-.086,8.741L78.789,41.581l-.6-6.029Z" fill="#b3b3b4"/>
          <path id="パス_41632" data-name="パス 41632" d="M63.534,53.439,8.54,44.649,30.2,31.012,78.179,34.9Z" fill="#502f26"/>
          <path id="パス_41633" data-name="パス 41633" d="M63.5,54.061a1,1,0,0,1-.784-1.62L76.2,35.366,30.415,31.658,9.039,45.118a1,1,0,1,1-1.066-1.694L29.631,29.788a1.017,1.017,0,0,1,.614-.151l47.981,3.886a1,1,0,0,1,.7,1.617L64.285,53.681a1,1,0,0,1-.786.38" fill="#231815"/>
          <path id="パス_41634" data-name="パス 41634" d="M63.992,63.13a1,1,0,0,1-.811-1.584L77.757,41.3,77.2,35.651a1,1,0,0,1,1.99-.2l.6,6.03a.994.994,0,0,1-.184.682L64.8,62.714a1,1,0,0,1-.812.416" fill="#231815"/>
          <path id="パス_41635" data-name="パス 41635" d="M14.884,53.815a.5.5,0,0,1-.486-.385c-1.13-4.761.28-6.608,1.691-7.966a.5.5,0,0,1,.693.721c-1.32,1.27-2.42,2.762-1.412,7.015a.5.5,0,0,1-.371.6.458.458,0,0,1-.115.014" fill="#5f3d39"/>
          <path id="パス_41636" data-name="パス 41636" d="M21.413,54.656a.5.5,0,0,1-.486-.385c-1.13-4.762.281-6.609,1.692-7.966a.5.5,0,0,1,.693.721c-1.32,1.27-2.421,2.761-1.413,7.015a.5.5,0,0,1-.371.6.458.458,0,0,1-.115.014" fill="#5f3d39"/>
          <path id="パス_41637" data-name="パス 41637" d="M27.775,55.5a.5.5,0,0,1-.486-.385c-1.131-4.762.28-6.609,1.691-7.966a.5.5,0,1,1,.693.721c-1.32,1.27-2.42,2.761-1.412,7.015a.5.5,0,0,1-.371.6.458.458,0,0,1-.115.014" fill="#5f3d39"/>
          <path id="パス_41638" data-name="パス 41638" d="M33.795,56.421a.5.5,0,0,1-.486-.385c-1.13-4.761.28-6.608,1.691-7.966a.5.5,0,0,1,.693.721c-1.32,1.27-2.42,2.762-1.412,7.015a.5.5,0,0,1-.371.6.458.458,0,0,1-.115.014" fill="#5f3d39"/>
          <path id="パス_41639" data-name="パス 41639" d="M39.954,57.317a.5.5,0,0,1-.486-.385c-1.131-4.761.28-6.608,1.691-7.965a.5.5,0,0,1,.693.721c-1.32,1.27-2.42,2.761-1.412,7.014a.5.5,0,0,1-.371.6.453.453,0,0,1-.115.014" fill="#5f3d39"/>
          <path id="パス_41640" data-name="パス 41640" d="M46.337,58.29a.5.5,0,0,1-.486-.385c-1.13-4.761.28-6.608,1.691-7.966a.5.5,0,1,1,.693.721c-1.32,1.27-2.42,2.762-1.412,7.015a.5.5,0,0,1-.371.6.458.458,0,0,1-.115.014" fill="#5f3d39"/>
          <path id="パス_41641" data-name="パス 41641" d="M52.362,59.177a.5.5,0,0,1-.486-.385c-1.13-4.763.281-6.609,1.692-7.965a.5.5,0,1,1,.693.721c-1.32,1.269-2.421,2.759-1.413,7.014a.5.5,0,0,1-.371.6.458.458,0,0,1-.115.014" fill="#5f3d39"/>
          <path id="パス_41642" data-name="パス 41642" d="M63.972,62.451a.952.952,0,0,1-.16-.014L7.76,53.148a1,1,0,0,1-.47-.212c-1.6-1.307-1.995-3.845-1.678-5.781A4.786,4.786,0,0,1,8.378,43.2a.991.991,0,0,1,.486-.056c55.087,7.4,55.739,8.5,56.052,9.022a1.084,1.084,0,0,1,.081.9c-1.938,5.109-.268,7.714-.2,7.822a1.005,1.005,0,0,1-.829,1.564M8.383,51.224l54,8.949a12.245,12.245,0,0,1,.423-6.9c-5.164-1.319-34.258-5.463-53.924-8.108a3.158,3.158,0,0,0-1.3,2.316,4.78,4.78,0,0,0,.8,3.747" fill="#231815"/>
          <path id="パス_41643" data-name="パス 41643" d="M86.2,42.474,30.817,55.146s1.909-3.114-.616-8.72c-.477-1.058,54.707-11.918,54.707-11.918,2.741.849,3.294,6.12,1.294,7.966" fill="#715c33"/>
          <path id="パス_41644" data-name="パス 41644" d="M30.559,46.4l.616,8.72-18.5-14.767V32.542Z" fill="#b3b3b4"/>
          <path id="パス_41645" data-name="パス 41645" d="M30.222,46.393l54.36-12.11L58.8,26.388,12.673,32.542Z" fill="#4d3b00"/>
          <path id="パス_41646" data-name="パス 41646" d="M30.233,47.014a.991.991,0,0,1-.608-.207L12.065,33.335a1,1,0,0,1,.477-1.784L58.667,25.4a.971.971,0,0,1,.435.038L85.57,33.853a1,1,0,0,1-.606,1.906l-26.255-8.35L15.193,33.215,30.841,45.221a1,1,0,0,1-.608,1.793" fill="#231815"/>
          <path id="パス_41647" data-name="パス 41647" d="M30.29,56.1a1,1,0,0,1-.641-.233L12.031,41.123a1,1,0,0,1-.358-.766V32.542a1,1,0,0,1,2,0V39.89l17.26,14.439A1,1,0,0,1,30.29,56.1" fill="#231815"/>
          <path id="パス_41648" data-name="パス 41648" d="M38.549,44.328l5.189-1.089s3.2,5.025.942,8.72l-4.462,1.076s1.488-5.657-1.669-8.707" fill="#4d3810"/>
          <path id="パス_41649" data-name="パス 41649" d="M74.833,36.434l4.975-1.395s3.914,5.031,1.156,8.722L76.5,44.794s1.4-5.315-1.669-8.36" fill="#4d3810"/>
          <path id="パス_41650" data-name="パス 41650" d="M30.291,56.1a1,1,0,0,1-.89-1.456c.021-.041,2.192-4.433.007-8.55a1,1,0,0,1,.69-1.45L85.074,33.825a.989.989,0,0,1,.489.026,4.787,4.787,0,0,1,3,3.782c.433,1.914.191,4.472-1.325,5.873a.99.99,0,0,1-.465.243L30.5,56.073a.967.967,0,0,1-.214.023M31.72,46.36a11.74,11.74,0,0,1,.151,7.366L86.048,41.861a4.787,4.787,0,0,0,.566-3.786,3.154,3.154,0,0,0-1.436-2.232Z" fill="#231815"/>
          <path id="パス_41651" data-name="パス 41651" d="M78.063,29.767l.086,10.251,6.969-13.233-.6-7.573Z" fill="#b3b3b4"/>
          <path id="パス_41652" data-name="パス 41652" d="M11.965,29.734a10.494,10.494,0,0,0-.1,10.007l65.9,1.291s.057-5.62.108-10.623Z" fill="#85522a"/>
          <path id="パス_41653" data-name="パス 41653" d="M77.025,29.781l-65.061-.047L30.243,16.528l54.723.276Z" fill="#512b00"/>
          <path id="パス_41654" data-name="パス 41654" d="M77.765,42.031h-.02l-65.9-1.291a1,1,0,0,1-.878-.558,11.431,11.431,0,0,1,.163-10.995,1,1,0,0,1,.837-.454h.011l65.907.675a1,1,0,0,1,.99,1.01l-.108,10.623a1,1,0,0,1-1,.99M12.508,38.753l64.268,1.259.087-8.614-64.312-.659a9.544,9.544,0,0,0-.043,8.014" fill="#231815"/>
          <path id="パス_41655" data-name="パス 41655" d="M77.765,42.032A1.053,1.053,0,0,1,77.523,42a1,1,0,0,1-.758-.981L76.873,30.4a1,1,0,0,1,.113-.452L83.321,17.8l-52.757-.265L12.551,30.545l-1.172-1.621,18.278-13.2a1,1,0,0,1,.586-.19h0l54.723.275a1,1,0,0,1,1,.987l.152,9.979a1.018,1.018,0,0,1-.111.475L78.653,41.491a1,1,0,0,1-.888.541M78.87,30.659l-.062,6.173,5.306-10.281-.088-5.782Z" fill="#231815"/>
          <path id="パス_41656" data-name="パス 41656" d="M23.026,39.967a.5.5,0,0,1-.439-.261c-1.689-3.1-1.294-8.148.782-10.005a.5.5,0,1,1,.666.746c-1.571,1.406-2.131,5.916-.57,8.781a.5.5,0,0,1-.439.739" fill="#231815"/>
          <path id="パス_41657" data-name="パス 41657" d="M33.763,40.077a.5.5,0,0,1-.439-.261c-1.688-3.1-1.293-8.146.781-10a.5.5,0,1,1,.668.744c-1.572,1.408-2.131,5.918-.571,8.782a.5.5,0,0,1-.439.739" fill="#231815"/>
          <path id="パス_41658" data-name="パス 41658" d="M44.419,40.186a.5.5,0,0,1-.439-.261c-1.689-3.1-1.295-8.147.782-10a.5.5,0,0,1,.666.746c-1.572,1.407-2.131,5.916-.57,8.781a.5.5,0,0,1-.439.739" fill="#231815"/>
          <path id="パス_41659" data-name="パス 41659" d="M54.886,40.293a.5.5,0,0,1-.439-.261c-1.688-3.1-1.294-8.147.782-10.005a.5.5,0,1,1,.666.746c-1.571,1.406-2.13,5.916-.57,8.781a.5.5,0,0,1-.439.739" fill="#231815"/>
          <path id="パス_41660" data-name="パス 41660" d="M65.843,40.406a.5.5,0,0,1-.439-.261c-1.689-3.1-1.295-8.147.782-10.005a.5.5,0,1,1,.666.746c-1.572,1.407-2.131,5.916-.57,8.781a.5.5,0,0,1-.439.739" fill="#231815"/>
          <path id="パス_41661" data-name="パス 41661" d="M81.587,23.152,26.2,35.824s1.909-3.114-.616-8.72c-.477-1.058,54.707-11.918,54.707-11.918,2.741.849,3.294,6.12,1.294,7.966" fill="#715c33"/>
          <path id="パス_41662" data-name="パス 41662" d="M25.944,27.081l.616,8.72L8.058,21.034V13.22Z" fill="#b3b3b4"/>
          <path id="パス_41663" data-name="パス 41663" d="M25.607,27.071l54.36-12.11L54.184,7.066,8.058,13.22Z" fill="#4d3b00"/>
          <path id="パス_41664" data-name="パス 41664" d="M25.618,27.693a.988.988,0,0,1-.607-.207L7.45,14.013a1,1,0,0,1,.477-1.784L54.052,6.075a.98.98,0,0,1,.434.038l26.468,8.418a1,1,0,0,1-.606,1.906L54.094,8.087,10.578,13.893,26.227,25.9a1,1,0,0,1-.609,1.793" fill="#231815"/>
          <path id="パス_41665" data-name="パス 41665" d="M25.676,36.774a1,1,0,0,1-.641-.233L7.417,21.8a1,1,0,0,1-.358-.766V13.22a1,1,0,1,1,2,0v7.348l17.26,14.439a1,1,0,0,1-.643,1.767" fill="#231815"/>
          <path id="パス_41666" data-name="パス 41666" d="M35.484,34.009a.5.5,0,0,1-.454-.709c1.4-3.026,0-6.139-1.768-8.041a.5.5,0,0,1,.733-.682c1.99,2.141,3.546,5.666,1.943,9.141a.5.5,0,0,1-.454.291" fill="#4d3810"/>
          <path id="パス_41667" data-name="パス 41667" d="M44.634,32.135a.5.5,0,0,1-.454-.709c1.4-3.027,0-6.14-1.767-8.042a.5.5,0,0,1,.733-.682c1.99,2.141,3.545,5.666,1.942,9.142a.5.5,0,0,1-.454.291" fill="#4d3810"/>
          <path id="パス_41668" data-name="パス 41668" d="M53.571,30.424a.5.5,0,0,1-.454-.709c1.4-3.026,0-6.139-1.767-8.041a.5.5,0,0,1,.733-.682c1.99,2.141,3.546,5.666,1.942,9.142a.5.5,0,0,1-.454.29" fill="#4d3810"/>
          <path id="パス_41669" data-name="パス 41669" d="M62.146,28.408a.5.5,0,0,1-.454-.709c1.4-3.026,0-6.139-1.768-8.041a.5.5,0,0,1,.734-.682c1.989,2.141,3.545,5.666,1.941,9.141a.5.5,0,0,1-.453.291" fill="#4d3810"/>
          <path id="パス_41670" data-name="パス 41670" d="M70.659,26.129a.5.5,0,0,1-.454-.709c1.395-3.027,0-6.14-1.767-8.042a.5.5,0,0,1,.733-.682c1.99,2.141,3.545,5.666,1.942,9.142a.5.5,0,0,1-.454.291" fill="#4d3810"/>
          <path id="パス_41671" data-name="パス 41671" d="M78.121,25.01a.5.5,0,0,1-.454-.709c1.395-3.026,0-6.139-1.767-8.041a.5.5,0,0,1,.733-.682c1.99,2.141,3.545,5.666,1.942,9.141a.5.5,0,0,1-.454.291" fill="#4d3810"/>
          <path id="パス_41672" data-name="パス 41672" d="M25.45,36.649a1,1,0,0,1-.89-1.456c.021-.041,2.192-4.433.007-8.55a1,1,0,0,1,.69-1.45L80.233,14.377a.976.976,0,0,1,.489.026,4.786,4.786,0,0,1,3,3.784c.433,1.914.191,4.471-1.325,5.872a.99.99,0,0,1-.465.243L25.664,36.626a.967.967,0,0,1-.214.023m1.429-9.736a11.74,11.74,0,0,1,.151,7.366L81.207,22.414a4.788,4.788,0,0,0,.567-3.785A3.162,3.162,0,0,0,80.337,16.4Z" fill="#231815"/>
          <path id="パス_41673" data-name="パス 41673" d="M74.748,10.876a3.066,3.066,0,0,0-3.059-2.534,3.514,3.514,0,0,0-2.158-2.905,3.3,3.3,0,0,0-1.459-.206,2.326,2.326,0,0,0-.921-.663,2.542,2.542,0,0,0-2.785.736,3.417,3.417,0,0,0-2.2.229,3.387,3.387,0,0,0-1.88-1.864A3.339,3.339,0,0,0,58.1,3.6a3.931,3.931,0,0,0-2.235-2.285,4.078,4.078,0,0,0-4.273.966,3,3,0,0,0-3.359-1.147,3.771,3.771,0,0,0-2.576,3.6A2.75,2.75,0,0,0,42.978,6.56a2.667,2.667,0,0,0,1.357,3.511,2.41,2.41,0,0,0,1.947-.106,3.433,3.433,0,0,0,2.024,2.28,3.515,3.515,0,0,0,3.55-.693,2.5,2.5,0,0,0,1.435,1.5,2.669,2.669,0,0,0,3.119-1.078,2.333,2.333,0,0,0,1,.764A2.6,2.6,0,0,0,60.5,11.593a3.3,3.3,0,0,0,1.468,1.151A3.465,3.465,0,0,0,65.2,12.3a2.666,2.666,0,0,0,1.58,2.886,2.582,2.582,0,0,0,2.642-.543,2.982,2.982,0,0,0,2.826.58,3.787,3.787,0,0,0,2.5-4.349" fill="#727171"/>
          <path id="パス_41674" data-name="パス 41674" d="M71.359,16.357a4,4,0,0,1-1.929-.5,3.442,3.442,0,0,1-5.1-2.061,4.28,4.28,0,0,1-2.722-.124,4.085,4.085,0,0,1-1.08-.623,3.506,3.506,0,0,1-3.481.617,3.162,3.162,0,0,1-.585-.3,3.57,3.57,0,0,1-3.534.613,3.439,3.439,0,0,1-1.4-1.018,4.294,4.294,0,0,1-5.817-1.78A3.333,3.333,0,0,1,43.973,11a3.669,3.669,0,0,1-1.928-4.8,3.812,3.812,0,0,1,2.7-2.383A4.706,4.706,0,0,1,47.942.18a3.983,3.983,0,0,1,3.752.749A4.956,4.956,0,0,1,56.225.385,4.832,4.832,0,0,1,58.66,2.473a4.252,4.252,0,0,1,3.975,1.851,4.344,4.344,0,0,1,1.406-.086,3.481,3.481,0,0,1,3.472-.6,3.226,3.226,0,0,1,.964.586,4.27,4.27,0,0,1,1.416.283,4.457,4.457,0,0,1,2.618,2.908,4.091,4.091,0,0,1,3.217,3.26,4.812,4.812,0,0,1-3.194,5.51,4.061,4.061,0,0,1-1.175.175m-1.94-2.712a1,1,0,0,1,.646.236,1.99,1.99,0,0,0,1.891.387,2.772,2.772,0,0,0,1.813-3.189A2.063,2.063,0,0,0,71.753,9.34H71.69a1,1,0,0,1-.993-.873,2.507,2.507,0,0,0-1.527-2.1,2.259,2.259,0,0,0-1.018-.142.987.987,0,0,1-.837-.344A1.344,1.344,0,0,0,66.79,5.5a1.543,1.543,0,0,0-1.685.479,1,1,0,0,1-.966.3,2.433,2.433,0,0,0-1.562.165,1,1,0,0,1-1.333-.517A2.4,2.4,0,0,0,59.922,4.6a2.34,2.34,0,0,0-1.535-.041,1,1,0,0,1-1.222-.6A2.922,2.922,0,0,0,55.5,2.25a3.081,3.081,0,0,0-3.225.76,1,1,0,0,1-1.5-.148,1.983,1.983,0,0,0-2.252-.768,2.773,2.773,0,0,0-1.866,2.645,1,1,0,0,1-.316.729,1.01,1.01,0,0,1-.748.269A1.778,1.778,0,0,0,43.91,6.921,1.674,1.674,0,0,0,44.7,9.138a1.415,1.415,0,0,0,1.146-.071,1,1,0,0,1,1.4.612,2.425,2.425,0,0,0,1.427,1.633,2.513,2.513,0,0,0,2.541-.521,1,1,0,0,1,1.586.416,1.507,1.507,0,0,0,.858.912,1.683,1.683,0,0,0,1.939-.718,1,1,0,0,1,1.609-.04,1.335,1.335,0,0,0,.572.444,1.608,1.608,0,0,0,1.889-.749,1,1,0,0,1,.812-.462.927.927,0,0,1,.839.408,2.285,2.285,0,0,0,1.02.809,2.468,2.468,0,0,0,2.3-.335,1,1,0,0,1,1.558.95,1.678,1.678,0,0,0,.949,1.829,1.573,1.573,0,0,0,1.619-.361,1,1,0,0,1,.661-.249" fill="#231815"/>
          <path id="パス_41675" data-name="パス 41675" d="M18.6,50.459a3.55,3.55,0,0,0-5.6-2.92,4.08,4.08,0,0,0-6.521.991,3.219,3.219,0,0,0-4.643,4,2.517,2.517,0,1,0,2.445,4.22,3.522,3.522,0,0,0,5.748-.461,2.6,2.6,0,0,0,4.386-1.117,2.5,2.5,0,0,0,1.2.322,2.522,2.522,0,0,0,2.533-2.513,2.49,2.49,0,0,0-.1-.661,3.531,3.531,0,0,0,.546-1.861" fill="#727171"/>
          <path id="パス_41676" data-name="パス 41676" d="M10.1,46.328l.008,2a2.083,2.083,0,0,1,1.481.62,2,2,0,0,0,2.571.226,1.55,1.55,0,0,1,2.449,1.277,1.531,1.531,0,0,1-.244.81,2,2,0,0,0-.234,1.577.688.688,0,0,1,.027.135.524.524,0,0,1-.525.521.489.489,0,0,1-.243-.074,2,2,0,0,0-2.9,1.222.609.609,0,0,1-.58.451.589.589,0,0,1-.434-.19,2,2,0,0,0-1.443-.614,2.115,2.115,0,0,0-.224.012,2,2,0,0,0-1.49.957,1.525,1.525,0,0,1-2.507.2,2,2,0,0,0-1.432-.708l-.1,0a2,2,0,0,0-1.4.57.516.516,0,0,1-.366.15A.524.524,0,0,1,2,54.945a.516.516,0,0,1,.384-.491,2,2,0,0,0,1.3-2.7,1.229,1.229,0,0,1,.42-1.472,1.205,1.205,0,0,1,.7-.222,1.233,1.233,0,0,1,.643.18,2,2,0,0,0,2.809-.778A2.088,2.088,0,0,1,10.1,48.328Zm0,0a4.083,4.083,0,0,0-3.613,2.2A3.237,3.237,0,0,0,4.8,48.059a3.218,3.218,0,0,0-2.961,4.47,2.517,2.517,0,0,0,.673,4.941h.01a2.512,2.512,0,0,0,1.762-.72,3.534,3.534,0,0,0,2.7,1.274h.013a3.547,3.547,0,0,0,3.041-1.735,2.6,2.6,0,0,0,1.869.8h.01a2.6,2.6,0,0,0,2.506-1.922,2.5,2.5,0,0,0,1.2.323h.009a2.524,2.524,0,0,0,2.523-2.514,2.49,2.49,0,0,0-.1-.661,3.541,3.541,0,0,0-3-5.432h-.014a3.532,3.532,0,0,0-2.042.652,4.082,4.082,0,0,0-2.892-1.211Z" fill="#231815"/>
        </g>
      </g>
    </g>
  </g>
</svg>
