<svg xmlns="http://www.w3.org/2000/svg" xmlns:xlink="http://www.w3.org/1999/xlink" width="368.121" height="153.166" viewBox="0 0 368.121 153.166">
  <defs>
    <clipPath id="clip-path">
      <rect id="長方形_874" data-name="長方形 874" width="188.8" height="139.709" fill="none"/>
    </clipPath>
    <clipPath id="clip-path-2">
      <rect id="長方形_295" data-name="長方形 295" width="146.358" height="153.166" fill="none"/>
    </clipPath>
    <clipPath id="clip-path-3">
      <path id="パス_2300" data-name="パス 2300" d="M44.853,5.458C41.5,6.152,38,8.564,37.926,12.1c-.082,3.735,2.976,3.96-1.261,5.808-3.736,1.628-17.831,4.6-27.185,21.378C1.686,53.261,2.593,70.468,4.586,80.224c5.309,24.519,13.56,41.94,19.757,51.933,0,0,4.385,7.253,5.872,7.329h89c1.487-.076,5.871-7.329,5.871-7.329,6.2-9.993,14.449-27.414,19.757-51.933,1.994-9.755,2.9-26.963-4.893-40.94-9.354-16.776-23.45-19.75-27.185-21.378-4.236-1.847-1.178-2.073-1.261-5.808-.078-3.534-3.576-5.945-6.926-6.64C95.323,3.54,80.947,3.2,74.717,3.2S54.11,3.54,44.853,5.458" transform="translate(-3.201 -3.204)" fill="none"/>
    </clipPath>
    <clipPath id="clip-path-5">
      <rect id="長方形_746" data-name="長方形 746" width="24.167" height="32.29" fill="none"/>
    </clipPath>
  </defs>
  <g id="グループ_14909" data-name="グループ 14909" transform="translate(6941.121 -2697.28)">
    <g id="グループ_8110" data-name="グループ 8110" transform="translate(-16460.131 -4671.924)">
      <g id="グループ_7149" data-name="グループ 7149" transform="translate(9519.01 7380.452)">
        <g id="グループ_7149-2" data-name="グループ 7149" transform="translate(0 0)" clip-path="url(#clip-path)">
          <path id="パス_4741" data-name="パス 4741" d="M155.224,92.2l-8.872-8.071a48.866,48.866,0,0,0,6.731-26.087c.556-34.112-30.137-57.025-75.828-56.612C31.565,1.013.869,23.927,1.427,58.039c-.555,34.113,30.135,57.026,75.828,56.612,25.072.227,45.607-6.581,58.963-18.4l17.075.662a2.714,2.714,0,0,0,1.931-4.719" transform="translate(31.259 23.041)" fill="#fff"/>
          <path id="パス_4742" data-name="パス 4742" d="M155.224,92.2l-8.872-8.071a48.866,48.866,0,0,0,6.731-26.087c.556-34.112-30.137-57.025-75.828-56.612C31.565,1.013.869,23.927,1.427,58.039c-.555,34.113,30.135,57.026,75.828,56.612,25.072.227,45.607-6.581,58.963-18.4l17.075.662A2.714,2.714,0,0,0,155.224,92.2Z" transform="translate(31.259 23.041)" fill="none" stroke="#000" stroke-linejoin="round" stroke-width="2.008"/>
        </g>
      </g>
      <path id="パス_41846" data-name="パス 41846" d="M1.515.8V-.78h9.84V-2.43h-9.3V-3.975h9.3v-1.53H1.545V-7.05h5v-5.415H8.43V-7.05h4.815V.8Zm9.3-8.175a4.789,4.789,0,0,0-.465-.3q-.285-.165-.585-.315A2.853,2.853,0,0,0,9.24-8.2a10.034,10.034,0,0,0,.818-1.155q.427-.69.788-1.417a8.3,8.3,0,0,0,.525-1.283l1.74.66q-.27.66-.66,1.417t-.818,1.44A11.728,11.728,0,0,1,10.815-7.38ZM3.87-7.3a11.656,11.656,0,0,0-.54-1.23q-.345-.69-.757-1.358a7.816,7.816,0,0,0-.817-1.118l1.56-.84a13.172,13.172,0,0,1,.847,1.125q.428.63.8,1.29T5.58-8.19a4.7,4.7,0,0,0-.533.24q-.322.165-.645.338T3.87-7.3ZM27.555.585A6.746,6.746,0,0,1,24.8-.323a5.264,5.264,0,0,1-1.875-1.9A5.287,5.287,0,0,1,22.245-4.9a5.142,5.142,0,0,1,.525-2.2A5.9,5.9,0,0,1,24.315-9.09q-1.2.2-2.385.413t-2.153.412q-.968.2-1.493.345L17.88-9.87q.495-.03,1.373-.135t1.98-.262q1.1-.158,2.28-.345t2.28-.383q1.1-.2,1.98-.382t1.373-.338l.48,1.83q-.225.015-.562.067T28.29-9.7a4.543,4.543,0,0,0-1.568.51,5.142,5.142,0,0,0-1.35,1.042,4.913,4.913,0,0,0-.937,1.463A4.58,4.58,0,0,0,24.09-4.9,3.044,3.044,0,0,0,24.675-3a3.838,3.838,0,0,0,1.6,1.192,8.362,8.362,0,0,0,2.273.577,3.7,3.7,0,0,0-.435.578,5.532,5.532,0,0,0-.36.675A2.81,2.81,0,0,0,27.555.585ZM40.68.27a2.947,2.947,0,0,1-1.875-.69,1.963,1.963,0,0,1-.69-1.56,1.828,1.828,0,0,1,.375-1.057,2.482,2.482,0,0,1,1.02-.78,3.867,3.867,0,0,1,1.575-.292,8.467,8.467,0,0,1,.9.045q-.015-.66-.045-1.5t-.06-1.83q-.93.06-1.8.068T38.6-7.35l-.12-1.83a10.028,10.028,0,0,0,1.463.1q.907.007,1.912-.038-.015-.6-.022-1.222T41.82-11.61h1.755q-.015.57-.023,1.17t-.007,1.215q.9-.075,1.635-.172a6.851,6.851,0,0,0,1.11-.217v1.8a11.294,11.294,0,0,1-1.14.165q-.72.075-1.56.15.03,1.1.075,2.092T43.74-3.66a9.2,9.2,0,0,1,1.62.765A16.451,16.451,0,0,1,46.89-1.86a2.675,2.675,0,0,0-.382.413,6.142,6.142,0,0,0-.4.57,4.869,4.869,0,0,0-.27.487,9.85,9.85,0,0,0-2.07-1.47,2.066,2.066,0,0,1-.908,1.688A3.769,3.769,0,0,1,40.68.27ZM35.115.45a13.958,13.958,0,0,1-.165-1.507q-.06-.923-.083-2.055t-.007-2.34q.015-1.207.075-2.363t.157-2.13a15.8,15.8,0,0,1,.233-1.62l1.71.405a8.425,8.425,0,0,0-.278,1.41q-.113.885-.173,1.973T36.51-5.535q-.015,1.155.023,2.242t.12,1.988a12.584,12.584,0,0,0,.2,1.455Zm5.7-1.71a1.451,1.451,0,0,0,.922-.248,1.092,1.092,0,0,0,.307-.892V-2.5a6.073,6.073,0,0,0-1.065-.15,1.682,1.682,0,0,0-.892.18.616.616,0,0,0-.353.51.553.553,0,0,0,.285.51A1.44,1.44,0,0,0,40.815-1.26ZM54.915.81a2.946,2.946,0,0,1-1.98-.7,2.1,2.1,0,0,1-.69-1.635,1.882,1.882,0,0,1,.42-1.155A2.636,2.636,0,0,1,53.79-3.48a3.979,3.979,0,0,1,1.665-.24q.255,0,.487.023t.472.053L56.37-5.37q-.255.015-.517.015h-.518A5.567,5.567,0,0,1,53.917-5.5a1.693,1.693,0,0,1-.825-.48,4.166,4.166,0,0,1-.607-.937L53.9-7.62a1.021,1.021,0,0,0,.495.518,2.946,2.946,0,0,0,.975.113q.225,0,.472-.008t.5-.022q-.015-.4-.022-.825t-.023-.825q-1.095.06-2.07.083T52.71-8.58l-.075-1.68q.525.045,1.515.038t2.115-.052q-.015-.54-.015-1.035v-.915h1.74v.87q0,.465.015.975,1.02-.075,1.875-.173a10.031,10.031,0,0,0,1.26-.2V-9.1a11.445,11.445,0,0,1-1.252.172q-.847.083-1.868.158.015.4.022.817t.022.817q.885-.09,1.68-.217a8.831,8.831,0,0,0,1.26-.278V-5.88q-.555.12-1.312.225t-1.6.18q.03.6.037,1.155t.022,1.035a11.944,11.944,0,0,1,2.1.78,16.62,16.62,0,0,1,1.86,1.05,2.608,2.608,0,0,0-.428.442q-.232.293-.428.593a5.426,5.426,0,0,0-.3.51A10.315,10.315,0,0,0,58.2-1.59,2.292,2.292,0,0,1,57.412.2,3.59,3.59,0,0,1,54.915.81ZM54.975-.8A1.805,1.805,0,0,0,56.1-1.02a.8.8,0,0,0,.345-.675v-.42q-.315-.06-.623-.09t-.607-.03a1.8,1.8,0,0,0-.96.21.6.6,0,0,0-.33.51Q53.925-.84,54.975-.8ZM72.6-.285a6.6,6.6,0,0,0-.3-.8,3.851,3.851,0,0,0-.405-.727,10.235,10.235,0,0,0,3.488-.75,1.726,1.726,0,0,0,1.207-1.65Q76.545-5.76,74.325-5.67a8.79,8.79,0,0,0-1.207.135q-.7.12-1.44.3t-1.41.375a11.08,11.08,0,0,0-1.1.375,2.575,2.575,0,0,0-.1-.247q-.1-.233-.217-.54l-.21-.54a.926.926,0,0,0-.1-.233q.45-.09,1.2-.247t1.6-.323q.855-.165,1.643-.293a10.332,10.332,0,0,1,1.3-.142,4.222,4.222,0,0,1,2.88.7,2.717,2.717,0,0,1,1,2.077A2.842,2.842,0,0,1,77.52-2.25,4.574,4.574,0,0,1,75.563-.975,13.981,13.981,0,0,1,72.6-.285ZM85.5.69a5.637,5.637,0,0,0-.855-.428,5.948,5.948,0,0,0-.915-.307,10.471,10.471,0,0,0,.81-1.417q.42-.862.84-1.92t.81-2.205q.39-1.147.7-2.258-.855.075-1.612.105t-1.253,0l-.165-1.8a14.165,14.165,0,0,0,1.553.045q.938-.015,1.942-.1.195-.78.308-1.44a10.852,10.852,0,0,0,.142-1.17l1.875.255q-.06.435-.18.967t-.27,1.148q.615-.1,1.155-.233a8.544,8.544,0,0,0,.915-.262l.27,1.68q-.465.15-1.207.308t-1.613.278q-.33,1.185-.735,2.438t-.84,2.437q-.435,1.185-.863,2.182T85.5.69ZM95.67.06a12.239,12.239,0,0,1-3.052.12,8.358,8.358,0,0,1-2.49-.585A3.871,3.871,0,0,1,88.545-1.53l.915-1.35A3.79,3.79,0,0,0,90.938-2a7.64,7.64,0,0,0,2.235.39,12.439,12.439,0,0,0,2.8-.232,4.2,4.2,0,0,0-.232.945A5.431,5.431,0,0,0,95.67.06Zm-.45-5.31a9.388,9.388,0,0,0-1.14-.293q-.645-.128-1.357-.2t-1.4-.1q-.683-.023-1.238.007l.225-1.755a12.042,12.042,0,0,1,1.267.007q.728.038,1.515.113t1.5.187q.712.113,1.222.233Zm5.28,6.42q-.1-.21-.285-.5t-.39-.57a2.312,2.312,0,0,0-.42-.45,8.2,8.2,0,0,0,4.028-3.015,9.683,9.683,0,0,0,1.493-5.25H99.6v-1.665h5.7v-2.28h1.965v2.28h5.745V-8.61h-6.18q-.015.4-.045.795t-.075.78h4.815q-.015.735-.083,1.605t-.18,1.732q-.112.863-.247,1.59A9.09,9.09,0,0,1,110.73-.93a3.526,3.526,0,0,1-.615,1.2,1.838,1.838,0,0,1-.892.577A4.69,4.69,0,0,1,107.91,1h-1.485a5.248,5.248,0,0,0-.083-.623q-.067-.368-.15-.72a2.98,2.98,0,0,0-.173-.547h1.515a1.762,1.762,0,0,0,.915-.188,1.151,1.151,0,0,0,.45-.668,7.391,7.391,0,0,0,.255-1.043q.12-.652.21-1.35a9.616,9.616,0,0,0,.09-1.207h-3.09a9.4,9.4,0,0,1-2.033,3.855A10.637,10.637,0,0,1,100.5,1.17Zm22.68-.9a2.947,2.947,0,0,1-1.875-.69,1.963,1.963,0,0,1-.69-1.56,1.828,1.828,0,0,1,.375-1.057,2.482,2.482,0,0,1,1.02-.78,3.867,3.867,0,0,1,1.575-.292,8.467,8.467,0,0,1,.9.045q-.015-.66-.045-1.5t-.06-1.83q-.93.06-1.8.068T121.1-7.35l-.12-1.83a10.028,10.028,0,0,0,1.463.1q.908.007,1.912-.038-.015-.6-.022-1.222t-.007-1.267h1.755q-.015.57-.022,1.17t-.007,1.215q.9-.075,1.635-.172a6.851,6.851,0,0,0,1.11-.217v1.8a11.293,11.293,0,0,1-1.14.165q-.72.075-1.56.15.03,1.1.075,2.092t.075,1.748a9.2,9.2,0,0,1,1.62.765,16.45,16.45,0,0,1,1.53,1.035,2.675,2.675,0,0,0-.382.413,6.141,6.141,0,0,0-.4.57,4.866,4.866,0,0,0-.27.487,9.85,9.85,0,0,0-2.07-1.47,2.066,2.066,0,0,1-.907,1.688A3.769,3.769,0,0,1,123.18.27Zm-5.565.18a13.96,13.96,0,0,1-.165-1.507q-.06-.923-.082-2.055t-.007-2.34q.015-1.207.075-2.363t.158-2.13a15.8,15.8,0,0,1,.232-1.62l1.71.405a8.426,8.426,0,0,0-.278,1.41q-.113.885-.173,1.973t-.075,2.242q-.015,1.155.022,2.242t.12,1.988a12.583,12.583,0,0,0,.2,1.455Zm5.7-1.71a1.451,1.451,0,0,0,.923-.248,1.092,1.092,0,0,0,.307-.892V-2.5a6.073,6.073,0,0,0-1.065-.15,1.682,1.682,0,0,0-.893.18.616.616,0,0,0-.353.51.553.553,0,0,0,.285.51A1.44,1.44,0,0,0,123.315-1.26ZM6.585,24.67a6.745,6.745,0,0,1-1.793-.218,3.006,3.006,0,0,1-1.35-.78,4.157,4.157,0,0,1-.922-1.6l1.59-.87a1.934,1.934,0,0,0,.8,1.185,2.98,2.98,0,0,0,1.68.405q.96,0,1.98-.09t1.92-.255a9.639,9.639,0,0,0,1.485-.375q0,.24.038.63t.105.765q.067.375.127.585a9.475,9.475,0,0,1-1.53.33q-.93.135-2,.21T6.585,24.67ZM4.23,15.85l-.015-1.815a6.086,6.086,0,0,0,1.088.21q.652.075,1.41.09t1.523-.023q.765-.037,1.41-.12a6.08,6.08,0,0,0,1.065-.218v1.83A5.607,5.607,0,0,1,9.69,16q-.645.075-1.41.112t-1.545.022q-.78-.015-1.44-.09A6.429,6.429,0,0,1,4.23,15.85Zm8.49.33a6.64,6.64,0,0,0-.765-.99,11.407,11.407,0,0,0-.855-.855l.81-.66a5.5,5.5,0,0,1,.547.525q.322.345.637.7a5.18,5.18,0,0,1,.48.608Zm1.335-1.14a6.364,6.364,0,0,0-.765-.983,8.57,8.57,0,0,0-.87-.833l.825-.675a5.9,5.9,0,0,1,.547.517q.323.337.638.69a5.18,5.18,0,0,1,.48.607Zm5.67,11.025v-5.4q-.405.69-.825,1.3a11.876,11.876,0,0,1-.8,1.05,8.374,8.374,0,0,0-.682-.6,3.655,3.655,0,0,0-.743-.48,7.162,7.162,0,0,0,.847-.968q.443-.592.87-1.29t.78-1.38a9.871,9.871,0,0,0,.548-1.237V16.99h-2.46V15.43h2.46V12.55H21.45v2.88H23.2v1.56H21.45v1.02q.315.39.75.863t.877.892q.443.42.728.645v-7.3h6.3v12.48h-6.3v-5.16a4.109,4.109,0,0,0-.382.368q-.218.233-.42.465a4.879,4.879,0,0,0-.308.382q-.24-.24-.57-.6t-.675-.765v5.79Zm5.8-2.04h2.85V21.85H25.53Zm0-3.69h2.85V18.22H25.53Zm0-3.615h2.85V14.665H25.53Zm13.935,9.45a4.661,4.661,0,0,0-.375-.735,3.656,3.656,0,0,0-.525-.69A5.205,5.205,0,0,0,40.8,23.628a3.745,3.745,0,0,0,1.065-1.935,12.044,12.044,0,0,0,.24-3.007l1.65.075q0,.585-.023,1.125a9.056,9.056,0,0,1-.1,1.02,5.259,5.259,0,0,0,1.425,2.31,6.446,6.446,0,0,0,2.475,1.455,4.532,4.532,0,0,0-.57.69,7.3,7.3,0,0,0-.48.765A6.474,6.474,0,0,1,43.05,23.14a5.035,5.035,0,0,1-1.35,1.838A6.573,6.573,0,0,1,39.465,26.17Zm.075-6.555a6.079,6.079,0,0,0-.368-.7,3.362,3.362,0,0,0-.5-.66,4.627,4.627,0,0,0,2.183-1.065,3.588,3.588,0,0,0,.99-1.882,12.216,12.216,0,0,0,.2-2.827l1.665.06q0,.57-.03,1.087t-.09.982a5.132,5.132,0,0,0,3.825,3.525,5.339,5.339,0,0,0-.533.682,6.834,6.834,0,0,0-.442.743,7.781,7.781,0,0,1-1.988-1.087A5.643,5.643,0,0,1,43.02,16.81a4.518,4.518,0,0,1-1.305,1.725A6.412,6.412,0,0,1,39.54,19.615Zm-5.355,6.15v-4.32h4.35v4.32ZM33.66,16.45V15.085h5.145V16.45Zm.66-2.1V12.94h3.975v1.41Zm0,6.33V19.3h3.975v1.38Zm0-2.115v-1.38h3.975v1.38Zm6.315-2.19a7.054,7.054,0,0,0-.8-.263,4.762,4.762,0,0,0-.78-.157,5.769,5.769,0,0,0,.337-.87q.157-.51.278-1.028t.165-.863l1.515.21a9.044,9.044,0,0,1-.135.93q-.105.555-.263,1.1A8.388,8.388,0,0,1,40.635,16.375ZM40.53,23.05q-.33-.135-.787-.278a5.123,5.123,0,0,0-.772-.187,5.622,5.622,0,0,0,.368-.87q.172-.51.3-1.02t.188-.855l1.5.27a6.472,6.472,0,0,1-.158.922q-.127.547-.292,1.087A7.4,7.4,0,0,1,40.53,23.05Zm5.025-6.795a4.7,4.7,0,0,0-.675-.435,5.524,5.524,0,0,0-.72-.345,5.314,5.314,0,0,0,.495-.743q.24-.427.435-.87t.315-.8l1.455.57a8.067,8.067,0,0,1-.338.855q-.218.48-.472.945T45.555,16.255Zm.03,6.495a6.44,6.44,0,0,0-1.4-.8A6.22,6.22,0,0,0,44.9,20.83a9.819,9.819,0,0,0,.51-1.185l1.455.57a10.9,10.9,0,0,1-.548,1.282A9.878,9.878,0,0,1,45.585,22.75Zm-9.87,1.635h1.29v-1.56h-1.29ZM58.14,25.8a9.441,9.441,0,0,1-2.22-.24,3.418,3.418,0,0,1-1.56-.773,1.829,1.829,0,0,1-.57-1.4,2.167,2.167,0,0,1,.435-1.312,4.386,4.386,0,0,1,1.2-1.08,11.3,11.3,0,0,1,1.74-.892v-.12A1.017,1.017,0,0,0,56.9,19.2a1.053,1.053,0,0,0-.667-.278,3.1,3.1,0,0,0-1.32.2,3.538,3.538,0,0,0-1.245.87q-.18.18-.465.458t-.57.548q-.285.27-.495.45l-1.305-1.29a9.972,9.972,0,0,0,1.98-1.74A12.067,12.067,0,0,0,54.39,16.18l-1.53.052q-.69.023-1.035.007l-.06-1.725q.51.045,1.417.045t1.972-.045a6.732,6.732,0,0,0,.39-1.86l1.785.09a7.2,7.2,0,0,1-.3,1.65q1.11-.09,2.063-.2a9.407,9.407,0,0,0,1.463-.262l.1,1.665q-.42.075-1.095.157t-1.493.158q-.818.075-1.673.135-.2.42-.443.847t-.518.817a3.247,3.247,0,0,1,1.215-.24,2.383,2.383,0,0,1,1.493.465,2.221,2.221,0,0,1,.757,1.53q.84-.285,1.718-.517t1.7-.427l.51,1.65q-1.05.15-2.04.368t-1.845.487v2H57.18V21.7a5.606,5.606,0,0,0-1.2.743,1.031,1.031,0,0,0-.45.727q0,.51.615.712a6.43,6.43,0,0,0,1.875.2,11,11,0,0,0,1.147-.067q.637-.068,1.275-.18t1.118-.247q-.03.195-.053.563t-.022.727q0,.36.015.54a12.57,12.57,0,0,1-1.65.278A16.2,16.2,0,0,1,58.14,25.8ZM72.765,22.21q-.03-.465-.075-1.222t-.1-1.635q-.052-.878-.09-1.725t-.06-1.5q-.022-.653-.022-.937V12.865h2.16V15.19q0,.285-.022.938t-.06,1.5q-.038.848-.09,1.725t-.1,1.635q-.045.758-.075,1.222Zm.735,3.705a1.28,1.28,0,1,1,.9-.375A1.227,1.227,0,0,1,73.5,25.915Z" transform="translate(9563.682 7456.713)"/>
    </g>
    <g id="グループ_8109" data-name="グループ 8109" transform="translate(-6741.237 2697.28)">
      <g id="グループ_6203" data-name="グループ 6203">
        <g id="グループ_6202" data-name="グループ 6202" clip-path="url(#clip-path-2)">
          <path id="パス_2296" data-name="パス 2296" d="M139.954,39.284C130.6,22.507,116.5,19.534,112.768,17.9c-4.236-1.847-1.178-2.072-1.26-5.808-.078-3.533-3.576-5.945-6.926-6.639C95.323,3.54,80.948,3.2,74.717,3.2S54.111,3.54,44.852,5.458C41.5,6.152,38,8.564,37.927,12.1c-.082,3.735,2.976,3.961-1.261,5.808-3.736,1.629-17.831,4.6-27.186,21.379C1.687,53.261,2.594,70.468,4.587,80.223c5.309,24.52,13.56,41.941,19.757,51.933,0,0,4.384,7.253,5.872,7.329h89c1.487-.076,5.872-7.329,5.872-7.329,6.2-9.993,14.449-27.414,19.757-51.933,1.994-9.755,2.9-26.963-4.893-40.94" transform="translate(-1.538 -1.539)" fill="#367937"/>
          <path id="パス_2297" data-name="パス 2297" d="M140.757,67.256c-3.851-5.525-9.361,2.582-11.167,5.291s-4.933,8.617-8.183,9.7c-5.777,1.083-7.583-1.445-13-6.5-5.958-4.333-11.6,1.865-16.294,7.281-3.99,4.475-11.6,5.742-17.072,5.346-6-.434-12.071-6.183-15.863-13.765-2.839-5.035-5.356-8.351-10-8.419-6.759-.1-9.491,6.265-12.344,12.05-3.317,6.726-4.833,12.7-11.821,12.7-6.463,0-8.4-8.19-11.83-13.064-3.195-8.67-9.919-7.887-9.919-7.887-.323-6.039.017-18.927,6.207-30.028,9.354-16.776,23.515-19.606,27.185-21.379s.988-3.7,1.261-5.808c.68-4.321,4.448-5.159,7.031-5.934C57.926,4.595,74.69,4.618,74.69,4.618c19.419,0,30.337,2.225,30.337,2.225,2.582.775,6.243,2.238,6.922,6.558.272,2.1-2.3,3.411,1.369,5.184s17.831,4.6,27.186,21.379c6.713,12.039,6.278,24.645,5.639,32.491,0,0-2.509-1.07-5.387-5.2" transform="translate(-1.527 -2.218)" fill="#4a864b"/>
          <path id="パス_2298" data-name="パス 2298" d="M142.976,14.5c0,1.589-12.89,2.065-28.792,2.065s-28.792-.55-28.792-2.065,12.89-2.065,28.792-2.065,28.792.589,28.792,2.065" transform="translate(-41.022 -5.974)"/>
        </g>
      </g>
      <g id="グループ_6205" data-name="グループ 6205" transform="translate(1.663 1.665)">
        <g id="グループ_6204" data-name="グループ 6204" clip-path="url(#clip-path-3)">
          <path id="パス_2299" data-name="パス 2299" d="M117.126,107.524c.5-8.958-.56-22.216-12.058-38.232,4.045-6.07,11.134-12.858,16.877-16.123h.018c2.256,0,17.024.249,23.089,6.587a1.11,1.11,0,1,0,1.6-1.535c-6.458-6.749-20.817-7.253-24.28-7.272C119.913,45.7,111.065,35.44,104.241,31.21a22.139,22.139,0,0,0,4.263-1.135,1.11,1.11,0,0,0-.9-2.03c-2.976,1.315-14.718,2.925-29.446,2.695a1.037,1.037,0,0,0-.2-.034l-.764.016-.765-.016a.988.988,0,0,0-.2.034c-14.728.231-26.468-1.38-29.444-2.695a1.11,1.11,0,1,0-.9,2.03,22.128,22.128,0,0,0,4.263,1.135C43.33,35.44,34.482,45.7,32.019,50.947c-3.463.019-17.821.523-24.28,7.272a1.11,1.11,0,0,0,1.6,1.535c6.064-6.338,20.834-6.587,23.089-6.587h.018c5.743,3.265,12.833,10.053,16.877,16.123C37.8,85.35,36.769,98.635,37.271,107.524c-8.475-.971-22.319-.066-29.384,5.089A1.11,1.11,0,1,0,9.2,114.406c6.61-4.822,20.322-5.6,28.188-4.63.527,9.018,8.066,22.157,15.534,31.567-15.07.279-32.256-8.04-37.626-15.977a1.11,1.11,0,1,0-1.838,1.244c5.7,8.432,22.9,16.969,38.655,16.969.981,0,1.958-.036,2.925-.1a71.83,71.83,0,0,0,19.233,3.166,1.079,1.079,0,0,0,.574.183h.023c.8-.017,1.576-.038,2.335-.063.759.024,1.532.046,2.335.063h.024a1.076,1.076,0,0,0,.573-.183,71.827,71.827,0,0,0,19.233-3.166q1.452.1,2.925.1c15.756,0,32.951-8.538,38.655-16.969a1.11,1.11,0,1,0-1.839-1.244c-5.37,7.937-22.553,16.254-37.625,15.977,7.489-9.436,15.049-22.617,15.536-31.567,7.865-.965,21.576-.192,28.186,4.63a1.11,1.11,0,0,0,1.308-1.793c-7.064-5.154-20.908-6.059-29.382-5.089M34.164,51.607C36.94,46.017,47.533,34.26,53.633,31.9a1.092,1.092,0,0,0,.161-.1,148.091,148.091,0,0,0,19.531,1.183c1.259,0,2.556-.017,3.873-.044,1.317.028,2.613.044,3.873.044A148.1,148.1,0,0,0,100.6,31.8a1.066,1.066,0,0,0,.161.1c6.1,2.358,16.693,14.115,19.469,19.7a60.612,60.612,0,0,0-16.9,16.29c-2.555-1.134-10.474-4.03-25.074-4.279a.941.941,0,0,0-.092-.019c-.328,0-.645,0-.966.007s-.638-.007-.966-.007c-.033,0-.061.016-.093.019-14.6.249-22.519,3.145-25.074,4.279a60.611,60.611,0,0,0-16.9-16.29M98.579,141.4c-6.186,1.953-12.194,2.845-21.382,3.143-9.188-.3-15.2-1.19-21.381-3.143-7.864-9.5-16.244-23.663-16.247-32.683-.642-8.674-.107-22.09,11.845-38.529,1.356-.657,9.469-4.221,25.784-4.358,16.319.137,24.433,3.7,25.783,4.358,11.952,16.439,12.487,29.855,11.841,38.611,0,8.939-8.379,23.1-16.243,32.6" transform="translate(-5.233 -15.091)"/>
        </g>
      </g>
      <g id="グループ_6207" data-name="グループ 6207">
        <g id="グループ_6206" data-name="グループ 6206" clip-path="url(#clip-path-2)">
          <path id="パス_2301" data-name="パス 2301" d="M117.722,139.612l-89.13,0c-.709-.036-2.369-.12-7.212-8.129-4.932-7.953-14.1-25.364-19.959-52.443C.26,73.355-2.8,53.582,6.488,36.935c8.437-15.132,20.83-19.526,26.121-21.4.761-.27,1.418-.5,1.853-.692a10.132,10.132,0,0,0,1.115-.55l-.044-.1a7.983,7.983,0,0,1-.81-3.67c.1-4.5,4.348-7.424,8.253-8.233C53.491.112,69.98,0,73.179,0s19.689.111,30.2,2.288c3.905.809,8.154,3.73,8.253,8.233a7.983,7.983,0,0,1-.81,3.67l-.044.1a10.13,10.13,0,0,0,1.115.55c.435.19,1.092.422,1.853.692,5.292,1.876,17.684,6.27,26.121,21.4,9.283,16.647,6.228,36.42,5.07,42.084-5.866,27.1-15.032,44.509-19.973,52.477-4.832,7.994-6.493,8.077-7.2,8.114Zm-88.73-3.33h88.372c.909-.691,3.136-3.837,4.762-6.525,4.839-7.8,13.8-24.834,19.554-51.424,1.1-5.361,4-24.13-4.72-39.777-7.826-14.035-18.97-17.986-24.326-19.885-.855-.3-1.529-.542-2.072-.778-1.587-.692-2.656-1.339-3.079-2.423a3.266,3.266,0,0,1,.293-2.622A4.766,4.766,0,0,0,108.3,10.6c-.056-2.562-2.859-4.478-5.6-5.045C92.509,3.438,76.32,3.331,73.179,3.331S53.848,3.438,43.652,5.55c-2.74.567-5.543,2.483-5.6,5.045a4.773,4.773,0,0,0,.527,2.251,3.266,3.266,0,0,1,.293,2.622c-.423,1.085-1.492,1.731-3.08,2.423-.542.236-1.216.475-2.071.778-5.356,1.9-16.5,5.85-24.326,19.885C.671,54.2,3.581,72.972,4.68,78.352c5.752,26.571,14.712,43.6,19.54,51.389,1.635,2.7,3.863,5.85,4.772,6.541" transform="translate(0 0)"/>
          <path id="パス_2302" data-name="パス 2302" d="M140.8,183.781c-7.965-19.911-30.647-21.564-35.067-21.429-4.42-.135-27.1,1.518-35.067,21.429-2.395,5.987-3.793,15.727-3.024,26.5.479,6.7,3.942,10.345,10.393,12.531,6.021,2.042,19.385,2.518,27.577,2.527h.242c8.193-.009,21.556-.485,27.577-2.527,6.45-2.187,9.914-5.829,10.393-12.531.768-10.769-.63-20.508-3.025-26.5" transform="translate(-32.391 -77.989)" fill="#b7ce50"/>
          <path id="パス_2303" data-name="パス 2303" d="M104.82,225.423c-5.025,0-21.159-.206-28.178-2.586-7.219-2.449-10.657-6.616-11.148-13.511-.733-10.223.428-20.313,3.1-26.991,9.077-22.695,35.889-22.141,36.134-22.129.267.018,26.993-.573,36.071,22.129,2.673,6.677,3.834,16.767,3.1,26.991-.491,6.9-3.928,11.062-11.148,13.511-7.019,2.379-23.153,2.582-27.933,2.586m-.743-62.994c-7.62,0-26.563,3.616-33.41,20.738-2.555,6.38-3.655,16.1-2.949,26,.427,5.95,3.309,9.408,9.638,11.554,6.7,2.27,22.529,2.464,27.218,2.47,4.934-.006,20.765-.2,27.463-2.47,6.328-2.146,9.211-5.6,9.638-11.554.706-9.9-.394-19.622-2.949-26-7.05-17.631-26.857-21-34-20.728-.206-.006-.425-.009-.652-.009" transform="translate(-31.359 -76.961)"/>
          <path id="パス_2304" data-name="パス 2304" d="M140.841,203.08c-.446.761-3.137,4.9-6.3,6.529a56.457,56.457,0,0,0,1.707-12.978c.309-14.609-4.625-25.2-11.928-33.148-10.838-11.8-25.4-13.7-33.472-13.808v0l-.372,0-.372,0v0c-8.076.105-22.634,2.011-33.472,13.808-7.3,7.949-12.236,18.539-11.927,33.148a56.442,56.442,0,0,0,1.706,12.978c-3.159-1.633-5.85-5.768-6.3-6.529-1.334-2.278-6.75.917-3.843,7.154a16.866,16.866,0,0,0,9.565,8.842,21.963,21.963,0,0,0,10.227.826c3.45-.655,3.45-4.59,1.75-6.613-1.958-2.471-3.526-4.68-4.137-11.934-.893-10.6.163-20.045,5.837-28.512,9.355-13.957,24.3-15.6,30.96-15.632,6.663.032,21.606,1.675,30.96,15.632,5.674,8.467,6.73,17.908,5.837,28.512-.611,7.254-2.178,9.463-4.137,11.934-1.7,2.022-1.7,5.958,1.75,6.613a21.963,21.963,0,0,0,10.227-.826,16.864,16.864,0,0,0,9.565-8.842c2.907-6.237-2.509-9.432-3.843-7.154" transform="translate(-17.022 -71.901)" fill="#ddd"/>
          <path id="パス_2305" data-name="パス 2305" d="M51.134,220.294a22.62,22.62,0,0,1-7.371-1.184A18.515,18.515,0,0,1,33.236,209.4c-2.129-4.569-.561-8.366,2.089-9.756a3.416,3.416,0,0,1,4.7,1.057,22.018,22.018,0,0,0,2.263,3.054,63.591,63.591,0,0,1-.776-8.626c-.285-13.524,3.875-25.067,12.366-34.309,10.631-11.572,24.628-14.194,34.546-14.345.05,0,.1-.007.153-.007l.382,0,.36,0c.051,0,.1,0,.153.007,9.918.151,23.914,2.773,34.546,14.345,8.491,9.242,12.651,20.785,12.366,34.309a63.594,63.594,0,0,1-.776,8.626,21.959,21.959,0,0,0,2.262-3.054h0a3.415,3.415,0,0,1,4.7-1.057c2.65,1.389,4.218,5.187,2.089,9.756a18.515,18.515,0,0,1-10.527,9.712,23.529,23.529,0,0,1-11.091.888,4.91,4.91,0,0,1-3.892-3.219,6.439,6.439,0,0,1,1.184-6.1c1.682-2.125,3.161-3.992,3.752-11,.991-11.764-.724-20.227-5.561-27.444-8.631-12.878-22.24-14.859-29.584-14.894-7.329.035-20.938,2.016-29.569,14.894-4.837,7.217-6.552,15.68-5.561,27.444.59,7.011,2.07,8.879,3.782,11.041a6.416,6.416,0,0,1,1.154,6.061,4.913,4.913,0,0,1-3.9,3.221,21.216,21.216,0,0,1-3.715.3m-13.928-17.82a1.713,1.713,0,0,0-1.009.706c-.409.533-1.223,2.068.057,4.813a15.166,15.166,0,0,0,8.6,7.973,20.466,20.466,0,0,0,9.367.762,1.628,1.628,0,0,0,1.384-1.066,3.146,3.146,0,0,0-.6-2.839c-2.265-2.858-3.9-5.429-4.522-12.867-1.058-12.568.827-21.691,6.114-29.578,9.486-14.154,24.331-16.331,32.335-16.37,8.02.038,22.864,2.216,32.35,16.37,5.287,7.888,7.172,17.01,6.114,29.578-.627,7.437-2.257,10.008-4.491,12.829a3.168,3.168,0,0,0-.626,2.877,1.626,1.626,0,0,0,1.381,1.066,20.527,20.527,0,0,0,9.37-.762,15.167,15.167,0,0,0,8.6-7.973c1.28-2.745.466-4.281.057-4.813a1.712,1.712,0,0,0-1.009-.706c-.427.7-3.274,5.2-6.912,7.076a1.665,1.665,0,0,1-2.366-1.935,55.54,55.54,0,0,0,1.643-12.557c.271-12.814-3.488-23.277-11.489-31.986-9.875-10.748-23-13.149-32.268-13.27l-.1,0-.241,0-.263,0-.1,0c-9.27.121-22.393,2.522-32.268,13.27-8,8.709-11.759,19.172-11.489,31.986a55.539,55.539,0,0,0,1.643,12.557,1.665,1.665,0,0,1-2.366,1.935c-3.638-1.881-6.485-6.377-6.912-7.076" transform="translate(-15.489 -70.361)"/>
          <path id="パス_2306" data-name="パス 2306" d="M179.208,225.415a8.786,8.786,0,1,1-8.787-8.787,8.787,8.787,0,0,1,8.787,8.787" transform="translate(-77.648 -104.066)" fill="#fff"/>
          <path id="パス_2307" data-name="パス 2307" d="M178.8,230.411a3.383,3.383,0,1,1-3.383-3.383,3.383,3.383,0,0,1,3.383,3.383" transform="translate(-82.644 -109.062)"/>
          <path id="パス_2308" data-name="パス 2308" d="M136.563,255.983a1.392,1.392,0,1,1-1.393-1.393,1.393,1.393,0,0,1,1.393,1.393" transform="translate(-64.266 -122.303)"/>
          <path id="パス_2309" data-name="パス 2309" d="M146.343,255.983a1.392,1.392,0,1,1-1.393-1.393,1.393,1.393,0,0,1,1.393,1.393" transform="translate(-68.964 -122.303)"/>
          <path id="パス_2310" data-name="パス 2310" d="M113.175,272.628c.052-3.9-3.975-9.208-12.578-9.208a24.012,24.012,0,0,0-15.527,5.6c-3.833,3.293-3.068,7.862,1.537,8.381a148.763,148.763,0,0,0,16.517.646c3.611-.012,9.989-.825,10.05-5.416" transform="translate(-39.688 -126.545)" fill="#b7ce50"/>
          <path id="パス_2311" data-name="パス 2311" d="M101.164,278.132a148.711,148.711,0,0,1-15.712-.655c-2.431-.273-4.17-1.548-4.771-3.5-.688-2.234.322-4.853,2.631-6.838a25.218,25.218,0,0,1,16.255-5.865c4.474,0,8.341,1.419,10.884,3.995a9.093,9.093,0,0,1,2.81,6.343c-.055,4.059-4.228,6.5-11.163,6.516-.315,0-.625,0-.934,0m-1.6-14.627a22.959,22.959,0,0,0-14.8,5.328c-1.627,1.4-2.373,3.116-1.952,4.486a3.078,3.078,0,0,0,2.885,1.94,156.927,156.927,0,0,0,16.391.639c2.082-.009,8.881-.339,8.938-4.316a6.969,6.969,0,0,0-2.17-4.744c-2.118-2.149-5.419-3.334-9.293-3.334" transform="translate(-38.656 -125.514)"/>
          <path id="パス_2312" data-name="パス 2312" d="M100.641,278.171a148.489,148.489,0,0,1-15.76-.658,5.832,5.832,0,0,1-5.234-3.885c-.753-2.444.32-5.284,2.8-7.414a25.787,25.787,0,0,1,16.611-6c4.623,0,8.627,1.478,11.274,4.16a9.647,9.647,0,0,1,2.968,6.735c-.058,4.4-4.436,7.037-11.709,7.06h-.949m-1.584-14.626a22.413,22.413,0,0,0-14.442,5.2c-1.436,1.233-2.138,2.767-1.786,3.908a2.575,2.575,0,0,0,2.424,1.556,152.163,152.163,0,0,0,16.326.635c1.393,0,8.343-.207,8.391-3.774a6.412,6.412,0,0,0-2.009-4.351c-2.017-2.044-5.179-3.169-8.9-3.169" transform="translate(-38.148 -125.005)"/>
          <path id="パス_2313" data-name="パス 2313" d="M141,272.628c-.052-3.9,3.975-9.208,12.578-9.208a24.012,24.012,0,0,1,15.527,5.6c3.833,3.293,3.068,7.862-1.537,8.381a148.765,148.765,0,0,1-16.517.646c-3.611-.012-9.989-.825-10.05-5.416" transform="translate(-67.736 -126.545)" fill="#b7ce50"/>
          <path id="パス_2314" data-name="パス 2314" d="M150.954,278.132c-.309,0-.618,0-.934,0-6.937-.021-11.108-2.458-11.162-6.516a9.087,9.087,0,0,1,2.807-6.34c2.542-2.579,6.407-4,10.884-4a25.2,25.2,0,0,1,16.255,5.868c2.312,1.982,3.319,4.6,2.634,6.834-.6,1.952-2.341,3.228-4.774,3.5a148.647,148.647,0,0,1-15.709.655m1.594-14.627c-3.874,0-7.175,1.185-9.3,3.334a6.969,6.969,0,0,0-2.164,4.744c.055,3.977,6.856,4.307,8.938,4.316a154.656,154.656,0,0,0,16.388-.639,3.083,3.083,0,0,0,2.888-1.94c.421-1.37-.327-3.088-1.955-4.486a22.959,22.959,0,0,0-14.8-5.328" transform="translate(-66.705 -125.514)"/>
          <path id="パス_2315" data-name="パス 2315" d="M150.457,278.171h-.949c-7.273-.023-11.651-2.663-11.709-7.06a9.647,9.647,0,0,1,2.968-6.735c2.647-2.682,6.652-4.16,11.274-4.16a25.787,25.787,0,0,1,16.611,6c2.479,2.129,3.552,4.97,2.8,7.414a5.832,5.832,0,0,1-5.234,3.885,148.5,148.5,0,0,1-15.76.658m-9.33-7.106c.048,3.567,7,3.77,8.391,3.774a151.929,151.929,0,0,0,16.326-.635,2.575,2.575,0,0,0,2.424-1.556c.352-1.141-.35-2.674-1.786-3.908a22.412,22.412,0,0,0-14.441-5.2c-3.725,0-6.887,1.126-8.9,3.169a6.413,6.413,0,0,0-2.009,4.351" transform="translate(-66.197 -125.005)"/>
          <path id="パス_2316" data-name="パス 2316" d="M95.981,214.124a17.275,17.275,0,1,1-17.275-17.275,17.275,17.275,0,0,1,17.275,17.275" transform="translate(-29.511 -94.564)" fill="#fff"/>
          <path id="パス_2317" data-name="パス 2317" d="M95.228,223.351a7.294,7.294,0,1,1-7.294-7.294,7.294,7.294,0,0,1,7.294,7.294" transform="translate(-38.738 -103.792)"/>
          <path id="パス_2318" data-name="パス 2318" d="M6.707,260.227A1.666,1.666,0,0,1,5.23,257.8c1.1-2.122,4.593-10.166,3.56-24.605A6.174,6.174,0,0,1,10.7,227.8c2.717-2.379,7.112-1.553,7.606-1.452a1.665,1.665,0,0,1-.67,3.262c-.837-.167-3.5-.4-4.747.7-.224.2-.907.8-.775,2.643,1.1,15.307-2.725,24.056-3.923,26.373a1.664,1.664,0,0,1-1.48.9" transform="translate(-2.423 -108.63)"/>
          <path id="パス_2319" data-name="パス 2319" d="M30.939,220.891a4.55,4.55,0,1,0,0,9.1H45.721v-9.1Z" transform="translate(-12.677 -106.114)" fill="#d2a700"/>
          <path id="パス_2320" data-name="パス 2320" d="M45.846,230.116H29.4a6.215,6.215,0,1,1,0-12.43H45.846Zm-16.447-9.1a2.885,2.885,0,1,0,0,5.769H42.516v-5.769Z" transform="translate(-11.137 -104.574)"/>
          <path id="パス_2321" data-name="パス 2321" d="M73.652,185.806A23.013,23.013,0,1,0,96.665,208.82a23.04,23.04,0,0,0-23.014-23.014m0,38.8A15.789,15.789,0,1,1,89.44,208.82a15.807,15.807,0,0,1-15.789,15.789" transform="translate(-24.326 -89.259)" fill="#d2a700"/>
          <path id="パス_2322" data-name="パス 2322" d="M72.112,231.958a24.679,24.679,0,1,1,24.679-24.679,24.707,24.707,0,0,1-24.679,24.679m0-46.027a21.348,21.348,0,1,0,21.349,21.348,21.372,21.372,0,0,0-21.349-21.348m0,38.8a17.454,17.454,0,1,1,17.454-17.454,17.474,17.474,0,0,1-17.454,17.454m0-31.578a14.124,14.124,0,1,0,14.124,14.124,14.14,14.14,0,0,0-14.124-14.124" transform="translate(-22.787 -87.72)"/>
        </g>
      </g>
    </g>
    <g id="グループ_8111" data-name="グループ 8111" transform="translate(-6597.167 2799.606)">
      <g id="グループ_6939" data-name="グループ 6939" transform="translate(0 0)" clip-path="url(#clip-path-5)">
        <path id="パス_4234" data-name="パス 4234" d="M22.574,15.669c-7.477,1.911-9.6,4.806-11.008,15.031C10.153,20.475,8.036,17.579.559,15.669,8.03,13.71,10.153,10.8,11.567.559,12.979,10.8,15.1,13.71,22.574,15.669" transform="translate(0.517 0.516)" fill="#d0a500"/>
        <path id="パス_4235" data-name="パス 4235" d="M12.085,32.29a1.073,1.073,0,0,1-1.066-.927C9.659,21.536,7.845,19.025.808,17.228A1.077,1.077,0,0,1,.8,15.144C7.843,13.3,9.659,10.773,11.019.927a1.075,1.075,0,0,1,2.13,0c1.358,9.846,3.173,12.37,10.215,14.217a1.077,1.077,0,0,1-.006,2.084c-7.038,1.8-8.851,4.308-10.209,14.134a1.072,1.072,0,0,1-1.064.927m-7.5-16.116c4.075,1.635,6.174,4.171,7.5,9.224,1.318-5.053,3.417-7.589,7.492-9.224C15.5,14.513,13.4,11.964,12.085,6.9c-1.322,5.062-3.421,7.612-7.5,9.272" transform="translate(0 0)" fill="#040000"/>
      </g>
    </g>
  </g>
</svg>
